<svg width="472" height="97" viewBox="0 0 472 97" fill="none" xmlns="http://www.w3.org/2000/svg">
<mask id="path-1-outside-1_863_65" maskUnits="userSpaceOnUse" x="0" y="0" width="472" height="97" fill="black">
<rect fill="white" width="472" height="97"/>
<path d="M1.33 2.99999H15.63V40.05H30.97V2.99999H45.27V94H30.97V53.05H15.63V94H1.33V2.99999ZM76.5898 95.3C69.5698 95.3 64.1965 93.3067 60.4698 89.32C56.7432 85.3333 54.8798 79.7 54.8798 72.42V24.58C54.8798 17.3 56.7432 11.6667 60.4698 7.68C64.1965 3.69333 69.5698 1.7 76.5898 1.7C83.6098 1.7 88.9832 3.69333 92.7098 7.68C96.4365 11.6667 98.2998 17.3 98.2998 24.58V72.42C98.2998 79.7 96.4365 85.3333 92.7098 89.32C88.9832 93.3067 83.6098 95.3 76.5898 95.3ZM76.5898 82.3C81.5298 82.3 83.9998 79.31 83.9998 73.33V23.67C83.9998 17.69 81.5298 14.7 76.5898 14.7C71.6498 14.7 69.1798 17.69 69.1798 23.67V73.33C69.1798 79.31 71.6498 82.3 76.5898 82.3ZM103.947 2.99999H118.377L127.737 73.59H127.997L137.357 2.99999H150.487L136.707 94H117.727L103.947 2.99999ZM157.355 2.99999H196.355V16H171.655V40.05H191.285V53.05H171.655V81H196.355V94H157.355V2.99999ZM204.582 2.99999H225.772C233.139 2.99999 238.512 4.73333 241.892 8.2C245.272 11.58 246.962 16.8233 246.962 23.93V29.52C246.962 38.9667 243.842 44.9467 237.602 47.46V47.72C241.069 48.76 243.495 50.8833 244.882 54.09C246.355 57.2967 247.092 61.5867 247.092 66.96V82.95C247.092 85.55 247.179 87.6733 247.352 89.32C247.525 90.88 247.959 92.44 248.652 94H234.092C233.572 92.5267 233.225 91.14 233.052 89.84C232.879 88.54 232.792 86.2 232.792 82.82V66.18C232.792 62.02 232.099 59.1167 230.712 57.47C229.412 55.8233 227.115 55 223.822 55H218.882V94H204.582V2.99999ZM224.082 42C226.942 42 229.065 41.2633 230.452 39.79C231.925 38.3167 232.662 35.8467 232.662 32.38V25.36C232.662 22.0667 232.055 19.6833 230.842 18.21C229.715 16.7367 227.895 16 225.382 16H218.882V42H224.082ZM253.38 2.99999H267.16L273.53 72.94H273.79L280.55 2.99999H296.15L302.91 72.94H303.17L309.54 2.99999H321.89L312.66 94H294.85L288.35 32.64H288.09L281.59 94H262.61L253.38 2.99999ZM338.396 2.99999H357.766L372.586 94H358.286L355.686 75.93V76.19H339.436L336.836 94H323.576L338.396 2.99999ZM353.996 63.84L347.626 18.86H347.366L341.126 63.84H353.996ZM379.523 2.99999H400.713C408.08 2.99999 413.453 4.73333 416.833 8.2C420.213 11.58 421.903 16.8233 421.903 23.93V29.52C421.903 38.9667 418.783 44.9467 412.543 47.46V47.72C416.01 48.76 418.437 50.8833 419.823 54.09C421.297 57.2967 422.033 61.5867 422.033 66.96V82.95C422.033 85.55 422.12 87.6733 422.293 89.32C422.467 90.88 422.9 92.44 423.593 94H409.033C408.513 92.5267 408.167 91.14 407.993 89.84C407.82 88.54 407.733 86.2 407.733 82.82V66.18C407.733 62.02 407.04 59.1167 405.653 57.47C404.353 55.8233 402.057 55 398.763 55H393.823V94H379.523V2.99999ZM399.023 42C401.883 42 404.007 41.2633 405.393 39.79C406.867 38.3167 407.603 35.8467 407.603 32.38V25.36C407.603 22.0667 406.997 19.6833 405.783 18.21C404.657 16.7367 402.837 16 400.323 16H393.823V42H399.023ZM429.095 81.26L455.615 16H430.395V2.99999H470.955V15.74L444.435 81H470.955V94H429.095V81.26Z"/>
</mask>
<path d="M1.33 2.99999H15.63V40.05H30.97V2.99999H45.27V94H30.97V53.05H15.63V94H1.33V2.99999ZM76.5898 95.3C69.5698 95.3 64.1965 93.3067 60.4698 89.32C56.7432 85.3333 54.8798 79.7 54.8798 72.42V24.58C54.8798 17.3 56.7432 11.6667 60.4698 7.68C64.1965 3.69333 69.5698 1.7 76.5898 1.7C83.6098 1.7 88.9832 3.69333 92.7098 7.68C96.4365 11.6667 98.2998 17.3 98.2998 24.58V72.42C98.2998 79.7 96.4365 85.3333 92.7098 89.32C88.9832 93.3067 83.6098 95.3 76.5898 95.3ZM76.5898 82.3C81.5298 82.3 83.9998 79.31 83.9998 73.33V23.67C83.9998 17.69 81.5298 14.7 76.5898 14.7C71.6498 14.7 69.1798 17.69 69.1798 23.67V73.33C69.1798 79.31 71.6498 82.3 76.5898 82.3ZM103.947 2.99999H118.377L127.737 73.59H127.997L137.357 2.99999H150.487L136.707 94H117.727L103.947 2.99999ZM157.355 2.99999H196.355V16H171.655V40.05H191.285V53.05H171.655V81H196.355V94H157.355V2.99999ZM204.582 2.99999H225.772C233.139 2.99999 238.512 4.73333 241.892 8.2C245.272 11.58 246.962 16.8233 246.962 23.93V29.52C246.962 38.9667 243.842 44.9467 237.602 47.46V47.72C241.069 48.76 243.495 50.8833 244.882 54.09C246.355 57.2967 247.092 61.5867 247.092 66.96V82.95C247.092 85.55 247.179 87.6733 247.352 89.32C247.525 90.88 247.959 92.44 248.652 94H234.092C233.572 92.5267 233.225 91.14 233.052 89.84C232.879 88.54 232.792 86.2 232.792 82.82V66.18C232.792 62.02 232.099 59.1167 230.712 57.47C229.412 55.8233 227.115 55 223.822 55H218.882V94H204.582V2.99999ZM224.082 42C226.942 42 229.065 41.2633 230.452 39.79C231.925 38.3167 232.662 35.8467 232.662 32.38V25.36C232.662 22.0667 232.055 19.6833 230.842 18.21C229.715 16.7367 227.895 16 225.382 16H218.882V42H224.082ZM253.38 2.99999H267.16L273.53 72.94H273.79L280.55 2.99999H296.15L302.91 72.94H303.17L309.54 2.99999H321.89L312.66 94H294.85L288.35 32.64H288.09L281.59 94H262.61L253.38 2.99999ZM338.396 2.99999H357.766L372.586 94H358.286L355.686 75.93V76.19H339.436L336.836 94H323.576L338.396 2.99999ZM353.996 63.84L347.626 18.86H347.366L341.126 63.84H353.996ZM379.523 2.99999H400.713C408.08 2.99999 413.453 4.73333 416.833 8.2C420.213 11.58 421.903 16.8233 421.903 23.93V29.52C421.903 38.9667 418.783 44.9467 412.543 47.46V47.72C416.01 48.76 418.437 50.8833 419.823 54.09C421.297 57.2967 422.033 61.5867 422.033 66.96V82.95C422.033 85.55 422.12 87.6733 422.293 89.32C422.467 90.88 422.9 92.44 423.593 94H409.033C408.513 92.5267 408.167 91.14 407.993 89.84C407.82 88.54 407.733 86.2 407.733 82.82V66.18C407.733 62.02 407.04 59.1167 405.653 57.47C404.353 55.8233 402.057 55 398.763 55H393.823V94H379.523V2.99999ZM399.023 42C401.883 42 404.007 41.2633 405.393 39.79C406.867 38.3167 407.603 35.8467 407.603 32.38V25.36C407.603 22.0667 406.997 19.6833 405.783 18.21C404.657 16.7367 402.837 16 400.323 16H393.823V42H399.023ZM429.095 81.26L455.615 16H430.395V2.99999H470.955V15.74L444.435 81H470.955V94H429.095V81.26Z" fill="black"/>
<path d="M1.33 2.99999V1.99999H0.33V2.99999H1.33ZM15.63 2.99999H16.63V1.99999H15.63V2.99999ZM15.63 40.05H14.63V41.05H15.63V40.05ZM30.97 40.05V41.05H31.97V40.05H30.97ZM30.97 2.99999V1.99999H29.97V2.99999H30.97ZM45.27 2.99999H46.27V1.99999H45.27V2.99999ZM45.27 94V95H46.27V94H45.27ZM30.97 94H29.97V95H30.97V94ZM30.97 53.05H31.97V52.05H30.97V53.05ZM15.63 53.05V52.05H14.63V53.05H15.63ZM15.63 94V95H16.63V94H15.63ZM1.33 94H0.33V95H1.33V94ZM1.33 2.99999V3.99999H15.63V2.99999V1.99999H1.33V2.99999ZM15.63 2.99999H14.63V40.05H15.63H16.63V2.99999H15.63ZM15.63 40.05V41.05H30.97V40.05V39.05H15.63V40.05ZM30.97 40.05H31.97V2.99999H30.97H29.97V40.05H30.97ZM30.97 2.99999V3.99999H45.27V2.99999V1.99999H30.97V2.99999ZM45.27 2.99999H44.27V94H45.27H46.27V2.99999H45.27ZM45.27 94V93H30.97V94V95H45.27V94ZM30.97 94H31.97V53.05H30.97H29.97V94H30.97ZM30.97 53.05V52.05H15.63V53.05V54.05H30.97V53.05ZM15.63 53.05H14.63V94H15.63H16.63V53.05H15.63ZM15.63 94V93H1.33V94V95H15.63V94ZM1.33 94H2.33V2.99999H1.33H0.33V94H1.33ZM60.4698 89.32L61.2004 88.6371L60.4698 89.32ZM60.4698 7.68L61.2004 8.36288L60.4698 7.68ZM92.7098 7.68L91.9793 8.36288L92.7098 7.68ZM92.7098 89.32L91.9793 88.6371L92.7098 89.32ZM76.5898 95.3V94.3C69.7629 94.3 64.6874 92.3675 61.2004 88.6371L60.4698 89.32L59.7393 90.0029C63.7056 94.2459 69.3768 96.3 76.5898 96.3V95.3ZM60.4698 89.32L61.2004 88.6371C57.6981 84.8905 55.8798 79.533 55.8798 72.42H54.8798H53.8798C53.8798 79.867 55.7883 85.7762 59.7393 90.0029L60.4698 89.32ZM54.8798 72.42H55.8798V24.58H54.8798H53.8798V72.42H54.8798ZM54.8798 24.58H55.8798C55.8798 17.467 57.6981 12.1095 61.2004 8.36288L60.4698 7.68L59.7393 6.99711C55.7883 11.2238 53.8798 17.133 53.8798 24.58H54.8798ZM60.4698 7.68L61.2004 8.36288C64.6874 4.63254 69.7629 2.7 76.5898 2.7V1.7V0.699995C69.3768 0.699995 63.7056 2.75411 59.7393 6.99711L60.4698 7.68ZM76.5898 1.7V2.7C83.4168 2.7 88.4923 4.63254 91.9793 8.36288L92.7098 7.68L93.4404 6.99711C89.4741 2.75411 83.8029 0.699995 76.5898 0.699995V1.7ZM92.7098 7.68L91.9793 8.36288C95.4816 12.1095 97.2998 17.467 97.2998 24.58H98.2998H99.2998C99.2998 17.133 97.3914 11.2238 93.4404 6.99711L92.7098 7.68ZM98.2998 24.58H97.2998V72.42H98.2998H99.2998V24.58H98.2998ZM98.2998 72.42H97.2998C97.2998 79.533 95.4816 84.8905 91.9793 88.6371L92.7098 89.32L93.4404 90.0029C97.3914 85.7762 99.2998 79.867 99.2998 72.42H98.2998ZM92.7098 89.32L91.9793 88.6371C88.4923 92.3675 83.4168 94.3 76.5898 94.3V95.3V96.3C83.8029 96.3 89.4741 94.2459 93.4404 90.0029L92.7098 89.32ZM76.5898 82.3V83.3C79.2697 83.3 81.4434 82.4798 82.9183 80.6944C84.363 78.9455 84.9998 76.4326 84.9998 73.33H83.9998H82.9998C82.9998 76.2074 82.4017 78.1795 81.3764 79.4206C80.3813 80.6252 78.85 81.3 76.5898 81.3V82.3ZM83.9998 73.33H84.9998V23.67H83.9998H82.9998V73.33H83.9998ZM83.9998 23.67H84.9998C84.9998 20.5674 84.363 18.0545 82.9183 16.3056C81.4434 14.5202 79.2697 13.7 76.5898 13.7V14.7V15.7C78.85 15.7 80.3813 16.3748 81.3764 17.5794C82.4017 18.8205 82.9998 20.7926 82.9998 23.67H83.9998ZM76.5898 14.7V13.7C73.91 13.7 71.7363 14.5202 70.2614 16.3056C68.8167 18.0545 68.1798 20.5674 68.1798 23.67H69.1798H70.1798C70.1798 20.7926 70.778 18.8205 71.8033 17.5794C72.7984 16.3748 74.3297 15.7 76.5898 15.7V14.7ZM69.1798 23.67H68.1798V73.33H69.1798H70.1798V23.67H69.1798ZM69.1798 73.33H68.1798C68.1798 76.4326 68.8167 78.9455 70.2614 80.6944C71.7363 82.4798 73.91 83.3 76.5898 83.3V82.3V81.3C74.3297 81.3 72.7984 80.6252 71.8033 79.4206C70.778 78.1795 70.1798 76.2074 70.1798 73.33H69.1798ZM103.947 2.99999V1.99999H102.784L102.958 3.14972L103.947 2.99999ZM118.377 2.99999L119.368 2.86855L119.253 1.99999H118.377V2.99999ZM127.737 73.59L126.745 73.7214L126.861 74.59H127.737V73.59ZM127.997 73.59V74.59H128.873L128.988 73.7214L127.997 73.59ZM137.357 2.99999V1.99999H136.481L136.365 2.86855L137.357 2.99999ZM150.487 2.99999L151.475 3.14972L151.65 1.99999H150.487V2.99999ZM136.707 94V95H137.567L137.695 94.1497L136.707 94ZM117.727 94L116.738 94.1497L116.867 95H117.727V94ZM103.947 2.99999V3.99999H118.377V2.99999V1.99999H103.947V2.99999ZM118.377 2.99999L117.385 3.13144L126.745 73.7214L127.737 73.59L128.728 73.4585L119.368 2.86855L118.377 2.99999ZM127.737 73.59V74.59H127.997V73.59V72.59H127.737V73.59ZM127.997 73.59L128.988 73.7214L138.348 3.13144L137.357 2.99999L136.365 2.86855L127.005 73.4585L127.997 73.59ZM137.357 2.99999V3.99999H150.487V2.99999V1.99999H137.357V2.99999ZM150.487 2.99999L149.498 2.85027L135.718 93.8503L136.707 94L137.695 94.1497L151.475 3.14972L150.487 2.99999ZM136.707 94V93H117.727V94V95H136.707V94ZM117.727 94L118.715 93.8503L104.935 2.85027L103.947 2.99999L102.958 3.14972L116.738 94.1497L117.727 94ZM157.355 2.99999V1.99999H156.355V2.99999H157.355ZM196.355 2.99999H197.355V1.99999H196.355V2.99999ZM196.355 16V17H197.355V16H196.355ZM171.655 16V15H170.655V16H171.655ZM171.655 40.05H170.655V41.05H171.655V40.05ZM191.285 40.05H192.285V39.05H191.285V40.05ZM191.285 53.05V54.05H192.285V53.05H191.285ZM171.655 53.05V52.05H170.655V53.05H171.655ZM171.655 81H170.655V82H171.655V81ZM196.355 81H197.355V80H196.355V81ZM196.355 94V95H197.355V94H196.355ZM157.355 94H156.355V95H157.355V94ZM157.355 2.99999V3.99999H196.355V2.99999V1.99999H157.355V2.99999ZM196.355 2.99999H195.355V16H196.355H197.355V2.99999H196.355ZM196.355 16V15H171.655V16V17H196.355V16ZM171.655 16H170.655V40.05H171.655H172.655V16H171.655ZM171.655 40.05V41.05H191.285V40.05V39.05H171.655V40.05ZM191.285 40.05H190.285V53.05H191.285H192.285V40.05H191.285ZM191.285 53.05V52.05H171.655V53.05V54.05H191.285V53.05ZM171.655 53.05H170.655V81H171.655H172.655V53.05H171.655ZM171.655 81V82H196.355V81V80H171.655V81ZM196.355 81H195.355V94H196.355H197.355V81H196.355ZM196.355 94V93H157.355V94V95H196.355V94ZM157.355 94H158.355V2.99999H157.355H156.355V94H157.355ZM204.582 2.99999V1.99999H203.582V2.99999H204.582ZM241.892 8.2L241.176 8.89815L241.185 8.9071L241.892 8.2ZM237.602 47.46L237.228 46.5324L236.602 46.7847V47.46H237.602ZM237.602 47.72H236.602V48.464L237.315 48.6778L237.602 47.72ZM244.882 54.09L243.964 54.4869L243.969 54.4973L243.973 54.5075L244.882 54.09ZM247.352 89.32L246.357 89.4247L246.358 89.4304L247.352 89.32ZM248.652 94V95H250.191L249.566 93.5939L248.652 94ZM234.092 94L233.149 94.3328L233.384 95H234.092V94ZM230.712 57.47L229.927 58.0896L229.937 58.102L229.947 58.1141L230.712 57.47ZM218.882 55V54H217.882V55H218.882ZM218.882 94V95H219.882V94H218.882ZM204.582 94H203.582V95H204.582V94ZM230.452 39.79L229.745 39.0829L229.734 39.0936L229.724 39.1046L230.452 39.79ZM230.842 18.21L230.048 18.8174L230.059 18.8318L230.07 18.8457L230.842 18.21ZM218.882 16V15H217.882V16H218.882ZM218.882 42H217.882V43H218.882V42ZM204.582 2.99999V3.99999H225.772V2.99999V1.99999H204.582V2.99999ZM225.772 2.99999V3.99999C233.008 3.99999 238.063 5.70518 241.176 8.8981L241.892 8.2L242.608 7.5019C238.961 3.76147 233.27 1.99999 225.772 1.99999V2.99999ZM241.892 8.2L241.185 8.9071C244.303 12.0252 245.962 16.9605 245.962 23.93H246.962H247.962C247.962 16.6861 246.241 11.1348 242.599 7.49289L241.892 8.2ZM246.962 23.93H245.962V29.52H246.962H247.962V23.93H246.962ZM246.962 29.52H245.962C245.962 34.1431 245.197 37.8258 243.735 40.6274C242.285 43.4069 240.127 45.365 237.228 46.5324L237.602 47.46L237.976 48.3876C241.317 47.0417 243.839 44.7531 245.509 41.5526C247.167 38.3742 247.962 34.3436 247.962 29.52H246.962ZM237.602 47.46H236.602V47.72H237.602H238.602V47.46H237.602ZM237.602 47.72L237.315 48.6778C240.51 49.6365 242.699 51.5621 243.964 54.4869L244.882 54.09L245.8 53.6931C244.291 50.2046 241.627 47.8835 237.889 46.7622L237.602 47.72ZM244.882 54.09L243.973 54.5075C245.363 57.5329 246.092 61.6626 246.092 66.96H247.092H248.092C248.092 61.5107 247.347 57.0605 245.791 53.6725L244.882 54.09ZM247.092 66.96H246.092V82.95H247.092H248.092V66.96H247.092ZM247.092 82.95H246.092C246.092 85.5677 246.179 87.7295 246.357 89.4247L247.352 89.32L248.346 89.2153C248.178 87.6172 248.092 85.5323 248.092 82.95H247.092ZM247.352 89.32L246.358 89.4304C246.544 91.1011 247.007 92.7605 247.738 94.4061L248.652 94L249.566 93.5939C248.911 92.1195 248.507 90.6589 248.346 89.2096L247.352 89.32ZM248.652 94V93H234.092V94V95H248.652V94ZM234.092 94L235.035 93.6672C234.534 92.2469 234.206 90.928 234.043 89.7078L233.052 89.84L232.061 89.9722C232.245 91.352 232.61 92.8064 233.149 94.3328L234.092 94ZM233.052 89.84L234.043 89.7078C233.88 88.4819 233.792 86.2035 233.792 82.82H232.792H231.792C231.792 86.1965 231.878 88.5981 232.061 89.9722L233.052 89.84ZM232.792 82.82H233.792V66.18H232.792H231.792V82.82H232.792ZM232.792 66.18H233.792C233.792 61.9738 233.104 58.7581 231.477 56.8259L230.712 57.47L229.947 58.1141C231.093 59.4752 231.792 62.0662 231.792 66.18H232.792ZM230.712 57.47L231.497 56.8503C229.92 54.853 227.246 54 223.822 54V55V56C226.985 56 228.904 56.7937 229.927 58.0896L230.712 57.47ZM223.822 55V54H218.882V55V56H223.822V55ZM218.882 55H217.882V94H218.882H219.882V55H218.882ZM218.882 94V93H204.582V94V95H218.882V94ZM204.582 94H205.582V2.99999H204.582H203.582V94H204.582ZM224.082 42V43C227.101 43 229.537 42.2209 231.18 40.4754L230.452 39.79L229.724 39.1046C228.593 40.3058 226.783 41 224.082 41V42ZM230.452 39.79L231.159 40.4971C232.912 38.7445 233.662 35.9453 233.662 32.38H232.662H231.662C231.662 35.748 230.939 37.8889 229.745 39.0829L230.452 39.79ZM232.662 32.38H233.662V25.36H232.662H231.662V32.38H232.662ZM232.662 25.36H233.662C233.662 21.9873 233.049 19.3168 231.614 17.5743L230.842 18.21L230.07 18.8457C231.062 20.0498 231.662 22.1461 231.662 25.36H232.662ZM230.842 18.21L231.636 17.6026C230.258 15.8006 228.088 15 225.382 15V16V17C227.703 17 229.172 17.6727 230.048 18.8174L230.842 18.21ZM225.382 16V15H218.882V16V17H225.382V16ZM218.882 16H217.882V42H218.882H219.882V16H218.882ZM218.882 42V43H224.082V42V41H218.882V42ZM253.38 2.99999V1.99999H252.273L252.385 3.1009L253.38 2.99999ZM267.16 2.99999L268.156 2.90929L268.073 1.99999H267.16V2.99999ZM273.53 72.94L272.534 73.0307L272.617 73.94H273.53V72.94ZM273.79 72.94V73.94H274.698L274.785 73.0362L273.79 72.94ZM280.55 2.99999V1.99999H279.642L279.554 2.90379L280.55 2.99999ZM296.15 2.99999L297.145 2.90379L297.058 1.99999H296.15V2.99999ZM302.91 72.94L301.914 73.0362L302.002 73.94H302.91V72.94ZM303.17 72.94V73.94H304.083L304.166 73.0307L303.17 72.94ZM309.54 2.99999V1.99999H308.627L308.544 2.90929L309.54 2.99999ZM321.89 2.99999L322.885 3.1009L322.996 1.99999H321.89V2.99999ZM312.66 94V95H313.563L313.655 94.1009L312.66 94ZM294.85 94L293.855 94.1053L293.95 95H294.85V94ZM288.35 32.64L289.344 32.5347L289.249 31.64H288.35V32.64ZM288.09 32.64V31.64H287.19L287.095 32.5347L288.09 32.64ZM281.59 94V95H282.489L282.584 94.1053L281.59 94ZM262.61 94L261.615 94.1009L261.706 95H262.61V94ZM253.38 2.99999V3.99999H267.16V2.99999V1.99999H253.38V2.99999ZM267.16 2.99999L266.164 3.0907L272.534 73.0307L273.53 72.94L274.526 72.8493L268.156 2.90929L267.16 2.99999ZM273.53 72.94V73.94H273.79V72.94V71.94H273.53V72.94ZM273.79 72.94L274.785 73.0362L281.545 3.0962L280.55 2.99999L279.554 2.90379L272.794 72.8438L273.79 72.94ZM280.55 2.99999V3.99999H296.15V2.99999V1.99999H280.55V2.99999ZM296.15 2.99999L295.154 3.0962L301.914 73.0362L302.91 72.94L303.905 72.8438L297.145 2.90379L296.15 2.99999ZM302.91 72.94V73.94H303.17V72.94V71.94H302.91V72.94ZM303.17 72.94L304.166 73.0307L310.536 3.0907L309.54 2.99999L308.544 2.90929L302.174 72.8493L303.17 72.94ZM309.54 2.99999V3.99999H321.89V2.99999V1.99999H309.54V2.99999ZM321.89 2.99999L320.895 2.89908L311.665 93.8991L312.66 94L313.655 94.1009L322.885 3.1009L321.89 2.99999ZM312.66 94V93H294.85V94V95H312.66V94ZM294.85 94L295.844 93.8947L289.344 32.5347L288.35 32.64L287.355 32.7453L293.855 94.1053L294.85 94ZM288.35 32.64V31.64H288.09V32.64V33.64H288.35V32.64ZM288.09 32.64L287.095 32.5347L280.595 93.8947L281.59 94L282.584 94.1053L289.084 32.7453L288.09 32.64ZM281.59 94V93H262.61V94V95H281.59V94ZM262.61 94L263.605 93.8991L254.375 2.89908L253.38 2.99999L252.385 3.1009L261.615 94.1009L262.61 94ZM338.396 2.99999V1.99999H337.545L337.409 2.83925L338.396 2.99999ZM357.766 2.99999L358.753 2.83925L358.616 1.99999H357.766V2.99999ZM372.586 94V95H373.762L373.573 93.8393L372.586 94ZM358.286 94L357.296 94.1424L357.419 95H358.286V94ZM355.686 75.93L356.675 75.7876L354.686 75.93H355.686ZM355.686 76.19V77.19H356.686V76.19H355.686ZM339.436 76.19V75.19H338.571L338.446 76.0455L339.436 76.19ZM336.836 94V95H337.7L337.825 94.1445L336.836 94ZM323.576 94L322.589 93.8393L322.4 95H323.576V94ZM353.996 63.84V64.84H355.147L354.986 63.6998L353.996 63.84ZM347.626 18.86L348.616 18.7198L348.494 17.86H347.626V18.86ZM347.366 18.86V17.86H346.495L346.375 18.7226L347.366 18.86ZM341.126 63.84L340.135 63.7026L339.977 64.84H341.126V63.84ZM338.396 2.99999V3.99999H357.766V2.99999V1.99999H338.396V2.99999ZM357.766 2.99999L356.779 3.16073L371.599 94.1607L372.586 94L373.573 93.8393L358.753 2.83925L357.766 2.99999ZM372.586 94V93H358.286V94V95H372.586V94ZM358.286 94L359.275 93.8576L356.675 75.7876L355.686 75.93L354.696 76.0724L357.296 94.1424L358.286 94ZM355.686 75.93H354.686V76.19H355.686H356.686V75.93H355.686ZM355.686 76.19V75.19H339.436V76.19V77.19H355.686V76.19ZM339.436 76.19L338.446 76.0455L335.846 93.8555L336.836 94L337.825 94.1445L340.425 76.3344L339.436 76.19ZM336.836 94V93H323.576V94V95H336.836V94ZM323.576 94L324.563 94.1607L339.383 3.16073L338.396 2.99999L337.409 2.83925L322.589 93.8393L323.576 94ZM353.996 63.84L354.986 63.6998L348.616 18.7198L347.626 18.86L346.635 19.0002L353.005 63.9802L353.996 63.84ZM347.626 18.86V17.86H347.366V18.86V19.86H347.626V18.86ZM347.366 18.86L346.375 18.7226L340.135 63.7026L341.126 63.84L342.116 63.9774L348.356 18.9974L347.366 18.86ZM341.126 63.84V64.84H353.996V63.84V62.84H341.126V63.84ZM379.523 2.99999V1.99999H378.523V2.99999H379.523ZM416.833 8.2L416.117 8.89815L416.126 8.9071L416.833 8.2ZM412.543 47.46L412.17 46.5324L411.543 46.7847V47.46H412.543ZM412.543 47.72H411.543V48.464L412.256 48.6778L412.543 47.72ZM419.823 54.09L418.906 54.4869L418.91 54.4973L418.915 54.5075L419.823 54.09ZM422.293 89.32L421.299 89.4247L421.299 89.4304L422.293 89.32ZM423.593 94V95H425.132L424.507 93.5939L423.593 94ZM409.033 94L408.09 94.3328L408.326 95H409.033V94ZM405.653 57.47L404.868 58.0896L404.878 58.102L404.888 58.1141L405.653 57.47ZM393.823 55V54H392.823V55H393.823ZM393.823 94V95H394.823V94H393.823ZM379.523 94H378.523V95H379.523V94ZM405.393 39.79L404.686 39.0829L404.676 39.0936L404.665 39.1046L405.393 39.79ZM405.783 18.21L404.989 18.8174L405 18.8318L405.011 18.8457L405.783 18.21ZM393.823 16V15H392.823V16H393.823ZM393.823 42H392.823V43H393.823V42ZM379.523 2.99999V3.99999H400.713V2.99999V1.99999H379.523V2.99999ZM400.713 2.99999V3.99999C407.949 3.99999 413.004 5.70518 416.117 8.8981L416.833 8.2L417.549 7.5019C413.902 3.76147 408.211 1.99999 400.713 1.99999V2.99999ZM416.833 8.2L416.126 8.9071C419.244 12.0252 420.903 16.9605 420.903 23.93H421.903H422.903C422.903 16.6861 421.182 11.1348 417.54 7.49289L416.833 8.2ZM421.903 23.93H420.903V29.52H421.903H422.903V23.93H421.903ZM421.903 29.52H420.903C420.903 34.1431 420.138 37.8258 418.677 40.6274C417.227 43.4069 415.068 45.365 412.17 46.5324L412.543 47.46L412.917 48.3876C416.259 47.0417 418.78 44.7531 420.45 41.5526C422.108 38.3742 422.903 34.3436 422.903 29.52H421.903ZM412.543 47.46H411.543V47.72H412.543H413.543V47.46H412.543ZM412.543 47.72L412.256 48.6778C415.452 49.6365 417.641 51.5621 418.906 54.4869L419.823 54.09L420.741 53.6931C419.233 50.2046 416.568 47.8835 412.831 46.7622L412.543 47.72ZM419.823 54.09L418.915 54.5075C420.305 57.5329 421.033 61.6626 421.033 66.96H422.033H423.033C423.033 61.5107 422.289 57.0605 420.732 53.6725L419.823 54.09ZM422.033 66.96H421.033V82.95H422.033H423.033V66.96H422.033ZM422.033 82.95H421.033C421.033 85.5677 421.12 87.7295 421.299 89.4247L422.293 89.32L423.288 89.2153C423.12 87.6172 423.033 85.5323 423.033 82.95H422.033ZM422.293 89.32L421.299 89.4304C421.485 91.1011 421.948 92.7605 422.68 94.4061L423.593 94L424.507 93.5939C423.852 92.1195 423.448 90.6589 423.287 89.2096L422.293 89.32ZM423.593 94V93H409.033V94V95H423.593V94ZM409.033 94L409.976 93.6672C409.475 92.2469 409.147 90.928 408.985 89.7078L407.993 89.84L407.002 89.9722C407.186 91.352 407.552 92.8064 408.09 94.3328L409.033 94ZM407.993 89.84L408.985 89.7078C408.821 88.4819 408.733 86.2035 408.733 82.82H407.733H406.733C406.733 86.1965 406.819 88.5981 407.002 89.9722L407.993 89.84ZM407.733 82.82H408.733V66.18H407.733H406.733V82.82H407.733ZM407.733 66.18H408.733C408.733 61.9738 408.045 58.7581 406.418 56.8259L405.653 57.47L404.888 58.1141C406.035 59.4752 406.733 62.0662 406.733 66.18H407.733ZM405.653 57.47L406.438 56.8503C404.861 54.853 402.187 54 398.763 54V55V56C401.926 56 403.845 56.7937 404.868 58.0896L405.653 57.47ZM398.763 55V54H393.823V55V56H398.763V55ZM393.823 55H392.823V94H393.823H394.823V55H393.823ZM393.823 94V93H379.523V94V95H393.823V94ZM379.523 94H380.523V2.99999H379.523H378.523V94H379.523ZM399.023 42V43C402.043 43 404.479 42.2209 406.122 40.4754L405.393 39.79L404.665 39.1046C403.535 40.3058 401.724 41 399.023 41V42ZM405.393 39.79L406.1 40.4971C407.853 38.7445 408.603 35.9453 408.603 32.38H407.603H406.603C406.603 35.748 405.88 37.8889 404.686 39.0829L405.393 39.79ZM407.603 32.38H408.603V25.36H407.603H406.603V32.38H407.603ZM407.603 25.36H408.603C408.603 21.9873 407.99 19.3168 406.555 17.5743L405.783 18.21L405.011 18.8457C406.003 20.0498 406.603 22.1461 406.603 25.36H407.603ZM405.783 18.21L406.578 17.6026C405.2 15.8006 403.029 15 400.323 15V16V17C402.644 17 404.114 17.6727 404.989 18.8174L405.783 18.21ZM400.323 16V15H393.823V16V17H400.323V16ZM393.823 16H392.823V42H393.823H394.823V16H393.823ZM393.823 42V43H399.023V42V41H393.823V42ZM429.095 81.26L428.169 80.8835L428.095 81.0646V81.26H429.095ZM455.615 16L456.541 16.3765L457.101 15H455.615V16ZM430.395 16H429.395V17H430.395V16ZM430.395 2.99999V1.99999H429.395V2.99999H430.395ZM470.955 2.99999H471.955V1.99999H470.955V2.99999ZM470.955 15.74L471.881 16.1165L471.955 15.9354V15.74H470.955ZM444.435 81L443.509 80.6235L442.949 82H444.435V81ZM470.955 81H471.955V80H470.955V81ZM470.955 94V95H471.955V94H470.955ZM429.095 94H428.095V95H429.095V94ZM429.095 81.26L430.021 81.6365L456.541 16.3765L455.615 16L454.689 15.6235L428.169 80.8835L429.095 81.26ZM455.615 16V15H430.395V16V17H455.615V16ZM430.395 16H431.395V2.99999H430.395H429.395V16H430.395ZM430.395 2.99999V3.99999H470.955V2.99999V1.99999H430.395V2.99999ZM470.955 2.99999H469.955V15.74H470.955H471.955V2.99999H470.955ZM470.955 15.74L470.029 15.3635L443.509 80.6235L444.435 81L445.361 81.3765L471.881 16.1165L470.955 15.74ZM444.435 81V82H470.955V81V80H444.435V81ZM470.955 81H469.955V94H470.955H471.955V81H470.955ZM470.955 94V93H429.095V94V95H470.955V94ZM429.095 94H430.095V81.26H429.095H428.095V94H429.095Z" fill="black" mask="url(#path-1-outside-1_863_65)"/>
</svg>
