<svg width="29" height="29" viewBox="0 0 29 29" fill="none" xmlns="http://www.w3.org/2000/svg">
<path d="M21.1457 7.85449H21.1578M8.45817 2.41699H20.5415C23.8782 2.41699 26.5832 5.12194 26.5832 8.45866V20.542C26.5832 23.8787 23.8782 26.5837 20.5415 26.5837H8.45817C5.12145 26.5837 2.4165 23.8787 2.4165 20.542V8.45866C2.4165 5.12194 5.12145 2.41699 8.45817 2.41699ZM19.3332 13.7391C19.4823 14.7447 19.3105 15.7718 18.8423 16.6741C18.3741 17.5765 17.6332 18.3083 16.7251 18.7653C15.817 19.2224 14.788 19.3815 13.7842 19.22C12.7805 19.0585 11.8533 18.5846 11.1344 17.8657C10.4156 17.1469 9.94168 16.2196 9.78017 15.2159C9.61866 14.2122 9.77775 13.1831 10.2348 12.275C10.6919 11.3669 11.4236 10.6261 12.326 10.1579C13.2284 9.68964 14.2555 9.51787 15.2611 9.66699C16.2869 9.8191 17.2365 10.2971 17.9698 11.0304C18.7031 11.7636 19.1811 12.7133 19.3332 13.7391Z" stroke="white" stroke-width="2" stroke-linecap="round" stroke-linejoin="round"/>
</svg>
