<svg width="1217" height="160" viewBox="0 0 1217 160" fill="none" xmlns="http://www.w3.org/2000/svg">
<rect width="1217" height="160" rx="20" fill="white"/>
<path d="M43.27 24.2338V45.1738H39.07V24.2338H43.27ZM54.6496 45.3838C53.1896 45.3838 51.8696 45.1338 50.6896 44.6338C49.5296 44.1338 48.6096 43.4138 47.9296 42.4738C47.2496 41.5338 46.8996 40.4238 46.8796 39.1438H51.3796C51.4396 40.0038 51.7396 40.6838 52.2796 41.1838C52.8396 41.6838 53.5996 41.9338 54.5596 41.9338C55.5396 41.9338 56.3096 41.7038 56.8696 41.2438C57.4296 40.7638 57.7096 40.1438 57.7096 39.3838C57.7096 38.7638 57.5196 38.2538 57.1396 37.8538C56.7596 37.4538 56.2796 37.1438 55.6996 36.9238C55.1396 36.6838 54.3596 36.4238 53.3596 36.1438C51.9996 35.7438 50.8896 35.3538 50.0296 34.9738C49.1896 34.5738 48.4596 33.9838 47.8396 33.2038C47.2396 32.4038 46.9396 31.3438 46.9396 30.0238C46.9396 28.7838 47.2496 27.7038 47.8696 26.7838C48.4896 25.8638 49.3596 25.1638 50.4796 24.6838C51.5996 24.1838 52.8796 23.9338 54.3196 23.9338C56.4796 23.9338 58.2296 24.4638 59.5696 25.5238C60.9296 26.5638 61.6796 28.0238 61.8196 29.9038H57.1996C57.1596 29.1838 56.8496 28.5938 56.2696 28.1338C55.7096 27.6538 54.9596 27.4138 54.0196 27.4138C53.1996 27.4138 52.5396 27.6238 52.0396 28.0438C51.5596 28.4638 51.3196 29.0738 51.3196 29.8738C51.3196 30.4338 51.4996 30.9038 51.8596 31.2838C52.2396 31.6438 52.6996 31.9438 53.2396 32.1838C53.7996 32.4038 54.5796 32.6638 55.5796 32.9638C56.9396 33.3638 58.0496 33.7638 58.9096 34.1638C59.7696 34.5638 60.5096 35.1638 61.1296 35.9638C61.7496 36.7638 62.0596 37.8138 62.0596 39.1138C62.0596 40.2338 61.7696 41.2738 61.1896 42.2338C60.6096 43.1938 59.7596 43.9638 58.6396 44.5438C57.5196 45.1038 56.1896 45.3838 54.6496 45.3838ZM76.5009 45.1738L71.8809 37.0138H69.9009V45.1738H65.7009V24.2338H73.5609C75.1809 24.2338 76.5609 24.5238 77.7009 25.1038C78.8409 25.6638 79.6909 26.4338 80.2509 27.4138C80.8309 28.3738 81.1209 29.4538 81.1209 30.6538C81.1209 32.0338 80.7209 33.2838 79.9209 34.4038C79.1209 35.5038 77.9309 36.2638 76.3509 36.6838L81.3609 45.1738H76.5009ZM69.9009 33.8638H73.4109C74.5509 33.8638 75.4009 33.5938 75.9609 33.0538C76.5209 32.4938 76.8009 31.7238 76.8009 30.7438C76.8009 29.7838 76.5209 29.0438 75.9609 28.5238C75.4009 27.9838 74.5509 27.7138 73.4109 27.7138H69.9009V33.8638ZM94.6396 45.3838C92.6796 45.3838 90.8796 44.9238 89.2396 44.0038C87.5996 43.0838 86.2996 41.8138 85.3396 40.1938C84.3796 38.5538 83.8996 36.7038 83.8996 34.6438C83.8996 32.6038 84.3796 30.7738 85.3396 29.1538C86.2996 27.5138 87.5996 26.2338 89.2396 25.3138C90.8796 24.3938 92.6796 23.9338 94.6396 23.9338C96.6196 23.9338 98.4196 24.3938 100.04 25.3138C101.68 26.2338 102.97 27.5138 103.91 29.1538C104.87 30.7738 105.35 32.6038 105.35 34.6438C105.35 36.7038 104.87 38.5538 103.91 40.1938C102.97 41.8138 101.68 43.0838 100.04 44.0038C98.3996 44.9238 96.5996 45.3838 94.6396 45.3838ZM94.6396 41.6338C95.8996 41.6338 97.0096 41.3538 97.9696 40.7938C98.9296 40.2138 99.6796 39.3938 100.22 38.3338C100.76 37.2738 101.03 36.0438 101.03 34.6438C101.03 33.2438 100.76 32.0238 100.22 30.9838C99.6796 29.9238 98.9296 29.1138 97.9696 28.5538C97.0096 27.9938 95.8996 27.7138 94.6396 27.7138C93.3796 27.7138 92.2596 27.9938 91.2796 28.5538C90.3196 29.1138 89.5696 29.9238 89.0296 30.9838C88.4896 32.0238 88.2196 33.2438 88.2196 34.6438C88.2196 36.0438 88.4896 37.2738 89.0296 38.3338C89.5696 39.3938 90.3196 40.2138 91.2796 40.7938C92.2596 41.3538 93.3796 41.6338 94.6396 41.6338ZM126.423 45.1738L121.803 37.0138H119.823V45.1738H115.623V24.2338H123.483C125.103 24.2338 126.483 24.5238 127.623 25.1038C128.763 25.6638 129.613 26.4338 130.173 27.4138C130.753 28.3738 131.043 29.4538 131.043 30.6538C131.043 32.0338 130.643 33.2838 129.843 34.4038C129.043 35.5038 127.853 36.2638 126.273 36.6838L131.283 45.1738H126.423ZM119.823 33.8638H123.333C124.473 33.8638 125.323 33.5938 125.883 33.0538C126.443 32.4938 126.723 31.7238 126.723 30.7438C126.723 29.7838 126.443 29.0438 125.883 28.5238C125.323 27.9838 124.473 27.7138 123.333 27.7138H119.823V33.8638ZM142.221 45.4438C140.621 45.4438 139.181 45.0938 137.901 44.3938C136.621 43.6738 135.611 42.6638 134.871 41.3638C134.151 40.0638 133.791 38.5638 133.791 36.8638C133.791 35.1638 134.161 33.6638 134.901 32.3638C135.661 31.0638 136.691 30.0638 137.991 29.3638C139.291 28.6438 140.741 28.2838 142.341 28.2838C143.941 28.2838 145.391 28.6438 146.691 29.3638C147.991 30.0638 149.011 31.0638 149.751 32.3638C150.511 33.6638 150.891 35.1638 150.891 36.8638C150.891 38.5638 150.501 40.0638 149.721 41.3638C148.961 42.6638 147.921 43.6738 146.601 44.3938C145.301 45.0938 143.841 45.4438 142.221 45.4438ZM142.221 41.7838C142.981 41.7838 143.691 41.6038 144.351 41.2438C145.031 40.8638 145.571 40.3038 145.971 39.5638C146.371 38.8238 146.571 37.9238 146.571 36.8638C146.571 35.2838 146.151 34.0738 145.311 33.2338C144.491 32.3738 143.481 31.9438 142.281 31.9438C141.081 31.9438 140.071 32.3738 139.251 33.2338C138.451 34.0738 138.051 35.2838 138.051 36.8638C138.051 38.4438 138.441 39.6638 139.221 40.5238C140.021 41.3638 141.021 41.7838 142.221 41.7838ZM158.172 30.9838C158.712 30.1838 159.452 29.5338 160.392 29.0338C161.352 28.5338 162.442 28.2838 163.662 28.2838C165.082 28.2838 166.362 28.6338 167.502 29.3338C168.662 30.0338 169.572 31.0338 170.232 32.3338C170.912 33.6138 171.252 35.1038 171.252 36.8038C171.252 38.5038 170.912 40.0138 170.232 41.3338C169.572 42.6338 168.662 43.6438 167.502 44.3638C166.362 45.0838 165.082 45.4438 163.662 45.4438C162.422 45.4438 161.332 45.2038 160.392 44.7238C159.472 44.2238 158.732 43.5838 158.172 42.8038V45.1738H153.972V22.9738H158.172V30.9838ZM166.962 36.8038C166.962 35.8038 166.752 34.9438 166.332 34.2238C165.932 33.4838 165.392 32.9238 164.712 32.5438C164.052 32.1638 163.332 31.9738 162.552 31.9738C161.792 31.9738 161.072 32.1738 160.392 32.5738C159.732 32.9538 159.192 33.5138 158.772 34.2538C158.372 34.9938 158.172 35.8638 158.172 36.8638C158.172 37.8638 158.372 38.7338 158.772 39.4738C159.192 40.2138 159.732 40.7838 160.392 41.1838C161.072 41.5638 161.792 41.7538 162.552 41.7538C163.332 41.7538 164.052 41.5538 164.712 41.1538C165.392 40.7538 165.932 40.1838 166.332 39.4438C166.752 38.7038 166.962 37.8238 166.962 36.8038ZM181.684 45.4438C180.084 45.4438 178.644 45.0938 177.364 44.3938C176.084 43.6738 175.074 42.6638 174.334 41.3638C173.614 40.0638 173.254 38.5638 173.254 36.8638C173.254 35.1638 173.624 33.6638 174.364 32.3638C175.124 31.0638 176.154 30.0638 177.454 29.3638C178.754 28.6438 180.204 28.2838 181.804 28.2838C183.404 28.2838 184.854 28.6438 186.154 29.3638C187.454 30.0638 188.474 31.0638 189.214 32.3638C189.974 33.6638 190.354 35.1638 190.354 36.8638C190.354 38.5638 189.964 40.0638 189.184 41.3638C188.424 42.6638 187.384 43.6738 186.064 44.3938C184.764 45.0938 183.304 45.4438 181.684 45.4438ZM181.684 41.7838C182.444 41.7838 183.154 41.6038 183.814 41.2438C184.494 40.8638 185.034 40.3038 185.434 39.5638C185.834 38.8238 186.034 37.9238 186.034 36.8638C186.034 35.2838 185.614 34.0738 184.774 33.2338C183.954 32.3738 182.944 31.9438 181.744 31.9438C180.544 31.9438 179.534 32.3738 178.714 33.2338C177.914 34.0738 177.514 35.2838 177.514 36.8638C177.514 38.4438 177.904 39.6638 178.684 40.5238C179.484 41.3638 180.484 41.7838 181.684 41.7838ZM198.325 32.0038V40.0438C198.325 40.6038 198.455 41.0138 198.715 41.2738C198.995 41.5138 199.455 41.6338 200.095 41.6338H202.045V45.1738H199.405C195.865 45.1738 194.095 43.4538 194.095 40.0138V32.0038H192.115V28.5538H194.095V24.4438H198.325V28.5538H202.045V32.0038H198.325ZM207.196 26.5738C206.456 26.5738 205.836 26.3438 205.336 25.8838C204.856 25.4038 204.616 24.8138 204.616 24.1138C204.616 23.4138 204.856 22.8338 205.336 22.3738C205.836 21.8938 206.456 21.6538 207.196 21.6538C207.936 21.6538 208.546 21.8938 209.026 22.3738C209.526 22.8338 209.776 23.4138 209.776 24.1138C209.776 24.8138 209.526 25.4038 209.026 25.8838C208.546 26.3438 207.936 26.5738 207.196 26.5738ZM209.266 28.5538V45.1738H205.066V28.5538H209.266ZM212.336 36.8638C212.336 35.1438 212.686 33.6438 213.386 32.3638C214.086 31.0638 215.056 30.0638 216.296 29.3638C217.536 28.6438 218.956 28.2838 220.556 28.2838C222.616 28.2838 224.316 28.8038 225.656 29.8438C227.016 30.8638 227.926 32.3038 228.386 34.1638H223.856C223.616 33.4438 223.206 32.8838 222.626 32.4838C222.066 32.0638 221.366 31.8538 220.526 31.8538C219.326 31.8538 218.376 32.2938 217.676 33.1738C216.976 34.0338 216.626 35.2638 216.626 36.8638C216.626 38.4438 216.976 39.6738 217.676 40.5538C218.376 41.4138 219.326 41.8438 220.526 41.8438C222.226 41.8438 223.336 41.0838 223.856 39.5638H228.386C227.926 41.3638 227.016 42.7938 225.656 43.8538C224.296 44.9138 222.596 45.4438 220.556 45.4438C218.956 45.4438 217.536 45.0938 216.296 44.3938C215.056 43.6738 214.086 42.6738 213.386 41.3938C212.686 40.0938 212.336 38.5838 212.336 36.8638ZM237.591 34.6738C237.591 32.6138 238.051 30.7738 238.971 29.1538C239.911 27.5138 241.181 26.2438 242.781 25.3438C244.401 24.4238 246.211 23.9638 248.211 23.9638C250.551 23.9638 252.601 24.5638 254.361 25.7638C256.121 26.9638 257.351 28.6238 258.051 30.7438H253.221C252.741 29.7438 252.061 28.9938 251.181 28.4938C250.321 27.9938 249.321 27.7438 248.181 27.7438C246.961 27.7438 245.871 28.0338 244.911 28.6138C243.971 29.1738 243.231 29.9738 242.691 31.0138C242.171 32.0538 241.911 33.2738 241.911 34.6738C241.911 36.0538 242.171 37.2738 242.691 38.3338C243.231 39.3738 243.971 40.1838 244.911 40.7638C245.871 41.3238 246.961 41.6038 248.181 41.6038C249.321 41.6038 250.321 41.3538 251.181 40.8538C252.061 40.3338 252.741 39.5738 253.221 38.5738H258.051C257.351 40.7138 256.121 42.3838 254.361 43.5838C252.621 44.7638 250.571 45.3538 248.211 45.3538C246.211 45.3538 244.401 44.9038 242.781 44.0038C241.181 43.0838 239.911 41.8138 238.971 40.1938C238.051 38.5738 237.591 36.7338 237.591 34.6738ZM270.998 28.3138C272.258 28.3138 273.378 28.5938 274.358 29.1538C275.338 29.6938 276.098 30.5038 276.638 31.5838C277.198 32.6438 277.478 33.9238 277.478 35.4238V45.1738H273.278V35.9938C273.278 34.6738 272.948 33.6638 272.288 32.9638C271.628 32.2438 270.728 31.8838 269.588 31.8838C268.428 31.8838 267.508 32.2438 266.828 32.9638C266.168 33.6638 265.838 34.6738 265.838 35.9938V45.1738H261.638V22.9738H265.838V30.6238C266.378 29.9038 267.098 29.3438 267.998 28.9438C268.898 28.5238 269.898 28.3138 270.998 28.3138ZM280.392 36.8038C280.392 35.1238 280.722 33.6338 281.382 32.3338C282.062 31.0338 282.972 30.0338 284.112 29.3338C285.272 28.6338 286.562 28.2838 287.982 28.2838C289.222 28.2838 290.302 28.5338 291.222 29.0338C292.162 29.5338 292.912 30.1638 293.472 30.9238V28.5538H297.702V45.1738H293.472V42.7438C292.932 43.5238 292.182 44.1738 291.222 44.6938C290.282 45.1938 289.192 45.4438 287.952 45.4438C286.552 45.4438 285.272 45.0838 284.112 44.3638C282.972 43.6438 282.062 42.6338 281.382 41.3338C280.722 40.0138 280.392 38.5038 280.392 36.8038ZM293.472 36.8638C293.472 35.8438 293.272 34.9738 292.872 34.2538C292.472 33.5138 291.932 32.9538 291.252 32.5738C290.572 32.1738 289.842 31.9738 289.062 31.9738C288.282 31.9738 287.562 32.1638 286.902 32.5438C286.242 32.9238 285.702 33.4838 285.282 34.2238C284.882 34.9438 284.682 35.8038 284.682 36.8038C284.682 37.8038 284.882 38.6838 285.282 39.4438C285.702 40.1838 286.242 40.7538 286.902 41.1538C287.582 41.5538 288.302 41.7538 289.062 41.7538C289.842 41.7538 290.572 41.5638 291.252 41.1838C291.932 40.7838 292.472 40.2238 292.872 39.5038C293.272 38.7638 293.472 37.8838 293.472 36.8638ZM306.004 22.9738V45.1738H301.804V22.9738H306.004ZM314.354 22.9738V45.1738H310.154V22.9738H314.354ZM333.954 36.5038C333.954 37.1038 333.914 37.6438 333.834 38.1238H321.684C321.784 39.3238 322.204 40.2638 322.944 40.9438C323.684 41.6238 324.594 41.9638 325.674 41.9638C327.234 41.9638 328.344 41.2938 329.004 39.9538H333.534C333.054 41.5538 332.134 42.8738 330.774 43.9138C329.414 44.9338 327.744 45.4438 325.764 45.4438C324.164 45.4438 322.724 45.0938 321.444 44.3938C320.184 43.6738 319.194 42.6638 318.474 41.3638C317.774 40.0638 317.424 38.5638 317.424 36.8638C317.424 35.1438 317.774 33.6338 318.474 32.3338C319.174 31.0338 320.154 30.0338 321.414 29.3338C322.674 28.6338 324.124 28.2838 325.764 28.2838C327.344 28.2838 328.754 28.6238 329.994 29.3038C331.254 29.9838 332.224 30.9538 332.904 32.2138C333.604 33.4538 333.954 34.8838 333.954 36.5038ZM329.604 35.3038C329.584 34.2238 329.194 33.3638 328.434 32.7238C327.674 32.0638 326.744 31.7338 325.644 31.7338C324.604 31.7338 323.724 32.0538 323.004 32.6938C322.304 33.3138 321.874 34.1838 321.714 35.3038H329.604ZM346.229 28.3138C348.209 28.3138 349.809 28.9438 351.029 30.2038C352.249 31.4438 352.859 33.1838 352.859 35.4238V45.1738H348.659V35.9938C348.659 34.6738 348.329 33.6638 347.669 32.9638C347.009 32.2438 346.109 31.8838 344.969 31.8838C343.809 31.8838 342.889 32.2438 342.209 32.9638C341.549 33.6638 341.219 34.6738 341.219 35.9938V45.1738H337.019V28.5538H341.219V30.6238C341.779 29.9038 342.489 29.3438 343.349 28.9438C344.229 28.5238 345.189 28.3138 346.229 28.3138ZM363.363 28.2838C364.603 28.2838 365.693 28.5338 366.633 29.0338C367.573 29.5138 368.313 30.1438 368.853 30.9238V28.5538H373.083V45.2938C373.083 46.8338 372.773 48.2038 372.153 49.4038C371.533 50.6238 370.603 51.5838 369.363 52.2838C368.123 53.0038 366.623 53.3638 364.863 53.3638C362.503 53.3638 360.563 52.8138 359.043 51.7138C357.543 50.6138 356.693 49.1138 356.493 47.2138H360.663C360.883 47.9738 361.353 48.5738 362.073 49.0138C362.813 49.4738 363.703 49.7038 364.743 49.7038C365.963 49.7038 366.953 49.3338 367.713 48.5938C368.473 47.8738 368.853 46.7738 368.853 45.2938V42.7138C368.313 43.4938 367.563 44.1438 366.603 44.6638C365.663 45.1838 364.583 45.4438 363.363 45.4438C361.963 45.4438 360.683 45.0838 359.523 44.3638C358.363 43.6438 357.443 42.6338 356.763 41.3338C356.103 40.0138 355.773 38.5038 355.773 36.8038C355.773 35.1238 356.103 33.6338 356.763 32.3338C357.443 31.0338 358.353 30.0338 359.493 29.3338C360.653 28.6338 361.943 28.2838 363.363 28.2838ZM368.853 36.8638C368.853 35.8438 368.653 34.9738 368.253 34.2538C367.853 33.5138 367.313 32.9538 366.633 32.5738C365.953 32.1738 365.223 31.9738 364.443 31.9738C363.663 31.9738 362.943 32.1638 362.283 32.5438C361.623 32.9238 361.083 33.4838 360.663 34.2238C360.263 34.9438 360.063 35.8038 360.063 36.8038C360.063 37.8038 360.263 38.6838 360.663 39.4438C361.083 40.1838 361.623 40.7538 362.283 41.1538C362.963 41.5538 363.683 41.7538 364.443 41.7538C365.223 41.7538 365.953 41.5638 366.633 41.1838C367.313 40.7838 367.853 40.2238 368.253 39.5038C368.653 38.7638 368.853 37.8838 368.853 36.8638ZM392.635 36.5038C392.635 37.1038 392.595 37.6438 392.515 38.1238H380.365C380.465 39.3238 380.885 40.2638 381.625 40.9438C382.365 41.6238 383.275 41.9638 384.355 41.9638C385.915 41.9638 387.025 41.2938 387.685 39.9538H392.215C391.735 41.5538 390.815 42.8738 389.455 43.9138C388.095 44.9338 386.425 45.4438 384.445 45.4438C382.845 45.4438 381.405 45.0938 380.125 44.3938C378.865 43.6738 377.875 42.6638 377.155 41.3638C376.455 40.0638 376.105 38.5638 376.105 36.8638C376.105 35.1438 376.455 33.6338 377.155 32.3338C377.855 31.0338 378.835 30.0338 380.095 29.3338C381.355 28.6338 382.805 28.2838 384.445 28.2838C386.025 28.2838 387.435 28.6238 388.675 29.3038C389.935 29.9838 390.905 30.9538 391.585 32.2138C392.285 33.4538 392.635 34.8838 392.635 36.5038ZM388.285 35.3038C388.265 34.2238 387.875 33.3638 387.115 32.7238C386.355 32.0638 385.425 31.7338 384.325 31.7338C383.285 31.7338 382.405 32.0538 381.685 32.6938C380.985 33.3138 380.555 34.1838 380.395 35.3038H388.285ZM410.109 51.0838C408.169 49.2038 406.659 46.8038 405.579 43.8838C404.519 40.9638 403.989 37.8338 403.989 34.4938C403.989 31.0738 404.549 27.8638 405.669 24.8638C406.789 21.8438 408.419 19.3738 410.559 17.4538H414.789V17.8438C412.589 19.9438 410.909 22.4638 409.749 25.4038C408.609 28.3438 408.039 31.3738 408.039 34.4938C408.039 37.5338 408.579 40.4738 409.659 43.3138C410.759 46.1338 412.319 48.5838 414.339 50.6638V51.0838H410.109ZM421.61 24.2338V45.1738H417.41V24.2338H421.61ZM436.559 45.1738L431.939 37.0138H429.959V45.1738H425.759V24.2338H433.619C435.239 24.2338 436.619 24.5238 437.759 25.1038C438.899 25.6638 439.749 26.4338 440.309 27.4138C440.889 28.3738 441.179 29.4538 441.179 30.6538C441.179 32.0338 440.779 33.2838 439.979 34.4038C439.179 35.5038 437.989 36.2638 436.409 36.6838L441.419 45.1738H436.559ZM429.959 33.8638H433.469C434.609 33.8638 435.459 33.5938 436.019 33.0538C436.579 32.4938 436.859 31.7238 436.859 30.7438C436.859 29.7838 436.579 29.0438 436.019 28.5238C435.459 27.9838 434.609 27.7138 433.469 27.7138H429.959V33.8638ZM452.358 45.4438C450.758 45.4438 449.318 45.0938 448.038 44.3938C446.758 43.6738 445.748 42.6638 445.008 41.3638C444.288 40.0638 443.928 38.5638 443.928 36.8638C443.928 35.1638 444.298 33.6638 445.038 32.3638C445.798 31.0638 446.828 30.0638 448.128 29.3638C449.428 28.6438 450.878 28.2838 452.478 28.2838C454.078 28.2838 455.528 28.6438 456.828 29.3638C458.128 30.0638 459.148 31.0638 459.888 32.3638C460.648 33.6638 461.028 35.1638 461.028 36.8638C461.028 38.5638 460.638 40.0638 459.858 41.3638C459.098 42.6638 458.058 43.6738 456.738 44.3938C455.438 45.0938 453.978 45.4438 452.358 45.4438ZM452.358 41.7838C453.118 41.7838 453.828 41.6038 454.488 41.2438C455.168 40.8638 455.708 40.3038 456.108 39.5638C456.508 38.8238 456.708 37.9238 456.708 36.8638C456.708 35.2838 456.288 34.0738 455.448 33.2338C454.628 32.3738 453.618 31.9438 452.418 31.9438C451.218 31.9438 450.208 32.3738 449.388 33.2338C448.588 34.0738 448.188 35.2838 448.188 36.8638C448.188 38.4438 448.578 39.6638 449.358 40.5238C450.158 41.3638 451.158 41.7838 452.358 41.7838ZM463.089 34.6738C463.089 32.6138 463.549 30.7738 464.469 29.1538C465.409 27.5138 466.679 26.2438 468.279 25.3438C469.899 24.4238 471.709 23.9638 473.709 23.9638C476.049 23.9638 478.099 24.5638 479.859 25.7638C481.619 26.9638 482.849 28.6238 483.549 30.7438H478.719C478.239 29.7438 477.559 28.9938 476.679 28.4938C475.819 27.9938 474.819 27.7438 473.679 27.7438C472.459 27.7438 471.369 28.0338 470.409 28.6138C469.469 29.1738 468.729 29.9738 468.189 31.0138C467.669 32.0538 467.409 33.2738 467.409 34.6738C467.409 36.0538 467.669 37.2738 468.189 38.3338C468.729 39.3738 469.469 40.1838 470.409 40.7638C471.369 41.3238 472.459 41.6038 473.679 41.6038C474.819 41.6038 475.819 41.3538 476.679 40.8538C477.559 40.3338 478.239 39.5738 478.719 38.5738H483.549C482.849 40.7138 481.619 42.3838 479.859 43.5838C478.119 44.7638 476.069 45.3538 473.709 45.3538C471.709 45.3538 469.899 44.9038 468.279 44.0038C466.679 43.0838 465.409 41.8138 464.469 40.1938C463.549 38.5738 463.089 36.7338 463.089 34.6738ZM485.966 38.9638V35.3038H493.826V38.9638H485.966ZM500.944 24.2338V37.1938C500.944 38.6138 501.314 39.7038 502.054 40.4638C502.794 41.2038 503.834 41.5738 505.174 41.5738C506.534 41.5738 507.584 41.2038 508.324 40.4638C509.064 39.7038 509.434 38.6138 509.434 37.1938V24.2338H513.664V37.1638C513.664 38.9438 513.274 40.4538 512.494 41.6938C511.734 42.9138 510.704 43.8338 509.404 44.4538C508.124 45.0738 506.694 45.3838 505.114 45.3838C503.554 45.3838 502.134 45.0738 500.854 44.4538C499.594 43.8338 498.594 42.9138 497.854 41.6938C497.114 40.4538 496.744 38.9438 496.744 37.1638V24.2338H500.944ZM525.711 40.4338C527.631 38.8338 529.161 37.5038 530.301 36.4438C531.441 35.3638 532.391 34.2438 533.151 33.0838C533.911 31.9238 534.291 30.7838 534.291 29.6638C534.291 28.6438 534.051 27.8438 533.571 27.2638C533.091 26.6838 532.351 26.3938 531.351 26.3938C530.351 26.3938 529.581 26.7338 529.041 27.4138C528.501 28.0738 528.221 28.9838 528.201 30.1438H524.121C524.201 27.7438 524.911 25.9238 526.251 24.6838C527.611 23.4438 529.331 22.8238 531.411 22.8238C533.691 22.8238 535.441 23.4338 536.661 24.6538C537.881 25.8538 538.491 27.4438 538.491 29.4238C538.491 30.9838 538.071 32.4738 537.231 33.8938C536.391 35.3138 535.431 36.5538 534.351 37.6138C533.271 38.6538 531.861 39.9138 530.121 41.3938H538.971V44.8738H524.151V41.7538L525.711 40.4338ZM541.617 33.9538C541.617 30.4938 542.237 27.7838 543.477 25.8238C544.737 23.8638 546.817 22.8838 549.717 22.8838C552.617 22.8838 554.687 23.8638 555.927 25.8238C557.187 27.7838 557.817 30.4938 557.817 33.9538C557.817 37.4338 557.187 40.1638 555.927 42.1438C554.687 44.1238 552.617 45.1138 549.717 45.1138C546.817 45.1138 544.737 44.1238 543.477 42.1438C542.237 40.1638 541.617 37.4338 541.617 33.9538ZM553.677 33.9538C553.677 32.4738 553.577 31.2338 553.377 30.2338C553.197 29.2138 552.817 28.3838 552.237 27.7438C551.677 27.1038 550.837 26.7838 549.717 26.7838C548.597 26.7838 547.747 27.1038 547.167 27.7438C546.607 28.3838 546.227 29.2138 546.027 30.2338C545.847 31.2338 545.757 32.4738 545.757 33.9538C545.757 35.4738 545.847 36.7538 546.027 37.7938C546.207 38.8138 546.587 39.6438 547.167 40.2838C547.747 40.9038 548.597 41.2138 549.717 41.2138C550.837 41.2138 551.687 40.9038 552.267 40.2838C552.847 39.6438 553.227 38.8138 553.407 37.7938C553.587 36.7538 553.677 35.4738 553.677 33.9538ZM562.332 40.4338C564.252 38.8338 565.782 37.5038 566.922 36.4438C568.062 35.3638 569.012 34.2438 569.772 33.0838C570.532 31.9238 570.912 30.7838 570.912 29.6638C570.912 28.6438 570.672 27.8438 570.192 27.2638C569.712 26.6838 568.972 26.3938 567.972 26.3938C566.972 26.3938 566.202 26.7338 565.662 27.4138C565.122 28.0738 564.842 28.9838 564.822 30.1438H560.742C560.822 27.7438 561.532 25.9238 562.872 24.6838C564.232 23.4438 565.952 22.8238 568.032 22.8238C570.312 22.8238 572.062 23.4338 573.282 24.6538C574.502 25.8538 575.112 27.4438 575.112 29.4238C575.112 30.9838 574.692 32.4738 573.852 33.8938C573.012 35.3138 572.052 36.5538 570.972 37.6138C569.892 38.6538 568.482 39.9138 566.742 41.3938H575.592V44.8738H560.772V41.7538L562.332 40.4338ZM592.938 26.9338H583.218V32.0638C583.638 31.5438 584.238 31.1238 585.018 30.8038C585.798 30.4638 586.628 30.2938 587.508 30.2938C589.108 30.2938 590.418 30.6438 591.438 31.3438C592.458 32.0438 593.198 32.9438 593.658 34.0438C594.118 35.1238 594.348 36.2838 594.348 37.5238C594.348 39.8238 593.688 41.6738 592.368 43.0738C591.068 44.4738 589.208 45.1738 586.788 45.1738C584.508 45.1738 582.688 44.6038 581.328 43.4638C579.968 42.3238 579.198 40.8338 579.018 38.9938H583.098C583.278 39.7938 583.678 40.4338 584.298 40.9138C584.938 41.3938 585.748 41.6338 586.728 41.6338C587.908 41.6338 588.798 41.2638 589.398 40.5238C589.998 39.7838 590.298 38.8038 590.298 37.5838C590.298 36.3438 589.988 35.4038 589.368 34.7638C588.768 34.1038 587.878 33.7738 586.698 33.7738C585.858 33.7738 585.158 33.9838 584.598 34.4038C584.038 34.8238 583.638 35.3838 583.398 36.0838H579.378V23.2438H592.938V26.9338ZM596.945 51.0838V50.6638C598.965 48.5838 600.515 46.1338 601.595 43.3138C602.695 40.4738 603.245 37.5338 603.245 34.4938C603.245 31.3738 602.665 28.3438 601.505 25.4038C600.365 22.4638 598.695 19.9438 596.495 17.8438V17.4538H600.725C602.865 19.3738 604.495 21.8438 605.615 24.8638C606.735 27.8638 607.295 31.0738 607.295 34.4938C607.295 37.8338 606.755 40.9638 605.675 43.8838C604.615 46.8038 603.115 49.2038 601.175 51.0838H596.945ZM41.5 69.2038V90.1738H39.4V69.2038H41.5ZM53.9355 73.4938C55.8955 73.4938 57.4955 74.1038 58.7355 75.3238C59.9755 76.5238 60.5955 78.2738 60.5955 80.5738V90.1738H58.5255V80.8138C58.5255 79.0338 58.0755 77.6738 57.1755 76.7338C56.2955 75.7938 55.0855 75.3238 53.5455 75.3238C51.9655 75.3238 50.7055 75.8238 49.7655 76.8238C48.8255 77.8238 48.3555 79.2938 48.3555 81.2338V90.1738H46.2555V73.7938H48.3555V76.5838C48.8755 75.5838 49.6255 74.8238 50.6055 74.3038C51.5855 73.7638 52.6955 73.4938 53.9355 73.4938ZM72.9198 73.4938C74.8798 73.4938 76.4798 74.1038 77.7198 75.3238C78.9598 76.5238 79.5798 78.2738 79.5798 80.5738V90.1738H77.5098V80.8138C77.5098 79.0338 77.0598 77.6738 76.1598 76.7338C75.2798 75.7938 74.0698 75.3238 72.5298 75.3238C70.9498 75.3238 69.6898 75.8238 68.7498 76.8238C67.8098 77.8238 67.3398 79.2938 67.3398 81.2338V90.1738H65.2398V73.7938H67.3398V76.5838C67.8598 75.5838 68.6098 74.8238 69.5898 74.3038C70.5698 73.7638 71.6798 73.4938 72.9198 73.4938ZM91.3942 90.4138C89.8542 90.4138 88.4642 90.0738 87.2242 89.3938C86.0042 88.6938 85.0342 87.7138 84.3142 86.4538C83.6142 85.1738 83.2642 83.6838 83.2642 81.9838C83.2642 80.2838 83.6242 78.8038 84.3442 77.5438C85.0642 76.2638 86.0442 75.2838 87.2842 74.6038C88.5242 73.9038 89.9142 73.5538 91.4542 73.5538C92.9942 73.5538 94.3842 73.9038 95.6242 74.6038C96.8842 75.2838 97.8642 76.2638 98.5642 77.5438C99.2842 78.8038 99.6442 80.2838 99.6442 81.9838C99.6442 83.6638 99.2842 85.1438 98.5642 86.4238C97.8442 87.7038 96.8542 88.6938 95.5942 89.3938C94.3342 90.0738 92.9342 90.4138 91.3942 90.4138ZM91.3942 88.5838C92.4742 88.5838 93.4742 88.3438 94.3942 87.8638C95.3142 87.3638 96.0542 86.6238 96.6142 85.6438C97.1942 84.6438 97.4842 83.4238 97.4842 81.9838C97.4842 80.5438 97.2042 79.3338 96.6442 78.3538C96.0842 77.3538 95.3442 76.6138 94.4242 76.1338C93.5042 75.6338 92.5042 75.3838 91.4242 75.3838C90.3442 75.3838 89.3442 75.6338 88.4242 76.1338C87.5042 76.6138 86.7642 77.3538 86.2042 78.3538C85.6642 79.3338 85.3942 80.5438 85.3942 81.9838C85.3942 83.4238 85.6642 84.6438 86.2042 85.6438C86.7642 86.6238 87.4942 87.3638 88.3942 87.8638C89.3142 88.3438 90.3142 88.5838 91.3942 88.5838ZM109.292 88.1338L114.812 73.7938H117.032L110.462 90.1738H108.092L101.522 73.7938H103.772L109.292 88.1338ZM118.919 81.9538C118.919 80.2738 119.249 78.8038 119.909 77.5438C120.589 76.2638 121.519 75.2838 122.699 74.6038C123.899 73.9038 125.249 73.5538 126.749 73.5538C128.309 73.5538 129.649 73.9138 130.769 74.6338C131.909 75.3538 132.729 76.2738 133.229 77.3938V73.7938H135.329V90.1738H133.229V86.5438C132.709 87.6638 131.879 88.5938 130.739 89.3338C129.619 90.0538 128.279 90.4138 126.719 90.4138C125.239 90.4138 123.899 90.0638 122.699 89.3638C121.519 88.6638 120.589 87.6738 119.909 86.3938C119.249 85.1138 118.919 83.6338 118.919 81.9538ZM133.229 81.9838C133.229 80.6638 132.959 79.5038 132.419 78.5038C131.879 77.5038 131.139 76.7338 130.199 76.1938C129.279 75.6538 128.259 75.3838 127.139 75.3838C125.979 75.3838 124.939 75.6438 124.019 76.1638C123.099 76.6838 122.369 77.4438 121.829 78.4438C121.309 79.4238 121.049 80.5938 121.049 81.9538C121.049 83.2938 121.309 84.4738 121.829 85.4938C122.369 86.4938 123.099 87.2638 124.019 87.8038C124.939 88.3238 125.979 88.5838 127.139 88.5838C128.259 88.5838 129.279 88.3138 130.199 87.7738C131.139 87.2338 131.879 86.4638 132.419 85.4638C132.959 84.4638 133.229 83.3038 133.229 81.9838ZM142.853 75.5638V85.7338C142.853 86.7338 143.043 87.4238 143.423 87.8038C143.803 88.1838 144.473 88.3738 145.433 88.3738H147.353V90.1738H145.103C143.623 90.1738 142.523 89.8338 141.803 89.1538C141.083 88.4538 140.723 87.3138 140.723 85.7338V75.5638H138.443V73.7938H140.723V69.6838H142.853V73.7938H147.353V75.5638H142.853ZM165.636 81.1438C165.636 81.8638 165.616 82.4138 165.576 82.7938H151.986C152.046 84.0338 152.346 85.0938 152.886 85.9738C153.426 86.8538 154.136 87.5238 155.016 87.9838C155.896 88.4238 156.856 88.6438 157.896 88.6438C159.256 88.6438 160.396 88.3138 161.316 87.6538C162.256 86.9938 162.876 86.1038 163.176 84.9838H165.396C164.996 86.5838 164.136 87.8938 162.816 88.9138C161.516 89.9138 159.876 90.4138 157.896 90.4138C156.356 90.4138 154.976 90.0738 153.756 89.3938C152.536 88.6938 151.576 87.7138 150.876 86.4538C150.196 85.1738 149.856 83.6838 149.856 81.9838C149.856 80.2838 150.196 78.7938 150.876 77.5138C151.556 76.2338 152.506 75.2538 153.726 74.5738C154.946 73.8938 156.336 73.5538 157.896 73.5538C159.456 73.5538 160.816 73.8938 161.976 74.5738C163.156 75.2538 164.056 76.1738 164.676 77.3338C165.316 78.4738 165.636 79.7438 165.636 81.1438ZM163.506 81.0838C163.526 79.8638 163.276 78.8238 162.756 77.9638C162.256 77.1038 161.566 76.4538 160.686 76.0138C159.806 75.5738 158.846 75.3538 157.806 75.3538C156.246 75.3538 154.916 75.8538 153.816 76.8538C152.716 77.8538 152.106 79.2638 151.986 81.0838H163.506ZM176.751 81.9538C176.751 80.2738 177.081 78.8038 177.741 77.5438C178.421 76.2638 179.351 75.2838 180.531 74.6038C181.731 73.9038 183.081 73.5538 184.581 73.5538C186.141 73.5538 187.481 73.9138 188.601 74.6338C189.741 75.3538 190.561 76.2738 191.061 77.3938V73.7938H193.161V90.1738H191.061V86.5438C190.541 87.6638 189.711 88.5938 188.571 89.3338C187.451 90.0538 186.111 90.4138 184.551 90.4138C183.071 90.4138 181.731 90.0638 180.531 89.3638C179.351 88.6638 178.421 87.6738 177.741 86.3938C177.081 85.1138 176.751 83.6338 176.751 81.9538ZM191.061 81.9838C191.061 80.6638 190.791 79.5038 190.251 78.5038C189.711 77.5038 188.971 76.7338 188.031 76.1938C187.111 75.6538 186.091 75.3838 184.971 75.3838C183.811 75.3838 182.771 75.6438 181.851 76.1638C180.931 76.6838 180.201 77.4438 179.661 78.4438C179.141 79.4238 178.881 80.5938 178.881 81.9538C178.881 83.2938 179.141 84.4738 179.661 85.4938C180.201 86.4938 180.931 87.2638 181.851 87.8038C182.771 88.3238 183.811 88.5838 184.971 88.5838C186.091 88.5838 187.111 88.3138 188.031 87.7738C188.971 87.2338 189.711 86.4638 190.251 85.4638C190.791 84.4638 191.061 83.3038 191.061 81.9838ZM212.145 73.7938V90.1738H210.045V87.2938C209.565 88.3138 208.825 89.0938 207.825 89.6338C206.825 90.1738 205.705 90.4438 204.465 90.4438C202.505 90.4438 200.905 89.8438 199.665 88.6438C198.425 87.4238 197.805 85.6638 197.805 83.3638V73.7938H199.875V83.1238C199.875 84.9038 200.315 86.2638 201.195 87.2038C202.095 88.1438 203.315 88.6138 204.855 88.6138C206.435 88.6138 207.695 88.1138 208.635 87.1138C209.575 86.1138 210.045 84.6438 210.045 82.7038V73.7938H212.145ZM219.669 75.5638V85.7338C219.669 86.7338 219.859 87.4238 220.239 87.8038C220.619 88.1838 221.289 88.3738 222.249 88.3738H224.169V90.1738H221.919C220.439 90.1738 219.339 89.8338 218.619 89.1538C217.899 88.4538 217.539 87.3138 217.539 85.7338V75.5638H215.259V73.7938H217.539V69.6838H219.669V73.7938H224.169V75.5638H219.669ZM234.802 90.4138C233.262 90.4138 231.872 90.0738 230.632 89.3938C229.412 88.6938 228.442 87.7138 227.722 86.4538C227.022 85.1738 226.672 83.6838 226.672 81.9838C226.672 80.2838 227.032 78.8038 227.752 77.5438C228.472 76.2638 229.452 75.2838 230.692 74.6038C231.932 73.9038 233.322 73.5538 234.862 73.5538C236.402 73.5538 237.792 73.9038 239.032 74.6038C240.292 75.2838 241.272 76.2638 241.972 77.5438C242.692 78.8038 243.052 80.2838 243.052 81.9838C243.052 83.6638 242.692 85.1438 241.972 86.4238C241.252 87.7038 240.262 88.6938 239.002 89.3938C237.742 90.0738 236.342 90.4138 234.802 90.4138ZM234.802 88.5838C235.882 88.5838 236.882 88.3438 237.802 87.8638C238.722 87.3638 239.462 86.6238 240.022 85.6438C240.602 84.6438 240.892 83.4238 240.892 81.9838C240.892 80.5438 240.612 79.3338 240.052 78.3538C239.492 77.3538 238.752 76.6138 237.832 76.1338C236.912 75.6338 235.912 75.3838 234.832 75.3838C233.752 75.3838 232.752 75.6338 231.832 76.1338C230.912 76.6138 230.172 77.3538 229.612 78.3538C229.072 79.3338 228.802 80.5438 228.802 81.9838C228.802 83.4238 229.072 84.6438 229.612 85.6438C230.172 86.6238 230.902 87.3638 231.802 87.8638C232.722 88.3438 233.722 88.5838 234.802 88.5838ZM254.56 73.4938C256.52 73.4938 258.12 74.1038 259.36 75.3238C260.6 76.5238 261.22 78.2738 261.22 80.5738V90.1738H259.15V80.8138C259.15 79.0338 258.7 77.6738 257.8 76.7338C256.92 75.7938 255.71 75.3238 254.17 75.3238C252.59 75.3238 251.33 75.8238 250.39 76.8238C249.45 77.8238 248.98 79.2938 248.98 81.2338V90.1738H246.88V73.7938H248.98V76.5838C249.5 75.5838 250.25 74.8238 251.23 74.3038C252.21 73.7638 253.32 73.4938 254.56 73.4938ZM273.035 90.4138C271.495 90.4138 270.105 90.0738 268.865 89.3938C267.645 88.6938 266.675 87.7138 265.955 86.4538C265.255 85.1738 264.905 83.6838 264.905 81.9838C264.905 80.2838 265.265 78.8038 265.985 77.5438C266.705 76.2638 267.685 75.2838 268.925 74.6038C270.165 73.9038 271.555 73.5538 273.095 73.5538C274.635 73.5538 276.025 73.9038 277.265 74.6038C278.525 75.2838 279.505 76.2638 280.205 77.5438C280.925 78.8038 281.285 80.2838 281.285 81.9838C281.285 83.6638 280.925 85.1438 280.205 86.4238C279.485 87.7038 278.495 88.6938 277.235 89.3938C275.975 90.0738 274.575 90.4138 273.035 90.4138ZM273.035 88.5838C274.115 88.5838 275.115 88.3438 276.035 87.8638C276.955 87.3638 277.695 86.6238 278.255 85.6438C278.835 84.6438 279.125 83.4238 279.125 81.9838C279.125 80.5438 278.845 79.3338 278.285 78.3538C277.725 77.3538 276.985 76.6138 276.065 76.1338C275.145 75.6338 274.145 75.3838 273.065 75.3838C271.985 75.3838 270.985 75.6338 270.065 76.1338C269.145 76.6138 268.405 77.3538 267.845 78.3538C267.305 79.3338 267.035 80.5438 267.035 81.9838C267.035 83.4238 267.305 84.6438 267.845 85.6438C268.405 86.6238 269.135 87.3638 270.035 87.8638C270.955 88.3438 271.955 88.5838 273.035 88.5838ZM304.613 73.4938C306.533 73.4938 308.093 74.1038 309.293 75.3238C310.513 76.5238 311.123 78.2738 311.123 80.5738V90.1738H309.053V80.8138C309.053 79.0338 308.623 77.6738 307.763 76.7338C306.903 75.7938 305.733 75.3238 304.253 75.3238C302.713 75.3238 301.483 75.8338 300.563 76.8538C299.643 77.8738 299.183 79.3538 299.183 81.2938V90.1738H297.113V80.8138C297.113 79.0338 296.683 77.6738 295.823 76.7338C294.963 75.7938 293.783 75.3238 292.283 75.3238C290.743 75.3238 289.513 75.8338 288.593 76.8538C287.673 77.8738 287.213 79.3538 287.213 81.2938V90.1738H285.113V73.7938H287.213V76.6138C287.733 75.5938 288.473 74.8238 289.433 74.3038C290.393 73.7638 291.463 73.4938 292.643 73.4938C294.063 73.4938 295.303 73.8338 296.363 74.5138C297.443 75.1938 298.223 76.1938 298.703 77.5138C299.143 76.2138 299.893 75.2238 300.953 74.5438C302.033 73.8438 303.253 73.4938 304.613 73.4938ZM322.957 90.4138C321.417 90.4138 320.027 90.0738 318.787 89.3938C317.567 88.6938 316.597 87.7138 315.877 86.4538C315.177 85.1738 314.827 83.6838 314.827 81.9838C314.827 80.2838 315.187 78.8038 315.907 77.5438C316.627 76.2638 317.607 75.2838 318.847 74.6038C320.087 73.9038 321.477 73.5538 323.017 73.5538C324.557 73.5538 325.947 73.9038 327.187 74.6038C328.447 75.2838 329.427 76.2638 330.127 77.5438C330.847 78.8038 331.207 80.2838 331.207 81.9838C331.207 83.6638 330.847 85.1438 330.127 86.4238C329.407 87.7038 328.417 88.6938 327.157 89.3938C325.897 90.0738 324.497 90.4138 322.957 90.4138ZM322.957 88.5838C324.037 88.5838 325.037 88.3438 325.957 87.8638C326.877 87.3638 327.617 86.6238 328.177 85.6438C328.757 84.6438 329.047 83.4238 329.047 81.9838C329.047 80.5438 328.767 79.3338 328.207 78.3538C327.647 77.3538 326.907 76.6138 325.987 76.1338C325.067 75.6338 324.067 75.3838 322.987 75.3838C321.907 75.3838 320.907 75.6338 319.987 76.1338C319.067 76.6138 318.327 77.3538 317.767 78.3538C317.227 79.3338 316.957 80.5438 316.957 81.9838C316.957 83.4238 317.227 84.6438 317.767 85.6438C318.327 86.6238 319.057 87.3638 319.957 87.8638C320.877 88.3438 321.877 88.5838 322.957 88.5838ZM349.225 73.7938V90.1738H347.125V87.2938C346.645 88.3138 345.905 89.0938 344.905 89.6338C343.905 90.1738 342.785 90.4438 341.545 90.4438C339.585 90.4438 337.985 89.8438 336.745 88.6438C335.505 87.4238 334.885 85.6638 334.885 83.3638V73.7938H336.955V83.1238C336.955 84.9038 337.395 86.2638 338.275 87.2038C339.175 88.1438 340.395 88.6138 341.935 88.6138C343.515 88.6138 344.775 88.1138 345.715 87.1138C346.655 86.1138 347.125 84.6438 347.125 82.7038V73.7938H349.225ZM359.659 90.4138C357.779 90.4138 356.239 89.9838 355.039 89.1238C353.859 88.2438 353.199 87.0538 353.059 85.5538H355.219C355.319 86.4738 355.749 87.2238 356.509 87.8038C357.289 88.3638 358.329 88.6438 359.629 88.6438C360.769 88.6438 361.659 88.3738 362.299 87.8338C362.959 87.2938 363.289 86.6238 363.289 85.8238C363.289 85.2638 363.109 84.8038 362.749 84.4438C362.389 84.0838 361.929 83.8038 361.369 83.6038C360.829 83.3838 360.089 83.1538 359.149 82.9138C357.929 82.5938 356.939 82.2738 356.179 81.9538C355.419 81.6338 354.769 81.1638 354.229 80.5438C353.709 79.9038 353.449 79.0538 353.449 77.9938C353.449 77.1938 353.689 76.4538 354.169 75.7738C354.649 75.0938 355.329 74.5538 356.209 74.1538C357.089 73.7538 358.089 73.5538 359.209 73.5538C360.969 73.5538 362.389 74.0038 363.469 74.9038C364.549 75.7838 365.129 77.0038 365.209 78.5638H363.109C363.049 77.6038 362.669 76.8338 361.969 76.2538C361.289 75.6538 360.349 75.3538 359.149 75.3538C358.089 75.3538 357.229 75.6038 356.569 76.1038C355.909 76.6038 355.579 77.2238 355.579 77.9638C355.579 78.6038 355.769 79.1338 356.149 79.5538C356.549 79.9538 357.039 80.2738 357.619 80.5138C358.199 80.7338 358.979 80.9838 359.959 81.2638C361.139 81.5838 362.079 81.8938 362.779 82.1938C363.479 82.4938 364.079 82.9338 364.579 83.5138C365.079 84.0938 365.339 84.8638 365.359 85.8238C365.359 86.7038 365.119 87.4938 364.639 88.1938C364.159 88.8738 363.489 89.4138 362.629 89.8138C361.769 90.2138 360.779 90.4138 359.659 90.4138ZM385.225 73.4938C387.185 73.4938 388.785 74.1038 390.025 75.3238C391.265 76.5238 391.885 78.2738 391.885 80.5738V90.1738H389.815V80.8138C389.815 79.0338 389.365 77.6738 388.465 76.7338C387.585 75.7938 386.375 75.3238 384.835 75.3238C383.255 75.3238 381.995 75.8238 381.055 76.8238C380.115 77.8238 379.645 79.2938 379.645 81.2338V90.1738H377.545V73.7938H379.645V76.5838C380.165 75.5838 380.915 74.8238 381.895 74.3038C382.875 73.7638 383.985 73.4938 385.225 73.4938ZM395.569 81.9538C395.569 80.2738 395.899 78.8038 396.559 77.5438C397.239 76.2638 398.169 75.2838 399.349 74.6038C400.549 73.9038 401.899 73.5538 403.399 73.5538C404.959 73.5538 406.299 73.9138 407.419 74.6338C408.559 75.3538 409.379 76.2738 409.879 77.3938V73.7938H411.979V90.1738H409.879V86.5438C409.359 87.6638 408.529 88.5938 407.389 89.3338C406.269 90.0538 404.929 90.4138 403.369 90.4138C401.889 90.4138 400.549 90.0638 399.349 89.3638C398.169 88.6638 397.239 87.6738 396.559 86.3938C395.899 85.1138 395.569 83.6338 395.569 81.9538ZM409.879 81.9838C409.879 80.6638 409.609 79.5038 409.069 78.5038C408.529 77.5038 407.789 76.7338 406.849 76.1938C405.929 75.6538 404.909 75.3838 403.789 75.3838C402.629 75.3838 401.589 75.6438 400.669 76.1638C399.749 76.6838 399.019 77.4438 398.479 78.4438C397.959 79.4238 397.699 80.5938 397.699 81.9538C397.699 83.2938 397.959 84.4738 398.479 85.4938C399.019 86.4938 399.749 87.2638 400.669 87.8038C401.589 88.3238 402.629 88.5838 403.789 88.5838C404.909 88.5838 405.929 88.3138 406.849 87.7738C407.789 87.2338 408.529 86.4638 409.069 85.4638C409.609 84.4638 409.879 83.3038 409.879 81.9838ZM422.593 88.1338L428.113 73.7938H430.333L423.763 90.1738H421.393L414.823 73.7938H417.073L422.593 88.1338ZM434.229 70.7038C433.809 70.7038 433.449 70.5538 433.149 70.2538C432.849 69.9538 432.699 69.5838 432.699 69.1438C432.699 68.7038 432.849 68.3438 433.149 68.0638C433.449 67.7638 433.809 67.6138 434.229 67.6138C434.649 67.6138 435.009 67.7638 435.309 68.0638C435.609 68.3438 435.759 68.7038 435.759 69.1438C435.759 69.5838 435.609 69.9538 435.309 70.2538C435.009 70.5538 434.649 70.7038 434.229 70.7038ZM435.279 73.7938V90.1738H433.179V73.7938H435.279ZM446.905 73.5538C448.445 73.5538 449.785 73.9138 450.925 74.6338C452.065 75.3538 452.885 76.2638 453.385 77.3638V73.7938H455.485V90.5938C455.485 92.0938 455.155 93.4238 454.495 94.5838C453.855 95.7438 452.955 96.6338 451.795 97.2538C450.635 97.8938 449.315 98.2138 447.835 98.2138C445.735 98.2138 443.985 97.7138 442.585 96.7138C441.205 95.7138 440.345 94.3538 440.005 92.6338H442.075C442.435 93.7738 443.115 94.6838 444.115 95.3638C445.135 96.0438 446.375 96.3838 447.835 96.3838C448.895 96.3838 449.845 96.1538 450.685 95.6938C451.525 95.2538 452.185 94.5938 452.665 93.7138C453.145 92.8338 453.385 91.7938 453.385 90.5938V86.5438C452.865 87.6638 452.035 88.5938 450.895 89.3338C449.775 90.0538 448.445 90.4138 446.905 90.4138C445.405 90.4138 444.055 90.0638 442.855 89.3638C441.675 88.6638 440.745 87.6738 440.065 86.3938C439.405 85.1138 439.075 83.6338 439.075 81.9538C439.075 80.2738 439.405 78.8038 440.065 77.5438C440.745 76.2638 441.675 75.2838 442.855 74.6038C444.055 73.9038 445.405 73.5538 446.905 73.5538ZM453.385 81.9838C453.385 80.6638 453.115 79.5038 452.575 78.5038C452.035 77.5038 451.295 76.7338 450.355 76.1938C449.435 75.6538 448.415 75.3838 447.295 75.3838C446.135 75.3838 445.095 75.6438 444.175 76.1638C443.255 76.6838 442.525 77.4438 441.985 78.4438C441.465 79.4238 441.205 80.5938 441.205 81.9538C441.205 83.2938 441.465 84.4738 441.985 85.4938C442.525 86.4938 443.255 87.2638 444.175 87.8038C445.095 88.3238 446.135 88.5838 447.295 88.5838C448.415 88.5838 449.435 88.3138 450.355 87.7738C451.295 87.2338 452.035 86.4638 452.575 85.4638C453.115 84.4638 453.385 83.3038 453.385 81.9838ZM459.319 81.9538C459.319 80.2738 459.649 78.8038 460.309 77.5438C460.989 76.2638 461.919 75.2838 463.099 74.6038C464.299 73.9038 465.649 73.5538 467.149 73.5538C468.709 73.5538 470.049 73.9138 471.169 74.6338C472.309 75.3538 473.129 76.2738 473.629 77.3938V73.7938H475.729V90.1738H473.629V86.5438C473.109 87.6638 472.279 88.5938 471.139 89.3338C470.019 90.0538 468.679 90.4138 467.119 90.4138C465.639 90.4138 464.299 90.0638 463.099 89.3638C461.919 88.6638 460.989 87.6738 460.309 86.3938C459.649 85.1138 459.319 83.6338 459.319 81.9538ZM473.629 81.9838C473.629 80.6638 473.359 79.5038 472.819 78.5038C472.279 77.5038 471.539 76.7338 470.599 76.1938C469.679 75.6538 468.659 75.3838 467.539 75.3838C466.379 75.3838 465.339 75.6438 464.419 76.1638C463.499 76.6838 462.769 77.4438 462.229 78.4438C461.709 79.4238 461.449 80.5938 461.449 81.9538C461.449 83.2938 461.709 84.4738 462.229 85.4938C462.769 86.4938 463.499 87.2638 464.419 87.8038C465.339 88.3238 466.379 88.5838 467.539 88.5838C468.659 88.5838 469.679 88.3138 470.599 87.7738C471.539 87.2338 472.279 86.4638 472.819 85.4638C473.359 84.4638 473.629 83.3038 473.629 81.9838ZM483.253 75.5638V85.7338C483.253 86.7338 483.443 87.4238 483.823 87.8038C484.203 88.1838 484.873 88.3738 485.833 88.3738H487.753V90.1738H485.503C484.023 90.1738 482.923 89.8338 482.203 89.1538C481.483 88.4538 481.123 87.3138 481.123 85.7338V75.5638H478.843V73.7938H481.123V69.6838H483.253V73.7938H487.753V75.5638H483.253ZM492.266 70.7038C491.846 70.7038 491.486 70.5538 491.186 70.2538C490.886 69.9538 490.736 69.5838 490.736 69.1438C490.736 68.7038 490.886 68.3438 491.186 68.0638C491.486 67.7638 491.846 67.6138 492.266 67.6138C492.686 67.6138 493.046 67.7638 493.346 68.0638C493.646 68.3438 493.796 68.7038 493.796 69.1438C493.796 69.5838 493.646 69.9538 493.346 70.2538C493.046 70.5538 492.686 70.7038 492.266 70.7038ZM493.316 73.7938V90.1738H491.216V73.7938H493.316ZM505.242 90.4138C503.702 90.4138 502.312 90.0738 501.072 89.3938C499.852 88.6938 498.882 87.7138 498.162 86.4538C497.462 85.1738 497.112 83.6838 497.112 81.9838C497.112 80.2838 497.472 78.8038 498.192 77.5438C498.912 76.2638 499.892 75.2838 501.132 74.6038C502.372 73.9038 503.762 73.5538 505.302 73.5538C506.842 73.5538 508.232 73.9038 509.472 74.6038C510.732 75.2838 511.712 76.2638 512.412 77.5438C513.132 78.8038 513.492 80.2838 513.492 81.9838C513.492 83.6638 513.132 85.1438 512.412 86.4238C511.692 87.7038 510.702 88.6938 509.442 89.3938C508.182 90.0738 506.782 90.4138 505.242 90.4138ZM505.242 88.5838C506.322 88.5838 507.322 88.3438 508.242 87.8638C509.162 87.3638 509.902 86.6238 510.462 85.6438C511.042 84.6438 511.332 83.4238 511.332 81.9838C511.332 80.5438 511.052 79.3338 510.492 78.3538C509.932 77.3538 509.192 76.6138 508.272 76.1338C507.352 75.6338 506.352 75.3838 505.272 75.3838C504.192 75.3838 503.192 75.6338 502.272 76.1338C501.352 76.6138 500.612 77.3538 500.052 78.3538C499.512 79.3338 499.242 80.5438 499.242 81.9838C499.242 83.4238 499.512 84.6438 500.052 85.6438C500.612 86.6238 501.342 87.3638 502.242 87.8638C503.162 88.3438 504.162 88.5838 505.242 88.5838ZM525 73.4938C526.96 73.4938 528.56 74.1038 529.8 75.3238C531.04 76.5238 531.66 78.2738 531.66 80.5738V90.1738H529.59V80.8138C529.59 79.0338 529.14 77.6738 528.24 76.7338C527.36 75.7938 526.15 75.3238 524.61 75.3238C523.03 75.3238 521.77 75.8238 520.83 76.8238C519.89 77.8238 519.42 79.2938 519.42 81.2338V90.1738H517.32V73.7938H519.42V76.5838C519.94 75.5838 520.69 74.8238 521.67 74.3038C522.65 73.7638 523.76 73.4938 525 73.4938ZM550.177 90.4138C548.297 90.4138 546.757 89.9838 545.557 89.1238C544.377 88.2438 543.717 87.0538 543.577 85.5538H545.737C545.837 86.4738 546.267 87.2238 547.027 87.8038C547.807 88.3638 548.847 88.6438 550.147 88.6438C551.287 88.6438 552.177 88.3738 552.817 87.8338C553.477 87.2938 553.807 86.6238 553.807 85.8238C553.807 85.2638 553.627 84.8038 553.267 84.4438C552.907 84.0838 552.447 83.8038 551.887 83.6038C551.347 83.3838 550.607 83.1538 549.667 82.9138C548.447 82.5938 547.457 82.2738 546.697 81.9538C545.937 81.6338 545.287 81.1638 544.747 80.5438C544.227 79.9038 543.967 79.0538 543.967 77.9938C543.967 77.1938 544.207 76.4538 544.687 75.7738C545.167 75.0938 545.847 74.5538 546.727 74.1538C547.607 73.7538 548.607 73.5538 549.727 73.5538C551.487 73.5538 552.907 74.0038 553.987 74.9038C555.067 75.7838 555.647 77.0038 555.727 78.5638H553.627C553.567 77.6038 553.187 76.8338 552.487 76.2538C551.807 75.6538 550.867 75.3538 549.667 75.3538C548.607 75.3538 547.747 75.6038 547.087 76.1038C546.427 76.6038 546.097 77.2238 546.097 77.9638C546.097 78.6038 546.287 79.1338 546.667 79.5538C547.067 79.9538 547.557 80.2738 548.137 80.5138C548.717 80.7338 549.497 80.9838 550.477 81.2638C551.657 81.5838 552.597 81.8938 553.297 82.1938C553.997 82.4938 554.597 82.9338 555.097 83.5138C555.597 84.0938 555.857 84.8638 555.877 85.8238C555.877 86.7038 555.637 87.4938 555.157 88.1938C554.677 88.8738 554.007 89.4138 553.147 89.8138C552.287 90.2138 551.297 90.4138 550.177 90.4138ZM573.33 73.7938L563.61 97.8838H561.42L564.6 90.0838L557.88 73.7938H560.19L565.77 87.7738L571.17 73.7938H573.33ZM581.817 90.4138C579.937 90.4138 578.397 89.9838 577.197 89.1238C576.017 88.2438 575.357 87.0538 575.217 85.5538H577.377C577.477 86.4738 577.907 87.2238 578.667 87.8038C579.447 88.3638 580.487 88.6438 581.787 88.6438C582.927 88.6438 583.817 88.3738 584.457 87.8338C585.117 87.2938 585.447 86.6238 585.447 85.8238C585.447 85.2638 585.267 84.8038 584.907 84.4438C584.547 84.0838 584.087 83.8038 583.527 83.6038C582.987 83.3838 582.247 83.1538 581.307 82.9138C580.087 82.5938 579.097 82.2738 578.337 81.9538C577.577 81.6338 576.927 81.1638 576.387 80.5438C575.867 79.9038 575.607 79.0538 575.607 77.9938C575.607 77.1938 575.847 76.4538 576.327 75.7738C576.807 75.0938 577.487 74.5538 578.367 74.1538C579.247 73.7538 580.247 73.5538 581.367 73.5538C583.127 73.5538 584.547 74.0038 585.627 74.9038C586.707 75.7838 587.287 77.0038 587.367 78.5638H585.267C585.207 77.6038 584.827 76.8338 584.127 76.2538C583.447 75.6538 582.507 75.3538 581.307 75.3538C580.247 75.3538 579.387 75.6038 578.727 76.1038C578.067 76.6038 577.737 77.2238 577.737 77.9638C577.737 78.6038 577.927 79.1338 578.307 79.5538C578.707 79.9538 579.197 80.2738 579.777 80.5138C580.357 80.7338 581.137 80.9838 582.117 81.2638C583.297 81.5838 584.237 81.8938 584.937 82.1938C585.637 82.4938 586.237 82.9338 586.737 83.5138C587.237 84.0938 587.497 84.8638 587.517 85.8238C587.517 86.7038 587.277 87.4938 586.797 88.1938C586.317 88.8738 585.647 89.4138 584.787 89.8138C583.927 90.2138 582.937 90.4138 581.817 90.4138ZM594.2 75.5638V85.7338C594.2 86.7338 594.39 87.4238 594.77 87.8038C595.15 88.1838 595.82 88.3738 596.78 88.3738H598.7V90.1738H596.45C594.97 90.1738 593.87 89.8338 593.15 89.1538C592.43 88.4538 592.07 87.3138 592.07 85.7338V75.5638H589.79V73.7938H592.07V69.6838H594.2V73.7938H598.7V75.5638H594.2ZM616.984 81.1438C616.984 81.8638 616.964 82.4138 616.924 82.7938H603.334C603.394 84.0338 603.694 85.0938 604.234 85.9738C604.774 86.8538 605.484 87.5238 606.364 87.9838C607.244 88.4238 608.204 88.6438 609.244 88.6438C610.604 88.6438 611.744 88.3138 612.664 87.6538C613.604 86.9938 614.224 86.1038 614.524 84.9838H616.744C616.344 86.5838 615.484 87.8938 614.164 88.9138C612.864 89.9138 611.224 90.4138 609.244 90.4138C607.704 90.4138 606.324 90.0738 605.104 89.3938C603.884 88.6938 602.924 87.7138 602.224 86.4538C601.544 85.1738 601.204 83.6838 601.204 81.9838C601.204 80.2838 601.544 78.7938 602.224 77.5138C602.904 76.2338 603.854 75.2538 605.074 74.5738C606.294 73.8938 607.684 73.5538 609.244 73.5538C610.804 73.5538 612.164 73.8938 613.324 74.5738C614.504 75.2538 615.404 76.1738 616.024 77.3338C616.664 78.4738 616.984 79.7438 616.984 81.1438ZM614.854 81.0838C614.874 79.8638 614.624 78.8238 614.104 77.9638C613.604 77.1038 612.914 76.4538 612.034 76.0138C611.154 75.5738 610.194 75.3538 609.154 75.3538C607.594 75.3538 606.264 75.8538 605.164 76.8538C604.064 77.8538 603.454 79.2638 603.334 81.0838H614.854ZM640.326 73.4938C642.246 73.4938 643.806 74.1038 645.006 75.3238C646.226 76.5238 646.836 78.2738 646.836 80.5738V90.1738H644.766V80.8138C644.766 79.0338 644.336 77.6738 643.476 76.7338C642.616 75.7938 641.446 75.3238 639.966 75.3238C638.426 75.3238 637.196 75.8338 636.276 76.8538C635.356 77.8738 634.896 79.3538 634.896 81.2938V90.1738H632.826V80.8138C632.826 79.0338 632.396 77.6738 631.536 76.7338C630.676 75.7938 629.496 75.3238 627.996 75.3238C626.456 75.3238 625.226 75.8338 624.306 76.8538C623.386 77.8738 622.926 79.3538 622.926 81.2938V90.1738H620.826V73.7938H622.926V76.6138C623.446 75.5938 624.186 74.8238 625.146 74.3038C626.106 73.7638 627.176 73.4938 628.356 73.4938C629.776 73.4938 631.016 73.8338 632.076 74.5138C633.156 75.1938 633.936 76.1938 634.416 77.5138C634.856 76.2138 635.606 75.2238 636.666 74.5438C637.746 73.8438 638.966 73.4938 640.326 73.4938ZM657.14 90.4138C655.26 90.4138 653.72 89.9838 652.52 89.1238C651.34 88.2438 650.68 87.0538 650.54 85.5538H652.7C652.8 86.4738 653.23 87.2238 653.99 87.8038C654.77 88.3638 655.81 88.6438 657.11 88.6438C658.25 88.6438 659.14 88.3738 659.78 87.8338C660.44 87.2938 660.77 86.6238 660.77 85.8238C660.77 85.2638 660.59 84.8038 660.23 84.4438C659.87 84.0838 659.41 83.8038 658.85 83.6038C658.31 83.3838 657.57 83.1538 656.63 82.9138C655.41 82.5938 654.42 82.2738 653.66 81.9538C652.9 81.6338 652.25 81.1638 651.71 80.5438C651.19 79.9038 650.93 79.0538 650.93 77.9938C650.93 77.1938 651.17 76.4538 651.65 75.7738C652.13 75.0938 652.81 74.5538 653.69 74.1538C654.57 73.7538 655.57 73.5538 656.69 73.5538C658.45 73.5538 659.87 74.0038 660.95 74.9038C662.03 75.7838 662.61 77.0038 662.69 78.5638H660.59C660.53 77.6038 660.15 76.8338 659.45 76.2538C658.77 75.6538 657.83 75.3538 656.63 75.3538C655.57 75.3538 654.71 75.6038 654.05 76.1038C653.39 76.6038 653.06 77.2238 653.06 77.9638C653.06 78.6038 653.25 79.1338 653.63 79.5538C654.03 79.9538 654.52 80.2738 655.1 80.5138C655.68 80.7338 656.46 80.9838 657.44 81.2638C658.62 81.5838 659.56 81.8938 660.26 82.1938C660.96 82.4938 661.56 82.9338 662.06 83.5138C662.56 84.0938 662.82 84.8638 662.84 85.8238C662.84 86.7038 662.6 87.4938 662.12 88.1938C661.64 88.8738 660.97 89.4138 660.11 89.8138C659.25 90.2138 658.26 90.4138 657.14 90.4138ZM681.475 75.5638H677.665V90.1738H675.565V75.5638H673.285V73.7938H675.565V72.6538C675.565 70.8738 676.015 69.5638 676.915 68.7238C677.835 67.8838 679.315 67.4638 681.355 67.4638V69.2638C679.995 69.2638 679.035 69.5238 678.475 70.0438C677.935 70.5638 677.665 71.4338 677.665 72.6538V73.7938H681.475V75.5638ZM691.951 90.4138C690.411 90.4138 689.021 90.0738 687.781 89.3938C686.561 88.6938 685.591 87.7138 684.871 86.4538C684.171 85.1738 683.821 83.6838 683.821 81.9838C683.821 80.2838 684.181 78.8038 684.901 77.5438C685.621 76.2638 686.601 75.2838 687.841 74.6038C689.081 73.9038 690.471 73.5538 692.011 73.5538C693.551 73.5538 694.941 73.9038 696.181 74.6038C697.441 75.2838 698.421 76.2638 699.121 77.5438C699.841 78.8038 700.201 80.2838 700.201 81.9838C700.201 83.6638 699.841 85.1438 699.121 86.4238C698.401 87.7038 697.411 88.6938 696.151 89.3938C694.891 90.0738 693.491 90.4138 691.951 90.4138ZM691.951 88.5838C693.031 88.5838 694.031 88.3438 694.951 87.8638C695.871 87.3638 696.611 86.6238 697.171 85.6438C697.751 84.6438 698.041 83.4238 698.041 81.9838C698.041 80.5438 697.761 79.3338 697.201 78.3538C696.641 77.3538 695.901 76.6138 694.981 76.1338C694.061 75.6338 693.061 75.3838 691.981 75.3838C690.901 75.3838 689.901 75.6338 688.981 76.1338C688.061 76.6138 687.321 77.3538 686.761 78.3538C686.221 79.3338 685.951 80.5438 685.951 81.9838C685.951 83.4238 686.221 84.6438 686.761 85.6438C687.321 86.6238 688.051 87.3638 688.951 87.8638C689.871 88.3438 690.871 88.5838 691.951 88.5838ZM706.129 76.7038C706.589 75.6838 707.289 74.8938 708.229 74.3338C709.189 73.7738 710.359 73.4938 711.739 73.4938V75.6838H711.169C709.649 75.6838 708.429 76.0938 707.509 76.9138C706.589 77.7338 706.129 79.1038 706.129 81.0238V90.1738H704.029V73.7938H706.129V76.7038ZM722.17 81.9538C722.17 80.2738 722.5 78.8038 723.16 77.5438C723.84 76.2638 724.77 75.2838 725.95 74.6038C727.15 73.9038 728.5 73.5538 730 73.5538C731.56 73.5538 732.9 73.9138 734.02 74.6338C735.16 75.3538 735.98 76.2738 736.48 77.3938V73.7938H738.58V90.1738H736.48V86.5438C735.96 87.6638 735.13 88.5938 733.99 89.3338C732.87 90.0538 731.53 90.4138 729.97 90.4138C728.49 90.4138 727.15 90.0638 725.95 89.3638C724.77 88.6638 723.84 87.6738 723.16 86.3938C722.5 85.1138 722.17 83.6338 722.17 81.9538ZM736.48 81.9838C736.48 80.6638 736.21 79.5038 735.67 78.5038C735.13 77.5038 734.39 76.7338 733.45 76.1938C732.53 75.6538 731.51 75.3838 730.39 75.3838C729.23 75.3838 728.19 75.6438 727.27 76.1638C726.35 76.6838 725.62 77.4438 725.08 78.4438C724.56 79.4238 724.3 80.5938 724.3 81.9538C724.3 83.2938 724.56 84.4738 725.08 85.4938C725.62 86.4938 726.35 87.2638 727.27 87.8038C728.19 88.3238 729.23 88.5838 730.39 88.5838C731.51 88.5838 732.53 88.3138 733.45 87.7738C734.39 87.2338 735.13 86.4638 735.67 85.4638C736.21 84.4638 736.48 83.3038 736.48 81.9838ZM758.195 81.1438C758.195 81.8638 758.175 82.4138 758.135 82.7938H744.545C744.605 84.0338 744.905 85.0938 745.445 85.9738C745.985 86.8538 746.695 87.5238 747.575 87.9838C748.455 88.4238 749.415 88.6438 750.455 88.6438C751.815 88.6438 752.955 88.3138 753.875 87.6538C754.815 86.9938 755.435 86.1038 755.735 84.9838H757.955C757.555 86.5838 756.695 87.8938 755.375 88.9138C754.075 89.9138 752.435 90.4138 750.455 90.4138C748.915 90.4138 747.535 90.0738 746.315 89.3938C745.095 88.6938 744.135 87.7138 743.435 86.4538C742.755 85.1738 742.415 83.6838 742.415 81.9838C742.415 80.2838 742.755 78.7938 743.435 77.5138C744.115 76.2338 745.065 75.2538 746.285 74.5738C747.505 73.8938 748.895 73.5538 750.455 73.5538C752.015 73.5538 753.375 73.8938 754.535 74.5738C755.715 75.2538 756.615 76.1738 757.235 77.3338C757.875 78.4738 758.195 79.7438 758.195 81.1438ZM756.065 81.0838C756.085 79.8638 755.835 78.8238 755.315 77.9638C754.815 77.1038 754.125 76.4538 753.245 76.0138C752.365 75.5738 751.405 75.3538 750.365 75.3538C748.805 75.3538 747.475 75.8538 746.375 76.8538C745.275 77.8538 744.665 79.2638 744.545 81.0838H756.065ZM764.137 76.7038C764.597 75.6838 765.297 74.8938 766.237 74.3338C767.197 73.7738 768.367 73.4938 769.747 73.4938V75.6838H769.177C767.657 75.6838 766.437 76.0938 765.517 76.9138C764.597 77.7338 764.137 79.1038 764.137 81.0238V90.1738H762.037V73.7938H764.137V76.7038ZM773.956 70.7038C773.536 70.7038 773.176 70.5538 772.876 70.2538C772.576 69.9538 772.426 69.5838 772.426 69.1438C772.426 68.7038 772.576 68.3438 772.876 68.0638C773.176 67.7638 773.536 67.6138 773.956 67.6138C774.376 67.6138 774.736 67.7638 775.036 68.0638C775.336 68.3438 775.486 68.7038 775.486 69.1438C775.486 69.5838 775.336 69.9538 775.036 70.2538C774.736 70.5538 774.376 70.7038 773.956 70.7038ZM775.006 73.7938V90.1738H772.906V73.7938H775.006ZM778.801 81.9538C778.801 80.2738 779.131 78.8038 779.791 77.5438C780.471 76.2638 781.401 75.2838 782.581 74.6038C783.781 73.9038 785.131 73.5538 786.631 73.5538C788.191 73.5538 789.531 73.9138 790.651 74.6338C791.791 75.3538 792.611 76.2738 793.111 77.3938V73.7938H795.211V90.1738H793.111V86.5438C792.591 87.6638 791.761 88.5938 790.621 89.3338C789.501 90.0538 788.161 90.4138 786.601 90.4138C785.121 90.4138 783.781 90.0638 782.581 89.3638C781.401 88.6638 780.471 87.6738 779.791 86.3938C779.131 85.1138 778.801 83.6338 778.801 81.9538ZM793.111 81.9838C793.111 80.6638 792.841 79.5038 792.301 78.5038C791.761 77.5038 791.021 76.7338 790.081 76.1938C789.161 75.6538 788.141 75.3838 787.021 75.3838C785.861 75.3838 784.821 75.6438 783.901 76.1638C782.981 76.6838 782.251 77.4438 781.711 78.4438C781.191 79.4238 780.931 80.5938 780.931 81.9538C780.931 83.2938 781.191 84.4738 781.711 85.4938C782.251 86.4938 782.981 87.2638 783.901 87.8038C784.821 88.3238 785.861 88.5838 787.021 88.5838C788.141 88.5838 789.161 88.3138 790.081 87.7738C791.021 87.2338 791.761 86.4638 792.301 85.4638C792.841 84.4638 793.111 83.3038 793.111 81.9838ZM802.105 67.9738V90.1738H800.005V67.9738H802.105ZM820.913 88.1338L826.433 73.7938H828.653L822.083 90.1738H819.713L813.143 73.7938H815.393L820.913 88.1338ZM846.32 81.1438C846.32 81.8638 846.3 82.4138 846.26 82.7938H832.67C832.73 84.0338 833.03 85.0938 833.57 85.9738C834.11 86.8538 834.82 87.5238 835.7 87.9838C836.58 88.4238 837.54 88.6438 838.58 88.6438C839.94 88.6438 841.08 88.3138 842 87.6538C842.94 86.9938 843.56 86.1038 843.86 84.9838H846.08C845.68 86.5838 844.82 87.8938 843.5 88.9138C842.2 89.9138 840.56 90.4138 838.58 90.4138C837.04 90.4138 835.66 90.0738 834.44 89.3938C833.22 88.6938 832.26 87.7138 831.56 86.4538C830.88 85.1738 830.54 83.6838 830.54 81.9838C830.54 80.2838 830.88 78.7938 831.56 77.5138C832.24 76.2338 833.19 75.2538 834.41 74.5738C835.63 73.8938 837.02 73.5538 838.58 73.5538C840.14 73.5538 841.5 73.8938 842.66 74.5738C843.84 75.2538 844.74 76.1738 845.36 77.3338C846 78.4738 846.32 79.7438 846.32 81.1438ZM844.19 81.0838C844.21 79.8638 843.96 78.8238 843.44 77.9638C842.94 77.1038 842.25 76.4538 841.37 76.0138C840.49 75.5738 839.53 75.3538 838.49 75.3538C836.93 75.3538 835.6 75.8538 834.5 76.8538C833.4 77.8538 832.79 79.2638 832.67 81.0838H844.19ZM857.962 73.4938C859.202 73.4938 860.312 73.7538 861.292 74.2738C862.292 74.7938 863.072 75.5938 863.632 76.6738C864.212 77.7338 864.502 79.0338 864.502 80.5738V90.1738H862.432V80.8138C862.432 79.0338 861.982 77.6738 861.082 76.7338C860.202 75.7938 858.992 75.3238 857.452 75.3238C855.872 75.3238 854.612 75.8238 853.672 76.8238C852.732 77.8238 852.262 79.2938 852.262 81.2338V90.1738H850.162V67.9738H852.262V76.5838C852.782 75.6038 853.542 74.8438 854.542 74.3038C855.562 73.7638 856.702 73.4938 857.962 73.4938ZM870.196 70.7038C869.776 70.7038 869.416 70.5538 869.116 70.2538C868.816 69.9538 868.666 69.5838 868.666 69.1438C868.666 68.7038 868.816 68.3438 869.116 68.0638C869.416 67.7638 869.776 67.6138 870.196 67.6138C870.616 67.6138 870.976 67.7638 871.276 68.0638C871.576 68.3438 871.726 68.7038 871.726 69.1438C871.726 69.5838 871.576 69.9538 871.276 70.2538C870.976 70.5538 870.616 70.7038 870.196 70.7038ZM871.246 73.7938V90.1738H869.146V73.7938H871.246ZM875.042 81.9838C875.042 80.2838 875.382 78.8038 876.062 77.5438C876.742 76.2638 877.682 75.2838 878.882 74.6038C880.082 73.9038 881.452 73.5538 882.992 73.5538C885.012 73.5538 886.672 74.0538 887.972 75.0538C889.292 76.0538 890.142 77.4138 890.522 79.1338H888.272C887.992 77.9538 887.382 77.0338 886.442 76.3738C885.522 75.6938 884.372 75.3538 882.992 75.3538C881.892 75.3538 880.902 75.6038 880.022 76.1038C879.142 76.6038 878.442 77.3538 877.922 78.3538C877.422 79.3338 877.172 80.5438 877.172 81.9838C877.172 83.4238 877.422 84.6438 877.922 85.6438C878.442 86.6438 879.142 87.3938 880.022 87.8938C880.902 88.3938 881.892 88.6438 882.992 88.6438C884.372 88.6438 885.522 88.3138 886.442 87.6538C887.382 86.9738 887.992 86.0338 888.272 84.8338H890.522C890.142 86.5138 889.292 87.8638 887.972 88.8838C886.652 89.9038 884.992 90.4138 882.992 90.4138C881.452 90.4138 880.082 90.0738 878.882 89.3938C877.682 88.6938 876.742 87.7138 876.062 86.4538C875.382 85.1738 875.042 83.6838 875.042 81.9838ZM896.5 67.9738V90.1738H894.4V67.9738H896.5ZM916.075 81.1438C916.075 81.8638 916.055 82.4138 916.015 82.7938H902.425C902.485 84.0338 902.785 85.0938 903.325 85.9738C903.865 86.8538 904.575 87.5238 905.455 87.9838C906.335 88.4238 907.295 88.6438 908.335 88.6438C909.695 88.6438 910.835 88.3138 911.755 87.6538C912.695 86.9938 913.315 86.1038 913.615 84.9838H915.835C915.435 86.5838 914.575 87.8938 913.255 88.9138C911.955 89.9138 910.315 90.4138 908.335 90.4138C906.795 90.4138 905.415 90.0738 904.195 89.3938C902.975 88.6938 902.015 87.7138 901.315 86.4538C900.635 85.1738 900.295 83.6838 900.295 81.9838C900.295 80.2838 900.635 78.7938 901.315 77.5138C901.995 76.2338 902.945 75.2538 904.165 74.5738C905.385 73.8938 906.775 73.5538 908.335 73.5538C909.895 73.5538 911.255 73.8938 912.415 74.5738C913.595 75.2538 914.495 76.1738 915.115 77.3338C915.755 78.4738 916.075 79.7438 916.075 81.1438ZM913.945 81.0838C913.965 79.8638 913.715 78.8238 913.195 77.9638C912.695 77.1038 912.005 76.4538 911.125 76.0138C910.245 75.5738 909.285 75.3538 908.245 75.3538C906.685 75.3538 905.355 75.8538 904.255 76.8538C903.155 77.8538 902.545 79.2638 902.425 81.0838H913.945ZM925.558 90.4138C923.678 90.4138 922.138 89.9838 920.938 89.1238C919.758 88.2438 919.098 87.0538 918.958 85.5538H921.118C921.218 86.4738 921.648 87.2238 922.408 87.8038C923.188 88.3638 924.228 88.6438 925.528 88.6438C926.668 88.6438 927.558 88.3738 928.198 87.8338C928.858 87.2938 929.188 86.6238 929.188 85.8238C929.188 85.2638 929.008 84.8038 928.648 84.4438C928.288 84.0838 927.828 83.8038 927.268 83.6038C926.728 83.3838 925.988 83.1538 925.048 82.9138C923.828 82.5938 922.838 82.2738 922.078 81.9538C921.318 81.6338 920.668 81.1638 920.128 80.5438C919.608 79.9038 919.348 79.0538 919.348 77.9938C919.348 77.1938 919.588 76.4538 920.068 75.7738C920.548 75.0938 921.228 74.5538 922.108 74.1538C922.988 73.7538 923.988 73.5538 925.108 73.5538C926.868 73.5538 928.288 74.0038 929.368 74.9038C930.448 75.7838 931.028 77.0038 931.108 78.5638H929.008C928.948 77.6038 928.568 76.8338 927.868 76.2538C927.188 75.6538 926.248 75.3538 925.048 75.3538C923.988 75.3538 923.128 75.6038 922.468 76.1038C921.808 76.6038 921.478 77.2238 921.478 77.9638C921.478 78.6038 921.668 79.1338 922.048 79.5538C922.448 79.9538 922.938 80.2738 923.518 80.5138C924.098 80.7338 924.878 80.9838 925.858 81.2638C927.038 81.5838 927.978 81.8938 928.678 82.1938C929.378 82.4938 929.978 82.9338 930.478 83.5138C930.978 84.0938 931.238 84.8638 931.258 85.8238C931.258 86.7038 931.018 87.4938 930.538 88.1938C930.058 88.8738 929.388 89.4138 928.528 89.8138C927.668 90.2138 926.678 90.4138 925.558 90.4138ZM965.043 73.7938L959.913 90.1738H957.813L953.283 76.4338L948.753 90.1738H946.623L941.493 73.7938H943.623L947.703 88.0438L952.293 73.7938H954.393L958.923 88.0738L962.973 73.7938H965.043ZM968.956 70.7038C968.536 70.7038 968.176 70.5538 967.876 70.2538C967.576 69.9538 967.426 69.5838 967.426 69.1438C967.426 68.7038 967.576 68.3438 967.876 68.0638C968.176 67.7638 968.536 67.6138 968.956 67.6138C969.376 67.6138 969.736 67.7638 970.036 68.0638C970.336 68.3438 970.486 68.7038 970.486 69.1438C970.486 69.5838 970.336 69.9538 970.036 70.2538C969.736 70.5538 969.376 70.7038 968.956 70.7038ZM970.006 73.7938V90.1738H967.906V73.7938H970.006ZM977.491 75.5638V85.7338C977.491 86.7338 977.681 87.4238 978.061 87.8038C978.441 88.1838 979.111 88.3738 980.071 88.3738H981.991V90.1738H979.741C978.261 90.1738 977.161 89.8338 976.441 89.1538C975.721 88.4538 975.361 87.3138 975.361 85.7338V75.5638H973.081V73.7938H975.361V69.6838H977.491V73.7938H981.991V75.5638H977.491ZM993.255 73.4938C994.495 73.4938 995.605 73.7538 996.585 74.2738C997.585 74.7938 998.365 75.5938 998.925 76.6738C999.505 77.7338 999.795 79.0338 999.795 80.5738V90.1738H997.725V80.8138C997.725 79.0338 997.275 77.6738 996.375 76.7338C995.495 75.7938 994.285 75.3238 992.745 75.3238C991.165 75.3238 989.905 75.8238 988.965 76.8238C988.025 77.8238 987.555 79.2938 987.555 81.2338V90.1738H985.455V67.9738H987.555V76.5838C988.075 75.6038 988.835 74.8438 989.835 74.3038C990.855 73.7638 991.995 73.4938 993.255 73.4938ZM1011.61 90.4138C1010.07 90.4138 1008.68 90.0738 1007.44 89.3938C1006.22 88.6938 1005.25 87.7138 1004.53 86.4538C1003.83 85.1738 1003.48 83.6838 1003.48 81.9838C1003.48 80.2838 1003.84 78.8038 1004.56 77.5438C1005.28 76.2638 1006.26 75.2838 1007.5 74.6038C1008.74 73.9038 1010.13 73.5538 1011.67 73.5538C1013.21 73.5538 1014.6 73.9038 1015.84 74.6038C1017.1 75.2838 1018.08 76.2638 1018.78 77.5438C1019.5 78.8038 1019.86 80.2838 1019.86 81.9838C1019.86 83.6638 1019.5 85.1438 1018.78 86.4238C1018.06 87.7038 1017.07 88.6938 1015.81 89.3938C1014.55 90.0738 1013.15 90.4138 1011.61 90.4138ZM1011.61 88.5838C1012.69 88.5838 1013.69 88.3438 1014.61 87.8638C1015.53 87.3638 1016.27 86.6238 1016.83 85.6438C1017.41 84.6438 1017.7 83.4238 1017.7 81.9838C1017.7 80.5438 1017.42 79.3338 1016.86 78.3538C1016.3 77.3538 1015.56 76.6138 1014.64 76.1338C1013.72 75.6338 1012.72 75.3838 1011.64 75.3838C1010.56 75.3838 1009.56 75.6338 1008.64 76.1338C1007.72 76.6138 1006.98 77.3538 1006.42 78.3538C1005.88 79.3338 1005.61 80.5438 1005.61 81.9838C1005.61 83.4238 1005.88 84.6438 1006.42 85.6438C1006.98 86.6238 1007.71 87.3638 1008.61 87.8638C1009.53 88.3438 1010.53 88.5838 1011.61 88.5838ZM1037.88 73.7938V90.1738H1035.78V87.2938C1035.3 88.3138 1034.56 89.0938 1033.56 89.6338C1032.56 90.1738 1031.44 90.4438 1030.2 90.4438C1028.24 90.4438 1026.64 89.8438 1025.4 88.6438C1024.16 87.4238 1023.54 85.6638 1023.54 83.3638V73.7938H1025.61V83.1238C1025.61 84.9038 1026.05 86.2638 1026.93 87.2038C1027.83 88.1438 1029.05 88.6138 1030.59 88.6138C1032.17 88.6138 1033.43 88.1138 1034.37 87.1138C1035.31 86.1138 1035.78 84.6438 1035.78 82.7038V73.7938H1037.88ZM1045.4 75.5638V85.7338C1045.4 86.7338 1045.59 87.4238 1045.97 87.8038C1046.35 88.1838 1047.02 88.3738 1047.98 88.3738H1049.9V90.1738H1047.65C1046.17 90.1738 1045.07 89.8338 1044.35 89.1538C1043.63 88.4538 1043.27 87.3138 1043.27 85.7338V75.5638H1040.99V73.7938H1043.27V69.6838H1045.4V73.7938H1049.9V75.5638H1045.4ZM1076.42 81.1438C1076.42 81.8638 1076.4 82.4138 1076.36 82.7938H1062.77C1062.83 84.0338 1063.13 85.0938 1063.67 85.9738C1064.21 86.8538 1064.92 87.5238 1065.8 87.9838C1066.68 88.4238 1067.64 88.6438 1068.68 88.6438C1070.04 88.6438 1071.18 88.3138 1072.1 87.6538C1073.04 86.9938 1073.66 86.1038 1073.96 84.9838H1076.18C1075.78 86.5838 1074.92 87.8938 1073.6 88.9138C1072.3 89.9138 1070.66 90.4138 1068.68 90.4138C1067.14 90.4138 1065.76 90.0738 1064.54 89.3938C1063.32 88.6938 1062.36 87.7138 1061.66 86.4538C1060.98 85.1738 1060.64 83.6838 1060.64 81.9838C1060.64 80.2838 1060.98 78.7938 1061.66 77.5138C1062.34 76.2338 1063.29 75.2538 1064.51 74.5738C1065.73 73.8938 1067.12 73.5538 1068.68 73.5538C1070.24 73.5538 1071.6 73.8938 1072.76 74.5738C1073.94 75.2538 1074.84 76.1738 1075.46 77.3338C1076.1 78.4738 1076.42 79.7438 1076.42 81.1438ZM1074.29 81.0838C1074.31 79.8638 1074.06 78.8238 1073.54 77.9638C1073.04 77.1038 1072.35 76.4538 1071.47 76.0138C1070.59 75.5738 1069.63 75.3538 1068.59 75.3538C1067.03 75.3538 1065.7 75.8538 1064.6 76.8538C1063.5 77.8538 1062.89 79.2638 1062.77 81.0838H1074.29ZM1088.84 90.1738L1084.61 83.5738L1080.53 90.1738H1078.31L1083.59 81.9838L1078.37 73.7938H1080.74L1084.91 80.3038L1088.96 73.7938H1091.15L1085.93 81.8938L1091.21 90.1738H1088.84ZM1096.79 75.5638V85.7338C1096.79 86.7338 1096.98 87.4238 1097.36 87.8038C1097.74 88.1838 1098.41 88.3738 1099.37 88.3738H1101.29V90.1738H1099.04C1097.56 90.1738 1096.46 89.8338 1095.74 89.1538C1095.02 88.4538 1094.66 87.3138 1094.66 85.7338V75.5638H1092.38V73.7938H1094.66V69.6838H1096.79V73.7938H1101.29V75.5638H1096.79ZM1119.57 81.1438C1119.57 81.8638 1119.55 82.4138 1119.51 82.7938H1105.92C1105.98 84.0338 1106.28 85.0938 1106.82 85.9738C1107.36 86.8538 1108.07 87.5238 1108.95 87.9838C1109.83 88.4238 1110.79 88.6438 1111.83 88.6438C1113.19 88.6438 1114.33 88.3138 1115.25 87.6538C1116.19 86.9938 1116.81 86.1038 1117.11 84.9838H1119.33C1118.93 86.5838 1118.07 87.8938 1116.75 88.9138C1115.45 89.9138 1113.81 90.4138 1111.83 90.4138C1110.29 90.4138 1108.91 90.0738 1107.69 89.3938C1106.47 88.6938 1105.51 87.7138 1104.81 86.4538C1104.13 85.1738 1103.79 83.6838 1103.79 81.9838C1103.79 80.2838 1104.13 78.7938 1104.81 77.5138C1105.49 76.2338 1106.44 75.2538 1107.66 74.5738C1108.88 73.8938 1110.27 73.5538 1111.83 73.5538C1113.39 73.5538 1114.75 73.8938 1115.91 74.5738C1117.09 75.2538 1117.99 76.1738 1118.61 77.3338C1119.25 78.4738 1119.57 79.7438 1119.57 81.1438ZM1117.44 81.0838C1117.46 79.8638 1117.21 78.8238 1116.69 77.9638C1116.19 77.1038 1115.5 76.4538 1114.62 76.0138C1113.74 75.5738 1112.78 75.3538 1111.74 75.3538C1110.18 75.3538 1108.85 75.8538 1107.75 76.8538C1106.65 77.8538 1106.04 79.2638 1105.92 81.0838H1117.44ZM1125.51 76.7038C1125.97 75.6838 1126.67 74.8938 1127.61 74.3338C1128.57 73.7738 1129.74 73.4938 1131.12 73.4938V75.6838H1130.55C1129.03 75.6838 1127.81 76.0938 1126.89 76.9138C1125.97 77.7338 1125.51 79.1038 1125.51 81.0238V90.1738H1123.41V73.7938H1125.51V76.7038ZM1141.96 73.4938C1143.92 73.4938 1145.52 74.1038 1146.76 75.3238C1148 76.5238 1148.62 78.2738 1148.62 80.5738V90.1738H1146.55V80.8138C1146.55 79.0338 1146.1 77.6738 1145.2 76.7338C1144.32 75.7938 1143.11 75.3238 1141.57 75.3238C1139.99 75.3238 1138.73 75.8238 1137.79 76.8238C1136.85 77.8238 1136.38 79.2938 1136.38 81.2338V90.1738H1134.28V73.7938H1136.38V76.5838C1136.9 75.5838 1137.65 74.8238 1138.63 74.3038C1139.61 73.7638 1140.72 73.4938 1141.96 73.4938ZM1152.31 81.9538C1152.31 80.2738 1152.64 78.8038 1153.3 77.5438C1153.98 76.2638 1154.91 75.2838 1156.09 74.6038C1157.29 73.9038 1158.64 73.5538 1160.14 73.5538C1161.7 73.5538 1163.04 73.9138 1164.16 74.6338C1165.3 75.3538 1166.12 76.2738 1166.62 77.3938V73.7938H1168.72V90.1738H1166.62V86.5438C1166.1 87.6638 1165.27 88.5938 1164.13 89.3338C1163.01 90.0538 1161.67 90.4138 1160.11 90.4138C1158.63 90.4138 1157.29 90.0638 1156.09 89.3638C1154.91 88.6638 1153.98 87.6738 1153.3 86.3938C1152.64 85.1138 1152.31 83.6338 1152.31 81.9538ZM1166.62 81.9838C1166.62 80.6638 1166.35 79.5038 1165.81 78.5038C1165.27 77.5038 1164.53 76.7338 1163.59 76.1938C1162.67 75.6538 1161.65 75.3838 1160.53 75.3838C1159.37 75.3838 1158.33 75.6438 1157.41 76.1638C1156.49 76.6838 1155.76 77.4438 1155.22 78.4438C1154.7 79.4238 1154.44 80.5938 1154.44 81.9538C1154.44 83.2938 1154.7 84.4738 1155.22 85.4938C1155.76 86.4938 1156.49 87.2638 1157.41 87.8038C1158.33 88.3238 1159.37 88.5838 1160.53 88.5838C1161.65 88.5838 1162.67 88.3138 1163.59 87.7738C1164.53 87.2338 1165.27 86.4638 1165.81 85.4638C1166.35 84.4638 1166.62 83.3038 1166.62 81.9838ZM1175.61 67.9738V90.1738H1173.51V67.9738H1175.61ZM38.44 126.954C38.44 125.274 38.77 123.804 39.43 122.544C40.11 121.264 41.04 120.284 42.22 119.604C43.42 118.904 44.77 118.554 46.27 118.554C47.83 118.554 49.17 118.914 50.29 119.634C51.43 120.354 52.25 121.274 52.75 122.394V118.794H54.85V135.174H52.75V131.544C52.23 132.664 51.4 133.594 50.26 134.334C49.14 135.054 47.8 135.414 46.24 135.414C44.76 135.414 43.42 135.064 42.22 134.364C41.04 133.664 40.11 132.674 39.43 131.394C38.77 130.114 38.44 128.634 38.44 126.954ZM52.75 126.984C52.75 125.664 52.48 124.504 51.94 123.504C51.4 122.504 50.66 121.734 49.72 121.194C48.8 120.654 47.78 120.384 46.66 120.384C45.5 120.384 44.46 120.644 43.54 121.164C42.62 121.684 41.89 122.444 41.35 123.444C40.83 124.424 40.57 125.594 40.57 126.954C40.57 128.294 40.83 129.474 41.35 130.494C41.89 131.494 42.62 132.264 43.54 132.804C44.46 133.324 45.5 133.584 46.66 133.584C47.78 133.584 48.8 133.314 49.72 132.774C50.66 132.234 51.4 131.464 51.94 130.464C52.48 129.464 52.75 128.304 52.75 126.984ZM60.6941 115.704C60.2741 115.704 59.9141 115.554 59.6141 115.254C59.3141 114.954 59.1641 114.584 59.1641 114.144C59.1641 113.704 59.3141 113.344 59.6141 113.064C59.9141 112.764 60.2741 112.614 60.6941 112.614C61.1141 112.614 61.4741 112.764 61.7741 113.064C62.0741 113.344 62.2241 113.704 62.2241 114.144C62.2241 114.584 62.0741 114.954 61.7741 115.254C61.4741 115.554 61.1141 115.704 60.6941 115.704ZM61.7441 118.794V135.174H59.6441V118.794H61.7441ZM65.5396 126.954C65.5396 125.274 65.8796 123.804 66.5596 122.544C67.2396 121.264 68.1696 120.284 69.3496 119.604C70.5496 118.904 71.8996 118.554 73.3996 118.554C74.8396 118.554 76.1396 118.904 77.2996 119.604C78.4596 120.304 79.3096 121.214 79.8496 122.334V112.974H81.9496V135.174H79.8496V131.514C79.3496 132.654 78.5296 133.594 77.3896 134.334C76.2496 135.054 74.9096 135.414 73.3696 135.414C71.8696 135.414 70.5196 135.064 69.3196 134.364C68.1396 133.664 67.2096 132.674 66.5296 131.394C65.8696 130.114 65.5396 128.634 65.5396 126.954ZM79.8496 126.984C79.8496 125.664 79.5796 124.504 79.0396 123.504C78.4996 122.504 77.7596 121.734 76.8196 121.194C75.8996 120.654 74.8796 120.384 73.7596 120.384C72.5996 120.384 71.5596 120.644 70.6396 121.164C69.7196 121.684 68.9896 122.444 68.4496 123.444C67.9296 124.424 67.6696 125.594 67.6696 126.954C67.6696 128.294 67.9296 129.474 68.4496 130.494C68.9896 131.494 69.7196 132.264 70.6396 132.804C71.5596 133.324 72.5996 133.584 73.7596 133.584C74.8796 133.584 75.8996 133.314 76.8196 132.774C77.7596 132.234 78.4996 131.464 79.0396 130.464C79.5796 129.464 79.8496 128.304 79.8496 126.984ZM92.3838 135.414C90.5038 135.414 88.9638 134.984 87.7638 134.124C86.5838 133.244 85.9238 132.054 85.7838 130.554H87.9438C88.0438 131.474 88.4738 132.224 89.2338 132.804C90.0138 133.364 91.0538 133.644 92.3538 133.644C93.4938 133.644 94.3838 133.374 95.0238 132.834C95.6838 132.294 96.0138 131.624 96.0138 130.824C96.0138 130.264 95.8338 129.804 95.4738 129.444C95.1138 129.084 94.6538 128.804 94.0938 128.604C93.5538 128.384 92.8138 128.154 91.8738 127.914C90.6538 127.594 89.6638 127.274 88.9038 126.954C88.1438 126.634 87.4938 126.164 86.9538 125.544C86.4338 124.904 86.1738 124.054 86.1738 122.994C86.1738 122.194 86.4138 121.454 86.8938 120.774C87.3738 120.094 88.0538 119.554 88.9338 119.154C89.8138 118.754 90.8138 118.554 91.9338 118.554C93.6938 118.554 95.1138 119.004 96.1938 119.904C97.2738 120.784 97.8538 122.004 97.9338 123.564H95.8338C95.7738 122.604 95.3938 121.834 94.6938 121.254C94.0138 120.654 93.0738 120.354 91.8738 120.354C90.8138 120.354 89.9538 120.604 89.2938 121.104C88.6338 121.604 88.3037 122.224 88.3037 122.964C88.3037 123.604 88.4938 124.134 88.8738 124.554C89.2738 124.954 89.7638 125.274 90.3438 125.514C90.9238 125.734 91.7038 125.984 92.6838 126.264C93.8638 126.584 94.8038 126.894 95.5038 127.194C96.2038 127.494 96.8038 127.934 97.3038 128.514C97.8038 129.094 98.0638 129.864 98.0838 130.824C98.0838 131.704 97.8438 132.494 97.3638 133.194C96.8838 133.874 96.2138 134.414 95.3538 134.814C94.4938 135.214 93.5038 135.414 92.3838 135.414ZM123.157 123.174V124.944H101.587V123.174H123.157ZM126.536 126.954C126.536 125.274 126.866 123.804 127.526 122.544C128.206 121.264 129.136 120.284 130.316 119.604C131.516 118.904 132.866 118.554 134.366 118.554C135.926 118.554 137.266 118.914 138.386 119.634C139.526 120.354 140.346 121.274 140.846 122.394V118.794H142.946V135.174H140.846V131.544C140.326 132.664 139.496 133.594 138.356 134.334C137.236 135.054 135.896 135.414 134.336 135.414C132.856 135.414 131.516 135.064 130.316 134.364C129.136 133.664 128.206 132.674 127.526 131.394C126.866 130.114 126.536 128.634 126.536 126.954ZM140.846 126.984C140.846 125.664 140.576 124.504 140.036 123.504C139.496 122.504 138.756 121.734 137.816 121.194C136.896 120.654 135.876 120.384 134.756 120.384C133.596 120.384 132.556 120.644 131.636 121.164C130.716 121.684 129.986 122.444 129.446 123.444C128.926 124.424 128.666 125.594 128.666 126.954C128.666 128.294 128.926 129.474 129.446 130.494C129.986 131.494 130.716 132.264 131.636 132.804C132.556 133.324 133.596 133.584 134.756 133.584C135.876 133.584 136.896 133.314 137.816 132.774C138.756 132.234 139.496 131.464 140.036 130.464C140.576 129.464 140.846 128.304 140.846 126.984ZM161.612 135.414C159.732 135.414 158.192 134.984 156.992 134.124C155.812 133.244 155.152 132.054 155.012 130.554H157.172C157.272 131.474 157.702 132.224 158.462 132.804C159.242 133.364 160.282 133.644 161.582 133.644C162.722 133.644 163.612 133.374 164.252 132.834C164.912 132.294 165.242 131.624 165.242 130.824C165.242 130.264 165.062 129.804 164.702 129.444C164.342 129.084 163.882 128.804 163.322 128.604C162.782 128.384 162.042 128.154 161.102 127.914C159.882 127.594 158.892 127.274 158.132 126.954C157.372 126.634 156.722 126.164 156.182 125.544C155.662 124.904 155.402 124.054 155.402 122.994C155.402 122.194 155.642 121.454 156.122 120.774C156.602 120.094 157.282 119.554 158.162 119.154C159.042 118.754 160.042 118.554 161.162 118.554C162.922 118.554 164.342 119.004 165.422 119.904C166.502 120.784 167.082 122.004 167.162 123.564H165.062C165.002 122.604 164.622 121.834 163.922 121.254C163.242 120.654 162.302 120.354 161.102 120.354C160.042 120.354 159.182 120.604 158.522 121.104C157.862 121.604 157.532 122.224 157.532 122.964C157.532 123.604 157.722 124.134 158.102 124.554C158.502 124.954 158.992 125.274 159.572 125.514C160.152 125.734 160.932 125.984 161.912 126.264C163.092 126.584 164.032 126.894 164.732 127.194C165.432 127.494 166.032 127.934 166.532 128.514C167.032 129.094 167.292 129.864 167.312 130.824C167.312 131.704 167.072 132.494 166.592 133.194C166.112 133.874 165.442 134.414 164.582 134.814C163.722 135.214 162.732 135.414 161.612 135.414ZM173.995 120.564V130.734C173.995 131.734 174.185 132.424 174.565 132.804C174.945 133.184 175.615 133.374 176.575 133.374H178.495V135.174H176.245C174.765 135.174 173.665 134.834 172.945 134.154C172.225 133.454 171.865 132.314 171.865 130.734V120.564H169.585V118.794H171.865V114.684H173.995V118.794H178.495V120.564H173.995ZM196.779 126.144C196.779 126.864 196.759 127.414 196.719 127.794H183.129C183.189 129.034 183.489 130.094 184.029 130.974C184.569 131.854 185.279 132.524 186.159 132.984C187.039 133.424 187.999 133.644 189.039 133.644C190.399 133.644 191.539 133.314 192.459 132.654C193.399 131.994 194.019 131.104 194.319 129.984H196.539C196.139 131.584 195.279 132.894 193.959 133.914C192.659 134.914 191.019 135.414 189.039 135.414C187.499 135.414 186.119 135.074 184.899 134.394C183.679 133.694 182.719 132.714 182.019 131.454C181.339 130.174 180.999 128.684 180.999 126.984C180.999 125.284 181.339 123.794 182.019 122.514C182.699 121.234 183.649 120.254 184.869 119.574C186.089 118.894 187.479 118.554 189.039 118.554C190.599 118.554 191.959 118.894 193.119 119.574C194.299 120.254 195.199 121.174 195.819 122.334C196.459 123.474 196.779 124.744 196.779 126.144ZM194.649 126.084C194.669 124.864 194.419 123.824 193.899 122.964C193.399 122.104 192.709 121.454 191.829 121.014C190.949 120.574 189.989 120.354 188.949 120.354C187.389 120.354 186.059 120.854 184.959 121.854C183.859 122.854 183.249 124.264 183.129 126.084H194.649ZM202.691 122.394C203.211 121.294 204.031 120.384 205.151 119.664C206.291 118.924 207.641 118.554 209.201 118.554C210.681 118.554 212.011 118.904 213.191 119.604C214.391 120.284 215.321 121.264 215.981 122.544C216.661 123.804 217.001 125.274 217.001 126.954C217.001 128.634 216.661 130.114 215.981 131.394C215.321 132.674 214.391 133.664 213.191 134.364C212.011 135.064 210.681 135.414 209.201 135.414C207.661 135.414 206.321 135.054 205.181 134.334C204.041 133.594 203.211 132.674 202.691 131.574V142.914H200.621V118.794H202.691V122.394ZM214.871 126.954C214.871 125.594 214.601 124.424 214.061 123.444C213.541 122.444 212.821 121.684 211.901 121.164C210.981 120.644 209.941 120.384 208.781 120.384C207.661 120.384 206.631 120.654 205.691 121.194C204.771 121.734 204.041 122.504 203.501 123.504C202.961 124.504 202.691 125.664 202.691 126.984C202.691 128.304 202.961 129.464 203.501 130.464C204.041 131.464 204.771 132.234 205.691 132.774C206.631 133.314 207.661 133.584 208.781 133.584C209.941 133.584 210.981 133.324 211.901 132.804C212.821 132.264 213.541 131.494 214.061 130.494C214.601 129.474 214.871 128.294 214.871 126.954ZM231.827 120.564V130.734C231.827 131.734 232.017 132.424 232.397 132.804C232.777 133.184 233.447 133.374 234.407 133.374H236.327V135.174H234.077C232.597 135.174 231.497 134.834 230.777 134.154C230.057 133.454 229.697 132.314 229.697 130.734V120.564H227.417V118.794H229.697V114.684H231.827V118.794H236.327V120.564H231.827ZM246.961 135.414C245.421 135.414 244.031 135.074 242.791 134.394C241.571 133.694 240.601 132.714 239.881 131.454C239.181 130.174 238.831 128.684 238.831 126.984C238.831 125.284 239.191 123.804 239.911 122.544C240.631 121.264 241.611 120.284 242.851 119.604C244.091 118.904 245.481 118.554 247.021 118.554C248.561 118.554 249.951 118.904 251.191 119.604C252.451 120.284 253.431 121.264 254.131 122.544C254.851 123.804 255.211 125.284 255.211 126.984C255.211 128.664 254.851 130.144 254.131 131.424C253.411 132.704 252.421 133.694 251.161 134.394C249.901 135.074 248.501 135.414 246.961 135.414ZM246.961 133.584C248.041 133.584 249.041 133.344 249.961 132.864C250.881 132.364 251.621 131.624 252.181 130.644C252.761 129.644 253.051 128.424 253.051 126.984C253.051 125.544 252.771 124.334 252.211 123.354C251.651 122.354 250.911 121.614 249.991 121.134C249.071 120.634 248.071 120.384 246.991 120.384C245.911 120.384 244.911 120.634 243.991 121.134C243.071 121.614 242.331 122.354 241.771 123.354C241.231 124.334 240.961 125.544 240.961 126.984C240.961 128.424 241.231 129.644 241.771 130.644C242.331 131.624 243.061 132.364 243.961 132.864C244.881 133.344 245.881 133.584 246.961 133.584ZM280.639 118.794L275.509 135.174H273.409L268.879 121.434L264.349 135.174H262.219L257.089 118.794H259.219L263.299 133.044L267.889 118.794H269.989L274.519 133.074L278.569 118.794H280.639ZM282.542 126.954C282.542 125.274 282.872 123.804 283.532 122.544C284.212 121.264 285.142 120.284 286.322 119.604C287.522 118.904 288.872 118.554 290.372 118.554C291.932 118.554 293.272 118.914 294.392 119.634C295.532 120.354 296.352 121.274 296.852 122.394V118.794H298.952V135.174H296.852V131.544C296.332 132.664 295.502 133.594 294.362 134.334C293.242 135.054 291.902 135.414 290.342 135.414C288.862 135.414 287.522 135.064 286.322 134.364C285.142 133.664 284.212 132.674 283.532 131.394C282.872 130.114 282.542 128.634 282.542 126.954ZM296.852 126.984C296.852 125.664 296.582 124.504 296.042 123.504C295.502 122.504 294.762 121.734 293.822 121.194C292.902 120.654 291.882 120.384 290.762 120.384C289.602 120.384 288.562 120.644 287.642 121.164C286.722 121.684 285.992 122.444 285.452 123.444C284.932 124.424 284.672 125.594 284.672 126.954C284.672 128.294 284.932 129.474 285.452 130.494C285.992 131.494 286.722 132.264 287.642 132.804C288.562 133.324 289.602 133.584 290.762 133.584C291.882 133.584 292.902 133.314 293.822 132.774C294.762 132.234 295.502 131.464 296.042 130.464C296.582 129.464 296.852 128.304 296.852 126.984ZM305.846 121.704C306.306 120.684 307.006 119.894 307.946 119.334C308.906 118.774 310.076 118.494 311.456 118.494V120.684H310.886C309.366 120.684 308.146 121.094 307.226 121.914C306.306 122.734 305.846 124.104 305.846 126.024V135.174H303.746V118.794H305.846V121.704ZM313.655 126.954C313.655 125.274 313.995 123.804 314.675 122.544C315.355 121.264 316.285 120.284 317.465 119.604C318.665 118.904 320.015 118.554 321.515 118.554C322.955 118.554 324.255 118.904 325.415 119.604C326.575 120.304 327.425 121.214 327.965 122.334V112.974H330.065V135.174H327.965V131.514C327.465 132.654 326.645 133.594 325.505 134.334C324.365 135.054 323.025 135.414 321.485 135.414C319.985 135.414 318.635 135.064 317.435 134.364C316.255 133.664 315.325 132.674 314.645 131.394C313.985 130.114 313.655 128.634 313.655 126.954ZM327.965 126.984C327.965 125.664 327.695 124.504 327.155 123.504C326.615 122.504 325.875 121.734 324.935 121.194C324.015 120.654 322.995 120.384 321.875 120.384C320.715 120.384 319.675 120.644 318.755 121.164C317.835 121.684 317.105 122.444 316.565 123.444C316.045 124.424 315.785 125.594 315.785 126.954C315.785 128.294 316.045 129.474 316.565 130.494C317.105 131.494 317.835 132.264 318.755 132.804C319.675 133.324 320.715 133.584 321.875 133.584C322.995 133.584 324.015 133.314 324.935 132.774C325.875 132.234 326.615 131.464 327.155 130.464C327.695 129.464 327.965 128.304 327.965 126.984ZM363.581 114.474V135.174H361.481V118.644L354.101 135.174H352.571L345.191 118.704V135.174H343.091V114.474H345.311L353.321 132.414L361.331 114.474H363.581ZM367.385 126.954C367.385 125.274 367.715 123.804 368.375 122.544C369.055 121.264 369.985 120.284 371.165 119.604C372.365 118.904 373.715 118.554 375.215 118.554C376.775 118.554 378.115 118.914 379.235 119.634C380.375 120.354 381.195 121.274 381.695 122.394V118.794H383.795V135.174H381.695V131.544C381.175 132.664 380.345 133.594 379.205 134.334C378.085 135.054 376.745 135.414 375.185 135.414C373.705 135.414 372.365 135.064 371.165 134.364C369.985 133.664 369.055 132.674 368.375 131.394C367.715 130.114 367.385 128.634 367.385 126.954ZM381.695 126.984C381.695 125.664 381.425 124.504 380.885 123.504C380.345 122.504 379.605 121.734 378.665 121.194C377.745 120.654 376.725 120.384 375.605 120.384C374.445 120.384 373.405 120.644 372.485 121.164C371.565 121.684 370.835 122.444 370.295 123.444C369.775 124.424 369.515 125.594 369.515 126.954C369.515 128.294 369.775 129.474 370.295 130.494C370.835 131.494 371.565 132.264 372.485 132.804C373.405 133.324 374.445 133.584 375.605 133.584C376.725 133.584 377.745 133.314 378.665 132.774C379.605 132.234 380.345 131.464 380.885 130.464C381.425 129.464 381.695 128.304 381.695 126.984ZM390.689 121.704C391.149 120.684 391.849 119.894 392.789 119.334C393.749 118.774 394.919 118.494 396.299 118.494V120.684H395.729C394.209 120.684 392.989 121.094 392.069 121.914C391.149 122.734 390.689 124.104 390.689 126.024V135.174H388.589V118.794H390.689V121.704ZM402.189 120.564V130.734C402.189 131.734 402.379 132.424 402.759 132.804C403.139 133.184 403.809 133.374 404.769 133.374H406.689V135.174H404.439C402.959 135.174 401.859 134.834 401.139 134.154C400.419 133.454 400.059 132.314 400.059 130.734V120.564H397.779V118.794H400.059V114.684H402.189V118.794H406.689V120.564H402.189ZM411.202 115.704C410.782 115.704 410.422 115.554 410.122 115.254C409.822 114.954 409.672 114.584 409.672 114.144C409.672 113.704 409.822 113.344 410.122 113.064C410.422 112.764 410.782 112.614 411.202 112.614C411.622 112.614 411.982 112.764 412.282 113.064C412.582 113.344 412.732 113.704 412.732 114.144C412.732 114.584 412.582 114.954 412.282 115.254C411.982 115.554 411.622 115.704 411.202 115.704ZM412.252 118.794V135.174H410.152V118.794H412.252ZM416.047 126.954C416.047 125.274 416.377 123.804 417.037 122.544C417.717 121.264 418.647 120.284 419.827 119.604C421.027 118.904 422.377 118.554 423.877 118.554C425.437 118.554 426.777 118.914 427.897 119.634C429.037 120.354 429.857 121.274 430.357 122.394V118.794H432.457V135.174H430.357V131.544C429.837 132.664 429.007 133.594 427.867 134.334C426.747 135.054 425.407 135.414 423.847 135.414C422.367 135.414 421.027 135.064 419.827 134.364C418.647 133.664 417.717 132.674 417.037 131.394C416.377 130.114 416.047 128.634 416.047 126.954ZM430.357 126.984C430.357 125.664 430.087 124.504 429.547 123.504C429.007 122.504 428.267 121.734 427.327 121.194C426.407 120.654 425.387 120.384 424.267 120.384C423.107 120.384 422.067 120.644 421.147 121.164C420.227 121.684 419.497 122.444 418.957 123.444C418.437 124.424 418.177 125.594 418.177 126.954C418.177 128.294 418.437 129.474 418.957 130.494C419.497 131.494 420.227 132.264 421.147 132.804C422.067 133.324 423.107 133.584 424.267 133.584C425.387 133.584 426.407 133.314 427.327 132.774C428.267 132.234 429.007 131.464 429.547 130.464C430.087 129.464 430.357 128.304 430.357 126.984ZM444.932 118.494C446.892 118.494 448.492 119.104 449.732 120.324C450.972 121.524 451.592 123.274 451.592 125.574V135.174H449.522V125.814C449.522 124.034 449.072 122.674 448.172 121.734C447.292 120.794 446.082 120.324 444.542 120.324C442.962 120.324 441.702 120.824 440.762 121.824C439.822 122.824 439.352 124.294 439.352 126.234V135.174H437.252V118.794H439.352V121.584C439.872 120.584 440.622 119.824 441.602 119.304C442.582 118.764 443.692 118.494 444.932 118.494ZM463.508 126.954C463.508 125.274 463.848 123.804 464.528 122.544C465.208 121.264 466.138 120.284 467.318 119.604C468.518 118.904 469.868 118.554 471.368 118.554C472.808 118.554 474.108 118.904 475.268 119.604C476.428 120.304 477.278 121.214 477.818 122.334V112.974H479.918V135.174H477.818V131.514C477.318 132.654 476.498 133.594 475.358 134.334C474.218 135.054 472.878 135.414 471.338 135.414C469.838 135.414 468.488 135.064 467.288 134.364C466.108 133.664 465.178 132.674 464.498 131.394C463.838 130.114 463.508 128.634 463.508 126.954ZM477.818 126.984C477.818 125.664 477.548 124.504 477.008 123.504C476.468 122.504 475.728 121.734 474.788 121.194C473.868 120.654 472.848 120.384 471.728 120.384C470.568 120.384 469.528 120.644 468.608 121.164C467.688 121.684 466.958 122.444 466.418 123.444C465.898 124.424 465.638 125.594 465.638 126.954C465.638 128.294 465.898 129.474 466.418 130.494C466.958 131.494 467.688 132.264 468.608 132.804C469.528 133.324 470.568 133.584 471.728 133.584C472.848 133.584 473.868 133.314 474.788 132.774C475.728 132.234 476.468 131.464 477.008 130.464C477.548 129.464 477.818 128.304 477.818 126.984ZM486.813 121.704C487.273 120.684 487.973 119.894 488.913 119.334C489.873 118.774 491.043 118.494 492.423 118.494V120.684H491.853C490.333 120.684 489.113 121.094 488.193 121.914C487.273 122.734 486.813 124.104 486.813 126.024V135.174H484.713V118.794H486.813V121.704ZM502.752 135.414C501.212 135.414 499.822 135.074 498.582 134.394C497.362 133.694 496.392 132.714 495.672 131.454C494.972 130.174 494.622 128.684 494.622 126.984C494.622 125.284 494.982 123.804 495.702 122.544C496.422 121.264 497.402 120.284 498.642 119.604C499.882 118.904 501.272 118.554 502.812 118.554C504.352 118.554 505.742 118.904 506.982 119.604C508.242 120.284 509.222 121.264 509.922 122.544C510.642 123.804 511.002 125.284 511.002 126.984C511.002 128.664 510.642 130.144 509.922 131.424C509.202 132.704 508.212 133.694 506.952 134.394C505.692 135.074 504.292 135.414 502.752 135.414ZM502.752 133.584C503.832 133.584 504.832 133.344 505.752 132.864C506.672 132.364 507.412 131.624 507.972 130.644C508.552 129.644 508.842 128.424 508.842 126.984C508.842 125.544 508.562 124.334 508.002 123.354C507.442 122.354 506.702 121.614 505.782 121.134C504.862 120.634 503.862 120.384 502.782 120.384C501.702 120.384 500.702 120.634 499.782 121.134C498.862 121.614 498.122 122.354 497.562 123.354C497.022 124.334 496.752 125.544 496.752 126.984C496.752 128.424 497.022 129.644 497.562 130.644C498.122 131.624 498.852 132.364 499.752 132.864C500.672 133.344 501.672 133.584 502.752 133.584ZM522.51 118.494C524.47 118.494 526.07 119.104 527.31 120.324C528.55 121.524 529.17 123.274 529.17 125.574V135.174H527.1V125.814C527.1 124.034 526.65 122.674 525.75 121.734C524.87 120.794 523.66 120.324 522.12 120.324C520.54 120.324 519.28 120.824 518.34 121.824C517.4 122.824 516.93 124.294 516.93 126.234V135.174H514.83V118.794H516.93V121.584C517.45 120.584 518.2 119.824 519.18 119.304C520.16 118.764 521.27 118.494 522.51 118.494ZM548.634 126.144C548.634 126.864 548.614 127.414 548.574 127.794H534.984C535.044 129.034 535.344 130.094 535.884 130.974C536.424 131.854 537.134 132.524 538.014 132.984C538.894 133.424 539.854 133.644 540.894 133.644C542.254 133.644 543.394 133.314 544.314 132.654C545.254 131.994 545.874 131.104 546.174 129.984H548.394C547.994 131.584 547.134 132.894 545.814 133.914C544.514 134.914 542.874 135.414 540.894 135.414C539.354 135.414 537.974 135.074 536.754 134.394C535.534 133.694 534.574 132.714 533.874 131.454C533.194 130.174 532.854 128.684 532.854 126.984C532.854 125.284 533.194 123.794 533.874 122.514C534.554 121.234 535.504 120.254 536.724 119.574C537.944 118.894 539.334 118.554 540.894 118.554C542.454 118.554 543.814 118.894 544.974 119.574C546.154 120.254 547.054 121.174 547.674 122.334C548.314 123.474 548.634 124.744 548.634 126.144ZM546.504 126.084C546.524 124.864 546.274 123.824 545.754 122.964C545.254 122.104 544.564 121.454 543.684 121.014C542.804 120.574 541.844 120.354 540.804 120.354C539.244 120.354 537.914 120.854 536.814 121.854C535.714 122.854 535.104 124.264 534.984 126.084H546.504ZM563.439 120.564V130.734C563.439 131.734 563.629 132.424 564.009 132.804C564.389 133.184 565.059 133.374 566.019 133.374H567.939V135.174H565.689C564.209 135.174 563.109 134.834 562.389 134.154C561.669 133.454 561.309 132.314 561.309 130.734V120.564H559.029V118.794H561.309V114.684H563.439V118.794H567.939V120.564H563.439ZM586.222 126.144C586.222 126.864 586.202 127.414 586.162 127.794H572.572C572.632 129.034 572.932 130.094 573.472 130.974C574.012 131.854 574.722 132.524 575.602 132.984C576.482 133.424 577.442 133.644 578.482 133.644C579.842 133.644 580.982 133.314 581.902 132.654C582.842 131.994 583.462 131.104 583.762 129.984H585.982C585.582 131.584 584.722 132.894 583.402 133.914C582.102 134.914 580.462 135.414 578.482 135.414C576.942 135.414 575.562 135.074 574.342 134.394C573.122 133.694 572.162 132.714 571.462 131.454C570.782 130.174 570.442 128.684 570.442 126.984C570.442 125.284 570.782 123.794 571.462 122.514C572.142 121.234 573.092 120.254 574.312 119.574C575.532 118.894 576.922 118.554 578.482 118.554C580.042 118.554 581.402 118.894 582.562 119.574C583.742 120.254 584.642 121.174 585.262 122.334C585.902 123.474 586.222 124.744 586.222 126.144ZM584.092 126.084C584.112 124.864 583.862 123.824 583.342 122.964C582.842 122.104 582.152 121.454 581.272 121.014C580.392 120.574 579.432 120.354 578.392 120.354C576.832 120.354 575.502 120.854 574.402 121.854C573.302 122.854 572.692 124.264 572.572 126.084H584.092ZM589.104 126.984C589.104 125.284 589.444 123.804 590.124 122.544C590.804 121.264 591.744 120.284 592.944 119.604C594.144 118.904 595.514 118.554 597.054 118.554C599.074 118.554 600.734 119.054 602.034 120.054C603.354 121.054 604.204 122.414 604.584 124.134H602.334C602.054 122.954 601.444 122.034 600.504 121.374C599.584 120.694 598.434 120.354 597.054 120.354C595.954 120.354 594.964 120.604 594.084 121.104C593.204 121.604 592.504 122.354 591.984 123.354C591.484 124.334 591.234 125.544 591.234 126.984C591.234 128.424 591.484 129.644 591.984 130.644C592.504 131.644 593.204 132.394 594.084 132.894C594.964 133.394 595.954 133.644 597.054 133.644C598.434 133.644 599.584 133.314 600.504 132.654C601.444 131.974 602.054 131.034 602.334 129.834H604.584C604.204 131.514 603.354 132.864 602.034 133.884C600.714 134.904 599.054 135.414 597.054 135.414C595.514 135.414 594.144 135.074 592.944 134.394C591.744 133.694 590.804 132.714 590.124 131.454C589.444 130.174 589.104 128.684 589.104 126.984ZM616.263 118.494C617.503 118.494 618.613 118.754 619.593 119.274C620.593 119.794 621.373 120.594 621.933 121.674C622.513 122.734 622.803 124.034 622.803 125.574V135.174H620.733V125.814C620.733 124.034 620.283 122.674 619.383 121.734C618.503 120.794 617.293 120.324 615.753 120.324C614.173 120.324 612.913 120.824 611.973 121.824C611.033 122.824 610.563 124.294 610.563 126.234V135.174H608.463V112.974H610.563V121.584C611.083 120.604 611.843 119.844 612.843 119.304C613.863 118.764 615.003 118.494 616.263 118.494ZM627.807 135.324C627.367 135.324 626.997 135.174 626.697 134.874C626.417 134.574 626.277 134.204 626.277 133.764C626.277 133.324 626.417 132.964 626.697 132.684C626.997 132.384 627.367 132.234 627.807 132.234C628.227 132.234 628.577 132.384 628.857 132.684C629.157 132.964 629.307 133.324 629.307 133.764C629.307 134.204 629.157 134.574 628.857 134.874C628.577 135.174 628.227 135.324 627.807 135.324Z" fill="black"/>
</svg>
