<svg width="29" height="29" viewBox="0 0 29 29" fill="none" xmlns="http://www.w3.org/2000/svg">
<path d="M19.3332 9.66699C21.256 9.66699 23.1001 10.4308 24.4597 11.7905C25.8193 13.1501 26.5832 14.9942 26.5832 16.917V25.3753H21.7498V16.917C21.7498 16.2761 21.4952 15.6614 21.042 15.2082C20.5888 14.7549 19.9741 14.5003 19.3332 14.5003C18.6922 14.5003 18.0775 14.7549 17.6243 15.2082C17.1711 15.6614 16.9165 16.2761 16.9165 16.917V25.3753H12.0832V16.917C12.0832 14.9942 12.847 13.1501 14.2066 11.7905C15.5663 10.4308 17.4104 9.66699 19.3332 9.66699Z" stroke="white" stroke-width="2" stroke-linecap="round" stroke-linejoin="round"/>
<path d="M7.24984 10.8753H2.4165V25.3753H7.24984V10.8753Z" stroke="white" stroke-width="2" stroke-linecap="round" stroke-linejoin="round"/>
<path d="M4.83317 7.25033C6.16786 7.25033 7.24984 6.16835 7.24984 4.83366C7.24984 3.49897 6.16786 2.41699 4.83317 2.41699C3.49848 2.41699 2.4165 3.49897 2.4165 4.83366C2.4165 6.16835 3.49848 7.25033 4.83317 7.25033Z" stroke="white" stroke-width="2" stroke-linecap="round" stroke-linejoin="round"/>
</svg>
