<svg width="1217" height="157" viewBox="0 0 1217 157" fill="none" xmlns="http://www.w3.org/2000/svg">
<rect width="1217" height="157" rx="20" fill="white"/>
<path d="M61.9 24.0056V44.9456H57.7V31.3256L52.09 44.9456H48.91L43.27 31.3256V44.9456H39.07V24.0056H43.84L50.5 39.5756L57.16 24.0056H61.9ZM64.9724 36.5756C64.9724 34.8956 65.3024 33.4056 65.9624 32.1056C66.6424 30.8056 67.5524 29.8056 68.6924 29.1056C69.8524 28.4056 71.1424 28.0556 72.5624 28.0556C73.8024 28.0556 74.8824 28.3056 75.8024 28.8056C76.7424 29.3056 77.4924 29.9356 78.0524 30.6956V28.3256H82.2824V44.9456H78.0524V42.5156C77.5124 43.2956 76.7624 43.9456 75.8024 44.4656C74.8624 44.9656 73.7724 45.2156 72.5324 45.2156C71.1324 45.2156 69.8524 44.8556 68.6924 44.1356C67.5524 43.4156 66.6424 42.4056 65.9624 41.1056C65.3024 39.7856 64.9724 38.2756 64.9724 36.5756ZM78.0524 36.6356C78.0524 35.6156 77.8524 34.7456 77.4524 34.0256C77.0524 33.2856 76.5124 32.7256 75.8324 32.3456C75.1524 31.9456 74.4224 31.7456 73.6424 31.7456C72.8624 31.7456 72.1424 31.9356 71.4824 32.3156C70.8224 32.6956 70.2824 33.2556 69.8624 33.9956C69.4624 34.7156 69.2624 35.5756 69.2624 36.5756C69.2624 37.5756 69.4624 38.4556 69.8624 39.2156C70.2824 39.9556 70.8224 40.5256 71.4824 40.9256C72.1624 41.3256 72.8824 41.5256 73.6424 41.5256C74.4224 41.5256 75.1524 41.3356 75.8324 40.9556C76.5124 40.5556 77.0524 39.9956 77.4524 39.2756C77.8524 38.5356 78.0524 37.6556 78.0524 36.6356ZM91.2745 31.7756V39.8156C91.2745 40.3756 91.4045 40.7856 91.6645 41.0456C91.9445 41.2856 92.4045 41.4056 93.0445 41.4056H94.9945V44.9456H92.3545C88.8145 44.9456 87.0445 43.2256 87.0445 39.7856V31.7756H85.0645V28.3256H87.0445V24.2156H91.2745V28.3256H94.9945V31.7756H91.2745ZM107.375 28.0856C108.635 28.0856 109.755 28.3656 110.735 28.9256C111.715 29.4656 112.475 30.2756 113.015 31.3556C113.575 32.4156 113.855 33.6956 113.855 35.1956V44.9456H109.655V35.7656C109.655 34.4456 109.325 33.4356 108.665 32.7356C108.005 32.0156 107.105 31.6556 105.965 31.6556C104.805 31.6556 103.885 32.0156 103.205 32.7356C102.545 33.4356 102.215 34.4456 102.215 35.7656V44.9456H98.0153V22.7456H102.215V30.3956C102.755 29.6756 103.475 29.1156 104.375 28.7156C105.275 28.2956 106.275 28.0856 107.375 28.0856ZM145.839 24.0056L139.989 44.9456H135.039L131.109 30.0356L126.999 44.9456L122.079 44.9756L116.439 24.0056H120.939L124.629 40.2656L128.889 24.0056H133.569L137.589 40.1756L141.309 24.0056H145.839ZM155.962 45.2156C154.362 45.2156 152.922 44.8656 151.642 44.1656C150.362 43.4456 149.352 42.4356 148.612 41.1356C147.892 39.8356 147.532 38.3356 147.532 36.6356C147.532 34.9356 147.902 33.4356 148.642 32.1356C149.402 30.8356 150.432 29.8356 151.732 29.1356C153.032 28.4156 154.482 28.0556 156.082 28.0556C157.682 28.0556 159.132 28.4156 160.432 29.1356C161.732 29.8356 162.752 30.8356 163.492 32.1356C164.252 33.4356 164.632 34.9356 164.632 36.6356C164.632 38.3356 164.242 39.8356 163.462 41.1356C162.702 42.4356 161.662 43.4456 160.342 44.1656C159.042 44.8656 157.582 45.2156 155.962 45.2156ZM155.962 41.5556C156.722 41.5556 157.432 41.3756 158.092 41.0156C158.772 40.6356 159.312 40.0756 159.712 39.3356C160.112 38.5956 160.312 37.6956 160.312 36.6356C160.312 35.0556 159.892 33.8456 159.052 33.0056C158.232 32.1456 157.222 31.7156 156.022 31.7156C154.822 31.7156 153.812 32.1456 152.992 33.0056C152.192 33.8456 151.792 35.0556 151.792 36.6356C151.792 38.2156 152.182 39.4356 152.962 40.2956C153.762 41.1356 154.762 41.5556 155.962 41.5556ZM171.913 30.9056C172.453 30.0256 173.153 29.3356 174.013 28.8356C174.893 28.3356 175.893 28.0856 177.013 28.0856V32.4956H175.903C174.583 32.4956 173.583 32.8056 172.903 33.4256C172.243 34.0456 171.913 35.1256 171.913 36.6656V44.9456H167.713V28.3256H171.913V30.9056ZM189.681 44.9456L184.041 37.8656V44.9456H179.841V22.7456H184.041V35.3756L189.621 28.3256H195.081L187.761 36.6656L195.141 44.9456H189.681ZM203.721 45.2156C202.361 45.2156 201.141 44.9756 200.061 44.4956C198.981 43.9956 198.121 43.3256 197.481 42.4856C196.861 41.6456 196.521 40.7156 196.461 39.6956H200.691C200.771 40.3356 201.081 40.8656 201.621 41.2856C202.181 41.7056 202.871 41.9156 203.691 41.9156C204.491 41.9156 205.111 41.7556 205.551 41.4356C206.011 41.1156 206.241 40.7056 206.241 40.2056C206.241 39.6656 205.961 39.2656 205.401 39.0056C204.861 38.7256 203.991 38.4256 202.791 38.1056C201.551 37.8056 200.531 37.4956 199.731 37.1756C198.951 36.8556 198.271 36.3656 197.691 35.7056C197.131 35.0456 196.851 34.1556 196.851 33.0356C196.851 32.1156 197.111 31.2756 197.631 30.5156C198.171 29.7556 198.931 29.1556 199.911 28.7156C200.911 28.2756 202.081 28.0556 203.421 28.0556C205.401 28.0556 206.981 28.5556 208.161 29.5556C209.341 30.5356 209.991 31.8656 210.111 33.5456H206.091C206.031 32.8856 205.751 32.3656 205.251 31.9856C204.771 31.5856 204.121 31.3856 203.301 31.3856C202.541 31.3856 201.951 31.5256 201.531 31.8056C201.131 32.0856 200.931 32.4756 200.931 32.9756C200.931 33.5356 201.211 33.9656 201.771 34.2656C202.331 34.5456 203.201 34.8356 204.381 35.1356C205.581 35.4356 206.571 35.7456 207.351 36.0656C208.131 36.3856 208.801 36.8856 209.361 37.5656C209.941 38.2256 210.241 39.1056 210.261 40.2056C210.261 41.1656 209.991 42.0256 209.451 42.7856C208.931 43.5456 208.171 44.1456 207.171 44.5856C206.191 45.0056 205.041 45.2156 203.721 45.2156ZM243.687 24.0056V44.9456H239.487V31.3256L233.877 44.9456H230.697L225.057 31.3256V44.9456H220.857V24.0056H225.627L232.287 39.5756L238.947 24.0056H243.687ZM249.97 26.3456C249.23 26.3456 248.61 26.1156 248.11 25.6556C247.63 25.1756 247.39 24.5856 247.39 23.8856C247.39 23.1856 247.63 22.6056 248.11 22.1456C248.61 21.6656 249.23 21.4256 249.97 21.4256C250.71 21.4256 251.32 21.6656 251.8 22.1456C252.3 22.6056 252.55 23.1856 252.55 23.8856C252.55 24.5856 252.3 25.1756 251.8 25.6556C251.32 26.1156 250.71 26.3456 249.97 26.3456ZM252.04 28.3256V44.9456H247.84V28.3256H252.04ZM265.399 28.0856C267.379 28.0856 268.979 28.7156 270.199 29.9756C271.419 31.2156 272.029 32.9556 272.029 35.1956V44.9456H267.829V35.7656C267.829 34.4456 267.499 33.4356 266.839 32.7356C266.179 32.0156 265.279 31.6556 264.139 31.6556C262.979 31.6556 262.059 32.0156 261.379 32.7356C260.719 33.4356 260.389 34.4456 260.389 35.7656V44.9456H256.189V28.3256H260.389V30.3956C260.949 29.6756 261.659 29.1156 262.519 28.7156C263.399 28.2956 264.359 28.0856 265.399 28.0856ZM278.153 26.3456C277.413 26.3456 276.793 26.1156 276.293 25.6556C275.813 25.1756 275.573 24.5856 275.573 23.8856C275.573 23.1856 275.813 22.6056 276.293 22.1456C276.793 21.6656 277.413 21.4256 278.153 21.4256C278.893 21.4256 279.503 21.6656 279.983 22.1456C280.483 22.6056 280.733 23.1856 280.733 23.8856C280.733 24.5856 280.483 25.1756 279.983 25.6556C279.503 26.1156 278.893 26.3456 278.153 26.3456ZM280.223 28.3256V44.9456H276.023V28.3256H280.223ZM283.293 36.5756C283.293 34.8956 283.623 33.4056 284.283 32.1056C284.963 30.8056 285.883 29.8056 287.043 29.1056C288.203 28.4056 289.493 28.0556 290.913 28.0556C291.993 28.0556 293.023 28.2956 294.003 28.7756C294.983 29.2356 295.763 29.8556 296.343 30.6356V22.7456H300.603V44.9456H296.343V42.4856C295.823 43.3056 295.093 43.9656 294.153 44.4656C293.213 44.9656 292.123 45.2156 290.883 45.2156C289.483 45.2156 288.203 44.8556 287.043 44.1356C285.883 43.4156 284.963 42.4056 284.283 41.1056C283.623 39.7856 283.293 38.2756 283.293 36.5756ZM296.373 36.6356C296.373 35.6156 296.173 34.7456 295.773 34.0256C295.373 33.2856 294.833 32.7256 294.153 32.3456C293.473 31.9456 292.743 31.7456 291.963 31.7456C291.183 31.7456 290.463 31.9356 289.803 32.3156C289.143 32.6956 288.603 33.2556 288.183 33.9956C287.783 34.7156 287.583 35.5756 287.583 36.5756C287.583 37.5756 287.783 38.4556 288.183 39.2156C288.603 39.9556 289.143 40.5256 289.803 40.9256C290.483 41.3256 291.203 41.5256 291.963 41.5256C292.743 41.5256 293.473 41.3356 294.153 40.9556C294.833 40.5556 295.373 39.9956 295.773 39.2756C296.173 38.5356 296.373 37.6556 296.373 36.6356ZM308.905 30.9056C309.445 30.0256 310.145 29.3356 311.005 28.8356C311.885 28.3356 312.885 28.0856 314.005 28.0856V32.4956H312.895C311.575 32.4956 310.575 32.8056 309.895 33.4256C309.235 34.0456 308.905 35.1256 308.905 36.6656V44.9456H304.705V28.3256H308.905V30.9056ZM324.214 45.2156C322.614 45.2156 321.174 44.8656 319.894 44.1656C318.614 43.4456 317.604 42.4356 316.864 41.1356C316.144 39.8356 315.784 38.3356 315.784 36.6356C315.784 34.9356 316.154 33.4356 316.894 32.1356C317.654 30.8356 318.684 29.8356 319.984 29.1356C321.284 28.4156 322.734 28.0556 324.334 28.0556C325.934 28.0556 327.384 28.4156 328.684 29.1356C329.984 29.8356 331.004 30.8356 331.744 32.1356C332.504 33.4356 332.884 34.9356 332.884 36.6356C332.884 38.3356 332.494 39.8356 331.714 41.1356C330.954 42.4356 329.914 43.4456 328.594 44.1656C327.294 44.8656 325.834 45.2156 324.214 45.2156ZM324.214 41.5556C324.974 41.5556 325.684 41.3756 326.344 41.0156C327.024 40.6356 327.564 40.0756 327.964 39.3356C328.364 38.5956 328.564 37.6956 328.564 36.6356C328.564 35.0556 328.144 33.8456 327.304 33.0056C326.484 32.1456 325.474 31.7156 324.274 31.7156C323.074 31.7156 322.064 32.1456 321.244 33.0056C320.444 33.8456 320.044 35.0556 320.044 36.6356C320.044 38.2156 320.434 39.4356 321.214 40.2956C322.014 41.1356 323.014 41.5556 324.214 41.5556ZM345.175 28.0856C347.155 28.0856 348.755 28.7156 349.975 29.9756C351.195 31.2156 351.805 32.9556 351.805 35.1956V44.9456H347.605V35.7656C347.605 34.4456 347.275 33.4356 346.615 32.7356C345.955 32.0156 345.055 31.6556 343.915 31.6556C342.755 31.6556 341.835 32.0156 341.155 32.7356C340.495 33.4356 340.165 34.4456 340.165 35.7656V44.9456H335.965V28.3256H340.165V30.3956C340.725 29.6756 341.435 29.1156 342.295 28.7156C343.175 28.2956 344.135 28.0856 345.175 28.0856ZM371.249 36.2756C371.249 36.8756 371.209 37.4156 371.129 37.8956H358.979C359.079 39.0956 359.499 40.0356 360.239 40.7156C360.979 41.3956 361.889 41.7356 362.969 41.7356C364.529 41.7356 365.639 41.0656 366.299 39.7256H370.829C370.349 41.3256 369.429 42.6456 368.069 43.6856C366.709 44.7056 365.039 45.2156 363.059 45.2156C361.459 45.2156 360.019 44.8656 358.739 44.1656C357.479 43.4456 356.489 42.4356 355.769 41.1356C355.069 39.8356 354.719 38.3356 354.719 36.6356C354.719 34.9156 355.069 33.4056 355.769 32.1056C356.469 30.8056 357.449 29.8056 358.709 29.1056C359.969 28.4056 361.419 28.0556 363.059 28.0556C364.639 28.0556 366.049 28.3956 367.289 29.0756C368.549 29.7556 369.519 30.7256 370.199 31.9856C370.899 33.2256 371.249 34.6556 371.249 36.2756ZM366.899 35.0756C366.879 33.9956 366.489 33.1356 365.729 32.4956C364.969 31.8356 364.039 31.5056 362.939 31.5056C361.899 31.5056 361.019 31.8256 360.299 32.4656C359.599 33.0856 359.169 33.9556 359.009 35.0756H366.899ZM380.443 34.4456C380.443 32.3856 380.903 30.5456 381.823 28.9256C382.763 27.2856 384.033 26.0156 385.633 25.1156C387.253 24.1956 389.063 23.7356 391.063 23.7356C393.403 23.7356 395.453 24.3356 397.213 25.5356C398.973 26.7356 400.203 28.3956 400.903 30.5156H396.073C395.593 29.5156 394.913 28.7656 394.033 28.2656C393.173 27.7656 392.173 27.5156 391.033 27.5156C389.813 27.5156 388.723 27.8056 387.763 28.3856C386.823 28.9456 386.083 29.7456 385.543 30.7856C385.023 31.8256 384.763 33.0456 384.763 34.4456C384.763 35.8256 385.023 37.0456 385.543 38.1056C386.083 39.1456 386.823 39.9556 387.763 40.5356C388.723 41.0956 389.813 41.3756 391.033 41.3756C392.173 41.3756 393.173 41.1256 394.033 40.6256C394.913 40.1056 395.593 39.3456 396.073 38.3456H400.903C400.203 40.4856 398.973 42.1556 397.213 43.3556C395.473 44.5356 393.423 45.1256 391.063 45.1256C389.063 45.1256 387.253 44.6756 385.633 43.7756C384.033 42.8556 382.763 41.5856 381.823 39.9656C380.903 38.3456 380.443 36.5056 380.443 34.4456ZM411.87 45.2156C410.27 45.2156 408.83 44.8656 407.55 44.1656C406.27 43.4456 405.26 42.4356 404.52 41.1356C403.8 39.8356 403.44 38.3356 403.44 36.6356C403.44 34.9356 403.81 33.4356 404.55 32.1356C405.31 30.8356 406.34 29.8356 407.64 29.1356C408.94 28.4156 410.39 28.0556 411.99 28.0556C413.59 28.0556 415.04 28.4156 416.34 29.1356C417.64 29.8356 418.66 30.8356 419.4 32.1356C420.16 33.4356 420.54 34.9356 420.54 36.6356C420.54 38.3356 420.15 39.8356 419.37 41.1356C418.61 42.4356 417.57 43.4456 416.25 44.1656C414.95 44.8656 413.49 45.2156 411.87 45.2156ZM411.87 41.5556C412.63 41.5556 413.34 41.3756 414 41.0156C414.68 40.6356 415.22 40.0756 415.62 39.3356C416.02 38.5956 416.22 37.6956 416.22 36.6356C416.22 35.0556 415.8 33.8456 414.96 33.0056C414.14 32.1456 413.13 31.7156 411.93 31.7156C410.73 31.7156 409.72 32.1456 408.9 33.0056C408.1 33.8456 407.7 35.0556 407.7 36.6356C407.7 38.2156 408.09 39.4356 408.87 40.2956C409.67 41.1356 410.67 41.5556 411.87 41.5556ZM444.261 28.0856C446.301 28.0856 447.941 28.7156 449.181 29.9756C450.441 31.2156 451.071 32.9556 451.071 35.1956V44.9456H446.871V35.7656C446.871 34.4656 446.541 33.4756 445.881 32.7956C445.221 32.0956 444.321 31.7456 443.181 31.7456C442.041 31.7456 441.131 32.0956 440.451 32.7956C439.791 33.4756 439.461 34.4656 439.461 35.7656V44.9456H435.261V35.7656C435.261 34.4656 434.931 33.4756 434.271 32.7956C433.611 32.0956 432.711 31.7456 431.571 31.7456C430.411 31.7456 429.491 32.0956 428.811 32.7956C428.151 33.4756 427.821 34.4656 427.821 35.7656V44.9456H423.621V28.3256H427.821V30.3356C428.361 29.6356 429.051 29.0856 429.891 28.6856C430.751 28.2856 431.691 28.0856 432.711 28.0856C434.011 28.0856 435.171 28.3656 436.191 28.9256C437.211 29.4656 438.001 30.2456 438.561 31.2656C439.101 30.3056 439.881 29.5356 440.901 28.9556C441.941 28.3756 443.061 28.0856 444.261 28.0856ZM459.256 30.7256C459.796 29.9656 460.536 29.3356 461.476 28.8356C462.436 28.3156 463.526 28.0556 464.746 28.0556C466.166 28.0556 467.446 28.4056 468.586 29.1056C469.746 29.8056 470.656 30.8056 471.316 32.1056C471.996 33.3856 472.336 34.8756 472.336 36.5756C472.336 38.2756 471.996 39.7856 471.316 41.1056C470.656 42.4056 469.746 43.4156 468.586 44.1356C467.446 44.8556 466.166 45.2156 464.746 45.2156C463.526 45.2156 462.446 44.9656 461.506 44.4656C460.586 43.9656 459.836 43.3356 459.256 42.5756V52.8656H455.056V28.3256H459.256V30.7256ZM468.046 36.5756C468.046 35.5756 467.836 34.7156 467.416 33.9956C467.016 33.2556 466.476 32.6956 465.796 32.3156C465.136 31.9356 464.416 31.7456 463.636 31.7456C462.876 31.7456 462.156 31.9456 461.476 32.3456C460.816 32.7256 460.276 33.2856 459.856 34.0256C459.456 34.7656 459.256 35.6356 459.256 36.6356C459.256 37.6356 459.456 38.5056 459.856 39.2456C460.276 39.9856 460.816 40.5556 461.476 40.9556C462.156 41.3356 462.876 41.5256 463.636 41.5256C464.416 41.5256 465.136 41.3256 465.796 40.9256C466.476 40.5256 467.016 39.9556 467.416 39.2156C467.836 38.4756 468.046 37.5956 468.046 36.5756ZM490.838 36.2756C490.838 36.8756 490.798 37.4156 490.718 37.8956H478.568C478.668 39.0956 479.088 40.0356 479.828 40.7156C480.568 41.3956 481.478 41.7356 482.558 41.7356C484.118 41.7356 485.228 41.0656 485.888 39.7256H490.418C489.938 41.3256 489.018 42.6456 487.658 43.6856C486.298 44.7056 484.628 45.2156 482.648 45.2156C481.048 45.2156 479.608 44.8656 478.328 44.1656C477.068 43.4456 476.078 42.4356 475.358 41.1356C474.658 39.8356 474.308 38.3356 474.308 36.6356C474.308 34.9156 474.658 33.4056 475.358 32.1056C476.058 30.8056 477.038 29.8056 478.298 29.1056C479.558 28.4056 481.008 28.0556 482.648 28.0556C484.228 28.0556 485.638 28.3956 486.878 29.0756C488.138 29.7556 489.108 30.7256 489.788 31.9856C490.488 33.2256 490.838 34.6556 490.838 36.2756ZM486.488 35.0756C486.468 33.9956 486.078 33.1356 485.318 32.4956C484.558 31.8356 483.628 31.5056 482.528 31.5056C481.488 31.5056 480.608 31.8256 479.888 32.4656C479.188 33.0856 478.758 33.9556 478.598 35.0756H486.488ZM498.794 31.7756V39.8156C498.794 40.3756 498.924 40.7856 499.184 41.0456C499.464 41.2856 499.924 41.4056 500.564 41.4056H502.514V44.9456H499.874C496.334 44.9456 494.564 43.2256 494.564 39.7856V31.7756H492.584V28.3256H494.564V24.2156H498.794V28.3256H502.514V31.7756H498.794ZM507.665 26.3456C506.925 26.3456 506.305 26.1156 505.805 25.6556C505.325 25.1756 505.085 24.5856 505.085 23.8856C505.085 23.1856 505.325 22.6056 505.805 22.1456C506.305 21.6656 506.925 21.4256 507.665 21.4256C508.405 21.4256 509.015 21.6656 509.495 22.1456C509.995 22.6056 510.245 23.1856 510.245 23.8856C510.245 24.5856 509.995 25.1756 509.495 25.6556C509.015 26.1156 508.405 26.3456 507.665 26.3456ZM509.735 28.3256V44.9456H505.535V28.3256H509.735ZM518.774 31.7756V39.8156C518.774 40.3756 518.904 40.7856 519.164 41.0456C519.444 41.2856 519.904 41.4056 520.544 41.4056H522.494V44.9456H519.854C516.314 44.9456 514.544 43.2256 514.544 39.7856V31.7756H512.564V28.3256H514.544V24.2156H518.774V28.3256H522.494V31.7756H518.774ZM527.645 26.3456C526.905 26.3456 526.285 26.1156 525.785 25.6556C525.305 25.1756 525.065 24.5856 525.065 23.8856C525.065 23.1856 525.305 22.6056 525.785 22.1456C526.285 21.6656 526.905 21.4256 527.645 21.4256C528.385 21.4256 528.995 21.6656 529.475 22.1456C529.975 22.6056 530.225 23.1856 530.225 23.8856C530.225 24.5856 529.975 25.1756 529.475 25.6556C528.995 26.1156 528.385 26.3456 527.645 26.3456ZM529.715 28.3256V44.9456H525.515V28.3256H529.715ZM541.245 45.2156C539.645 45.2156 538.205 44.8656 536.925 44.1656C535.645 43.4456 534.635 42.4356 533.895 41.1356C533.175 39.8356 532.815 38.3356 532.815 36.6356C532.815 34.9356 533.185 33.4356 533.925 32.1356C534.685 30.8356 535.715 29.8356 537.015 29.1356C538.315 28.4156 539.765 28.0556 541.365 28.0556C542.965 28.0556 544.415 28.4156 545.715 29.1356C547.015 29.8356 548.035 30.8356 548.775 32.1356C549.535 33.4356 549.915 34.9356 549.915 36.6356C549.915 38.3356 549.525 39.8356 548.745 41.1356C547.985 42.4356 546.945 43.4456 545.625 44.1656C544.325 44.8656 542.865 45.2156 541.245 45.2156ZM541.245 41.5556C542.005 41.5556 542.715 41.3756 543.375 41.0156C544.055 40.6356 544.595 40.0756 544.995 39.3356C545.395 38.5956 545.595 37.6956 545.595 36.6356C545.595 35.0556 545.175 33.8456 544.335 33.0056C543.515 32.1456 542.505 31.7156 541.305 31.7156C540.105 31.7156 539.095 32.1456 538.275 33.0056C537.475 33.8456 537.075 35.0556 537.075 36.6356C537.075 38.2156 537.465 39.4356 538.245 40.2956C539.045 41.1356 540.045 41.5556 541.245 41.5556ZM562.206 28.0856C564.186 28.0856 565.786 28.7156 567.006 29.9756C568.226 31.2156 568.836 32.9556 568.836 35.1956V44.9456H564.636V35.7656C564.636 34.4456 564.306 33.4356 563.646 32.7356C562.986 32.0156 562.086 31.6556 560.946 31.6556C559.786 31.6556 558.866 32.0156 558.186 32.7356C557.526 33.4356 557.196 34.4456 557.196 35.7656V44.9456H552.996V28.3256H557.196V30.3956C557.756 29.6756 558.466 29.1156 559.326 28.7156C560.206 28.2956 561.166 28.0856 562.206 28.0856ZM45.61 68.9756C47.93 68.9756 49.92 69.3956 51.58 70.2356C53.24 71.0756 54.51 72.2856 55.39 73.8656C56.27 75.4456 56.71 77.3256 56.71 79.5056C56.71 81.6656 56.27 83.5356 55.39 85.1156C54.51 86.6756 53.24 87.8756 51.58 88.7156C49.92 89.5356 47.93 89.9456 45.61 89.9456H39.4V68.9756H45.61ZM45.61 88.2056C48.53 88.2056 50.75 87.4456 52.27 85.9256C53.81 84.3856 54.58 82.2456 54.58 79.5056C54.58 76.7456 53.81 74.5956 52.27 73.0556C50.75 71.4956 48.53 70.7156 45.61 70.7156H41.5V88.2056H45.61ZM75.4016 80.9156C75.4016 81.6356 75.3816 82.1856 75.3416 82.5656H61.7516C61.8116 83.8056 62.1116 84.8656 62.6516 85.7456C63.1916 86.6256 63.9016 87.2956 64.7816 87.7556C65.6616 88.1956 66.6216 88.4156 67.6616 88.4156C69.0216 88.4156 70.1616 88.0856 71.0816 87.4256C72.0216 86.7656 72.6416 85.8756 72.9416 84.7556H75.1616C74.7616 86.3556 73.9016 87.6656 72.5816 88.6856C71.2816 89.6856 69.6416 90.1856 67.6616 90.1856C66.1216 90.1856 64.7416 89.8456 63.5216 89.1656C62.3016 88.4656 61.3416 87.4856 60.6416 86.2256C59.9616 84.9456 59.6216 83.4556 59.6216 81.7556C59.6216 80.0556 59.9616 78.5656 60.6416 77.2856C61.3216 76.0056 62.2716 75.0256 63.4916 74.3456C64.7116 73.6656 66.1016 73.3256 67.6616 73.3256C69.2216 73.3256 70.5816 73.6656 71.7416 74.3456C72.9216 75.0256 73.8216 75.9456 74.4416 77.1056C75.0816 78.2456 75.4016 79.5156 75.4016 80.9156ZM73.2716 80.8556C73.2916 79.6356 73.0416 78.5956 72.5216 77.7356C72.0216 76.8756 71.3316 76.2256 70.4516 75.7856C69.5716 75.3456 68.6116 75.1256 67.5716 75.1256C66.0116 75.1256 64.6816 75.6256 63.5816 76.6256C62.4816 77.6256 61.8716 79.0356 61.7516 80.8556H73.2716ZM84.8838 90.1856C83.0038 90.1856 81.4638 89.7556 80.2638 88.8956C79.0838 88.0156 78.4238 86.8256 78.2838 85.3256H80.4438C80.5438 86.2456 80.9738 86.9956 81.7338 87.5756C82.5138 88.1356 83.5538 88.4156 84.8538 88.4156C85.9938 88.4156 86.8838 88.1456 87.5238 87.6056C88.1838 87.0656 88.5138 86.3956 88.5138 85.5956C88.5138 85.0356 88.3338 84.5756 87.9738 84.2156C87.6138 83.8556 87.1538 83.5756 86.5938 83.3756C86.0538 83.1556 85.3138 82.9256 84.3738 82.6856C83.1538 82.3656 82.1638 82.0456 81.4038 81.7256C80.6438 81.4056 79.9938 80.9356 79.4538 80.3156C78.9338 79.6756 78.6738 78.8256 78.6738 77.7656C78.6738 76.9656 78.9138 76.2256 79.3938 75.5456C79.8738 74.8656 80.5538 74.3256 81.4338 73.9256C82.3138 73.5256 83.3138 73.3256 84.4338 73.3256C86.1938 73.3256 87.6138 73.7756 88.6938 74.6756C89.7738 75.5556 90.3538 76.7756 90.4338 78.3356H88.3338C88.2738 77.3756 87.8938 76.6056 87.1938 76.0256C86.5138 75.4256 85.5738 75.1256 84.3738 75.1256C83.3138 75.1256 82.4538 75.3756 81.7938 75.8756C81.1338 76.3756 80.8037 76.9956 80.8037 77.7356C80.8037 78.3756 80.9938 78.9056 81.3738 79.3256C81.7738 79.7256 82.2638 80.0456 82.8438 80.2856C83.4238 80.5056 84.2038 80.7556 85.1838 81.0356C86.3638 81.3556 87.3038 81.6656 88.0038 81.9656C88.7038 82.2656 89.3038 82.7056 89.8038 83.2856C90.3038 83.8656 90.5638 84.6356 90.5838 85.5956C90.5838 86.4756 90.3438 87.2656 89.8638 87.9656C89.3838 88.6456 88.7138 89.1856 87.8538 89.5856C86.9938 89.9856 86.0038 90.1856 84.8838 90.1856ZM95.5867 70.4756C95.1667 70.4756 94.8067 70.3256 94.5067 70.0256C94.2067 69.7256 94.0567 69.3556 94.0567 68.9156C94.0567 68.4756 94.2067 68.1156 94.5067 67.8356C94.8067 67.5356 95.1667 67.3856 95.5867 67.3856C96.0067 67.3856 96.3667 67.5356 96.6667 67.8356C96.9667 68.1156 97.1167 68.4756 97.1167 68.9156C97.1167 69.3556 96.9667 69.7256 96.6667 70.0256C96.3667 70.3256 96.0067 70.4756 95.5867 70.4756ZM96.6367 73.5656V89.9456H94.5367V73.5656H96.6367ZM108.262 73.3256C109.802 73.3256 111.142 73.6856 112.282 74.4056C113.422 75.1256 114.242 76.0356 114.742 77.1356V73.5656H116.842V90.3656C116.842 91.8656 116.512 93.1956 115.852 94.3556C115.212 95.5156 114.312 96.4056 113.152 97.0256C111.992 97.6656 110.672 97.9856 109.192 97.9856C107.092 97.9856 105.342 97.4856 103.942 96.4856C102.562 95.4856 101.702 94.1256 101.362 92.4056H103.432C103.792 93.5456 104.472 94.4556 105.472 95.1356C106.492 95.8156 107.732 96.1556 109.192 96.1556C110.252 96.1556 111.202 95.9256 112.042 95.4656C112.882 95.0256 113.542 94.3656 114.022 93.4856C114.502 92.6056 114.742 91.5656 114.742 90.3656V86.3156C114.222 87.4356 113.392 88.3656 112.252 89.1056C111.132 89.8256 109.802 90.1856 108.262 90.1856C106.762 90.1856 105.412 89.8356 104.212 89.1356C103.032 88.4356 102.102 87.4456 101.422 86.1656C100.762 84.8856 100.432 83.4056 100.432 81.7256C100.432 80.0456 100.762 78.5756 101.422 77.3156C102.102 76.0356 103.032 75.0556 104.212 74.3756C105.412 73.6756 106.762 73.3256 108.262 73.3256ZM114.742 81.7556C114.742 80.4356 114.472 79.2756 113.932 78.2756C113.392 77.2756 112.652 76.5056 111.712 75.9656C110.792 75.4256 109.772 75.1556 108.652 75.1556C107.492 75.1556 106.452 75.4156 105.532 75.9356C104.612 76.4556 103.882 77.2156 103.342 78.2156C102.822 79.1956 102.562 80.3656 102.562 81.7256C102.562 83.0656 102.822 84.2456 103.342 85.2656C103.882 86.2656 104.612 87.0356 105.532 87.5756C106.452 88.0956 107.492 88.3556 108.652 88.3556C109.772 88.3556 110.792 88.0856 111.712 87.5456C112.652 87.0056 113.392 86.2356 113.932 85.2356C114.472 84.2356 114.742 83.0756 114.742 81.7556ZM129.316 73.2656C131.276 73.2656 132.876 73.8756 134.116 75.0956C135.356 76.2956 135.976 78.0456 135.976 80.3456V89.9456H133.906V80.5856C133.906 78.8056 133.456 77.4456 132.556 76.5056C131.676 75.5656 130.466 75.0956 128.926 75.0956C127.346 75.0956 126.086 75.5956 125.146 76.5956C124.206 77.5956 123.736 79.0656 123.736 81.0056V89.9456H121.636V73.5656H123.736V76.3556C124.256 75.3556 125.006 74.5956 125.986 74.0756C126.966 73.5356 128.076 73.2656 129.316 73.2656ZM147.893 81.7256C147.893 80.0456 148.223 78.5756 148.883 77.3156C149.563 76.0356 150.493 75.0556 151.673 74.3756C152.873 73.6756 154.223 73.3256 155.723 73.3256C157.283 73.3256 158.623 73.6856 159.743 74.4056C160.883 75.1256 161.703 76.0456 162.203 77.1656V73.5656H164.303V89.9456H162.203V86.3156C161.683 87.4356 160.853 88.3656 159.713 89.1056C158.593 89.8256 157.253 90.1856 155.693 90.1856C154.213 90.1856 152.873 89.8356 151.673 89.1356C150.493 88.4356 149.563 87.4456 148.883 86.1656C148.223 84.8856 147.893 83.4056 147.893 81.7256ZM162.203 81.7556C162.203 80.4356 161.933 79.2756 161.393 78.2756C160.853 77.2756 160.113 76.5056 159.173 75.9656C158.253 75.4256 157.233 75.1556 156.113 75.1556C154.953 75.1556 153.913 75.4156 152.993 75.9356C152.073 76.4556 151.343 77.2156 150.803 78.2156C150.283 79.1956 150.023 80.3656 150.023 81.7256C150.023 83.0656 150.283 84.2456 150.803 85.2656C151.343 86.2656 152.073 87.0356 152.993 87.5756C153.913 88.0956 154.953 88.3556 156.113 88.3556C157.233 88.3556 158.253 88.0856 159.173 87.5456C160.113 87.0056 160.853 86.2356 161.393 85.2356C161.933 84.2356 162.203 83.0756 162.203 81.7556ZM179.43 67.7456V89.9456H177.33V67.7456H179.43ZM185.235 70.4756C184.815 70.4756 184.455 70.3256 184.155 70.0256C183.855 69.7256 183.705 69.3556 183.705 68.9156C183.705 68.4756 183.855 68.1156 184.155 67.8356C184.455 67.5356 184.815 67.3856 185.235 67.3856C185.655 67.3856 186.015 67.5356 186.315 67.8356C186.615 68.1156 186.765 68.4756 186.765 68.9156C186.765 69.3556 186.615 69.7256 186.315 70.0256C186.015 70.3256 185.655 70.4756 185.235 70.4756ZM186.285 73.5656V89.9456H184.185V73.5656H186.285ZM198.721 73.2656C200.681 73.2656 202.281 73.8756 203.521 75.0956C204.761 76.2956 205.381 78.0456 205.381 80.3456V89.9456H203.311V80.5856C203.311 78.8056 202.861 77.4456 201.961 76.5056C201.081 75.5656 199.871 75.0956 198.331 75.0956C196.751 75.0956 195.491 75.5956 194.551 76.5956C193.611 77.5956 193.141 79.0656 193.141 81.0056V89.9456H191.041V73.5656H193.141V76.3556C193.661 75.3556 194.411 74.5956 195.391 74.0756C196.371 73.5356 197.481 73.2656 198.721 73.2656ZM224.845 80.9156C224.845 81.6356 224.825 82.1856 224.785 82.5656H211.195C211.255 83.8056 211.555 84.8656 212.095 85.7456C212.635 86.6256 213.345 87.2956 214.225 87.7556C215.105 88.1956 216.065 88.4156 217.105 88.4156C218.465 88.4156 219.605 88.0856 220.525 87.4256C221.465 86.7656 222.085 85.8756 222.385 84.7556H224.605C224.205 86.3556 223.345 87.6656 222.025 88.6856C220.725 89.6856 219.085 90.1856 217.105 90.1856C215.565 90.1856 214.185 89.8456 212.965 89.1656C211.745 88.4656 210.785 87.4856 210.085 86.2256C209.405 84.9456 209.065 83.4556 209.065 81.7556C209.065 80.0556 209.405 78.5656 210.085 77.2856C210.765 76.0056 211.715 75.0256 212.935 74.3456C214.155 73.6656 215.545 73.3256 217.105 73.3256C218.665 73.3256 220.025 73.6656 221.185 74.3456C222.365 75.0256 223.265 75.9456 223.885 77.1056C224.525 78.2456 224.845 79.5156 224.845 80.9156ZM222.715 80.8556C222.735 79.6356 222.485 78.5956 221.965 77.7356C221.465 76.8756 220.775 76.2256 219.895 75.7856C219.015 75.3456 218.055 75.1256 217.015 75.1256C215.455 75.1256 214.125 75.6256 213.025 76.6256C211.925 77.6256 211.315 79.0356 211.195 80.8556H222.715ZM238.857 77.9456V79.7156H227.187V77.9456H238.857ZM250.694 75.3356H246.884V89.9456H244.784V75.3356H242.504V73.5656H244.784V72.4256C244.784 70.6456 245.234 69.3356 246.134 68.4956C247.054 67.6556 248.534 67.2356 250.574 67.2356V69.0356C249.214 69.0356 248.254 69.2956 247.694 69.8156C247.154 70.3356 246.884 71.2056 246.884 72.4256V73.5656H250.694V75.3356ZM261.17 90.1856C259.63 90.1856 258.24 89.8456 257 89.1656C255.78 88.4656 254.81 87.4856 254.09 86.2256C253.39 84.9456 253.04 83.4556 253.04 81.7556C253.04 80.0556 253.4 78.5756 254.12 77.3156C254.84 76.0356 255.82 75.0556 257.06 74.3756C258.3 73.6756 259.69 73.3256 261.23 73.3256C262.77 73.3256 264.16 73.6756 265.4 74.3756C266.66 75.0556 267.64 76.0356 268.34 77.3156C269.06 78.5756 269.42 80.0556 269.42 81.7556C269.42 83.4356 269.06 84.9156 268.34 86.1956C267.62 87.4756 266.63 88.4656 265.37 89.1656C264.11 89.8456 262.71 90.1856 261.17 90.1856ZM261.17 88.3556C262.25 88.3556 263.25 88.1156 264.17 87.6356C265.09 87.1356 265.83 86.3956 266.39 85.4156C266.97 84.4156 267.26 83.1956 267.26 81.7556C267.26 80.3156 266.98 79.1056 266.42 78.1256C265.86 77.1256 265.12 76.3856 264.2 75.9056C263.28 75.4056 262.28 75.1556 261.2 75.1556C260.12 75.1556 259.12 75.4056 258.2 75.9056C257.28 76.3856 256.54 77.1256 255.98 78.1256C255.44 79.1056 255.17 80.3156 255.17 81.7556C255.17 83.1956 255.44 84.4156 255.98 85.4156C256.54 86.3956 257.27 87.1356 258.17 87.6356C259.09 88.1156 260.09 88.3556 261.17 88.3556ZM275.348 67.7456V89.9456H273.248V67.7456H275.348ZM282.203 67.7456V89.9456H280.103V67.7456H282.203ZM294.129 90.1856C292.589 90.1856 291.199 89.8456 289.959 89.1656C288.739 88.4656 287.769 87.4856 287.049 86.2256C286.349 84.9456 285.999 83.4556 285.999 81.7556C285.999 80.0556 286.359 78.5756 287.079 77.3156C287.799 76.0356 288.779 75.0556 290.019 74.3756C291.259 73.6756 292.649 73.3256 294.189 73.3256C295.729 73.3256 297.119 73.6756 298.359 74.3756C299.619 75.0556 300.599 76.0356 301.299 77.3156C302.019 78.5756 302.379 80.0556 302.379 81.7556C302.379 83.4356 302.019 84.9156 301.299 86.1956C300.579 87.4756 299.589 88.4656 298.329 89.1656C297.069 89.8456 295.669 90.1856 294.129 90.1856ZM294.129 88.3556C295.209 88.3556 296.209 88.1156 297.129 87.6356C298.049 87.1356 298.789 86.3956 299.349 85.4156C299.929 84.4156 300.219 83.1956 300.219 81.7556C300.219 80.3156 299.939 79.1056 299.379 78.1256C298.819 77.1256 298.079 76.3856 297.159 75.9056C296.239 75.4056 295.239 75.1556 294.159 75.1556C293.079 75.1556 292.079 75.4056 291.159 75.9056C290.239 76.3856 289.499 77.1256 288.939 78.1256C288.399 79.1056 288.129 80.3156 288.129 81.7556C288.129 83.1956 288.399 84.4156 288.939 85.4156C289.499 86.3956 290.229 87.1356 291.129 87.6356C292.049 88.1156 293.049 88.3556 294.129 88.3556ZM327.807 73.5656L322.677 89.9456H320.577L316.047 76.2056L311.517 89.9456H309.387L304.257 73.5656H306.387L310.467 87.8156L315.057 73.5656H317.157L321.687 87.8456L325.737 73.5656H327.807ZM331.72 70.4756C331.3 70.4756 330.94 70.3256 330.64 70.0256C330.34 69.7256 330.19 69.3556 330.19 68.9156C330.19 68.4756 330.34 68.1156 330.64 67.8356C330.94 67.5356 331.3 67.3856 331.72 67.3856C332.14 67.3856 332.5 67.5356 332.8 67.8356C333.1 68.1156 333.25 68.4756 333.25 68.9156C333.25 69.3556 333.1 69.7256 332.8 70.0256C332.5 70.3256 332.14 70.4756 331.72 70.4756ZM332.77 73.5656V89.9456H330.67V73.5656H332.77ZM345.205 73.2656C347.165 73.2656 348.765 73.8756 350.005 75.0956C351.245 76.2956 351.865 78.0456 351.865 80.3456V89.9456H349.795V80.5856C349.795 78.8056 349.345 77.4456 348.445 76.5056C347.565 75.5656 346.355 75.0956 344.815 75.0956C343.235 75.0956 341.975 75.5956 341.035 76.5956C340.095 77.5956 339.625 79.0656 339.625 81.0056V89.9456H337.525V73.5656H339.625V76.3556C340.145 75.3556 340.895 74.5956 341.875 74.0756C342.855 73.5356 343.965 73.2656 345.205 73.2656ZM363.379 73.3256C364.919 73.3256 366.259 73.6856 367.399 74.4056C368.539 75.1256 369.359 76.0356 369.859 77.1356V73.5656H371.959V90.3656C371.959 91.8656 371.629 93.1956 370.969 94.3556C370.329 95.5156 369.429 96.4056 368.269 97.0256C367.109 97.6656 365.789 97.9856 364.309 97.9856C362.209 97.9856 360.459 97.4856 359.059 96.4856C357.679 95.4856 356.819 94.1256 356.479 92.4056H358.549C358.909 93.5456 359.589 94.4556 360.589 95.1356C361.609 95.8156 362.849 96.1556 364.309 96.1556C365.369 96.1556 366.319 95.9256 367.159 95.4656C367.999 95.0256 368.659 94.3656 369.139 93.4856C369.619 92.6056 369.859 91.5656 369.859 90.3656V86.3156C369.339 87.4356 368.509 88.3656 367.369 89.1056C366.249 89.8256 364.919 90.1856 363.379 90.1856C361.879 90.1856 360.529 89.8356 359.329 89.1356C358.149 88.4356 357.219 87.4456 356.539 86.1656C355.879 84.8856 355.549 83.4056 355.549 81.7256C355.549 80.0456 355.879 78.5756 356.539 77.3156C357.219 76.0356 358.149 75.0556 359.329 74.3756C360.529 73.6756 361.879 73.3256 363.379 73.3256ZM369.859 81.7556C369.859 80.4356 369.589 79.2756 369.049 78.2756C368.509 77.2756 367.769 76.5056 366.829 75.9656C365.909 75.4256 364.889 75.1556 363.769 75.1556C362.609 75.1556 361.569 75.4156 360.649 75.9356C359.729 76.4556 358.999 77.2156 358.459 78.2156C357.939 79.1956 357.679 80.3656 357.679 81.7256C357.679 83.0656 357.939 84.2456 358.459 85.2656C358.999 86.2656 359.729 87.0356 360.649 87.5756C361.569 88.0956 362.609 88.3556 363.769 88.3556C364.889 88.3556 365.909 88.0856 366.829 87.5456C367.769 87.0056 368.509 86.2356 369.049 85.2356C369.589 84.2356 369.859 83.0756 369.859 81.7556ZM384.026 81.7256C384.026 80.0456 384.356 78.5756 385.016 77.3156C385.696 76.0356 386.626 75.0556 387.806 74.3756C389.006 73.6756 390.356 73.3256 391.856 73.3256C393.416 73.3256 394.756 73.6856 395.876 74.4056C397.016 75.1256 397.836 76.0456 398.336 77.1656V73.5656H400.436V89.9456H398.336V86.3156C397.816 87.4356 396.986 88.3656 395.846 89.1056C394.726 89.8256 393.386 90.1856 391.826 90.1856C390.346 90.1856 389.006 89.8356 387.806 89.1356C386.626 88.4356 385.696 87.4456 385.016 86.1656C384.356 84.8856 384.026 83.4056 384.026 81.7256ZM398.336 81.7556C398.336 80.4356 398.066 79.2756 397.526 78.2756C396.986 77.2756 396.246 76.5056 395.306 75.9656C394.386 75.4256 393.366 75.1556 392.246 75.1556C391.086 75.1556 390.046 75.4156 389.126 75.9356C388.206 76.4556 387.476 77.2156 386.936 78.2156C386.416 79.1956 386.156 80.3656 386.156 81.7256C386.156 83.0656 386.416 84.2456 386.936 85.2656C387.476 86.2656 388.206 87.0356 389.126 87.5756C390.046 88.0956 391.086 88.3556 392.246 88.3556C393.366 88.3556 394.386 88.0856 395.306 87.5456C396.246 87.0056 396.986 86.2356 397.526 85.2356C398.066 84.2356 398.336 83.0756 398.336 81.7556ZM407.33 67.7456V89.9456H405.23V67.7456H407.33ZM418.956 73.3256C420.496 73.3256 421.836 73.6856 422.976 74.4056C424.116 75.1256 424.936 76.0356 425.436 77.1356V73.5656H427.536V90.3656C427.536 91.8656 427.206 93.1956 426.546 94.3556C425.906 95.5156 425.006 96.4056 423.846 97.0256C422.686 97.6656 421.366 97.9856 419.886 97.9856C417.786 97.9856 416.036 97.4856 414.636 96.4856C413.256 95.4856 412.396 94.1256 412.056 92.4056H414.126C414.486 93.5456 415.166 94.4556 416.166 95.1356C417.186 95.8156 418.426 96.1556 419.886 96.1556C420.946 96.1556 421.896 95.9256 422.736 95.4656C423.576 95.0256 424.236 94.3656 424.716 93.4856C425.196 92.6056 425.436 91.5656 425.436 90.3656V86.3156C424.916 87.4356 424.086 88.3656 422.946 89.1056C421.826 89.8256 420.496 90.1856 418.956 90.1856C417.456 90.1856 416.106 89.8356 414.906 89.1356C413.726 88.4356 412.796 87.4456 412.116 86.1656C411.456 84.8856 411.126 83.4056 411.126 81.7256C411.126 80.0456 411.456 78.5756 412.116 77.3156C412.796 76.0356 413.726 75.0556 414.906 74.3756C416.106 73.6756 417.456 73.3256 418.956 73.3256ZM425.436 81.7556C425.436 80.4356 425.166 79.2756 424.626 78.2756C424.086 77.2756 423.346 76.5056 422.406 75.9656C421.486 75.4256 420.466 75.1556 419.346 75.1556C418.186 75.1556 417.146 75.4156 416.226 75.9356C415.306 76.4556 414.576 77.2156 414.036 78.2156C413.516 79.1956 413.256 80.3656 413.256 81.7256C413.256 83.0656 413.516 84.2456 414.036 85.2656C414.576 86.2656 415.306 87.0356 416.226 87.5756C417.146 88.0956 418.186 88.3556 419.346 88.3556C420.466 88.3556 421.486 88.0856 422.406 87.5456C423.346 87.0056 424.086 86.2356 424.626 85.2356C425.166 84.2356 425.436 83.0756 425.436 81.7556ZM439.5 90.1856C437.96 90.1856 436.57 89.8456 435.33 89.1656C434.11 88.4656 433.14 87.4856 432.42 86.2256C431.72 84.9456 431.37 83.4556 431.37 81.7556C431.37 80.0556 431.73 78.5756 432.45 77.3156C433.17 76.0356 434.15 75.0556 435.39 74.3756C436.63 73.6756 438.02 73.3256 439.56 73.3256C441.1 73.3256 442.49 73.6756 443.73 74.3756C444.99 75.0556 445.97 76.0356 446.67 77.3156C447.39 78.5756 447.75 80.0556 447.75 81.7556C447.75 83.4356 447.39 84.9156 446.67 86.1956C445.95 87.4756 444.96 88.4656 443.7 89.1656C442.44 89.8456 441.04 90.1856 439.5 90.1856ZM439.5 88.3556C440.58 88.3556 441.58 88.1156 442.5 87.6356C443.42 87.1356 444.16 86.3956 444.72 85.4156C445.3 84.4156 445.59 83.1956 445.59 81.7556C445.59 80.3156 445.31 79.1056 444.75 78.1256C444.19 77.1256 443.45 76.3856 442.53 75.9056C441.61 75.4056 440.61 75.1556 439.53 75.1556C438.45 75.1556 437.45 75.4056 436.53 75.9056C435.61 76.3856 434.87 77.1256 434.31 78.1256C433.77 79.1056 433.5 80.3156 433.5 81.7556C433.5 83.1956 433.77 84.4156 434.31 85.4156C434.87 86.3956 435.6 87.1356 436.5 87.6356C437.42 88.1156 438.42 88.3556 439.5 88.3556ZM453.678 76.4756C454.138 75.4556 454.838 74.6656 455.778 74.1056C456.738 73.5456 457.908 73.2656 459.288 73.2656V75.4556H458.718C457.198 75.4556 455.978 75.8656 455.058 76.6856C454.138 77.5056 453.678 78.8756 453.678 80.7956V89.9456H451.578V73.5656H453.678V76.4756ZM463.497 70.4756C463.077 70.4756 462.717 70.3256 462.417 70.0256C462.117 69.7256 461.967 69.3556 461.967 68.9156C461.967 68.4756 462.117 68.1156 462.417 67.8356C462.717 67.5356 463.077 67.3856 463.497 67.3856C463.917 67.3856 464.277 67.5356 464.577 67.8356C464.877 68.1156 465.027 68.4756 465.027 68.9156C465.027 69.3556 464.877 69.7256 464.577 70.0256C464.277 70.3256 463.917 70.4756 463.497 70.4756ZM464.547 73.5656V89.9456H462.447V73.5656H464.547ZM472.032 75.3356V85.5056C472.032 86.5056 472.222 87.1956 472.602 87.5756C472.982 87.9556 473.652 88.1456 474.612 88.1456H476.532V89.9456H474.282C472.802 89.9456 471.702 89.6056 470.982 88.9256C470.262 88.2256 469.902 87.0856 469.902 85.5056V75.3356H467.622V73.5656H469.902V69.4556H472.032V73.5656H476.532V75.3356H472.032ZM487.796 73.2656C489.036 73.2656 490.146 73.5256 491.126 74.0456C492.126 74.5656 492.906 75.3656 493.466 76.4456C494.046 77.5056 494.336 78.8056 494.336 80.3456V89.9456H492.266V80.5856C492.266 78.8056 491.816 77.4456 490.916 76.5056C490.036 75.5656 488.826 75.0956 487.286 75.0956C485.706 75.0956 484.446 75.5956 483.506 76.5956C482.566 77.5956 482.096 79.0656 482.096 81.0056V89.9456H479.996V67.7456H482.096V76.3556C482.616 75.3756 483.376 74.6156 484.376 74.0756C485.396 73.5356 486.536 73.2656 487.796 73.2656ZM518.48 73.2656C520.4 73.2656 521.96 73.8756 523.16 75.0956C524.38 76.2956 524.99 78.0456 524.99 80.3456V89.9456H522.92V80.5856C522.92 78.8056 522.49 77.4456 521.63 76.5056C520.77 75.5656 519.6 75.0956 518.12 75.0956C516.58 75.0956 515.35 75.6056 514.43 76.6256C513.51 77.6456 513.05 79.1256 513.05 81.0656V89.9456H510.98V80.5856C510.98 78.8056 510.55 77.4456 509.69 76.5056C508.83 75.5656 507.65 75.0956 506.15 75.0956C504.61 75.0956 503.38 75.6056 502.46 76.6256C501.54 77.6456 501.08 79.1256 501.08 81.0656V89.9456H498.98V73.5656H501.08V76.3856C501.6 75.3656 502.34 74.5956 503.3 74.0756C504.26 73.5356 505.33 73.2656 506.51 73.2656C507.93 73.2656 509.17 73.6056 510.23 74.2856C511.31 74.9656 512.09 75.9656 512.57 77.2856C513.01 75.9856 513.76 74.9956 514.82 74.3156C515.9 73.6156 517.12 73.2656 518.48 73.2656ZM536.926 81.7256C536.926 80.0456 537.256 78.5756 537.916 77.3156C538.596 76.0356 539.526 75.0556 540.706 74.3756C541.906 73.6756 543.256 73.3256 544.756 73.3256C546.316 73.3256 547.656 73.6856 548.776 74.4056C549.916 75.1256 550.736 76.0456 551.236 77.1656V73.5656H553.336V89.9456H551.236V86.3156C550.716 87.4356 549.886 88.3656 548.746 89.1056C547.626 89.8256 546.286 90.1856 544.726 90.1856C543.246 90.1856 541.906 89.8356 540.706 89.1356C539.526 88.4356 538.596 87.4456 537.916 86.1656C537.256 84.8856 536.926 83.4056 536.926 81.7256ZM551.236 81.7556C551.236 80.4356 550.966 79.2756 550.426 78.2756C549.886 77.2756 549.146 76.5056 548.206 75.9656C547.286 75.4256 546.266 75.1556 545.146 75.1556C543.986 75.1556 542.946 75.4156 542.026 75.9356C541.106 76.4556 540.376 77.2156 539.836 78.2156C539.316 79.1956 539.056 80.3656 539.056 81.7256C539.056 83.0656 539.316 84.2456 539.836 85.2656C540.376 86.2656 541.106 87.0356 542.026 87.5756C542.946 88.0956 543.986 88.3556 545.146 88.3556C546.266 88.3556 547.286 88.0856 548.206 87.5456C549.146 87.0056 549.886 86.2356 550.426 85.2356C550.966 84.2356 551.236 83.0756 551.236 81.7556ZM565.81 73.2656C567.77 73.2656 569.37 73.8756 570.61 75.0956C571.85 76.2956 572.47 78.0456 572.47 80.3456V89.9456H570.4V80.5856C570.4 78.8056 569.95 77.4456 569.05 76.5056C568.17 75.5656 566.96 75.0956 565.42 75.0956C563.84 75.0956 562.58 75.5956 561.64 76.5956C560.7 77.5956 560.23 79.0656 560.23 81.0056V89.9456H558.13V73.5656H560.23V76.3556C560.75 75.3556 561.5 74.5956 562.48 74.0756C563.46 73.5356 564.57 73.2656 565.81 73.2656ZM576.155 81.7256C576.155 80.0456 576.495 78.5756 577.175 77.3156C577.855 76.0356 578.785 75.0556 579.965 74.3756C581.165 73.6756 582.515 73.3256 584.015 73.3256C585.455 73.3256 586.755 73.6756 587.915 74.3756C589.075 75.0756 589.925 75.9856 590.465 77.1056V67.7456H592.565V89.9456H590.465V86.2856C589.965 87.4256 589.145 88.3656 588.005 89.1056C586.865 89.8256 585.525 90.1856 583.985 90.1856C582.485 90.1856 581.135 89.8356 579.935 89.1356C578.755 88.4356 577.825 87.4456 577.145 86.1656C576.485 84.8856 576.155 83.4056 576.155 81.7256ZM590.465 81.7556C590.465 80.4356 590.195 79.2756 589.655 78.2756C589.115 77.2756 588.375 76.5056 587.435 75.9656C586.515 75.4256 585.495 75.1556 584.375 75.1556C583.215 75.1556 582.175 75.4156 581.255 75.9356C580.335 76.4556 579.605 77.2156 579.065 78.2156C578.545 79.1956 578.285 80.3656 578.285 81.7256C578.285 83.0656 578.545 84.2456 579.065 85.2656C579.605 86.2656 580.335 87.0356 581.255 87.5756C582.175 88.0956 583.215 88.3556 584.375 88.3556C585.495 88.3556 586.515 88.0856 587.435 87.5456C588.375 87.0056 589.115 86.2356 589.655 85.2356C590.195 84.2356 590.465 83.0756 590.465 81.7556ZM604.631 81.7256C604.631 80.0456 604.971 78.5756 605.651 77.3156C606.331 76.0356 607.261 75.0556 608.441 74.3756C609.641 73.6756 610.991 73.3256 612.491 73.3256C613.931 73.3256 615.231 73.6756 616.391 74.3756C617.551 75.0756 618.401 75.9856 618.941 77.1056V67.7456H621.041V89.9456H618.941V86.2856C618.441 87.4256 617.621 88.3656 616.481 89.1056C615.341 89.8256 614.001 90.1856 612.461 90.1856C610.961 90.1856 609.611 89.8356 608.411 89.1356C607.231 88.4356 606.301 87.4456 605.621 86.1656C604.961 84.8856 604.631 83.4056 604.631 81.7256ZM618.941 81.7556C618.941 80.4356 618.671 79.2756 618.131 78.2756C617.591 77.2756 616.851 76.5056 615.911 75.9656C614.991 75.4256 613.971 75.1556 612.851 75.1556C611.691 75.1556 610.651 75.4156 609.731 75.9356C608.811 76.4556 608.081 77.2156 607.541 78.2156C607.021 79.1956 606.761 80.3656 606.761 81.7256C606.761 83.0656 607.021 84.2456 607.541 85.2656C608.081 86.2656 608.811 87.0356 609.731 87.5756C610.651 88.0956 611.691 88.3556 612.851 88.3556C613.971 88.3556 614.991 88.0856 615.911 87.5456C616.851 87.0056 617.591 86.2356 618.131 85.2356C618.671 84.2356 618.941 83.0756 618.941 81.7556ZM640.656 80.9156C640.656 81.6356 640.636 82.1856 640.596 82.5656H627.006C627.066 83.8056 627.366 84.8656 627.906 85.7456C628.446 86.6256 629.156 87.2956 630.036 87.7556C630.916 88.1956 631.876 88.4156 632.916 88.4156C634.276 88.4156 635.416 88.0856 636.336 87.4256C637.276 86.7656 637.896 85.8756 638.196 84.7556H640.416C640.016 86.3556 639.156 87.6656 637.836 88.6856C636.536 89.6856 634.896 90.1856 632.916 90.1856C631.376 90.1856 629.996 89.8456 628.776 89.1656C627.556 88.4656 626.596 87.4856 625.896 86.2256C625.216 84.9456 624.876 83.4556 624.876 81.7556C624.876 80.0556 625.216 78.5656 625.896 77.2856C626.576 76.0056 627.526 75.0256 628.746 74.3456C629.966 73.6656 631.356 73.3256 632.916 73.3256C634.476 73.3256 635.836 73.6656 636.996 74.3456C638.176 75.0256 639.076 75.9456 639.696 77.1056C640.336 78.2456 640.656 79.5156 640.656 80.9156ZM638.526 80.8556C638.546 79.6356 638.296 78.5956 637.776 77.7356C637.276 76.8756 636.586 76.2256 635.706 75.7856C634.826 75.3456 633.866 75.1256 632.826 75.1256C631.266 75.1256 629.936 75.6256 628.836 76.6256C627.736 77.6256 627.126 79.0356 627.006 80.8556H638.526ZM646.568 77.1656C647.088 76.0656 647.908 75.1556 649.028 74.4356C650.168 73.6956 651.518 73.3256 653.078 73.3256C654.558 73.3256 655.888 73.6756 657.068 74.3756C658.268 75.0556 659.198 76.0356 659.858 77.3156C660.538 78.5756 660.878 80.0456 660.878 81.7256C660.878 83.4056 660.538 84.8856 659.858 86.1656C659.198 87.4456 658.268 88.4356 657.068 89.1356C655.888 89.8356 654.558 90.1856 653.078 90.1856C651.538 90.1856 650.198 89.8256 649.058 89.1056C647.918 88.3656 647.088 87.4456 646.568 86.3456V97.6856H644.498V73.5656H646.568V77.1656ZM658.748 81.7256C658.748 80.3656 658.478 79.1956 657.938 78.2156C657.418 77.2156 656.698 76.4556 655.778 75.9356C654.858 75.4156 653.818 75.1556 652.658 75.1556C651.538 75.1556 650.508 75.4256 649.568 75.9656C648.648 76.5056 647.918 77.2756 647.378 78.2756C646.838 79.2756 646.568 80.4356 646.568 81.7556C646.568 83.0756 646.838 84.2356 647.378 85.2356C647.918 86.2356 648.648 87.0056 649.568 87.5456C650.508 88.0856 651.538 88.3556 652.658 88.3556C653.818 88.3556 654.858 88.0956 655.778 87.5756C656.698 87.0356 657.418 86.2656 657.938 85.2656C658.478 84.2456 658.748 83.0656 658.748 81.7256ZM666.842 67.7456V89.9456H664.742V67.7456H666.842ZM678.767 90.1856C677.227 90.1856 675.837 89.8456 674.597 89.1656C673.377 88.4656 672.407 87.4856 671.687 86.2256C670.987 84.9456 670.637 83.4556 670.637 81.7556C670.637 80.0556 670.997 78.5756 671.717 77.3156C672.437 76.0356 673.417 75.0556 674.657 74.3756C675.897 73.6756 677.287 73.3256 678.827 73.3256C680.367 73.3256 681.757 73.6756 682.997 74.3756C684.257 75.0556 685.237 76.0356 685.937 77.3156C686.657 78.5756 687.017 80.0556 687.017 81.7556C687.017 83.4356 686.657 84.9156 685.937 86.1956C685.217 87.4756 684.227 88.4656 682.967 89.1656C681.707 89.8456 680.307 90.1856 678.767 90.1856ZM678.767 88.3556C679.847 88.3556 680.847 88.1156 681.767 87.6356C682.687 87.1356 683.427 86.3956 683.987 85.4156C684.567 84.4156 684.857 83.1956 684.857 81.7556C684.857 80.3156 684.577 79.1056 684.017 78.1256C683.457 77.1256 682.717 76.3856 681.797 75.9056C680.877 75.4056 679.877 75.1556 678.797 75.1556C677.717 75.1556 676.717 75.4056 675.797 75.9056C674.877 76.3856 674.137 77.1256 673.577 78.1256C673.037 79.1056 672.767 80.3156 672.767 81.7556C672.767 83.1956 673.037 84.4156 673.577 85.4156C674.137 86.3956 674.867 87.1356 675.767 87.6356C676.687 88.1156 677.687 88.3556 678.767 88.3556ZM704.345 73.5656L694.625 97.6556H692.435L695.615 89.8556L688.895 73.5656H691.205L696.785 87.5456L702.185 73.5656H704.345ZM716.475 70.4756C716.055 70.4756 715.695 70.3256 715.395 70.0256C715.095 69.7256 714.945 69.3556 714.945 68.9156C714.945 68.4756 715.095 68.1156 715.395 67.8356C715.695 67.5356 716.055 67.3856 716.475 67.3856C716.895 67.3856 717.255 67.5356 717.555 67.8356C717.855 68.1156 718.005 68.4756 718.005 68.9156C718.005 69.3556 717.855 69.7256 717.555 70.0256C717.255 70.3256 716.895 70.4756 716.475 70.4756ZM717.525 73.5656V89.9456H715.425V73.5656H717.525ZM725.011 75.3356V85.5056C725.011 86.5056 725.201 87.1956 725.581 87.5756C725.961 87.9556 726.631 88.1456 727.591 88.1456H729.511V89.9456H727.261C725.781 89.9456 724.681 89.6056 723.961 88.9256C723.241 88.2256 722.881 87.0856 722.881 85.5056V75.3356H720.601V73.5656H722.881V69.4556H725.011V73.5656H729.511V75.3356H725.011ZM748.377 90.1856C746.837 90.1856 745.447 89.8456 744.207 89.1656C742.987 88.4656 742.017 87.4856 741.297 86.2256C740.597 84.9456 740.247 83.4556 740.247 81.7556C740.247 80.0556 740.607 78.5756 741.327 77.3156C742.047 76.0356 743.027 75.0556 744.267 74.3756C745.507 73.6756 746.897 73.3256 748.437 73.3256C749.977 73.3256 751.367 73.6756 752.607 74.3756C753.867 75.0556 754.847 76.0356 755.547 77.3156C756.267 78.5756 756.627 80.0556 756.627 81.7556C756.627 83.4356 756.267 84.9156 755.547 86.1956C754.827 87.4756 753.837 88.4656 752.577 89.1656C751.317 89.8456 749.917 90.1856 748.377 90.1856ZM748.377 88.3556C749.457 88.3556 750.457 88.1156 751.377 87.6356C752.297 87.1356 753.037 86.3956 753.597 85.4156C754.177 84.4156 754.467 83.1956 754.467 81.7556C754.467 80.3156 754.187 79.1056 753.627 78.1256C753.067 77.1256 752.327 76.3856 751.407 75.9056C750.487 75.4056 749.487 75.1556 748.407 75.1556C747.327 75.1556 746.327 75.4056 745.407 75.9056C744.487 76.3856 743.747 77.1256 743.187 78.1256C742.647 79.1056 742.377 80.3156 742.377 81.7556C742.377 83.1956 742.647 84.4156 743.187 85.4156C743.747 86.3956 744.477 87.1356 745.377 87.6356C746.297 88.1156 747.297 88.3556 748.377 88.3556ZM768.135 73.2656C770.095 73.2656 771.695 73.8756 772.935 75.0956C774.175 76.2956 774.795 78.0456 774.795 80.3456V89.9456H772.725V80.5856C772.725 78.8056 772.275 77.4456 771.375 76.5056C770.495 75.5656 769.285 75.0956 767.745 75.0956C766.165 75.0956 764.905 75.5956 763.965 76.5956C763.025 77.5956 762.555 79.0656 762.555 81.0056V89.9456H760.455V73.5656H762.555V76.3556C763.075 75.3556 763.825 74.5956 764.805 74.0756C765.785 73.5356 766.895 73.2656 768.135 73.2656ZM786.711 81.7256C786.711 80.0456 787.041 78.5756 787.701 77.3156C788.381 76.0356 789.311 75.0556 790.491 74.3756C791.691 73.6756 793.041 73.3256 794.541 73.3256C796.101 73.3256 797.441 73.6856 798.561 74.4056C799.701 75.1256 800.521 76.0456 801.021 77.1656V73.5656H803.121V89.9456H801.021V86.3156C800.501 87.4356 799.671 88.3656 798.531 89.1056C797.411 89.8256 796.071 90.1856 794.511 90.1856C793.031 90.1856 791.691 89.8356 790.491 89.1356C789.311 88.4356 788.381 87.4456 787.701 86.1656C787.041 84.8856 786.711 83.4056 786.711 81.7256ZM801.021 81.7556C801.021 80.4356 800.751 79.2756 800.211 78.2756C799.671 77.2756 798.931 76.5056 797.991 75.9656C797.071 75.4256 796.051 75.1556 794.931 75.1556C793.771 75.1556 792.731 75.4156 791.811 75.9356C790.891 76.4556 790.161 77.2156 789.621 78.2156C789.101 79.1956 788.841 80.3656 788.841 81.7256C788.841 83.0656 789.101 84.2456 789.621 85.2656C790.161 86.2656 790.891 87.0356 791.811 87.5756C792.731 88.0956 793.771 88.3556 794.931 88.3556C796.051 88.3556 797.071 88.0856 797.991 87.5456C798.931 87.0056 799.671 86.2356 800.211 85.2356C800.751 84.2356 801.021 83.0756 801.021 81.7556ZM829.558 75.0056C829.558 76.8056 828.968 78.2556 827.788 79.3556C826.608 80.4556 824.838 81.0056 822.478 81.0056H818.248V89.9456H816.148V68.9756H822.478C824.818 68.9756 826.578 69.5256 827.758 70.6256C828.958 71.7256 829.558 73.1856 829.558 75.0056ZM822.478 79.2056C825.758 79.2056 827.398 77.8056 827.398 75.0056C827.398 73.6056 827.008 72.5456 826.228 71.8256C825.448 71.1056 824.198 70.7456 822.478 70.7456H818.248V79.2056H822.478ZM832.122 81.7256C832.122 80.0456 832.452 78.5756 833.112 77.3156C833.792 76.0356 834.722 75.0556 835.902 74.3756C837.102 73.6756 838.452 73.3256 839.952 73.3256C841.512 73.3256 842.852 73.6856 843.972 74.4056C845.112 75.1256 845.932 76.0456 846.432 77.1656V73.5656H848.532V89.9456H846.432V86.3156C845.912 87.4356 845.082 88.3656 843.942 89.1056C842.822 89.8256 841.482 90.1856 839.922 90.1856C838.442 90.1856 837.102 89.8356 835.902 89.1356C834.722 88.4356 833.792 87.4456 833.112 86.1656C832.452 84.8856 832.122 83.4056 832.122 81.7256ZM846.432 81.7556C846.432 80.4356 846.162 79.2756 845.622 78.2756C845.082 77.2756 844.342 76.5056 843.402 75.9656C842.482 75.4256 841.462 75.1556 840.342 75.1556C839.182 75.1556 838.142 75.4156 837.222 75.9356C836.302 76.4556 835.572 77.2156 835.032 78.2156C834.512 79.1956 834.252 80.3656 834.252 81.7256C834.252 83.0656 834.512 84.2456 835.032 85.2656C835.572 86.2656 836.302 87.0356 837.222 87.5756C838.142 88.0956 839.182 88.3556 840.342 88.3556C841.462 88.3556 842.482 88.0856 843.402 87.5456C844.342 87.0056 845.082 86.2356 845.622 85.2356C846.162 84.2356 846.432 83.0756 846.432 81.7556ZM855.426 76.4756C855.886 75.4556 856.586 74.6656 857.526 74.1056C858.486 73.5456 859.656 73.2656 861.036 73.2656V75.4556H860.466C858.946 75.4556 857.726 75.8656 856.806 76.6856C855.886 77.5056 855.426 78.8756 855.426 80.7956V89.9456H853.326V73.5656H855.426V76.4756ZM866.295 76.4756C866.755 75.4556 867.455 74.6656 868.395 74.1056C869.355 73.5456 870.525 73.2656 871.905 73.2656V75.4556H871.335C869.815 75.4556 868.595 75.8656 867.675 76.6856C866.755 77.5056 866.295 78.8756 866.295 80.7956V89.9456H864.195V73.5656H866.295V76.4756ZM882.234 90.1856C880.694 90.1856 879.304 89.8456 878.064 89.1656C876.844 88.4656 875.874 87.4856 875.154 86.2256C874.454 84.9456 874.104 83.4556 874.104 81.7556C874.104 80.0556 874.464 78.5756 875.184 77.3156C875.904 76.0356 876.884 75.0556 878.124 74.3756C879.364 73.6756 880.754 73.3256 882.294 73.3256C883.834 73.3256 885.224 73.6756 886.464 74.3756C887.724 75.0556 888.704 76.0356 889.404 77.3156C890.124 78.5756 890.484 80.0556 890.484 81.7556C890.484 83.4356 890.124 84.9156 889.404 86.1956C888.684 87.4756 887.694 88.4656 886.434 89.1656C885.174 89.8456 883.774 90.1856 882.234 90.1856ZM882.234 88.3556C883.314 88.3556 884.314 88.1156 885.234 87.6356C886.154 87.1356 886.894 86.3956 887.454 85.4156C888.034 84.4156 888.324 83.1956 888.324 81.7556C888.324 80.3156 888.044 79.1056 887.484 78.1256C886.924 77.1256 886.184 76.3856 885.264 75.9056C884.344 75.4056 883.344 75.1556 882.264 75.1556C881.184 75.1556 880.184 75.4056 879.264 75.9056C878.344 76.3856 877.604 77.1256 877.044 78.1256C876.504 79.1056 876.234 80.3156 876.234 81.7556C876.234 83.1956 876.504 84.4156 877.044 85.4156C877.604 86.3956 878.334 87.1356 879.234 87.6356C880.154 88.1156 881.154 88.3556 882.234 88.3556ZM897.042 75.3356V85.5056C897.042 86.5056 897.232 87.1956 897.612 87.5756C897.992 87.9556 898.662 88.1456 899.622 88.1456H901.542V89.9456H899.292C897.812 89.9456 896.712 89.6056 895.992 88.9256C895.272 88.2256 894.912 87.0856 894.912 85.5056V75.3356H892.632V73.5656H894.912V69.4556H897.042V73.5656H901.542V75.3356H897.042ZM933.728 69.2456V89.9456H931.628V73.4156L924.248 89.9456H922.718L915.338 73.4756V89.9456H913.238V69.2456H915.458L923.468 87.1856L931.478 69.2456H933.728ZM937.532 81.7256C937.532 80.0456 937.862 78.5756 938.522 77.3156C939.202 76.0356 940.132 75.0556 941.312 74.3756C942.512 73.6756 943.862 73.3256 945.362 73.3256C946.922 73.3256 948.262 73.6856 949.382 74.4056C950.522 75.1256 951.342 76.0456 951.842 77.1656V73.5656H953.942V89.9456H951.842V86.3156C951.322 87.4356 950.492 88.3656 949.352 89.1056C948.232 89.8256 946.892 90.1856 945.332 90.1856C943.852 90.1856 942.512 89.8356 941.312 89.1356C940.132 88.4356 939.202 87.4456 938.522 86.1656C937.862 84.8856 937.532 83.4056 937.532 81.7256ZM951.842 81.7556C951.842 80.4356 951.572 79.2756 951.032 78.2756C950.492 77.2756 949.752 76.5056 948.812 75.9656C947.892 75.4256 946.872 75.1556 945.752 75.1556C944.592 75.1556 943.552 75.4156 942.632 75.9356C941.712 76.4556 940.982 77.2156 940.442 78.2156C939.922 79.1956 939.662 80.3656 939.662 81.7256C939.662 83.0656 939.922 84.2456 940.442 85.2656C940.982 86.2656 941.712 87.0356 942.632 87.5756C943.552 88.0956 944.592 88.3556 945.752 88.3556C946.872 88.3556 947.892 88.0856 948.812 87.5456C949.752 87.0056 950.492 86.2356 951.032 85.2356C951.572 84.2356 951.842 83.0756 951.842 81.7556ZM978.236 73.2656C980.156 73.2656 981.716 73.8756 982.916 75.0956C984.136 76.2956 984.746 78.0456 984.746 80.3456V89.9456H982.676V80.5856C982.676 78.8056 982.246 77.4456 981.386 76.5056C980.526 75.5656 979.356 75.0956 977.876 75.0956C976.336 75.0956 975.106 75.6056 974.186 76.6256C973.266 77.6456 972.806 79.1256 972.806 81.0656V89.9456H970.736V80.5856C970.736 78.8056 970.306 77.4456 969.446 76.5056C968.586 75.5656 967.406 75.0956 965.906 75.0956C964.366 75.0956 963.136 75.6056 962.216 76.6256C961.296 77.6456 960.836 79.1256 960.836 81.0656V89.9456H958.736V73.5656H960.836V76.3856C961.356 75.3656 962.096 74.5956 963.056 74.0756C964.016 73.5356 965.086 73.2656 966.266 73.2656C967.686 73.2656 968.926 73.6056 969.986 74.2856C971.066 74.9656 971.846 75.9656 972.326 77.2856C972.766 75.9856 973.516 74.9956 974.576 74.3156C975.656 73.6156 976.876 73.2656 978.236 73.2656ZM991.48 77.1956C992.02 76.0556 992.85 75.1256 993.97 74.4056C995.11 73.6856 996.45 73.3256 997.99 73.3256C999.49 73.3256 1000.83 73.6756 1002.01 74.3756C1003.19 75.0556 1004.11 76.0356 1004.77 77.3156C1005.45 78.5756 1005.79 80.0456 1005.79 81.7256C1005.79 83.4056 1005.45 84.8856 1004.77 86.1656C1004.11 87.4456 1003.18 88.4356 1001.98 89.1356C1000.8 89.8356 999.47 90.1856 997.99 90.1856C996.43 90.1856 995.08 89.8356 993.94 89.1356C992.82 88.4156 992 87.4856 991.48 86.3456V89.9456H989.41V67.7456H991.48V77.1956ZM1003.66 81.7256C1003.66 80.3656 1003.39 79.1956 1002.85 78.2156C1002.33 77.2156 1001.61 76.4556 1000.69 75.9356C999.77 75.4156 998.73 75.1556 997.57 75.1556C996.45 75.1556 995.42 75.4256 994.48 75.9656C993.56 76.5056 992.83 77.2756 992.29 78.2756C991.75 79.2756 991.48 80.4356 991.48 81.7556C991.48 83.0756 991.75 84.2356 992.29 85.2356C992.83 86.2356 993.56 87.0056 994.48 87.5456C995.42 88.0856 996.45 88.3556 997.57 88.3556C998.73 88.3556 999.77 88.0956 1000.69 87.5756C1001.61 87.0356 1002.33 86.2656 1002.85 85.2656C1003.39 84.2456 1003.66 83.0656 1003.66 81.7256ZM1016.82 90.1856C1015.28 90.1856 1013.89 89.8456 1012.65 89.1656C1011.43 88.4656 1010.46 87.4856 1009.74 86.2256C1009.04 84.9456 1008.69 83.4556 1008.69 81.7556C1008.69 80.0556 1009.05 78.5756 1009.77 77.3156C1010.49 76.0356 1011.47 75.0556 1012.71 74.3756C1013.95 73.6756 1015.34 73.3256 1016.88 73.3256C1018.42 73.3256 1019.81 73.6756 1021.05 74.3756C1022.31 75.0556 1023.29 76.0356 1023.99 77.3156C1024.71 78.5756 1025.07 80.0556 1025.07 81.7556C1025.07 83.4356 1024.71 84.9156 1023.99 86.1956C1023.27 87.4756 1022.28 88.4656 1021.02 89.1656C1019.76 89.8456 1018.36 90.1856 1016.82 90.1856ZM1016.82 88.3556C1017.9 88.3556 1018.9 88.1156 1019.82 87.6356C1020.74 87.1356 1021.48 86.3956 1022.04 85.4156C1022.62 84.4156 1022.91 83.1956 1022.91 81.7556C1022.91 80.3156 1022.63 79.1056 1022.07 78.1256C1021.51 77.1256 1020.77 76.3856 1019.85 75.9056C1018.93 75.4056 1017.93 75.1556 1016.85 75.1556C1015.77 75.1556 1014.77 75.4056 1013.85 75.9056C1012.93 76.3856 1012.19 77.1256 1011.63 78.1256C1011.09 79.1056 1010.82 80.3156 1010.82 81.7556C1010.82 83.1956 1011.09 84.4156 1011.63 85.4156C1012.19 86.3956 1012.92 87.1356 1013.82 87.6356C1014.74 88.1156 1015.74 88.3556 1016.82 88.3556ZM1036.17 81.7256C1036.17 80.0456 1036.51 78.5756 1037.19 77.3156C1037.87 76.0356 1038.8 75.0556 1039.98 74.3756C1041.18 73.6756 1042.53 73.3256 1044.03 73.3256C1045.47 73.3256 1046.77 73.6756 1047.93 74.3756C1049.09 75.0756 1049.94 75.9856 1050.48 77.1056V67.7456H1052.58V89.9456H1050.48V86.2856C1049.98 87.4256 1049.16 88.3656 1048.02 89.1056C1046.88 89.8256 1045.54 90.1856 1044 90.1856C1042.5 90.1856 1041.15 89.8356 1039.95 89.1356C1038.77 88.4356 1037.84 87.4456 1037.16 86.1656C1036.5 84.8856 1036.17 83.4056 1036.17 81.7256ZM1050.48 81.7556C1050.48 80.4356 1050.21 79.2756 1049.67 78.2756C1049.13 77.2756 1048.39 76.5056 1047.45 75.9656C1046.53 75.4256 1045.51 75.1556 1044.39 75.1556C1043.23 75.1556 1042.19 75.4156 1041.27 75.9356C1040.35 76.4556 1039.62 77.2156 1039.08 78.2156C1038.56 79.1956 1038.3 80.3656 1038.3 81.7256C1038.3 83.0656 1038.56 84.2456 1039.08 85.2656C1039.62 86.2656 1040.35 87.0356 1041.27 87.5756C1042.19 88.0956 1043.23 88.3556 1044.39 88.3556C1045.51 88.3556 1046.53 88.0856 1047.45 87.5456C1048.39 87.0056 1049.13 86.2356 1049.67 85.2356C1050.21 84.2356 1050.48 83.0756 1050.48 81.7556ZM1059.48 76.4756C1059.94 75.4556 1060.64 74.6656 1061.58 74.1056C1062.54 73.5456 1063.71 73.2656 1065.09 73.2656V75.4556H1064.52C1063 75.4556 1061.78 75.8656 1060.86 76.6856C1059.94 77.5056 1059.48 78.8756 1059.48 80.7956V89.9456H1057.38V73.5656H1059.48V76.4756ZM1075.42 90.1856C1073.88 90.1856 1072.49 89.8456 1071.25 89.1656C1070.03 88.4656 1069.06 87.4856 1068.34 86.2256C1067.64 84.9456 1067.29 83.4556 1067.29 81.7556C1067.29 80.0556 1067.65 78.5756 1068.37 77.3156C1069.09 76.0356 1070.07 75.0556 1071.31 74.3756C1072.55 73.6756 1073.94 73.3256 1075.48 73.3256C1077.02 73.3256 1078.41 73.6756 1079.65 74.3756C1080.91 75.0556 1081.89 76.0356 1082.59 77.3156C1083.31 78.5756 1083.67 80.0556 1083.67 81.7556C1083.67 83.4356 1083.31 84.9156 1082.59 86.1956C1081.87 87.4756 1080.88 88.4656 1079.62 89.1656C1078.36 89.8456 1076.96 90.1856 1075.42 90.1856ZM1075.42 88.3556C1076.5 88.3556 1077.5 88.1156 1078.42 87.6356C1079.34 87.1356 1080.08 86.3956 1080.64 85.4156C1081.22 84.4156 1081.51 83.1956 1081.51 81.7556C1081.51 80.3156 1081.23 79.1056 1080.67 78.1256C1080.11 77.1256 1079.37 76.3856 1078.45 75.9056C1077.53 75.4056 1076.53 75.1556 1075.45 75.1556C1074.37 75.1556 1073.37 75.4056 1072.45 75.9056C1071.53 76.3856 1070.79 77.1256 1070.23 78.1256C1069.69 79.1056 1069.42 80.3156 1069.42 81.7556C1069.42 83.1956 1069.69 84.4156 1070.23 85.4156C1070.79 86.3956 1071.52 87.1356 1072.42 87.6356C1073.34 88.1156 1074.34 88.3556 1075.42 88.3556ZM1095.18 73.2656C1097.14 73.2656 1098.74 73.8756 1099.98 75.0956C1101.22 76.2956 1101.84 78.0456 1101.84 80.3456V89.9456H1099.77V80.5856C1099.77 78.8056 1099.32 77.4456 1098.42 76.5056C1097.54 75.5656 1096.33 75.0956 1094.79 75.0956C1093.21 75.0956 1091.95 75.5956 1091.01 76.5956C1090.07 77.5956 1089.6 79.0656 1089.6 81.0056V89.9456H1087.5V73.5656H1089.6V76.3556C1090.12 75.3556 1090.87 74.5956 1091.85 74.0756C1092.83 73.5356 1093.94 73.2656 1095.18 73.2656ZM1121.3 80.9156C1121.3 81.6356 1121.28 82.1856 1121.24 82.5656H1107.65C1107.71 83.8056 1108.01 84.8656 1108.55 85.7456C1109.09 86.6256 1109.8 87.2956 1110.68 87.7556C1111.56 88.1956 1112.52 88.4156 1113.56 88.4156C1114.92 88.4156 1116.06 88.0856 1116.98 87.4256C1117.92 86.7656 1118.54 85.8756 1118.84 84.7556H1121.06C1120.66 86.3556 1119.8 87.6656 1118.48 88.6856C1117.18 89.6856 1115.54 90.1856 1113.56 90.1856C1112.02 90.1856 1110.64 89.8456 1109.42 89.1656C1108.2 88.4656 1107.24 87.4856 1106.54 86.2256C1105.86 84.9456 1105.52 83.4556 1105.52 81.7556C1105.52 80.0556 1105.86 78.5656 1106.54 77.2856C1107.22 76.0056 1108.17 75.0256 1109.39 74.3456C1110.61 73.6656 1112 73.3256 1113.56 73.3256C1115.12 73.3256 1116.48 73.6656 1117.64 74.3456C1118.82 75.0256 1119.72 75.9456 1120.34 77.1056C1120.98 78.2456 1121.3 79.5156 1121.3 80.9156ZM1119.17 80.8556C1119.19 79.6356 1118.94 78.5956 1118.42 77.7356C1117.92 76.8756 1117.23 76.2256 1116.35 75.7856C1115.47 75.3456 1114.51 75.1256 1113.47 75.1256C1111.91 75.1256 1110.58 75.6256 1109.48 76.6256C1108.38 77.6256 1107.77 79.0356 1107.65 80.8556H1119.17ZM1139.19 87.9056L1144.71 73.5656H1146.93L1140.36 89.9456H1137.99L1131.42 73.5656H1133.67L1139.19 87.9056ZM1150.83 70.4756C1150.41 70.4756 1150.05 70.3256 1149.75 70.0256C1149.45 69.7256 1149.3 69.3556 1149.3 68.9156C1149.3 68.4756 1149.45 68.1156 1149.75 67.8356C1150.05 67.5356 1150.41 67.3856 1150.83 67.3856C1151.25 67.3856 1151.61 67.5356 1151.91 67.8356C1152.21 68.1156 1152.36 68.4756 1152.36 68.9156C1152.36 69.3556 1152.21 69.7256 1151.91 70.0256C1151.61 70.3256 1151.25 70.4756 1150.83 70.4756ZM1151.88 73.5656V89.9456H1149.78V73.5656H1151.88ZM1155.68 81.7256C1155.68 80.0456 1156.01 78.5756 1156.67 77.3156C1157.35 76.0356 1158.28 75.0556 1159.46 74.3756C1160.66 73.6756 1162.01 73.3256 1163.51 73.3256C1165.07 73.3256 1166.41 73.6856 1167.53 74.4056C1168.67 75.1256 1169.49 76.0456 1169.99 77.1656V73.5656H1172.09V89.9456H1169.99V86.3156C1169.47 87.4356 1168.64 88.3656 1167.5 89.1056C1166.38 89.8256 1165.04 90.1856 1163.48 90.1856C1162 90.1856 1160.66 89.8356 1159.46 89.1356C1158.28 88.4356 1157.35 87.4456 1156.67 86.1656C1156.01 84.8856 1155.68 83.4056 1155.68 81.7256ZM1169.99 81.7556C1169.99 80.4356 1169.72 79.2756 1169.18 78.2756C1168.64 77.2756 1167.9 76.5056 1166.96 75.9656C1166.04 75.4256 1165.02 75.1556 1163.9 75.1556C1162.74 75.1556 1161.7 75.4156 1160.78 75.9356C1159.86 76.4556 1159.13 77.2156 1158.59 78.2156C1158.07 79.1956 1157.81 80.3656 1157.81 81.7256C1157.81 83.0656 1158.07 84.2456 1158.59 85.2656C1159.13 86.2656 1159.86 87.0356 1160.78 87.5756C1161.7 88.0956 1162.74 88.3556 1163.9 88.3556C1165.02 88.3556 1166.04 88.0856 1166.96 87.5456C1167.9 87.0056 1168.64 86.2356 1169.18 85.2356C1169.72 84.2356 1169.99 83.0756 1169.99 81.7556ZM45.04 135.186C43.16 135.186 41.62 134.756 40.42 133.896C39.24 133.016 38.58 131.826 38.44 130.326H40.6C40.7 131.246 41.13 131.996 41.89 132.576C42.67 133.136 43.71 133.416 45.01 133.416C46.15 133.416 47.04 133.146 47.68 132.606C48.34 132.066 48.67 131.396 48.67 130.596C48.67 130.036 48.49 129.576 48.13 129.216C47.77 128.856 47.31 128.576 46.75 128.376C46.21 128.156 45.47 127.926 44.53 127.686C43.31 127.366 42.32 127.046 41.56 126.726C40.8 126.406 40.15 125.936 39.61 125.316C39.09 124.676 38.83 123.826 38.83 122.766C38.83 121.966 39.07 121.226 39.55 120.546C40.03 119.866 40.71 119.326 41.59 118.926C42.47 118.526 43.47 118.326 44.59 118.326C46.35 118.326 47.77 118.776 48.85 119.676C49.93 120.556 50.51 121.776 50.59 123.336H48.49C48.43 122.376 48.05 121.606 47.35 121.026C46.67 120.426 45.73 120.126 44.53 120.126C43.47 120.126 42.61 120.376 41.95 120.876C41.29 121.376 40.96 121.996 40.96 122.736C40.96 123.376 41.15 123.906 41.53 124.326C41.93 124.726 42.42 125.046 43 125.286C43.58 125.506 44.36 125.756 45.34 126.036C46.52 126.356 47.46 126.666 48.16 126.966C48.86 127.266 49.46 127.706 49.96 128.286C50.46 128.866 50.72 129.636 50.74 130.596C50.74 131.476 50.5 132.266 50.02 132.966C49.54 133.646 48.87 134.186 48.01 134.586C47.15 134.986 46.16 135.186 45.04 135.186ZM55.743 115.476C55.323 115.476 54.963 115.326 54.663 115.026C54.363 114.726 54.213 114.356 54.213 113.916C54.213 113.476 54.363 113.116 54.663 112.836C54.963 112.536 55.323 112.386 55.743 112.386C56.163 112.386 56.523 112.536 56.823 112.836C57.123 113.116 57.273 113.476 57.273 113.916C57.273 114.356 57.123 114.726 56.823 115.026C56.523 115.326 56.163 115.476 55.743 115.476ZM56.793 118.566V134.946H54.693V118.566H56.793ZM81.0484 118.266C82.9684 118.266 84.5284 118.876 85.7284 120.096C86.9484 121.296 87.5584 123.046 87.5584 125.346V134.946H85.4884V125.586C85.4884 123.806 85.0584 122.446 84.1984 121.506C83.3384 120.566 82.1684 120.096 80.6884 120.096C79.1484 120.096 77.9184 120.606 76.9984 121.626C76.0784 122.646 75.6184 124.126 75.6184 126.066V134.946H73.5484V125.586C73.5484 123.806 73.1184 122.446 72.2584 121.506C71.3984 120.566 70.2184 120.096 68.7184 120.096C67.1784 120.096 65.9484 120.606 65.0284 121.626C64.1084 122.646 63.6484 124.126 63.6484 126.066V134.946H61.5484V118.566H63.6484V121.386C64.1684 120.366 64.9084 119.596 65.8684 119.076C66.8284 118.536 67.8984 118.266 69.0784 118.266C70.4984 118.266 71.7384 118.606 72.7984 119.286C73.8784 119.966 74.6584 120.966 75.1384 122.286C75.5784 120.986 76.3284 119.996 77.3884 119.316C78.4684 118.616 79.6884 118.266 81.0484 118.266ZM106.412 118.566V134.946H104.312V132.066C103.832 133.086 103.092 133.866 102.092 134.406C101.092 134.946 99.9723 135.216 98.7323 135.216C96.7723 135.216 95.1723 134.616 93.9323 133.416C92.6923 132.196 92.0723 130.436 92.0723 128.136V118.566H94.1423V127.896C94.1423 129.676 94.5823 131.036 95.4623 131.976C96.3623 132.916 97.5823 133.386 99.1223 133.386C100.702 133.386 101.962 132.886 102.902 131.886C103.842 130.886 104.312 129.416 104.312 127.476V118.566H106.412ZM113.307 112.746V134.946H111.207V112.746H113.307ZM117.102 126.726C117.102 125.046 117.432 123.576 118.092 122.316C118.772 121.036 119.702 120.056 120.882 119.376C122.082 118.676 123.432 118.326 124.932 118.326C126.492 118.326 127.832 118.686 128.952 119.406C130.092 120.126 130.912 121.046 131.412 122.166V118.566H133.512V134.946H131.412V131.316C130.892 132.436 130.062 133.366 128.922 134.106C127.802 134.826 126.462 135.186 124.902 135.186C123.422 135.186 122.082 134.836 120.882 134.136C119.702 133.436 118.772 132.446 118.092 131.166C117.432 129.886 117.102 128.406 117.102 126.726ZM131.412 126.756C131.412 125.436 131.142 124.276 130.602 123.276C130.062 122.276 129.322 121.506 128.382 120.966C127.462 120.426 126.442 120.156 125.322 120.156C124.162 120.156 123.122 120.416 122.202 120.936C121.282 121.456 120.552 122.216 120.012 123.216C119.492 124.196 119.232 125.366 119.232 126.726C119.232 128.066 119.492 129.246 120.012 130.266C120.552 131.266 121.282 132.036 122.202 132.576C123.122 133.096 124.162 133.356 125.322 133.356C126.442 133.356 127.462 133.086 128.382 132.546C129.322 132.006 130.062 131.236 130.602 130.236C131.142 129.236 131.412 128.076 131.412 126.756ZM141.036 120.336V130.506C141.036 131.506 141.226 132.196 141.606 132.576C141.986 132.956 142.656 133.146 143.616 133.146H145.536V134.946H143.286C141.806 134.946 140.706 134.606 139.986 133.926C139.266 133.226 138.906 132.086 138.906 130.506V120.336H136.626V118.566H138.906V114.456H141.036V118.566H145.536V120.336H141.036ZM150.05 115.476C149.63 115.476 149.27 115.326 148.97 115.026C148.67 114.726 148.52 114.356 148.52 113.916C148.52 113.476 148.67 113.116 148.97 112.836C149.27 112.536 149.63 112.386 150.05 112.386C150.47 112.386 150.83 112.536 151.13 112.836C151.43 113.116 151.58 113.476 151.58 113.916C151.58 114.356 151.43 114.726 151.13 115.026C150.83 115.326 150.47 115.476 150.05 115.476ZM151.1 118.566V134.946H149V118.566H151.1ZM163.025 135.186C161.485 135.186 160.095 134.846 158.855 134.166C157.635 133.466 156.665 132.486 155.945 131.226C155.245 129.946 154.895 128.456 154.895 126.756C154.895 125.056 155.255 123.576 155.975 122.316C156.695 121.036 157.675 120.056 158.915 119.376C160.155 118.676 161.545 118.326 163.085 118.326C164.625 118.326 166.015 118.676 167.255 119.376C168.515 120.056 169.495 121.036 170.195 122.316C170.915 123.576 171.275 125.056 171.275 126.756C171.275 128.436 170.915 129.916 170.195 131.196C169.475 132.476 168.485 133.466 167.225 134.166C165.965 134.846 164.565 135.186 163.025 135.186ZM163.025 133.356C164.105 133.356 165.105 133.116 166.025 132.636C166.945 132.136 167.685 131.396 168.245 130.416C168.825 129.416 169.115 128.196 169.115 126.756C169.115 125.316 168.835 124.106 168.275 123.126C167.715 122.126 166.975 121.386 166.055 120.906C165.135 120.406 164.135 120.156 163.055 120.156C161.975 120.156 160.975 120.406 160.055 120.906C159.135 121.386 158.395 122.126 157.835 123.126C157.295 124.106 157.025 125.316 157.025 126.756C157.025 128.196 157.295 129.416 157.835 130.416C158.395 131.396 159.125 132.136 160.025 132.636C160.945 133.116 161.945 133.356 163.025 133.356ZM182.783 118.266C184.743 118.266 186.343 118.876 187.583 120.096C188.823 121.296 189.443 123.046 189.443 125.346V134.946H187.373V125.586C187.373 123.806 186.923 122.446 186.023 121.506C185.143 120.566 183.933 120.096 182.393 120.096C180.813 120.096 179.553 120.596 178.613 121.596C177.673 122.596 177.203 124.066 177.203 126.006V134.946H175.103V118.566H177.203V121.356C177.723 120.356 178.473 119.596 179.453 119.076C180.433 118.536 181.543 118.266 182.783 118.266ZM201.36 126.726C201.36 125.046 201.69 123.576 202.35 122.316C203.03 121.036 203.96 120.056 205.14 119.376C206.34 118.676 207.69 118.326 209.19 118.326C210.75 118.326 212.09 118.686 213.21 119.406C214.35 120.126 215.17 121.046 215.67 122.166V118.566H217.77V134.946H215.67V131.316C215.15 132.436 214.32 133.366 213.18 134.106C212.06 134.826 210.72 135.186 209.16 135.186C207.68 135.186 206.34 134.836 205.14 134.136C203.96 133.436 203.03 132.446 202.35 131.166C201.69 129.886 201.36 128.406 201.36 126.726ZM215.67 126.756C215.67 125.436 215.4 124.276 214.86 123.276C214.32 122.276 213.58 121.506 212.64 120.966C211.72 120.426 210.7 120.156 209.58 120.156C208.42 120.156 207.38 120.416 206.46 120.936C205.54 121.456 204.81 122.216 204.27 123.216C203.75 124.196 203.49 125.366 203.49 126.726C203.49 128.066 203.75 129.246 204.27 130.266C204.81 131.266 205.54 132.036 206.46 132.576C207.38 133.096 208.42 133.356 209.58 133.356C210.7 133.356 211.72 133.086 212.64 132.546C213.58 132.006 214.32 131.236 214.86 130.236C215.4 129.236 215.67 128.076 215.67 126.756ZM230.244 118.266C232.204 118.266 233.804 118.876 235.044 120.096C236.284 121.296 236.904 123.046 236.904 125.346V134.946H234.834V125.586C234.834 123.806 234.384 122.446 233.484 121.506C232.604 120.566 231.394 120.096 229.854 120.096C228.274 120.096 227.014 120.596 226.074 121.596C225.134 122.596 224.664 124.066 224.664 126.006V134.946H222.564V118.566H224.664V121.356C225.184 120.356 225.934 119.596 226.914 119.076C227.894 118.536 229.004 118.266 230.244 118.266ZM240.588 126.726C240.588 125.046 240.928 123.576 241.608 122.316C242.288 121.036 243.218 120.056 244.398 119.376C245.598 118.676 246.948 118.326 248.448 118.326C249.888 118.326 251.188 118.676 252.348 119.376C253.508 120.076 254.358 120.986 254.898 122.106V112.746H256.998V134.946H254.898V131.286C254.398 132.426 253.578 133.366 252.438 134.106C251.298 134.826 249.958 135.186 248.418 135.186C246.918 135.186 245.568 134.836 244.368 134.136C243.188 133.436 242.258 132.446 241.578 131.166C240.918 129.886 240.588 128.406 240.588 126.726ZM254.898 126.756C254.898 125.436 254.628 124.276 254.088 123.276C253.548 122.276 252.808 121.506 251.868 120.966C250.948 120.426 249.928 120.156 248.808 120.156C247.648 120.156 246.608 120.416 245.688 120.936C244.768 121.456 244.038 122.216 243.498 123.216C242.978 124.196 242.718 125.366 242.718 126.726C242.718 128.066 242.978 129.246 243.498 130.266C244.038 131.266 244.768 132.036 245.688 132.576C246.608 133.096 247.648 133.356 248.808 133.356C249.928 133.356 250.948 133.086 251.868 132.546C252.808 132.006 253.548 131.236 254.088 130.236C254.628 129.236 254.898 128.076 254.898 126.756ZM272.125 121.476C272.585 120.456 273.285 119.666 274.225 119.106C275.185 118.546 276.355 118.266 277.735 118.266V120.456H277.165C275.645 120.456 274.425 120.866 273.505 121.686C272.585 122.506 272.125 123.876 272.125 125.796V134.946H270.025V118.566H272.125V121.476ZM295.714 125.916C295.714 126.636 295.694 127.186 295.654 127.566H282.064C282.124 128.806 282.424 129.866 282.964 130.746C283.504 131.626 284.214 132.296 285.094 132.756C285.974 133.196 286.934 133.416 287.974 133.416C289.334 133.416 290.474 133.086 291.394 132.426C292.334 131.766 292.954 130.876 293.254 129.756H295.474C295.074 131.356 294.214 132.666 292.894 133.686C291.594 134.686 289.954 135.186 287.974 135.186C286.434 135.186 285.054 134.846 283.834 134.166C282.614 133.466 281.654 132.486 280.954 131.226C280.274 129.946 279.934 128.456 279.934 126.756C279.934 125.056 280.274 123.566 280.954 122.286C281.634 121.006 282.584 120.026 283.804 119.346C285.024 118.666 286.414 118.326 287.974 118.326C289.534 118.326 290.894 118.666 292.054 119.346C293.234 120.026 294.134 120.946 294.754 122.106C295.394 123.246 295.714 124.516 295.714 125.916ZM293.584 125.856C293.604 124.636 293.354 123.596 292.834 122.736C292.334 121.876 291.644 121.226 290.764 120.786C289.884 120.346 288.924 120.126 287.884 120.126C286.324 120.126 284.994 120.626 283.894 121.626C282.794 122.626 282.184 124.036 282.064 125.856H293.584ZM298.596 126.726C298.596 125.046 298.926 123.576 299.586 122.316C300.266 121.036 301.196 120.056 302.376 119.376C303.576 118.676 304.926 118.326 306.426 118.326C307.986 118.326 309.326 118.686 310.446 119.406C311.586 120.126 312.406 121.046 312.906 122.166V118.566H315.006V134.946H312.906V131.316C312.386 132.436 311.556 133.366 310.416 134.106C309.296 134.826 307.956 135.186 306.396 135.186C304.916 135.186 303.576 134.836 302.376 134.136C301.196 133.436 300.266 132.446 299.586 131.166C298.926 129.886 298.596 128.406 298.596 126.726ZM312.906 126.756C312.906 125.436 312.636 124.276 312.096 123.276C311.556 122.276 310.816 121.506 309.876 120.966C308.956 120.426 307.936 120.156 306.816 120.156C305.656 120.156 304.616 120.416 303.696 120.936C302.776 121.456 302.046 122.216 301.506 123.216C300.986 124.196 300.726 125.366 300.726 126.726C300.726 128.066 300.986 129.246 301.506 130.266C302.046 131.266 302.776 132.036 303.696 132.576C304.616 133.096 305.656 133.356 306.816 133.356C307.936 133.356 308.956 133.086 309.876 132.546C310.816 132.006 311.556 131.236 312.096 130.236C312.636 129.236 312.906 128.076 312.906 126.756ZM321.9 112.746V134.946H319.8V112.746H321.9ZM342.688 118.266C343.928 118.266 345.038 118.526 346.018 119.046C347.018 119.566 347.798 120.366 348.358 121.446C348.938 122.506 349.228 123.806 349.228 125.346V134.946H347.158V125.586C347.158 123.806 346.708 122.446 345.808 121.506C344.928 120.566 343.718 120.096 342.178 120.096C340.598 120.096 339.338 120.596 338.398 121.596C337.458 122.596 336.988 124.066 336.988 126.006V134.946H334.888V112.746H336.988V121.356C337.508 120.376 338.268 119.616 339.268 119.076C340.288 118.536 341.428 118.266 342.688 118.266ZM352.913 126.726C352.913 125.046 353.243 123.576 353.903 122.316C354.583 121.036 355.513 120.056 356.693 119.376C357.893 118.676 359.243 118.326 360.743 118.326C362.303 118.326 363.643 118.686 364.763 119.406C365.903 120.126 366.723 121.046 367.223 122.166V118.566H369.323V134.946H367.223V131.316C366.703 132.436 365.873 133.366 364.733 134.106C363.613 134.826 362.273 135.186 360.713 135.186C359.233 135.186 357.893 134.836 356.693 134.136C355.513 133.436 354.583 132.446 353.903 131.166C353.243 129.886 352.913 128.406 352.913 126.726ZM367.223 126.756C367.223 125.436 366.953 124.276 366.413 123.276C365.873 122.276 365.133 121.506 364.193 120.966C363.273 120.426 362.253 120.156 361.133 120.156C359.973 120.156 358.933 120.416 358.013 120.936C357.093 121.456 356.363 122.216 355.823 123.216C355.303 124.196 355.043 125.366 355.043 126.726C355.043 128.066 355.303 129.246 355.823 130.266C356.363 131.266 357.093 132.036 358.013 132.576C358.933 133.096 359.973 133.356 361.133 133.356C362.253 133.356 363.273 133.086 364.193 132.546C365.133 132.006 365.873 131.236 366.413 130.236C366.953 129.236 367.223 128.076 367.223 126.756ZM376.217 121.476C376.677 120.456 377.377 119.666 378.317 119.106C379.277 118.546 380.447 118.266 381.827 118.266V120.456H381.257C379.737 120.456 378.517 120.866 377.597 121.686C376.677 122.506 376.217 123.876 376.217 125.796V134.946H374.117V118.566H376.217V121.476ZM384.026 126.726C384.026 125.046 384.366 123.576 385.046 122.316C385.726 121.036 386.656 120.056 387.836 119.376C389.036 118.676 390.386 118.326 391.886 118.326C393.326 118.326 394.626 118.676 395.786 119.376C396.946 120.076 397.796 120.986 398.336 122.106V112.746H400.436V134.946H398.336V131.286C397.836 132.426 397.016 133.366 395.876 134.106C394.736 134.826 393.396 135.186 391.856 135.186C390.356 135.186 389.006 134.836 387.806 134.136C386.626 133.436 385.696 132.446 385.016 131.166C384.356 129.886 384.026 128.406 384.026 126.726ZM398.336 126.756C398.336 125.436 398.066 124.276 397.526 123.276C396.986 122.276 396.246 121.506 395.306 120.966C394.386 120.426 393.366 120.156 392.246 120.156C391.086 120.156 390.046 120.416 389.126 120.936C388.206 121.456 387.476 122.216 386.936 123.216C386.416 124.196 386.156 125.366 386.156 126.726C386.156 128.066 386.416 129.246 386.936 130.266C387.476 131.266 388.206 132.036 389.126 132.576C390.046 133.096 391.086 133.356 392.246 133.356C393.366 133.356 394.386 133.086 395.306 132.546C396.246 132.006 396.986 131.236 397.526 130.236C398.066 129.236 398.336 128.076 398.336 126.756ZM426.83 118.566L421.7 134.946H419.6L415.07 121.206L410.54 134.946H408.41L403.28 118.566H405.41L409.49 132.816L414.08 118.566H416.18L420.71 132.846L424.76 118.566H426.83ZM428.733 126.726C428.733 125.046 429.063 123.576 429.723 122.316C430.403 121.036 431.333 120.056 432.513 119.376C433.713 118.676 435.063 118.326 436.563 118.326C438.123 118.326 439.463 118.686 440.583 119.406C441.723 120.126 442.543 121.046 443.043 122.166V118.566H445.143V134.946H443.043V131.316C442.523 132.436 441.693 133.366 440.553 134.106C439.433 134.826 438.093 135.186 436.533 135.186C435.053 135.186 433.713 134.836 432.513 134.136C431.333 133.436 430.403 132.446 429.723 131.166C429.063 129.886 428.733 128.406 428.733 126.726ZM443.043 126.756C443.043 125.436 442.773 124.276 442.233 123.276C441.693 122.276 440.953 121.506 440.013 120.966C439.093 120.426 438.073 120.156 436.953 120.156C435.793 120.156 434.753 120.416 433.833 120.936C432.913 121.456 432.183 122.216 431.643 123.216C431.123 124.196 430.863 125.366 430.863 126.726C430.863 128.066 431.123 129.246 431.643 130.266C432.183 131.266 432.913 132.036 433.833 132.576C434.753 133.096 435.793 133.356 436.953 133.356C438.073 133.356 439.093 133.086 440.013 132.546C440.953 132.006 441.693 131.236 442.233 130.236C442.773 129.236 443.043 128.076 443.043 126.756ZM452.037 121.476C452.497 120.456 453.197 119.666 454.137 119.106C455.097 118.546 456.267 118.266 457.647 118.266V120.456H457.077C455.557 120.456 454.337 120.866 453.417 121.686C452.497 122.506 452.037 123.876 452.037 125.796V134.946H449.937V118.566H452.037V121.476ZM475.626 125.916C475.626 126.636 475.606 127.186 475.566 127.566H461.976C462.036 128.806 462.336 129.866 462.876 130.746C463.416 131.626 464.126 132.296 465.006 132.756C465.886 133.196 466.846 133.416 467.886 133.416C469.246 133.416 470.386 133.086 471.306 132.426C472.246 131.766 472.866 130.876 473.166 129.756H475.386C474.986 131.356 474.126 132.666 472.806 133.686C471.506 134.686 469.866 135.186 467.886 135.186C466.346 135.186 464.966 134.846 463.746 134.166C462.526 133.466 461.566 132.486 460.866 131.226C460.186 129.946 459.846 128.456 459.846 126.756C459.846 125.056 460.186 123.566 460.866 122.286C461.546 121.006 462.496 120.026 463.716 119.346C464.936 118.666 466.326 118.326 467.886 118.326C469.446 118.326 470.806 118.666 471.966 119.346C473.146 120.026 474.046 120.946 474.666 122.106C475.306 123.246 475.626 124.516 475.626 125.916ZM473.496 125.856C473.516 124.636 473.266 123.596 472.746 122.736C472.246 121.876 471.556 121.226 470.676 120.786C469.796 120.346 468.836 120.126 467.796 120.126C466.236 120.126 464.906 120.626 463.806 121.626C462.706 122.626 462.096 124.036 461.976 125.856H473.496Z" fill="black"/>
</svg>
