<svg width="1217" height="161" viewBox="0 0 1217 161" fill="none" xmlns="http://www.w3.org/2000/svg">
<rect width="1217" height="161" rx="20" fill="white"/>
<path d="M42.91 42.01H34.57L33.19 46H28.78L36.31 25.03H41.2L48.73 46H44.29L42.91 42.01ZM41.77 38.65L38.74 29.89L35.71 38.65H41.77ZM66.9946 37.33C66.9946 37.93 66.9546 38.47 66.8746 38.95H54.7246C54.8246 40.15 55.2446 41.09 55.9846 41.77C56.7246 42.45 57.6346 42.79 58.7146 42.79C60.2746 42.79 61.3846 42.12 62.0446 40.78H66.5746C66.0946 42.38 65.1746 43.7 63.8146 44.74C62.4546 45.76 60.7846 46.27 58.8046 46.27C57.2046 46.27 55.7646 45.92 54.4846 45.22C53.2246 44.5 52.2346 43.49 51.5146 42.19C50.8146 40.89 50.4646 39.39 50.4646 37.69C50.4646 35.97 50.8146 34.46 51.5146 33.16C52.2146 31.86 53.1946 30.86 54.4546 30.16C55.7146 29.46 57.1646 29.11 58.8046 29.11C60.3846 29.11 61.7946 29.45 63.0346 30.13C64.2946 30.81 65.2646 31.78 65.9446 33.04C66.6446 34.28 66.9946 35.71 66.9946 37.33ZM62.6446 36.13C62.6246 35.05 62.2346 34.19 61.4746 33.55C60.7146 32.89 59.7846 32.56 58.6846 32.56C57.6446 32.56 56.7646 32.88 56.0446 33.52C55.3446 34.14 54.9146 35.01 54.7546 36.13H62.6446ZM74.2602 31.96C74.8002 31.08 75.5002 30.39 76.3602 29.89C77.2402 29.39 78.2402 29.14 79.3602 29.14V33.55H78.2502C76.9302 33.55 75.9302 33.86 75.2502 34.48C74.5902 35.1 74.2602 36.18 74.2602 37.72V46H70.0602V29.38H74.2602V31.96ZM84.3191 27.4C83.5791 27.4 82.9591 27.17 82.4591 26.71C81.9791 26.23 81.7391 25.64 81.7391 24.94C81.7391 24.24 81.9791 23.66 82.4591 23.2C82.9591 22.72 83.5791 22.48 84.3191 22.48C85.0591 22.48 85.6691 22.72 86.1491 23.2C86.6491 23.66 86.8991 24.24 86.8991 24.94C86.8991 25.64 86.6491 26.23 86.1491 26.71C85.6691 27.17 85.0591 27.4 84.3191 27.4ZM86.3891 29.38V46H82.1891V29.38H86.3891ZM89.4587 37.63C89.4587 35.95 89.7887 34.46 90.4487 33.16C91.1288 31.86 92.0388 30.86 93.1788 30.16C94.3388 29.46 95.6288 29.11 97.0488 29.11C98.2888 29.11 99.3688 29.36 100.289 29.86C101.229 30.36 101.979 30.99 102.539 31.75V29.38H106.769V46H102.539V43.57C101.999 44.35 101.249 45 100.289 45.52C99.3488 46.02 98.2588 46.27 97.0188 46.27C95.6188 46.27 94.3388 45.91 93.1788 45.19C92.0388 44.47 91.1288 43.46 90.4487 42.16C89.7887 40.84 89.4587 39.33 89.4587 37.63ZM102.539 37.69C102.539 36.67 102.339 35.8 101.939 35.08C101.539 34.34 100.999 33.78 100.319 33.4C99.6388 33 98.9088 32.8 98.1288 32.8C97.3488 32.8 96.6288 32.99 95.9688 33.37C95.3088 33.75 94.7688 34.31 94.3488 35.05C93.9488 35.77 93.7488 36.63 93.7488 37.63C93.7488 38.63 93.9488 39.51 94.3488 40.27C94.7688 41.01 95.3088 41.58 95.9688 41.98C96.6488 42.38 97.3688 42.58 98.1288 42.58C98.9088 42.58 99.6388 42.39 100.319 42.01C100.999 41.61 101.539 41.05 101.939 40.33C102.339 39.59 102.539 38.71 102.539 37.69ZM115.071 23.8V46H110.871V23.8H115.071ZM133.689 25.06C135.889 25.06 137.819 25.49 139.479 26.35C141.159 27.21 142.449 28.44 143.349 30.04C144.269 31.62 144.729 33.46 144.729 35.56C144.729 37.66 144.269 39.5 143.349 41.08C142.449 42.64 141.159 43.85 139.479 44.71C137.819 45.57 135.889 46 133.689 46H126.369V25.06H133.689ZM133.539 42.43C135.739 42.43 137.439 41.83 138.639 40.63C139.839 39.43 140.439 37.74 140.439 35.56C140.439 33.38 139.839 31.68 138.639 30.46C137.439 29.22 135.739 28.6 133.539 28.6H130.569V42.43H133.539ZM152.073 31.96C152.613 31.08 153.313 30.39 154.173 29.89C155.053 29.39 156.053 29.14 157.173 29.14V33.55H156.063C154.743 33.55 153.743 33.86 153.063 34.48C152.403 35.1 152.073 36.18 152.073 37.72V46H147.873V29.38H152.073V31.96ZM167.382 46.27C165.782 46.27 164.342 45.92 163.062 45.22C161.782 44.5 160.772 43.49 160.032 42.19C159.312 40.89 158.952 39.39 158.952 37.69C158.952 35.99 159.322 34.49 160.062 33.19C160.822 31.89 161.852 30.89 163.152 30.19C164.452 29.47 165.902 29.11 167.502 29.11C169.102 29.11 170.552 29.47 171.852 30.19C173.152 30.89 174.172 31.89 174.912 33.19C175.672 34.49 176.052 35.99 176.052 37.69C176.052 39.39 175.662 40.89 174.882 42.19C174.122 43.49 173.082 44.5 171.762 45.22C170.462 45.92 169.002 46.27 167.382 46.27ZM167.382 42.61C168.142 42.61 168.852 42.43 169.512 42.07C170.192 41.69 170.732 41.13 171.132 40.39C171.532 39.65 171.732 38.75 171.732 37.69C171.732 36.11 171.312 34.9 170.472 34.06C169.652 33.2 168.642 32.77 167.442 32.77C166.242 32.77 165.232 33.2 164.412 34.06C163.612 34.9 163.212 36.11 163.212 37.69C163.212 39.27 163.602 40.49 164.382 41.35C165.182 42.19 166.182 42.61 167.382 42.61ZM188.343 29.14C190.323 29.14 191.923 29.77 193.143 31.03C194.363 32.27 194.973 34.01 194.973 36.25V46H190.773V36.82C190.773 35.5 190.443 34.49 189.783 33.79C189.123 33.07 188.223 32.71 187.083 32.71C185.923 32.71 185.003 33.07 184.323 33.79C183.663 34.49 183.333 35.5 183.333 36.82V46H179.133V29.38H183.333V31.45C183.893 30.73 184.603 30.17 185.463 29.77C186.343 29.35 187.303 29.14 188.343 29.14ZM214.416 37.33C214.416 37.93 214.376 38.47 214.296 38.95H202.146C202.246 40.15 202.666 41.09 203.406 41.77C204.146 42.45 205.056 42.79 206.136 42.79C207.696 42.79 208.806 42.12 209.466 40.78H213.996C213.516 42.38 212.596 43.7 211.236 44.74C209.876 45.76 208.206 46.27 206.226 46.27C204.626 46.27 203.186 45.92 201.906 45.22C200.646 44.5 199.656 43.49 198.936 42.19C198.236 40.89 197.886 39.39 197.886 37.69C197.886 35.97 198.236 34.46 198.936 33.16C199.636 31.86 200.616 30.86 201.876 30.16C203.136 29.46 204.586 29.11 206.226 29.11C207.806 29.11 209.216 29.45 210.456 30.13C211.716 30.81 212.686 31.78 213.366 33.04C214.066 34.28 214.416 35.71 214.416 37.33ZM210.066 36.13C210.046 35.05 209.656 34.19 208.896 33.55C208.136 32.89 207.206 32.56 206.106 32.56C205.066 32.56 204.186 32.88 203.466 33.52C202.766 34.14 202.336 35.01 202.176 36.13H210.066ZM223.611 35.5C223.611 33.44 224.071 31.6 224.991 29.98C225.931 28.34 227.201 27.07 228.801 26.17C230.421 25.25 232.231 24.79 234.231 24.79C236.571 24.79 238.621 25.39 240.381 26.59C242.141 27.79 243.371 29.45 244.071 31.57H239.241C238.761 30.57 238.081 29.82 237.201 29.32C236.341 28.82 235.341 28.57 234.201 28.57C232.981 28.57 231.891 28.86 230.931 29.44C229.991 30 229.251 30.8 228.711 31.84C228.191 32.88 227.931 34.1 227.931 35.5C227.931 36.88 228.191 38.1 228.711 39.16C229.251 40.2 229.991 41.01 230.931 41.59C231.891 42.15 232.981 42.43 234.201 42.43C235.341 42.43 236.341 42.18 237.201 41.68C238.081 41.16 238.761 40.4 239.241 39.4H244.071C243.371 41.54 242.141 43.21 240.381 44.41C238.641 45.59 236.591 46.18 234.231 46.18C232.231 46.18 230.421 45.73 228.801 44.83C227.201 43.91 225.931 42.64 224.991 41.02C224.071 39.4 223.611 37.56 223.611 35.5ZM255.038 46.27C253.438 46.27 251.998 45.92 250.718 45.22C249.438 44.5 248.428 43.49 247.688 42.19C246.968 40.89 246.608 39.39 246.608 37.69C246.608 35.99 246.978 34.49 247.718 33.19C248.478 31.89 249.508 30.89 250.808 30.19C252.108 29.47 253.558 29.11 255.158 29.11C256.758 29.11 258.208 29.47 259.508 30.19C260.808 30.89 261.828 31.89 262.568 33.19C263.328 34.49 263.708 35.99 263.708 37.69C263.708 39.39 263.318 40.89 262.538 42.19C261.778 43.49 260.738 44.5 259.418 45.22C258.118 45.92 256.658 46.27 255.038 46.27ZM255.038 42.61C255.798 42.61 256.508 42.43 257.168 42.07C257.848 41.69 258.388 41.13 258.788 40.39C259.188 39.65 259.388 38.75 259.388 37.69C259.388 36.11 258.968 34.9 258.128 34.06C257.308 33.2 256.298 32.77 255.098 32.77C253.898 32.77 252.888 33.2 252.068 34.06C251.268 34.9 250.868 36.11 250.868 37.69C250.868 39.27 251.258 40.49 252.038 41.35C252.838 42.19 253.838 42.61 255.038 42.61ZM287.429 29.14C289.469 29.14 291.109 29.77 292.349 31.03C293.609 32.27 294.239 34.01 294.239 36.25V46H290.039V36.82C290.039 35.52 289.709 34.53 289.049 33.85C288.389 33.15 287.489 32.8 286.349 32.8C285.209 32.8 284.299 33.15 283.619 33.85C282.959 34.53 282.629 35.52 282.629 36.82V46H278.429V36.82C278.429 35.52 278.099 34.53 277.439 33.85C276.779 33.15 275.879 32.8 274.739 32.8C273.579 32.8 272.659 33.15 271.979 33.85C271.319 34.53 270.989 35.52 270.989 36.82V46H266.789V29.38H270.989V31.39C271.529 30.69 272.219 30.14 273.059 29.74C273.919 29.34 274.859 29.14 275.879 29.14C277.179 29.14 278.339 29.42 279.359 29.98C280.379 30.52 281.169 31.3 281.729 32.32C282.269 31.36 283.049 30.59 284.069 30.01C285.109 29.43 286.229 29.14 287.429 29.14ZM302.424 31.78C302.964 31.02 303.704 30.39 304.644 29.89C305.604 29.37 306.694 29.11 307.914 29.11C309.334 29.11 310.614 29.46 311.754 30.16C312.914 30.86 313.824 31.86 314.484 33.16C315.164 34.44 315.504 35.93 315.504 37.63C315.504 39.33 315.164 40.84 314.484 42.16C313.824 43.46 312.914 44.47 311.754 45.19C310.614 45.91 309.334 46.27 307.914 46.27C306.694 46.27 305.614 46.02 304.674 45.52C303.754 45.02 303.004 44.39 302.424 43.63V53.92H298.224V29.38H302.424V31.78ZM311.214 37.63C311.214 36.63 311.004 35.77 310.584 35.05C310.184 34.31 309.644 33.75 308.964 33.37C308.304 32.99 307.584 32.8 306.804 32.8C306.044 32.8 305.324 33 304.644 33.4C303.984 33.78 303.444 34.34 303.024 35.08C302.624 35.82 302.424 36.69 302.424 37.69C302.424 38.69 302.624 39.56 303.024 40.3C303.444 41.04 303.984 41.61 304.644 42.01C305.324 42.39 306.044 42.58 306.804 42.58C307.584 42.58 308.304 42.38 308.964 41.98C309.644 41.58 310.184 41.01 310.584 40.27C311.004 39.53 311.214 38.65 311.214 37.63ZM334.006 37.33C334.006 37.93 333.966 38.47 333.886 38.95H321.736C321.836 40.15 322.256 41.09 322.996 41.77C323.736 42.45 324.646 42.79 325.726 42.79C327.286 42.79 328.396 42.12 329.056 40.78H333.586C333.106 42.38 332.186 43.7 330.826 44.74C329.466 45.76 327.796 46.27 325.816 46.27C324.216 46.27 322.776 45.92 321.496 45.22C320.236 44.5 319.246 43.49 318.526 42.19C317.826 40.89 317.476 39.39 317.476 37.69C317.476 35.97 317.826 34.46 318.526 33.16C319.226 31.86 320.206 30.86 321.466 30.16C322.726 29.46 324.176 29.11 325.816 29.11C327.396 29.11 328.806 29.45 330.046 30.13C331.306 30.81 332.276 31.78 332.956 33.04C333.656 34.28 334.006 35.71 334.006 37.33ZM329.656 36.13C329.636 35.05 329.246 34.19 328.486 33.55C327.726 32.89 326.796 32.56 325.696 32.56C324.656 32.56 323.776 32.88 323.056 33.52C322.356 34.14 321.926 35.01 321.766 36.13H329.656ZM341.962 32.83V40.87C341.962 41.43 342.092 41.84 342.352 42.1C342.632 42.34 343.092 42.46 343.732 42.46H345.682V46H343.042C339.502 46 337.732 44.28 337.732 40.84V32.83H335.752V29.38H337.732V25.27H341.962V29.38H345.682V32.83H341.962ZM350.833 27.4C350.093 27.4 349.473 27.17 348.973 26.71C348.493 26.23 348.253 25.64 348.253 24.94C348.253 24.24 348.493 23.66 348.973 23.2C349.473 22.72 350.093 22.48 350.833 22.48C351.573 22.48 352.183 22.72 352.663 23.2C353.163 23.66 353.413 24.24 353.413 24.94C353.413 25.64 353.163 26.23 352.663 26.71C352.183 27.17 351.573 27.4 350.833 27.4ZM352.903 29.38V46H348.703V29.38H352.903ZM361.942 32.83V40.87C361.942 41.43 362.072 41.84 362.332 42.1C362.612 42.34 363.072 42.46 363.712 42.46H365.662V46H363.022C359.482 46 357.712 44.28 357.712 40.84V32.83H355.732V29.38H357.712V25.27H361.942V29.38H365.662V32.83H361.942ZM370.813 27.4C370.073 27.4 369.453 27.17 368.953 26.71C368.473 26.23 368.233 25.64 368.233 24.94C368.233 24.24 368.473 23.66 368.953 23.2C369.453 22.72 370.073 22.48 370.813 22.48C371.553 22.48 372.163 22.72 372.643 23.2C373.143 23.66 373.393 24.24 373.393 24.94C373.393 25.64 373.143 26.23 372.643 26.71C372.163 27.17 371.553 27.4 370.813 27.4ZM372.883 29.38V46H368.683V29.38H372.883ZM384.413 46.27C382.813 46.27 381.373 45.92 380.093 45.22C378.813 44.5 377.803 43.49 377.063 42.19C376.343 40.89 375.983 39.39 375.983 37.69C375.983 35.99 376.353 34.49 377.093 33.19C377.853 31.89 378.883 30.89 380.183 30.19C381.483 29.47 382.933 29.11 384.533 29.11C386.133 29.11 387.583 29.47 388.883 30.19C390.183 30.89 391.203 31.89 391.943 33.19C392.703 34.49 393.083 35.99 393.083 37.69C393.083 39.39 392.693 40.89 391.913 42.19C391.153 43.49 390.113 44.5 388.793 45.22C387.493 45.92 386.033 46.27 384.413 46.27ZM384.413 42.61C385.173 42.61 385.883 42.43 386.543 42.07C387.223 41.69 387.763 41.13 388.163 40.39C388.563 39.65 388.763 38.75 388.763 37.69C388.763 36.11 388.343 34.9 387.503 34.06C386.683 33.2 385.673 32.77 384.473 32.77C383.273 32.77 382.263 33.2 381.443 34.06C380.643 34.9 380.243 36.11 380.243 37.69C380.243 39.27 380.633 40.49 381.413 41.35C382.213 42.19 383.213 42.61 384.413 42.61ZM405.374 29.14C407.354 29.14 408.954 29.77 410.174 31.03C411.394 32.27 412.004 34.01 412.004 36.25V46H407.804V36.82C407.804 35.5 407.474 34.49 406.814 33.79C406.154 33.07 405.254 32.71 404.114 32.71C402.954 32.71 402.034 33.07 401.354 33.79C400.694 34.49 400.364 35.5 400.364 36.82V46H396.164V29.38H400.364V31.45C400.924 30.73 401.634 30.17 402.494 29.77C403.374 29.35 404.334 29.14 405.374 29.14ZM430.406 51.91C428.466 50.03 426.956 47.63 425.876 44.71C424.816 41.79 424.286 38.66 424.286 35.32C424.286 31.9 424.846 28.69 425.966 25.69C427.086 22.67 428.716 20.2 430.856 18.28H435.086V18.67C432.886 20.77 431.206 23.29 430.046 26.23C428.906 29.17 428.336 32.2 428.336 35.32C428.336 38.36 428.876 41.3 429.956 44.14C431.056 46.96 432.616 49.41 434.636 51.49V51.91H430.406ZM448.507 46L443.887 37.84H441.907V46H437.707V25.06H445.567C447.187 25.06 448.567 25.35 449.707 25.93C450.847 26.49 451.697 27.26 452.257 28.24C452.837 29.2 453.127 30.28 453.127 31.48C453.127 32.86 452.727 34.11 451.927 35.23C451.127 36.33 449.937 37.09 448.357 37.51L453.367 46H448.507ZM441.907 34.69H445.417C446.557 34.69 447.407 34.42 447.967 33.88C448.527 33.32 448.807 32.55 448.807 31.57C448.807 30.61 448.527 29.87 447.967 29.35C447.407 28.81 446.557 28.54 445.417 28.54H441.907V34.69ZM461.125 28.45V33.7H468.175V37.03H461.125V42.58H469.075V46H456.925V25.03H469.075V28.45H461.125ZM471.872 35.5C471.872 33.44 472.332 31.6 473.252 29.98C474.192 28.34 475.462 27.07 477.062 26.17C478.682 25.25 480.492 24.79 482.492 24.79C484.832 24.79 486.882 25.39 488.642 26.59C490.402 27.79 491.632 29.45 492.332 31.57H487.502C487.022 30.57 486.342 29.82 485.462 29.32C484.602 28.82 483.602 28.57 482.462 28.57C481.242 28.57 480.152 28.86 479.192 29.44C478.252 30 477.512 30.8 476.972 31.84C476.452 32.88 476.192 34.1 476.192 35.5C476.192 36.88 476.452 38.1 476.972 39.16C477.512 40.2 478.252 41.01 479.192 41.59C480.152 42.15 481.242 42.43 482.462 42.43C483.602 42.43 484.602 42.18 485.462 41.68C486.342 41.16 487.022 40.4 487.502 39.4H492.332C491.632 41.54 490.402 43.21 488.642 44.41C486.902 45.59 484.852 46.18 482.492 46.18C480.492 46.18 478.682 45.73 477.062 44.83C475.462 43.91 474.192 42.64 473.252 41.02C472.332 39.4 471.872 37.56 471.872 35.5ZM508.85 25.06V28.45H500.12V33.82H506.81V37.15H500.12V46H495.92V25.06H508.85ZM510.748 51.91V51.49C512.768 49.41 514.318 46.96 515.398 44.14C516.498 41.3 517.048 38.36 517.048 35.32C517.048 32.2 516.468 29.17 515.308 26.23C514.168 23.29 512.498 20.77 510.298 18.67V18.28H514.528C516.668 20.2 518.298 22.67 519.418 25.69C520.538 28.69 521.098 31.9 521.098 35.32C521.098 38.66 520.558 41.79 519.478 44.71C518.418 47.63 516.918 50.03 514.978 51.91H510.748ZM42.55 86.02H33.01L31.18 91H28.96L36.61 70.3H38.98L46.6 91H44.38L42.55 86.02ZM41.92 84.28L37.78 72.94L33.64 84.28H41.92ZM57.6503 74.32C59.6103 74.32 61.2103 74.93 62.4503 76.15C63.6903 77.35 64.3103 79.1 64.3103 81.4V91H62.2403V81.64C62.2403 79.86 61.7903 78.5 60.8903 77.56C60.0103 76.62 58.8003 76.15 57.2603 76.15C55.6803 76.15 54.4203 76.65 53.4803 77.65C52.5403 78.65 52.0703 80.12 52.0703 82.06V91H49.9703V74.62H52.0703V77.41C52.5903 76.41 53.3403 75.65 54.3203 75.13C55.3003 74.59 56.4103 74.32 57.6503 74.32ZM78.2371 71.53C77.8171 71.53 77.4571 71.38 77.1571 71.08C76.8571 70.78 76.7071 70.41 76.7071 69.97C76.7071 69.53 76.8571 69.17 77.1571 68.89C77.4571 68.59 77.8171 68.44 78.2371 68.44C78.6571 68.44 79.0171 68.59 79.3171 68.89C79.6171 69.17 79.7671 69.53 79.7671 69.97C79.7671 70.41 79.6171 70.78 79.3171 71.08C79.0171 71.38 78.6571 71.53 78.2371 71.53ZM79.2871 74.62V91H77.1871V74.62H79.2871ZM91.7226 74.32C93.6826 74.32 95.2826 74.93 96.5226 76.15C97.7626 77.35 98.3826 79.1 98.3826 81.4V91H96.3126V81.64C96.3126 79.86 95.8626 78.5 94.9626 77.56C94.0826 76.62 92.8726 76.15 91.3326 76.15C89.7526 76.15 88.4926 76.65 87.5526 77.65C86.6126 78.65 86.1426 80.12 86.1426 82.06V91H84.0426V74.62H86.1426V77.41C86.6626 76.41 87.4126 75.65 88.3926 75.13C89.3726 74.59 90.4826 74.32 91.7226 74.32ZM105.757 76.39V86.56C105.757 87.56 105.947 88.25 106.327 88.63C106.707 89.01 107.377 89.2 108.337 89.2H110.257V91H108.007C106.527 91 105.427 90.66 104.707 89.98C103.987 89.28 103.627 88.14 103.627 86.56V76.39H101.347V74.62H103.627V70.51H105.757V74.62H110.257V76.39H105.757ZM128.54 81.97C128.54 82.69 128.52 83.24 128.48 83.62H114.89C114.95 84.86 115.25 85.92 115.79 86.8C116.33 87.68 117.04 88.35 117.92 88.81C118.8 89.25 119.76 89.47 120.8 89.47C122.16 89.47 123.3 89.14 124.22 88.48C125.16 87.82 125.78 86.93 126.08 85.81H128.3C127.9 87.41 127.04 88.72 125.72 89.74C124.42 90.74 122.78 91.24 120.8 91.24C119.26 91.24 117.88 90.9 116.66 90.22C115.44 89.52 114.48 88.54 113.78 87.28C113.1 86 112.76 84.51 112.76 82.81C112.76 81.11 113.1 79.62 113.78 78.34C114.46 77.06 115.41 76.08 116.63 75.4C117.85 74.72 119.24 74.38 120.8 74.38C122.36 74.38 123.72 74.72 124.88 75.4C126.06 76.08 126.96 77 127.58 78.16C128.22 79.3 128.54 80.57 128.54 81.97ZM126.41 81.91C126.43 80.69 126.18 79.65 125.66 78.79C125.16 77.93 124.47 77.28 123.59 76.84C122.71 76.4 121.75 76.18 120.71 76.18C119.15 76.18 117.82 76.68 116.72 77.68C115.62 78.68 115.01 80.09 114.89 81.91H126.41ZM134.482 77.53C134.942 76.51 135.642 75.72 136.582 75.16C137.542 74.6 138.712 74.32 140.092 74.32V76.51H139.522C138.002 76.51 136.782 76.92 135.862 77.74C134.942 78.56 134.482 79.93 134.482 81.85V91H132.382V74.62H134.482V77.53ZM150.932 74.32C152.892 74.32 154.492 74.93 155.732 76.15C156.972 77.35 157.592 79.1 157.592 81.4V91H155.522V81.64C155.522 79.86 155.072 78.5 154.172 77.56C153.292 76.62 152.082 76.15 150.542 76.15C148.962 76.15 147.702 76.65 146.762 77.65C145.822 78.65 145.352 80.12 145.352 82.06V91H143.252V74.62H145.352V77.41C145.872 76.41 146.622 75.65 147.602 75.13C148.582 74.59 149.692 74.32 150.932 74.32ZM161.276 82.78C161.276 81.1 161.606 79.63 162.266 78.37C162.946 77.09 163.876 76.11 165.056 75.43C166.256 74.73 167.606 74.38 169.106 74.38C170.666 74.38 172.006 74.74 173.126 75.46C174.266 76.18 175.086 77.1 175.586 78.22V74.62H177.686V91H175.586V87.37C175.066 88.49 174.236 89.42 173.096 90.16C171.976 90.88 170.636 91.24 169.076 91.24C167.596 91.24 166.256 90.89 165.056 90.19C163.876 89.49 162.946 88.5 162.266 87.22C161.606 85.94 161.276 84.46 161.276 82.78ZM175.586 82.81C175.586 81.49 175.316 80.33 174.776 79.33C174.236 78.33 173.496 77.56 172.556 77.02C171.636 76.48 170.616 76.21 169.496 76.21C168.336 76.21 167.296 76.47 166.376 76.99C165.456 77.51 164.726 78.27 164.186 79.27C163.666 80.25 163.406 81.42 163.406 82.78C163.406 84.12 163.666 85.3 164.186 86.32C164.726 87.32 165.456 88.09 166.376 88.63C167.296 89.15 168.336 89.41 169.496 89.41C170.616 89.41 171.636 89.14 172.556 88.6C173.496 88.06 174.236 87.29 174.776 86.29C175.316 85.29 175.586 84.13 175.586 82.81ZM185.21 76.39V86.56C185.21 87.56 185.4 88.25 185.78 88.63C186.16 89.01 186.83 89.2 187.79 89.2H189.71V91H187.46C185.98 91 184.88 90.66 184.16 89.98C183.44 89.28 183.08 88.14 183.08 86.56V76.39H180.8V74.62H183.08V70.51H185.21V74.62H189.71V76.39H185.21ZM194.223 71.53C193.803 71.53 193.443 71.38 193.143 71.08C192.843 70.78 192.693 70.41 192.693 69.97C192.693 69.53 192.843 69.17 193.143 68.89C193.443 68.59 193.803 68.44 194.223 68.44C194.643 68.44 195.003 68.59 195.303 68.89C195.603 69.17 195.753 69.53 195.753 69.97C195.753 70.41 195.603 70.78 195.303 71.08C195.003 71.38 194.643 71.53 194.223 71.53ZM195.273 74.62V91H193.173V74.62H195.273ZM207.199 91.24C205.659 91.24 204.269 90.9 203.029 90.22C201.809 89.52 200.839 88.54 200.119 87.28C199.419 86 199.069 84.51 199.069 82.81C199.069 81.11 199.429 79.63 200.149 78.37C200.869 77.09 201.849 76.11 203.089 75.43C204.329 74.73 205.719 74.38 207.259 74.38C208.799 74.38 210.189 74.73 211.429 75.43C212.689 76.11 213.669 77.09 214.369 78.37C215.089 79.63 215.449 81.11 215.449 82.81C215.449 84.49 215.089 85.97 214.369 87.25C213.649 88.53 212.659 89.52 211.399 90.22C210.139 90.9 208.739 91.24 207.199 91.24ZM207.199 89.41C208.279 89.41 209.279 89.17 210.199 88.69C211.119 88.19 211.859 87.45 212.419 86.47C212.999 85.47 213.289 84.25 213.289 82.81C213.289 81.37 213.009 80.16 212.449 79.18C211.889 78.18 211.149 77.44 210.229 76.96C209.309 76.46 208.309 76.21 207.229 76.21C206.149 76.21 205.149 76.46 204.229 76.96C203.309 77.44 202.569 78.18 202.009 79.18C201.469 80.16 201.199 81.37 201.199 82.81C201.199 84.25 201.469 85.47 202.009 86.47C202.569 87.45 203.299 88.19 204.199 88.69C205.119 89.17 206.119 89.41 207.199 89.41ZM226.957 74.32C228.917 74.32 230.517 74.93 231.757 76.15C232.997 77.35 233.617 79.1 233.617 81.4V91H231.547V81.64C231.547 79.86 231.097 78.5 230.197 77.56C229.317 76.62 228.107 76.15 226.567 76.15C224.987 76.15 223.727 76.65 222.787 77.65C221.847 78.65 221.377 80.12 221.377 82.06V91H219.277V74.62H221.377V77.41C221.897 76.41 222.647 75.65 223.627 75.13C224.607 74.59 225.717 74.32 226.957 74.32ZM237.301 82.78C237.301 81.1 237.631 79.63 238.291 78.37C238.971 77.09 239.901 76.11 241.081 75.43C242.281 74.73 243.631 74.38 245.131 74.38C246.691 74.38 248.031 74.74 249.151 75.46C250.291 76.18 251.111 77.1 251.611 78.22V74.62H253.711V91H251.611V87.37C251.091 88.49 250.261 89.42 249.121 90.16C248.001 90.88 246.661 91.24 245.101 91.24C243.621 91.24 242.281 90.89 241.081 90.19C239.901 89.49 238.971 88.5 238.291 87.22C237.631 85.94 237.301 84.46 237.301 82.78ZM251.611 82.81C251.611 81.49 251.341 80.33 250.801 79.33C250.261 78.33 249.521 77.56 248.581 77.02C247.661 76.48 246.641 76.21 245.521 76.21C244.361 76.21 243.321 76.47 242.401 76.99C241.481 77.51 240.751 78.27 240.211 79.27C239.691 80.25 239.431 81.42 239.431 82.78C239.431 84.12 239.691 85.3 240.211 86.32C240.751 87.32 241.481 88.09 242.401 88.63C243.321 89.15 244.361 89.41 245.521 89.41C246.641 89.41 247.661 89.14 248.581 88.6C249.521 88.06 250.261 87.29 250.801 86.29C251.341 85.29 251.611 84.13 251.611 82.81ZM260.605 68.8V91H258.505V68.8H260.605ZM279.953 91.21C278.573 91.21 277.353 90.97 276.293 90.49C275.253 90.01 274.433 89.34 273.833 88.48C273.233 87.62 272.913 86.66 272.873 85.6H275.093C275.193 86.62 275.643 87.52 276.443 88.3C277.243 89.06 278.413 89.44 279.953 89.44C281.373 89.44 282.493 89.08 283.313 88.36C284.153 87.62 284.573 86.69 284.573 85.57C284.573 84.67 284.343 83.95 283.883 83.41C283.423 82.85 282.853 82.44 282.173 82.18C281.493 81.9 280.553 81.6 279.353 81.28C277.953 80.9 276.843 80.53 276.023 80.17C275.203 79.81 274.503 79.25 273.923 78.49C273.343 77.73 273.053 76.7 273.053 75.4C273.053 74.32 273.333 73.36 273.893 72.52C274.453 71.66 275.243 70.99 276.263 70.51C277.283 70.03 278.453 69.79 279.773 69.79C281.713 69.79 283.273 70.27 284.453 71.23C285.653 72.17 286.343 73.39 286.523 74.89H284.243C284.103 74.03 283.633 73.27 282.833 72.61C282.033 71.93 280.953 71.59 279.593 71.59C278.333 71.59 277.283 71.93 276.443 72.61C275.603 73.27 275.183 74.18 275.183 75.34C275.183 76.22 275.413 76.93 275.873 77.47C276.333 78.01 276.903 78.42 277.583 78.7C278.283 78.98 279.223 79.28 280.403 79.6C281.763 79.98 282.863 80.36 283.703 80.74C284.543 81.1 285.253 81.66 285.833 82.42C286.413 83.18 286.703 84.2 286.703 85.48C286.703 86.46 286.443 87.39 285.923 88.27C285.403 89.15 284.633 89.86 283.613 90.4C282.593 90.94 281.373 91.21 279.953 91.21ZM303.031 70.03V71.77H297.211V91H295.111V71.77H289.261V70.03H303.031ZM308.447 71.74V79.57H316.397V81.31H308.447V89.26H317.297V91H306.347V70H317.297V71.74H308.447ZM341.925 70.3V91H339.825V74.47L332.445 91H330.915L323.535 74.53V91H321.435V70.3H323.655L331.665 88.24L339.675 70.3H341.925ZM353.961 82.81C353.961 81.11 354.301 79.63 354.981 78.37C355.661 77.09 356.601 76.11 357.801 75.43C359.001 74.73 360.371 74.38 361.911 74.38C363.931 74.38 365.591 74.88 366.891 75.88C368.211 76.88 369.061 78.24 369.441 79.96H367.191C366.911 78.78 366.301 77.86 365.361 77.2C364.441 76.52 363.291 76.18 361.911 76.18C360.811 76.18 359.821 76.43 358.941 76.93C358.061 77.43 357.361 78.18 356.841 79.18C356.341 80.16 356.091 81.37 356.091 82.81C356.091 84.25 356.341 85.47 356.841 86.47C357.361 87.47 358.061 88.22 358.941 88.72C359.821 89.22 360.811 89.47 361.911 89.47C363.291 89.47 364.441 89.14 365.361 88.48C366.301 87.8 366.911 86.86 367.191 85.66H369.441C369.061 87.34 368.211 88.69 366.891 89.71C365.571 90.73 363.911 91.24 361.911 91.24C360.371 91.24 359.001 90.9 357.801 90.22C356.601 89.52 355.661 88.54 354.981 87.28C354.301 86 353.961 84.51 353.961 82.81ZM381.12 74.32C382.36 74.32 383.47 74.58 384.45 75.1C385.45 75.62 386.23 76.42 386.79 77.5C387.37 78.56 387.66 79.86 387.66 81.4V91H385.59V81.64C385.59 79.86 385.14 78.5 384.24 77.56C383.36 76.62 382.15 76.15 380.61 76.15C379.03 76.15 377.77 76.65 376.83 77.65C375.89 78.65 375.42 80.12 375.42 82.06V91H373.32V68.8H375.42V77.41C375.94 76.43 376.7 75.67 377.7 75.13C378.72 74.59 379.86 74.32 381.12 74.32ZM391.344 82.78C391.344 81.1 391.674 79.63 392.334 78.37C393.014 77.09 393.944 76.11 395.124 75.43C396.324 74.73 397.674 74.38 399.174 74.38C400.734 74.38 402.074 74.74 403.194 75.46C404.334 76.18 405.154 77.1 405.654 78.22V74.62H407.754V91H405.654V87.37C405.134 88.49 404.304 89.42 403.164 90.16C402.044 90.88 400.704 91.24 399.144 91.24C397.664 91.24 396.324 90.89 395.124 90.19C393.944 89.49 393.014 88.5 392.334 87.22C391.674 85.94 391.344 84.46 391.344 82.78ZM405.654 82.81C405.654 81.49 405.384 80.33 404.844 79.33C404.304 78.33 403.564 77.56 402.624 77.02C401.704 76.48 400.684 76.21 399.564 76.21C398.404 76.21 397.364 76.47 396.444 76.99C395.524 77.51 394.794 78.27 394.254 79.27C393.734 80.25 393.474 81.42 393.474 82.78C393.474 84.12 393.734 85.3 394.254 86.32C394.794 87.32 395.524 88.09 396.444 88.63C397.364 89.15 398.404 89.41 399.564 89.41C400.684 89.41 401.704 89.14 402.624 88.6C403.564 88.06 404.304 87.29 404.844 86.29C405.384 85.29 405.654 84.13 405.654 82.81ZM414.648 68.8V91H412.548V68.8H414.648ZM421.504 68.8V91H419.404V68.8H421.504ZM441.079 81.97C441.079 82.69 441.059 83.24 441.019 83.62H427.429C427.489 84.86 427.789 85.92 428.329 86.8C428.869 87.68 429.579 88.35 430.459 88.81C431.339 89.25 432.299 89.47 433.339 89.47C434.699 89.47 435.839 89.14 436.759 88.48C437.699 87.82 438.319 86.93 438.619 85.81H440.839C440.439 87.41 439.579 88.72 438.259 89.74C436.959 90.74 435.319 91.24 433.339 91.24C431.799 91.24 430.419 90.9 429.199 90.22C427.979 89.52 427.019 88.54 426.319 87.28C425.639 86 425.299 84.51 425.299 82.81C425.299 81.11 425.639 79.62 426.319 78.34C426.999 77.06 427.949 76.08 429.169 75.4C430.389 74.72 431.779 74.38 433.339 74.38C434.899 74.38 436.259 74.72 437.419 75.4C438.599 76.08 439.499 77 440.119 78.16C440.759 79.3 441.079 80.57 441.079 81.97ZM438.949 81.91C438.969 80.69 438.719 79.65 438.199 78.79C437.699 77.93 437.009 77.28 436.129 76.84C435.249 76.4 434.289 76.18 433.249 76.18C431.689 76.18 430.359 76.68 429.259 77.68C428.159 78.68 427.549 80.09 427.429 81.91H438.949ZM452.601 74.32C454.561 74.32 456.161 74.93 457.401 76.15C458.641 77.35 459.261 79.1 459.261 81.4V91H457.191V81.64C457.191 79.86 456.741 78.5 455.841 77.56C454.961 76.62 453.751 76.15 452.211 76.15C450.631 76.15 449.371 76.65 448.431 77.65C447.491 78.65 447.021 80.12 447.021 82.06V91H444.921V74.62H447.021V77.41C447.541 76.41 448.291 75.65 449.271 75.13C450.251 74.59 451.361 74.32 452.601 74.32ZM470.776 74.38C472.316 74.38 473.656 74.74 474.796 75.46C475.936 76.18 476.756 77.09 477.256 78.19V74.62H479.356V91.42C479.356 92.92 479.026 94.25 478.366 95.41C477.726 96.57 476.826 97.46 475.666 98.08C474.506 98.72 473.186 99.04 471.706 99.04C469.606 99.04 467.856 98.54 466.456 97.54C465.076 96.54 464.216 95.18 463.876 93.46H465.946C466.306 94.6 466.986 95.51 467.986 96.19C469.006 96.87 470.246 97.21 471.706 97.21C472.766 97.21 473.716 96.98 474.556 96.52C475.396 96.08 476.056 95.42 476.536 94.54C477.016 93.66 477.256 92.62 477.256 91.42V87.37C476.736 88.49 475.906 89.42 474.766 90.16C473.646 90.88 472.316 91.24 470.776 91.24C469.276 91.24 467.926 90.89 466.726 90.19C465.546 89.49 464.616 88.5 463.936 87.22C463.276 85.94 462.946 84.46 462.946 82.78C462.946 81.1 463.276 79.63 463.936 78.37C464.616 77.09 465.546 76.11 466.726 75.43C467.926 74.73 469.276 74.38 470.776 74.38ZM477.256 82.81C477.256 81.49 476.986 80.33 476.446 79.33C475.906 78.33 475.166 77.56 474.226 77.02C473.306 76.48 472.286 76.21 471.166 76.21C470.006 76.21 468.966 76.47 468.046 76.99C467.126 77.51 466.396 78.27 465.856 79.27C465.336 80.25 465.076 81.42 465.076 82.78C465.076 84.12 465.336 85.3 465.856 86.32C466.396 87.32 467.126 88.09 468.046 88.63C468.966 89.15 470.006 89.41 471.166 89.41C472.286 89.41 473.306 89.14 474.226 88.6C475.166 88.06 475.906 87.29 476.446 86.29C476.986 85.29 477.256 84.13 477.256 82.81ZM498.97 81.97C498.97 82.69 498.95 83.24 498.91 83.62H485.32C485.38 84.86 485.68 85.92 486.22 86.8C486.76 87.68 487.47 88.35 488.35 88.81C489.23 89.25 490.19 89.47 491.23 89.47C492.59 89.47 493.73 89.14 494.65 88.48C495.59 87.82 496.21 86.93 496.51 85.81H498.73C498.33 87.41 497.47 88.72 496.15 89.74C494.85 90.74 493.21 91.24 491.23 91.24C489.69 91.24 488.31 90.9 487.09 90.22C485.87 89.52 484.91 88.54 484.21 87.28C483.53 86 483.19 84.51 483.19 82.81C483.19 81.11 483.53 79.62 484.21 78.34C484.89 77.06 485.84 76.08 487.06 75.4C488.28 74.72 489.67 74.38 491.23 74.38C492.79 74.38 494.15 74.72 495.31 75.4C496.49 76.08 497.39 77 498.01 78.16C498.65 79.3 498.97 80.57 498.97 81.97ZM496.84 81.91C496.86 80.69 496.61 79.65 496.09 78.79C495.59 77.93 494.9 77.28 494.02 76.84C493.14 76.4 492.18 76.18 491.14 76.18C489.58 76.18 488.25 76.68 487.15 77.68C486.05 78.68 485.44 80.09 485.32 81.91H496.84ZM532.645 74.62L527.515 91H525.415L520.885 77.26L516.355 91H514.225L509.095 74.62H511.225L515.305 88.87L519.895 74.62H521.995L526.525 88.9L530.575 74.62H532.645ZM543.307 74.32C544.547 74.32 545.657 74.58 546.637 75.1C547.637 75.62 548.417 76.42 548.977 77.5C549.557 78.56 549.847 79.86 549.847 81.4V91H547.777V81.64C547.777 79.86 547.327 78.5 546.427 77.56C545.547 76.62 544.337 76.15 542.797 76.15C541.217 76.15 539.957 76.65 539.017 77.65C538.077 78.65 537.607 80.12 537.607 82.06V91H535.507V68.8H537.607V77.41C538.127 76.43 538.887 75.67 539.887 75.13C540.907 74.59 542.047 74.32 543.307 74.32ZM569.312 81.97C569.312 82.69 569.292 83.24 569.252 83.62H555.662C555.722 84.86 556.022 85.92 556.562 86.8C557.102 87.68 557.812 88.35 558.692 88.81C559.572 89.25 560.532 89.47 561.572 89.47C562.932 89.47 564.072 89.14 564.992 88.48C565.932 87.82 566.552 86.93 566.852 85.81H569.072C568.672 87.41 567.812 88.72 566.492 89.74C565.192 90.74 563.552 91.24 561.572 91.24C560.032 91.24 558.652 90.9 557.432 90.22C556.212 89.52 555.252 88.54 554.552 87.28C553.872 86 553.532 84.51 553.532 82.81C553.532 81.11 553.872 79.62 554.552 78.34C555.232 77.06 556.182 76.08 557.402 75.4C558.622 74.72 560.012 74.38 561.572 74.38C563.132 74.38 564.492 74.72 565.652 75.4C566.832 76.08 567.732 77 568.352 78.16C568.992 79.3 569.312 80.57 569.312 81.97ZM567.182 81.91C567.202 80.69 566.952 79.65 566.432 78.79C565.932 77.93 565.242 77.28 564.362 76.84C563.482 76.4 562.522 76.18 561.482 76.18C559.922 76.18 558.592 76.68 557.492 77.68C556.392 78.68 555.782 80.09 555.662 81.91H567.182ZM575.254 77.53C575.714 76.51 576.414 75.72 577.354 75.16C578.314 74.6 579.484 74.32 580.864 74.32V76.51H580.294C578.774 76.51 577.554 76.92 576.634 77.74C575.714 78.56 575.254 79.93 575.254 81.85V91H573.154V74.62H575.254V77.53ZM598.843 81.97C598.843 82.69 598.823 83.24 598.783 83.62H585.193C585.253 84.86 585.553 85.92 586.093 86.8C586.633 87.68 587.343 88.35 588.223 88.81C589.103 89.25 590.063 89.47 591.103 89.47C592.463 89.47 593.603 89.14 594.523 88.48C595.463 87.82 596.083 86.93 596.383 85.81H598.603C598.203 87.41 597.343 88.72 596.023 89.74C594.723 90.74 593.083 91.24 591.103 91.24C589.563 91.24 588.183 90.9 586.963 90.22C585.743 89.52 584.783 88.54 584.083 87.28C583.403 86 583.063 84.51 583.063 82.81C583.063 81.11 583.403 79.62 584.083 78.34C584.763 77.06 585.713 76.08 586.933 75.4C588.153 74.72 589.543 74.38 591.103 74.38C592.663 74.38 594.023 74.72 595.183 75.4C596.363 76.08 597.263 77 597.883 78.16C598.523 79.3 598.843 80.57 598.843 81.97ZM596.713 81.91C596.733 80.69 596.483 79.65 595.963 78.79C595.463 77.93 594.773 77.28 593.893 76.84C593.013 76.4 592.053 76.18 591.013 76.18C589.453 76.18 588.123 76.68 587.023 77.68C585.923 78.68 585.313 80.09 585.193 81.91H596.713ZM616.558 91.24C614.678 91.24 613.138 90.81 611.938 89.95C610.758 89.07 610.098 87.88 609.958 86.38H612.118C612.218 87.3 612.648 88.05 613.408 88.63C614.188 89.19 615.228 89.47 616.528 89.47C617.668 89.47 618.558 89.2 619.198 88.66C619.858 88.12 620.188 87.45 620.188 86.65C620.188 86.09 620.008 85.63 619.648 85.27C619.288 84.91 618.828 84.63 618.268 84.43C617.728 84.21 616.988 83.98 616.048 83.74C614.828 83.42 613.838 83.1 613.078 82.78C612.318 82.46 611.668 81.99 611.128 81.37C610.608 80.73 610.348 79.88 610.348 78.82C610.348 78.02 610.588 77.28 611.068 76.6C611.548 75.92 612.228 75.38 613.108 74.98C613.988 74.58 614.988 74.38 616.108 74.38C617.868 74.38 619.288 74.83 620.368 75.73C621.448 76.61 622.028 77.83 622.108 79.39H620.008C619.948 78.43 619.568 77.66 618.868 77.08C618.188 76.48 617.248 76.18 616.048 76.18C614.988 76.18 614.128 76.43 613.468 76.93C612.808 77.43 612.478 78.05 612.478 78.79C612.478 79.43 612.668 79.96 613.048 80.38C613.448 80.78 613.938 81.1 614.518 81.34C615.098 81.56 615.878 81.81 616.858 82.09C618.038 82.41 618.978 82.72 619.678 83.02C620.378 83.32 620.978 83.76 621.478 84.34C621.978 84.92 622.238 85.69 622.258 86.65C622.258 87.53 622.018 88.32 621.538 89.02C621.058 89.7 620.388 90.24 619.528 90.64C618.668 91.04 617.678 91.24 616.558 91.24ZM628.941 76.39V86.56C628.941 87.56 629.131 88.25 629.511 88.63C629.891 89.01 630.561 89.2 631.521 89.2H633.441V91H631.191C629.711 91 628.611 90.66 627.891 89.98C627.171 89.28 626.811 88.14 626.811 86.56V76.39H624.531V74.62H626.811V70.51H628.941V74.62H633.441V76.39H628.941ZM651.094 74.62V91H648.994V88.12C648.514 89.14 647.774 89.92 646.774 90.46C645.774 91 644.654 91.27 643.414 91.27C641.454 91.27 639.854 90.67 638.614 89.47C637.374 88.25 636.754 86.49 636.754 84.19V74.62H638.824V83.95C638.824 85.73 639.264 87.09 640.144 88.03C641.044 88.97 642.264 89.44 643.804 89.44C645.384 89.44 646.644 88.94 647.584 87.94C648.524 86.94 648.994 85.47 648.994 83.53V74.62H651.094ZM654.928 82.78C654.928 81.1 655.268 79.63 655.948 78.37C656.628 77.09 657.558 76.11 658.738 75.43C659.938 74.73 661.288 74.38 662.788 74.38C664.228 74.38 665.528 74.73 666.688 75.43C667.848 76.13 668.698 77.04 669.238 78.16V68.8H671.338V91H669.238V87.34C668.738 88.48 667.918 89.42 666.778 90.16C665.638 90.88 664.298 91.24 662.758 91.24C661.258 91.24 659.908 90.89 658.708 90.19C657.528 89.49 656.598 88.5 655.918 87.22C655.258 85.94 654.928 84.46 654.928 82.78ZM669.238 82.81C669.238 81.49 668.968 80.33 668.428 79.33C667.888 78.33 667.148 77.56 666.208 77.02C665.288 76.48 664.268 76.21 663.148 76.21C661.988 76.21 660.948 76.47 660.028 76.99C659.108 77.51 658.378 78.27 657.838 79.27C657.318 80.25 657.058 81.42 657.058 82.78C657.058 84.12 657.318 85.3 657.838 86.32C658.378 87.32 659.108 88.09 660.028 88.63C660.948 89.15 661.988 89.41 663.148 89.41C664.268 89.41 665.288 89.14 666.208 88.6C667.148 88.06 667.888 87.29 668.428 86.29C668.968 85.29 669.238 84.13 669.238 82.81ZM690.952 81.97C690.952 82.69 690.932 83.24 690.892 83.62H677.302C677.362 84.86 677.662 85.92 678.202 86.8C678.742 87.68 679.452 88.35 680.332 88.81C681.212 89.25 682.172 89.47 683.212 89.47C684.572 89.47 685.712 89.14 686.632 88.48C687.572 87.82 688.192 86.93 688.492 85.81H690.712C690.312 87.41 689.452 88.72 688.132 89.74C686.832 90.74 685.192 91.24 683.212 91.24C681.672 91.24 680.292 90.9 679.072 90.22C677.852 89.52 676.892 88.54 676.192 87.28C675.512 86 675.172 84.51 675.172 82.81C675.172 81.11 675.512 79.62 676.192 78.34C676.872 77.06 677.822 76.08 679.042 75.4C680.262 74.72 681.652 74.38 683.212 74.38C684.772 74.38 686.132 74.72 687.292 75.4C688.472 76.08 689.372 77 689.992 78.16C690.632 79.3 690.952 80.57 690.952 81.97ZM688.822 81.91C688.842 80.69 688.592 79.65 688.072 78.79C687.572 77.93 686.882 77.28 686.002 76.84C685.122 76.4 684.162 76.18 683.122 76.18C681.562 76.18 680.232 76.68 679.132 77.68C678.032 78.68 677.422 80.09 677.302 81.91H688.822ZM702.475 74.32C704.435 74.32 706.035 74.93 707.275 76.15C708.515 77.35 709.135 79.1 709.135 81.4V91H707.065V81.64C707.065 79.86 706.615 78.5 705.715 77.56C704.835 76.62 703.625 76.15 702.085 76.15C700.505 76.15 699.245 76.65 698.305 77.65C697.365 78.65 696.895 80.12 696.895 82.06V91H694.795V74.62H696.895V77.41C697.415 76.41 698.165 75.65 699.145 75.13C700.125 74.59 701.235 74.32 702.475 74.32ZM716.509 76.39V86.56C716.509 87.56 716.699 88.25 717.079 88.63C717.459 89.01 718.129 89.2 719.089 89.2H721.009V91H718.759C717.279 91 716.179 90.66 715.459 89.98C714.739 89.28 714.379 88.14 714.379 86.56V76.39H712.099V74.62H714.379V70.51H716.509V74.62H721.009V76.39H716.509ZM730.112 91.24C728.232 91.24 726.692 90.81 725.492 89.95C724.312 89.07 723.652 87.88 723.512 86.38H725.672C725.772 87.3 726.202 88.05 726.962 88.63C727.742 89.19 728.782 89.47 730.082 89.47C731.222 89.47 732.112 89.2 732.752 88.66C733.412 88.12 733.742 87.45 733.742 86.65C733.742 86.09 733.562 85.63 733.202 85.27C732.842 84.91 732.382 84.63 731.822 84.43C731.282 84.21 730.542 83.98 729.602 83.74C728.382 83.42 727.392 83.1 726.632 82.78C725.872 82.46 725.222 81.99 724.682 81.37C724.162 80.73 723.902 79.88 723.902 78.82C723.902 78.02 724.142 77.28 724.622 76.6C725.102 75.92 725.782 75.38 726.662 74.98C727.542 74.58 728.542 74.38 729.662 74.38C731.422 74.38 732.842 74.83 733.922 75.73C735.002 76.61 735.582 77.83 735.662 79.39H733.562C733.502 78.43 733.122 77.66 732.422 77.08C731.742 76.48 730.802 76.18 729.602 76.18C728.542 76.18 727.682 76.43 727.022 76.93C726.362 77.43 726.032 78.05 726.032 78.79C726.032 79.43 726.222 79.96 726.602 80.38C727.002 80.78 727.492 81.1 728.072 81.34C728.652 81.56 729.432 81.81 730.412 82.09C731.592 82.41 732.532 82.72 733.232 83.02C733.932 83.32 734.532 83.76 735.032 84.34C735.532 84.92 735.792 85.69 735.812 86.65C735.812 87.53 735.572 88.32 735.092 89.02C734.612 89.7 733.942 90.24 733.082 90.64C732.222 91.04 731.232 91.24 730.112 91.24ZM747.038 82.78C747.038 81.1 747.368 79.63 748.028 78.37C748.708 77.09 749.638 76.11 750.818 75.43C752.018 74.73 753.368 74.38 754.868 74.38C756.428 74.38 757.768 74.74 758.888 75.46C760.028 76.18 760.848 77.1 761.348 78.22V74.62H763.448V91H761.348V87.37C760.828 88.49 759.998 89.42 758.858 90.16C757.738 90.88 756.398 91.24 754.838 91.24C753.358 91.24 752.018 90.89 750.818 90.19C749.638 89.49 748.708 88.5 748.028 87.22C747.368 85.94 747.038 84.46 747.038 82.78ZM761.348 82.81C761.348 81.49 761.078 80.33 760.538 79.33C759.998 78.33 759.258 77.56 758.318 77.02C757.398 76.48 756.378 76.21 755.258 76.21C754.098 76.21 753.058 76.47 752.138 76.99C751.218 77.51 750.488 78.27 749.948 79.27C749.428 80.25 749.168 81.42 749.168 82.78C749.168 84.12 749.428 85.3 749.948 86.32C750.488 87.32 751.218 88.09 752.138 88.63C753.058 89.15 754.098 89.41 755.258 89.41C756.378 89.41 757.398 89.14 758.318 88.6C759.258 88.06 759.998 87.29 760.538 86.29C761.078 85.29 761.348 84.13 761.348 82.81ZM775.112 74.38C776.652 74.38 777.992 74.74 779.132 75.46C780.272 76.18 781.092 77.09 781.592 78.19V74.62H783.692V91.42C783.692 92.92 783.362 94.25 782.702 95.41C782.062 96.57 781.162 97.46 780.002 98.08C778.842 98.72 777.522 99.04 776.042 99.04C773.942 99.04 772.192 98.54 770.792 97.54C769.412 96.54 768.552 95.18 768.212 93.46H770.282C770.642 94.6 771.322 95.51 772.322 96.19C773.342 96.87 774.582 97.21 776.042 97.21C777.102 97.21 778.052 96.98 778.892 96.52C779.732 96.08 780.392 95.42 780.872 94.54C781.352 93.66 781.592 92.62 781.592 91.42V87.37C781.072 88.49 780.242 89.42 779.102 90.16C777.982 90.88 776.652 91.24 775.112 91.24C773.612 91.24 772.262 90.89 771.062 90.19C769.882 89.49 768.952 88.5 768.272 87.22C767.612 85.94 767.282 84.46 767.282 82.78C767.282 81.1 767.612 79.63 768.272 78.37C768.952 77.09 769.882 76.11 771.062 75.43C772.262 74.73 773.612 74.38 775.112 74.38ZM781.592 82.81C781.592 81.49 781.322 80.33 780.782 79.33C780.242 78.33 779.502 77.56 778.562 77.02C777.642 76.48 776.622 76.21 775.502 76.21C774.342 76.21 773.302 76.47 772.382 76.99C771.462 77.51 770.732 78.27 770.192 79.27C769.672 80.25 769.412 81.42 769.412 82.78C769.412 84.12 769.672 85.3 770.192 86.32C770.732 87.32 771.462 88.09 772.382 88.63C773.302 89.15 774.342 89.41 775.502 89.41C776.622 89.41 777.642 89.14 778.562 88.6C779.502 88.06 780.242 87.29 780.782 86.29C781.322 85.29 781.592 84.13 781.592 82.81ZM803.306 81.97C803.306 82.69 803.286 83.24 803.246 83.62H789.656C789.716 84.86 790.016 85.92 790.556 86.8C791.096 87.68 791.806 88.35 792.686 88.81C793.566 89.25 794.526 89.47 795.566 89.47C796.926 89.47 798.066 89.14 798.986 88.48C799.926 87.82 800.546 86.93 800.846 85.81H803.066C802.666 87.41 801.806 88.72 800.486 89.74C799.186 90.74 797.546 91.24 795.566 91.24C794.026 91.24 792.646 90.9 791.426 90.22C790.206 89.52 789.246 88.54 788.546 87.28C787.866 86 787.526 84.51 787.526 82.81C787.526 81.11 787.866 79.62 788.546 78.34C789.226 77.06 790.176 76.08 791.396 75.4C792.616 74.72 794.006 74.38 795.566 74.38C797.126 74.38 798.486 74.72 799.646 75.4C800.826 76.08 801.726 77 802.346 78.16C802.986 79.3 803.306 80.57 803.306 81.97ZM801.176 81.91C801.196 80.69 800.946 79.65 800.426 78.79C799.926 77.93 799.236 77.28 798.356 76.84C797.476 76.4 796.516 76.18 795.476 76.18C793.916 76.18 792.586 76.68 791.486 77.68C790.386 78.68 789.776 80.09 789.656 81.91H801.176ZM806.188 82.78C806.188 81.1 806.528 79.63 807.208 78.37C807.888 77.09 808.818 76.11 809.998 75.43C811.198 74.73 812.548 74.38 814.048 74.38C815.488 74.38 816.788 74.73 817.948 75.43C819.108 76.13 819.958 77.04 820.498 78.16V68.8H822.598V91H820.498V87.34C819.998 88.48 819.178 89.42 818.038 90.16C816.898 90.88 815.558 91.24 814.018 91.24C812.518 91.24 811.168 90.89 809.968 90.19C808.788 89.49 807.858 88.5 807.178 87.22C806.518 85.94 806.188 84.46 806.188 82.78ZM820.498 82.81C820.498 81.49 820.228 80.33 819.688 79.33C819.148 78.33 818.408 77.56 817.468 77.02C816.548 76.48 815.528 76.21 814.408 76.21C813.248 76.21 812.208 76.47 811.288 76.99C810.368 77.51 809.638 78.27 809.098 79.27C808.578 80.25 808.318 81.42 808.318 82.78C808.318 84.12 808.578 85.3 809.098 86.32C809.638 87.32 810.368 88.09 811.288 88.63C812.208 89.15 813.248 89.41 814.408 89.41C815.528 89.41 816.548 89.14 817.468 88.6C818.408 88.06 819.148 87.29 819.688 86.29C820.228 85.29 820.498 84.13 820.498 82.81ZM834.155 71.38V69.49H839.255V91H837.125V71.38H834.155ZM843.934 80.05C843.934 76.61 844.464 73.94 845.524 72.04C846.584 70.14 848.484 69.19 851.224 69.19C853.964 69.19 855.864 70.14 856.924 72.04C857.984 73.94 858.514 76.61 858.514 80.05C858.514 83.55 857.984 86.26 856.924 88.18C855.864 90.1 853.964 91.06 851.224 91.06C848.464 91.06 846.554 90.1 845.494 88.18C844.454 86.26 843.934 83.55 843.934 80.05ZM856.444 80.05C856.444 78.19 856.314 76.62 856.054 75.34C855.794 74.06 855.284 73.03 854.524 72.25C853.764 71.47 852.664 71.08 851.224 71.08C849.784 71.08 848.684 71.47 847.924 72.25C847.164 73.03 846.654 74.06 846.394 75.34C846.134 76.62 846.004 78.19 846.004 80.05C846.004 81.97 846.134 83.58 846.394 84.88C846.654 86.16 847.164 87.19 847.924 87.97C848.684 88.75 849.784 89.14 851.224 89.14C852.664 89.14 853.764 88.75 854.524 87.97C855.284 87.19 855.794 86.16 856.054 84.88C856.314 83.58 856.444 81.97 856.444 80.05ZM877.991 79V80.77H862.421V79H877.991ZM880.883 71.38V69.49H885.983V91H883.853V71.38H880.883ZM894.833 79.84C893.593 79.44 892.643 78.81 891.983 77.95C891.343 77.09 891.023 76.05 891.023 74.83C891.023 73.75 891.293 72.79 891.833 71.95C892.393 71.09 893.203 70.42 894.263 69.94C895.323 69.44 896.593 69.19 898.073 69.19C899.553 69.19 900.823 69.44 901.883 69.94C902.943 70.42 903.743 71.09 904.283 71.95C904.843 72.79 905.123 73.75 905.123 74.83C905.123 76.03 904.793 77.07 904.133 77.95C903.493 78.83 902.553 79.46 901.313 79.84C902.673 80.18 903.743 80.83 904.523 81.79C905.303 82.75 905.693 83.92 905.693 85.3C905.693 86.58 905.373 87.7 904.733 88.66C904.113 89.6 903.223 90.33 902.063 90.85C900.923 91.37 899.593 91.63 898.073 91.63C896.553 91.63 895.213 91.37 894.053 90.85C892.913 90.33 892.023 89.6 891.383 88.66C890.763 87.7 890.453 86.58 890.453 85.3C890.453 83.92 890.843 82.75 891.623 81.79C892.403 80.83 893.473 80.18 894.833 79.84ZM903.083 75.07C903.083 73.75 902.633 72.73 901.733 72.01C900.833 71.29 899.613 70.93 898.073 70.93C896.533 70.93 895.313 71.29 894.413 72.01C893.513 72.71 893.063 73.73 893.063 75.07C893.063 76.31 893.523 77.3 894.443 78.04C895.363 78.78 896.573 79.15 898.073 79.15C899.573 79.15 900.783 78.78 901.703 78.04C902.623 77.3 903.083 76.31 903.083 75.07ZM898.073 80.77C896.433 80.77 895.093 81.14 894.053 81.88C893.013 82.62 892.493 83.74 892.493 85.24C892.493 86.68 892.993 87.81 893.993 88.63C894.993 89.45 896.353 89.86 898.073 89.86C899.773 89.86 901.123 89.45 902.123 88.63C903.123 87.79 903.623 86.66 903.623 85.24C903.623 83.76 903.103 82.65 902.063 81.91C901.043 81.15 899.713 80.77 898.073 80.77ZM920.136 78.22C920.656 77.12 921.476 76.21 922.596 75.49C923.736 74.75 925.086 74.38 926.646 74.38C928.126 74.38 929.456 74.73 930.636 75.43C931.836 76.11 932.766 77.09 933.426 78.37C934.106 79.63 934.446 81.1 934.446 82.78C934.446 84.46 934.106 85.94 933.426 87.22C932.766 88.5 931.836 89.49 930.636 90.19C929.456 90.89 928.126 91.24 926.646 91.24C925.106 91.24 923.766 90.88 922.626 90.16C921.486 89.42 920.656 88.5 920.136 87.4V98.74H918.066V74.62H920.136V78.22ZM932.316 82.78C932.316 81.42 932.046 80.25 931.506 79.27C930.986 78.27 930.266 77.51 929.346 76.99C928.426 76.47 927.386 76.21 926.226 76.21C925.106 76.21 924.076 76.48 923.136 77.02C922.216 77.56 921.486 78.33 920.946 79.33C920.406 80.33 920.136 81.49 920.136 82.81C920.136 84.13 920.406 85.29 920.946 86.29C921.486 87.29 922.216 88.06 923.136 88.6C924.076 89.14 925.106 89.41 926.226 89.41C927.386 89.41 928.426 89.15 929.346 88.63C930.266 88.09 930.986 87.32 931.506 86.32C932.046 85.3 932.316 84.12 932.316 82.78ZM939.36 71.53C938.94 71.53 938.58 71.38 938.28 71.08C937.98 70.78 937.83 70.41 937.83 69.97C937.83 69.53 937.98 69.17 938.28 68.89C938.58 68.59 938.94 68.44 939.36 68.44C939.78 68.44 940.14 68.59 940.44 68.89C940.74 69.17 940.89 69.53 940.89 69.97C940.89 70.41 940.74 70.78 940.44 71.08C940.14 71.38 939.78 71.53 939.36 71.53ZM940.41 74.62V91H938.31V74.62H940.41ZM947.266 68.8V91H945.166V68.8H947.266ZM959.191 91.24C957.651 91.24 956.261 90.9 955.021 90.22C953.801 89.52 952.831 88.54 952.111 87.28C951.411 86 951.061 84.51 951.061 82.81C951.061 81.11 951.421 79.63 952.141 78.37C952.861 77.09 953.841 76.11 955.081 75.43C956.321 74.73 957.711 74.38 959.251 74.38C960.791 74.38 962.181 74.73 963.421 75.43C964.681 76.11 965.661 77.09 966.361 78.37C967.081 79.63 967.441 81.11 967.441 82.81C967.441 84.49 967.081 85.97 966.361 87.25C965.641 88.53 964.651 89.52 963.391 90.22C962.131 90.9 960.731 91.24 959.191 91.24ZM959.191 89.41C960.271 89.41 961.271 89.17 962.191 88.69C963.111 88.19 963.851 87.45 964.411 86.47C964.991 85.47 965.281 84.25 965.281 82.81C965.281 81.37 965.001 80.16 964.441 79.18C963.881 78.18 963.141 77.44 962.221 76.96C961.301 76.46 960.301 76.21 959.221 76.21C958.141 76.21 957.141 76.46 956.221 76.96C955.301 77.44 954.561 78.18 954.001 79.18C953.461 80.16 953.191 81.37 953.191 82.81C953.191 84.25 953.461 85.47 954.001 86.47C954.561 87.45 955.291 88.19 956.191 88.69C957.111 89.17 958.111 89.41 959.191 89.41ZM973.999 76.39V86.56C973.999 87.56 974.189 88.25 974.569 88.63C974.949 89.01 975.619 89.2 976.579 89.2H978.499V91H976.249C974.769 91 973.669 90.66 972.949 89.98C972.229 89.28 971.869 88.14 971.869 86.56V76.39H969.589V74.62H971.869V70.51H973.999V74.62H978.499V76.39H973.999ZM989.235 82.78C989.235 81.1 989.565 79.63 990.225 78.37C990.905 77.09 991.835 76.11 993.015 75.43C994.215 74.73 995.565 74.38 997.065 74.38C998.625 74.38 999.965 74.74 1001.08 75.46C1002.22 76.18 1003.04 77.1 1003.54 78.22V74.62H1005.64V91H1003.54V87.37C1003.02 88.49 1002.19 89.42 1001.05 90.16C999.935 90.88 998.595 91.24 997.035 91.24C995.555 91.24 994.215 90.89 993.015 90.19C991.835 89.49 990.905 88.5 990.225 87.22C989.565 85.94 989.235 84.46 989.235 82.78ZM1003.54 82.81C1003.54 81.49 1003.27 80.33 1002.73 79.33C1002.19 78.33 1001.45 77.56 1000.51 77.02C999.595 76.48 998.575 76.21 997.455 76.21C996.295 76.21 995.255 76.47 994.335 76.99C993.415 77.51 992.685 78.27 992.145 79.27C991.625 80.25 991.365 81.42 991.365 82.78C991.365 84.12 991.625 85.3 992.145 86.32C992.685 87.32 993.415 88.09 994.335 88.63C995.255 89.15 996.295 89.41 997.455 89.41C998.575 89.41 999.595 89.14 1000.51 88.6C1001.45 88.06 1002.19 87.29 1002.73 86.29C1003.27 85.29 1003.54 84.13 1003.54 82.81ZM1018.12 74.32C1020.08 74.32 1021.68 74.93 1022.92 76.15C1024.16 77.35 1024.78 79.1 1024.78 81.4V91H1022.71V81.64C1022.71 79.86 1022.26 78.5 1021.36 77.56C1020.48 76.62 1019.27 76.15 1017.73 76.15C1016.15 76.15 1014.89 76.65 1013.95 77.65C1013.01 78.65 1012.54 80.12 1012.54 82.06V91H1010.44V74.62H1012.54V77.41C1013.06 76.41 1013.81 75.65 1014.79 75.13C1015.77 74.59 1016.88 74.32 1018.12 74.32ZM1028.46 82.78C1028.46 81.1 1028.8 79.63 1029.48 78.37C1030.16 77.09 1031.09 76.11 1032.27 75.43C1033.47 74.73 1034.82 74.38 1036.32 74.38C1037.76 74.38 1039.06 74.73 1040.22 75.43C1041.38 76.13 1042.23 77.04 1042.77 78.16V68.8H1044.87V91H1042.77V87.34C1042.27 88.48 1041.45 89.42 1040.31 90.16C1039.17 90.88 1037.83 91.24 1036.29 91.24C1034.79 91.24 1033.44 90.89 1032.24 90.19C1031.06 89.49 1030.13 88.5 1029.45 87.22C1028.79 85.94 1028.46 84.46 1028.46 82.78ZM1042.77 82.81C1042.77 81.49 1042.5 80.33 1041.96 79.33C1041.42 78.33 1040.68 77.56 1039.74 77.02C1038.82 76.48 1037.8 76.21 1036.68 76.21C1035.52 76.21 1034.48 76.47 1033.56 76.99C1032.64 77.51 1031.91 78.27 1031.37 79.27C1030.85 80.25 1030.59 81.42 1030.59 82.78C1030.59 84.12 1030.85 85.3 1031.37 86.32C1031.91 87.32 1032.64 88.09 1033.56 88.63C1034.48 89.15 1035.52 89.41 1036.68 89.41C1037.8 89.41 1038.82 89.14 1039.74 88.6C1040.68 88.06 1041.42 87.29 1041.96 86.29C1042.5 85.29 1042.77 84.13 1042.77 82.81ZM32.47 123.22C32.99 122.12 33.81 121.21 34.93 120.49C36.07 119.75 37.42 119.38 38.98 119.38C40.46 119.38 41.79 119.73 42.97 120.43C44.17 121.11 45.1 122.09 45.76 123.37C46.44 124.63 46.78 126.1 46.78 127.78C46.78 129.46 46.44 130.94 45.76 132.22C45.1 133.5 44.17 134.49 42.97 135.19C41.79 135.89 40.46 136.24 38.98 136.24C37.44 136.24 36.1 135.88 34.96 135.16C33.82 134.42 32.99 133.5 32.47 132.4V143.74H30.4V119.62H32.47V123.22ZM44.65 127.78C44.65 126.42 44.38 125.25 43.84 124.27C43.32 123.27 42.6 122.51 41.68 121.99C40.76 121.47 39.72 121.21 38.56 121.21C37.44 121.21 36.41 121.48 35.47 122.02C34.55 122.56 33.82 123.33 33.28 124.33C32.74 125.33 32.47 126.49 32.47 127.81C32.47 129.13 32.74 130.29 33.28 131.29C33.82 132.29 34.55 133.06 35.47 133.6C36.41 134.14 37.44 134.41 38.56 134.41C39.72 134.41 40.76 134.15 41.68 133.63C42.6 133.09 43.32 132.32 43.84 131.32C44.38 130.3 44.65 129.12 44.65 127.78ZM52.7441 122.53C53.2041 121.51 53.9041 120.72 54.8441 120.16C55.8041 119.6 56.9741 119.32 58.3541 119.32V121.51H57.7841C56.2641 121.51 55.0441 121.92 54.1241 122.74C53.2041 123.56 52.7441 124.93 52.7441 126.85V136H50.6441V119.62H52.7441V122.53ZM68.6833 136.24C67.1433 136.24 65.7533 135.9 64.5133 135.22C63.2933 134.52 62.3233 133.54 61.6033 132.28C60.9033 131 60.5533 129.51 60.5533 127.81C60.5533 126.11 60.9133 124.63 61.6333 123.37C62.3533 122.09 63.3333 121.11 64.5733 120.43C65.8133 119.73 67.2033 119.38 68.7433 119.38C70.2833 119.38 71.6733 119.73 72.9133 120.43C74.1733 121.11 75.1533 122.09 75.8533 123.37C76.5733 124.63 76.9333 126.11 76.9333 127.81C76.9333 129.49 76.5733 130.97 75.8533 132.25C75.1333 133.53 74.1433 134.52 72.8833 135.22C71.6233 135.9 70.2233 136.24 68.6833 136.24ZM68.6833 134.41C69.7633 134.41 70.7633 134.17 71.6833 133.69C72.6033 133.19 73.3433 132.45 73.9033 131.47C74.4833 130.47 74.7733 129.25 74.7733 127.81C74.7733 126.37 74.4933 125.16 73.9333 124.18C73.3733 123.18 72.6333 122.44 71.7133 121.96C70.7933 121.46 69.7933 121.21 68.7133 121.21C67.6333 121.21 66.6333 121.46 65.7133 121.96C64.7933 122.44 64.0533 123.18 63.4933 124.18C62.9533 125.16 62.6833 126.37 62.6833 127.81C62.6833 129.25 62.9533 130.47 63.4933 131.47C64.0533 132.45 64.7833 133.19 65.6833 133.69C66.6033 134.17 67.6033 134.41 68.6833 134.41ZM87.6313 119.38C89.1713 119.38 90.5113 119.74 91.6513 120.46C92.7913 121.18 93.6113 122.09 94.1113 123.19V119.62H96.2113V136.42C96.2113 137.92 95.8813 139.25 95.2213 140.41C94.5813 141.57 93.6813 142.46 92.5213 143.08C91.3613 143.72 90.0413 144.04 88.5613 144.04C86.4613 144.04 84.7113 143.54 83.3113 142.54C81.9313 141.54 81.0713 140.18 80.7313 138.46H82.8013C83.1613 139.6 83.8413 140.51 84.8413 141.19C85.8613 141.87 87.1013 142.21 88.5613 142.21C89.6213 142.21 90.5713 141.98 91.4113 141.52C92.2513 141.08 92.9113 140.42 93.3913 139.54C93.8713 138.66 94.1113 137.62 94.1113 136.42V132.37C93.5913 133.49 92.7613 134.42 91.6213 135.16C90.5013 135.88 89.1713 136.24 87.6313 136.24C86.1313 136.24 84.7813 135.89 83.5813 135.19C82.4013 134.49 81.4713 133.5 80.7913 132.22C80.1313 130.94 79.8013 129.46 79.8013 127.78C79.8013 126.1 80.1313 124.63 80.7913 123.37C81.4713 122.09 82.4013 121.11 83.5813 120.43C84.7813 119.73 86.1313 119.38 87.6313 119.38ZM94.1113 127.81C94.1113 126.49 93.8413 125.33 93.3013 124.33C92.7613 123.33 92.0213 122.56 91.0813 122.02C90.1613 121.48 89.1413 121.21 88.0213 121.21C86.8613 121.21 85.8213 121.47 84.9013 121.99C83.9813 122.51 83.2513 123.27 82.7113 124.27C82.1913 125.25 81.9313 126.42 81.9313 127.78C81.9313 129.12 82.1913 130.3 82.7113 131.32C83.2513 132.32 83.9813 133.09 84.9013 133.63C85.8213 134.15 86.8613 134.41 88.0213 134.41C89.1413 134.41 90.1613 134.14 91.0813 133.6C92.0213 133.06 92.7613 132.29 93.3013 131.29C93.8413 130.29 94.1113 129.13 94.1113 127.81ZM103.105 122.53C103.565 121.51 104.265 120.72 105.205 120.16C106.165 119.6 107.335 119.32 108.715 119.32V121.51H108.145C106.625 121.51 105.405 121.92 104.485 122.74C103.565 123.56 103.105 124.93 103.105 126.85V136H101.005V119.62H103.105V122.53ZM110.915 127.78C110.915 126.1 111.245 124.63 111.905 123.37C112.585 122.09 113.515 121.11 114.695 120.43C115.895 119.73 117.245 119.38 118.745 119.38C120.305 119.38 121.645 119.74 122.765 120.46C123.905 121.18 124.725 122.1 125.225 123.22V119.62H127.325V136H125.225V132.37C124.705 133.49 123.875 134.42 122.735 135.16C121.615 135.88 120.275 136.24 118.715 136.24C117.235 136.24 115.895 135.89 114.695 135.19C113.515 134.49 112.585 133.5 111.905 132.22C111.245 130.94 110.915 129.46 110.915 127.78ZM125.225 127.81C125.225 126.49 124.955 125.33 124.415 124.33C123.875 123.33 123.135 122.56 122.195 122.02C121.275 121.48 120.255 121.21 119.135 121.21C117.975 121.21 116.935 121.47 116.015 121.99C115.095 122.51 114.365 123.27 113.825 124.27C113.305 125.25 113.045 126.42 113.045 127.78C113.045 129.12 113.305 130.3 113.825 131.32C114.365 132.32 115.095 133.09 116.015 133.63C116.935 134.15 117.975 134.41 119.135 134.41C120.255 134.41 121.275 134.14 122.195 133.6C123.135 133.06 123.875 132.29 124.415 131.29C124.955 130.29 125.225 129.13 125.225 127.81ZM151.619 119.32C153.539 119.32 155.099 119.93 156.299 121.15C157.519 122.35 158.129 124.1 158.129 126.4V136H156.059V126.64C156.059 124.86 155.629 123.5 154.769 122.56C153.909 121.62 152.739 121.15 151.259 121.15C149.719 121.15 148.489 121.66 147.569 122.68C146.649 123.7 146.189 125.18 146.189 127.12V136H144.119V126.64C144.119 124.86 143.689 123.5 142.829 122.56C141.969 121.62 140.789 121.15 139.289 121.15C137.749 121.15 136.519 121.66 135.599 122.68C134.679 123.7 134.219 125.18 134.219 127.12V136H132.119V119.62H134.219V122.44C134.739 121.42 135.479 120.65 136.439 120.13C137.399 119.59 138.469 119.32 139.649 119.32C141.069 119.32 142.309 119.66 143.369 120.34C144.449 121.02 145.229 122.02 145.709 123.34C146.149 122.04 146.899 121.05 147.959 120.37C149.039 119.67 150.259 119.32 151.619 119.32ZM170.065 127.78C170.065 126.1 170.405 124.63 171.085 123.37C171.765 122.09 172.695 121.11 173.875 120.43C175.075 119.73 176.425 119.38 177.925 119.38C179.365 119.38 180.665 119.73 181.825 120.43C182.985 121.13 183.835 122.04 184.375 123.16V113.8H186.475V136H184.375V132.34C183.875 133.48 183.055 134.42 181.915 135.16C180.775 135.88 179.435 136.24 177.895 136.24C176.395 136.24 175.045 135.89 173.845 135.19C172.665 134.49 171.735 133.5 171.055 132.22C170.395 130.94 170.065 129.46 170.065 127.78ZM184.375 127.81C184.375 126.49 184.105 125.33 183.565 124.33C183.025 123.33 182.285 122.56 181.345 122.02C180.425 121.48 179.405 121.21 178.285 121.21C177.125 121.21 176.085 121.47 175.165 121.99C174.245 122.51 173.515 123.27 172.975 124.27C172.455 125.25 172.195 126.42 172.195 127.78C172.195 129.12 172.455 130.3 172.975 131.32C173.515 132.32 174.245 133.09 175.165 133.63C176.085 134.15 177.125 134.41 178.285 134.41C179.405 134.41 180.425 134.14 181.345 133.6C182.285 133.06 183.025 132.29 183.565 131.29C184.105 130.29 184.375 129.13 184.375 127.81ZM193.369 122.53C193.829 121.51 194.529 120.72 195.469 120.16C196.429 119.6 197.599 119.32 198.979 119.32V121.51H198.409C196.889 121.51 195.669 121.92 194.749 122.74C193.829 123.56 193.369 124.93 193.369 126.85V136H191.269V119.62H193.369V122.53ZM209.308 136.24C207.768 136.24 206.378 135.9 205.138 135.22C203.918 134.52 202.948 133.54 202.228 132.28C201.528 131 201.178 129.51 201.178 127.81C201.178 126.11 201.538 124.63 202.258 123.37C202.978 122.09 203.958 121.11 205.198 120.43C206.438 119.73 207.828 119.38 209.368 119.38C210.908 119.38 212.298 119.73 213.538 120.43C214.798 121.11 215.778 122.09 216.478 123.37C217.198 124.63 217.558 126.11 217.558 127.81C217.558 129.49 217.198 130.97 216.478 132.25C215.758 133.53 214.768 134.52 213.508 135.22C212.248 135.9 210.848 136.24 209.308 136.24ZM209.308 134.41C210.388 134.41 211.388 134.17 212.308 133.69C213.228 133.19 213.968 132.45 214.528 131.47C215.108 130.47 215.398 129.25 215.398 127.81C215.398 126.37 215.118 125.16 214.558 124.18C213.998 123.18 213.258 122.44 212.338 121.96C211.418 121.46 210.418 121.21 209.338 121.21C208.258 121.21 207.258 121.46 206.338 121.96C205.418 122.44 204.678 123.18 204.118 124.18C203.578 125.16 203.308 126.37 203.308 127.81C203.308 129.25 203.578 130.47 204.118 131.47C204.678 132.45 205.408 133.19 206.308 133.69C207.228 134.17 208.228 134.41 209.308 134.41ZM229.066 119.32C231.026 119.32 232.626 119.93 233.866 121.15C235.106 122.35 235.726 124.1 235.726 126.4V136H233.656V126.64C233.656 124.86 233.206 123.5 232.306 122.56C231.426 121.62 230.216 121.15 228.676 121.15C227.096 121.15 225.836 121.65 224.896 122.65C223.956 123.65 223.486 125.12 223.486 127.06V136H221.386V119.62H223.486V122.41C224.006 121.41 224.756 120.65 225.736 120.13C226.716 119.59 227.826 119.32 229.066 119.32ZM255.191 126.97C255.191 127.69 255.171 128.24 255.131 128.62H241.541C241.601 129.86 241.901 130.92 242.441 131.8C242.981 132.68 243.691 133.35 244.571 133.81C245.451 134.25 246.411 134.47 247.451 134.47C248.811 134.47 249.951 134.14 250.871 133.48C251.811 132.82 252.431 131.93 252.731 130.81H254.951C254.551 132.41 253.691 133.72 252.371 134.74C251.071 135.74 249.431 136.24 247.451 136.24C245.911 136.24 244.531 135.9 243.311 135.22C242.091 134.52 241.131 133.54 240.431 132.28C239.751 131 239.411 129.51 239.411 127.81C239.411 126.11 239.751 124.62 240.431 123.34C241.111 122.06 242.061 121.08 243.281 120.4C244.501 119.72 245.891 119.38 247.451 119.38C249.011 119.38 250.371 119.72 251.531 120.4C252.711 121.08 253.611 122 254.231 123.16C254.871 124.3 255.191 125.57 255.191 126.97ZM253.061 126.91C253.081 125.69 252.831 124.65 252.311 123.79C251.811 122.93 251.121 122.28 250.241 121.84C249.361 121.4 248.401 121.18 247.361 121.18C245.801 121.18 244.471 121.68 243.371 122.68C242.271 123.68 241.661 125.09 241.541 126.91H253.061ZM264.673 136.24C262.793 136.24 261.253 135.81 260.053 134.95C258.873 134.07 258.213 132.88 258.073 131.38H260.233C260.333 132.3 260.763 133.05 261.523 133.63C262.303 134.19 263.343 134.47 264.643 134.47C265.783 134.47 266.673 134.2 267.313 133.66C267.973 133.12 268.303 132.45 268.303 131.65C268.303 131.09 268.123 130.63 267.763 130.27C267.403 129.91 266.943 129.63 266.383 129.43C265.843 129.21 265.103 128.98 264.163 128.74C262.943 128.42 261.953 128.1 261.193 127.78C260.433 127.46 259.783 126.99 259.243 126.37C258.723 125.73 258.463 124.88 258.463 123.82C258.463 123.02 258.703 122.28 259.183 121.6C259.663 120.92 260.343 120.38 261.223 119.98C262.103 119.58 263.103 119.38 264.223 119.38C265.983 119.38 267.403 119.83 268.483 120.73C269.563 121.61 270.143 122.83 270.223 124.39H268.123C268.063 123.43 267.683 122.66 266.983 122.08C266.303 121.48 265.363 121.18 264.163 121.18C263.103 121.18 262.243 121.43 261.583 121.93C260.923 122.43 260.593 123.05 260.593 123.79C260.593 124.43 260.783 124.96 261.163 125.38C261.563 125.78 262.053 126.1 262.633 126.34C263.213 126.56 263.993 126.81 264.973 127.09C266.153 127.41 267.093 127.72 267.793 128.02C268.493 128.32 269.093 128.76 269.593 129.34C270.093 129.92 270.353 130.69 270.373 131.65C270.373 132.53 270.133 133.32 269.653 134.02C269.173 134.7 268.503 135.24 267.643 135.64C266.783 136.04 265.793 136.24 264.673 136.24ZM283.608 116.53C283.188 116.53 282.828 116.38 282.528 116.08C282.228 115.78 282.078 115.41 282.078 114.97C282.078 114.53 282.228 114.17 282.528 113.89C282.828 113.59 283.188 113.44 283.608 113.44C284.028 113.44 284.388 113.59 284.688 113.89C284.988 114.17 285.138 114.53 285.138 114.97C285.138 115.41 284.988 115.78 284.688 116.08C284.388 116.38 284.028 116.53 283.608 116.53ZM284.658 119.62V136H282.558V119.62H284.658ZM297.094 119.32C299.054 119.32 300.654 119.93 301.894 121.15C303.134 122.35 303.754 124.1 303.754 126.4V136H301.684V126.64C301.684 124.86 301.234 123.5 300.334 122.56C299.454 121.62 298.244 121.15 296.704 121.15C295.124 121.15 293.864 121.65 292.924 122.65C291.984 123.65 291.514 125.12 291.514 127.06V136H289.414V119.62H291.514V122.41C292.034 121.41 292.784 120.65 293.764 120.13C294.744 119.59 295.854 119.32 297.094 119.32ZM318.73 122.53C319.19 121.51 319.89 120.72 320.83 120.16C321.79 119.6 322.96 119.32 324.34 119.32V121.51H323.77C322.25 121.51 321.03 121.92 320.11 122.74C319.19 123.56 318.73 124.93 318.73 126.85V136H316.63V119.62H318.73V122.53ZM342.32 126.97C342.32 127.69 342.3 128.24 342.26 128.62H328.67C328.73 129.86 329.03 130.92 329.57 131.8C330.11 132.68 330.82 133.35 331.7 133.81C332.58 134.25 333.54 134.47 334.58 134.47C335.94 134.47 337.08 134.14 338 133.48C338.94 132.82 339.56 131.93 339.86 130.81H342.08C341.68 132.41 340.82 133.72 339.5 134.74C338.2 135.74 336.56 136.24 334.58 136.24C333.04 136.24 331.66 135.9 330.44 135.22C329.22 134.52 328.26 133.54 327.56 132.28C326.88 131 326.54 129.51 326.54 127.81C326.54 126.11 326.88 124.62 327.56 123.34C328.24 122.06 329.19 121.08 330.41 120.4C331.63 119.72 333.02 119.38 334.58 119.38C336.14 119.38 337.5 119.72 338.66 120.4C339.84 121.08 340.74 122 341.36 123.16C342 124.3 342.32 125.57 342.32 126.97ZM340.19 126.91C340.21 125.69 339.96 124.65 339.44 123.79C338.94 122.93 338.25 122.28 337.37 121.84C336.49 121.4 335.53 121.18 334.49 121.18C332.93 121.18 331.6 121.68 330.5 122.68C329.4 123.68 328.79 125.09 328.67 126.91H340.19ZM345.202 127.78C345.202 126.1 345.532 124.63 346.192 123.37C346.872 122.09 347.802 121.11 348.982 120.43C350.182 119.73 351.532 119.38 353.032 119.38C354.592 119.38 355.932 119.74 357.052 120.46C358.192 121.18 359.012 122.1 359.512 123.22V119.62H361.612V136H359.512V132.37C358.992 133.49 358.162 134.42 357.022 135.16C355.902 135.88 354.562 136.24 353.002 136.24C351.522 136.24 350.182 135.89 348.982 135.19C347.802 134.49 346.872 133.5 346.192 132.22C345.532 130.94 345.202 129.46 345.202 127.78ZM359.512 127.81C359.512 126.49 359.242 125.33 358.702 124.33C358.162 123.33 357.422 122.56 356.482 122.02C355.562 121.48 354.542 121.21 353.422 121.21C352.262 121.21 351.222 121.47 350.302 121.99C349.382 122.51 348.652 123.27 348.112 124.27C347.592 125.25 347.332 126.42 347.332 127.78C347.332 129.12 347.592 130.3 348.112 131.32C348.652 132.32 349.382 133.09 350.302 133.63C351.222 134.15 352.262 134.41 353.422 134.41C354.542 134.41 355.562 134.14 356.482 133.6C357.422 133.06 358.162 132.29 358.702 131.29C359.242 130.29 359.512 129.13 359.512 127.81ZM368.506 113.8V136H366.406V113.8H368.506ZM383.431 124V125.77H371.761V124H383.431ZM410.418 119.62L405.288 136H403.188L398.658 122.26L394.128 136H391.998L386.868 119.62H388.998L393.078 133.87L397.668 119.62H399.768L404.298 133.9L408.348 119.62H410.418ZM420.451 136.24C418.911 136.24 417.521 135.9 416.281 135.22C415.061 134.52 414.091 133.54 413.371 132.28C412.671 131 412.321 129.51 412.321 127.81C412.321 126.11 412.681 124.63 413.401 123.37C414.121 122.09 415.101 121.11 416.341 120.43C417.581 119.73 418.971 119.38 420.511 119.38C422.051 119.38 423.441 119.73 424.681 120.43C425.941 121.11 426.921 122.09 427.621 123.37C428.341 124.63 428.701 126.11 428.701 127.81C428.701 129.49 428.341 130.97 427.621 132.25C426.901 133.53 425.911 134.52 424.651 135.22C423.391 135.9 421.991 136.24 420.451 136.24ZM420.451 134.41C421.531 134.41 422.531 134.17 423.451 133.69C424.371 133.19 425.111 132.45 425.671 131.47C426.251 130.47 426.541 129.25 426.541 127.81C426.541 126.37 426.261 125.16 425.701 124.18C425.141 123.18 424.401 122.44 423.481 121.96C422.561 121.46 421.561 121.21 420.481 121.21C419.401 121.21 418.401 121.46 417.481 121.96C416.561 122.44 415.821 123.18 415.261 124.18C414.721 125.16 414.451 126.37 414.451 127.81C414.451 129.25 414.721 130.47 415.261 131.47C415.821 132.45 416.551 133.19 417.451 133.69C418.371 134.17 419.371 134.41 420.451 134.41ZM434.629 122.53C435.089 121.51 435.789 120.72 436.729 120.16C437.689 119.6 438.859 119.32 440.239 119.32V121.51H439.669C438.149 121.51 436.929 121.92 436.009 122.74C435.089 123.56 434.629 124.93 434.629 126.85V136H432.529V119.62H434.629V122.53ZM445.498 113.8V136H443.398V113.8H445.498ZM449.294 127.78C449.294 126.1 449.634 124.63 450.314 123.37C450.994 122.09 451.924 121.11 453.104 120.43C454.304 119.73 455.654 119.38 457.154 119.38C458.594 119.38 459.894 119.73 461.054 120.43C462.214 121.13 463.064 122.04 463.604 123.16V113.8H465.704V136H463.604V132.34C463.104 133.48 462.284 134.42 461.144 135.16C460.004 135.88 458.664 136.24 457.124 136.24C455.624 136.24 454.274 135.89 453.074 135.19C451.894 134.49 450.964 133.5 450.284 132.22C449.624 130.94 449.294 129.46 449.294 127.78ZM463.604 127.81C463.604 126.49 463.334 125.33 462.794 124.33C462.254 123.33 461.514 122.56 460.574 122.02C459.654 121.48 458.634 121.21 457.514 121.21C456.354 121.21 455.314 121.47 454.394 121.99C453.474 122.51 452.744 123.27 452.204 124.27C451.684 125.25 451.424 126.42 451.424 127.78C451.424 129.12 451.684 130.3 452.204 131.32C452.744 132.32 453.474 133.09 454.394 133.63C455.314 134.15 456.354 134.41 457.514 134.41C458.634 134.41 459.654 134.14 460.574 133.6C461.514 133.06 462.254 132.29 462.794 131.29C463.334 130.29 463.604 129.13 463.604 127.81ZM498.23 119.32C500.15 119.32 501.71 119.93 502.91 121.15C504.13 122.35 504.74 124.1 504.74 126.4V136H502.67V126.64C502.67 124.86 502.24 123.5 501.38 122.56C500.52 121.62 499.35 121.15 497.87 121.15C496.33 121.15 495.1 121.66 494.18 122.68C493.26 123.7 492.8 125.18 492.8 127.12V136H490.73V126.64C490.73 124.86 490.3 123.5 489.44 122.56C488.58 121.62 487.4 121.15 485.9 121.15C484.36 121.15 483.13 121.66 482.21 122.68C481.29 123.7 480.83 125.18 480.83 127.12V136H478.73V119.62H480.83V122.44C481.35 121.42 482.09 120.65 483.05 120.13C484.01 119.59 485.08 119.32 486.26 119.32C487.68 119.32 488.92 119.66 489.98 120.34C491.06 121.02 491.84 122.02 492.32 123.34C492.76 122.04 493.51 121.05 494.57 120.37C495.65 119.67 496.87 119.32 498.23 119.32ZM510.454 116.53C510.034 116.53 509.674 116.38 509.374 116.08C509.074 115.78 508.924 115.41 508.924 114.97C508.924 114.53 509.074 114.17 509.374 113.89C509.674 113.59 510.034 113.44 510.454 113.44C510.874 113.44 511.234 113.59 511.534 113.89C511.834 114.17 511.984 114.53 511.984 114.97C511.984 115.41 511.834 115.78 511.534 116.08C511.234 116.38 510.874 116.53 510.454 116.53ZM511.504 119.62V136H509.404V119.62H511.504ZM521.899 136.24C520.019 136.24 518.479 135.81 517.279 134.95C516.099 134.07 515.439 132.88 515.299 131.38H517.459C517.559 132.3 517.989 133.05 518.749 133.63C519.529 134.19 520.569 134.47 521.869 134.47C523.009 134.47 523.899 134.2 524.539 133.66C525.199 133.12 525.529 132.45 525.529 131.65C525.529 131.09 525.349 130.63 524.989 130.27C524.629 129.91 524.169 129.63 523.609 129.43C523.069 129.21 522.329 128.98 521.389 128.74C520.169 128.42 519.179 128.1 518.419 127.78C517.659 127.46 517.009 126.99 516.469 126.37C515.949 125.73 515.689 124.88 515.689 123.82C515.689 123.02 515.929 122.28 516.409 121.6C516.889 120.92 517.569 120.38 518.449 119.98C519.329 119.58 520.329 119.38 521.449 119.38C523.209 119.38 524.629 119.83 525.709 120.73C526.789 121.61 527.369 122.83 527.449 124.39H525.349C525.289 123.43 524.909 122.66 524.209 122.08C523.529 121.48 522.589 121.18 521.389 121.18C520.329 121.18 519.469 121.43 518.809 121.93C518.149 122.43 517.819 123.05 517.819 123.79C517.819 124.43 518.009 124.96 518.389 125.38C518.789 125.78 519.279 126.1 519.859 126.34C520.439 126.56 521.219 126.81 522.199 127.09C523.379 127.41 524.319 127.72 525.019 128.02C525.719 128.32 526.319 128.76 526.819 129.34C527.319 129.92 527.579 130.69 527.599 131.65C527.599 132.53 527.359 133.32 526.879 134.02C526.399 134.7 525.729 135.24 524.869 135.64C524.009 136.04 523.019 136.24 521.899 136.24ZM537.192 136.24C535.312 136.24 533.772 135.81 532.572 134.95C531.392 134.07 530.732 132.88 530.592 131.38H532.752C532.852 132.3 533.282 133.05 534.042 133.63C534.822 134.19 535.862 134.47 537.162 134.47C538.302 134.47 539.192 134.2 539.832 133.66C540.492 133.12 540.822 132.45 540.822 131.65C540.822 131.09 540.642 130.63 540.282 130.27C539.922 129.91 539.462 129.63 538.902 129.43C538.362 129.21 537.622 128.98 536.682 128.74C535.462 128.42 534.472 128.1 533.712 127.78C532.952 127.46 532.302 126.99 531.762 126.37C531.242 125.73 530.982 124.88 530.982 123.82C530.982 123.02 531.222 122.28 531.702 121.6C532.182 120.92 532.862 120.38 533.742 119.98C534.622 119.58 535.622 119.38 536.742 119.38C538.502 119.38 539.922 119.83 541.002 120.73C542.082 121.61 542.662 122.83 542.742 124.39H540.642C540.582 123.43 540.202 122.66 539.502 122.08C538.822 121.48 537.882 121.18 536.682 121.18C535.622 121.18 534.762 121.43 534.102 121.93C533.442 122.43 533.112 123.05 533.112 123.79C533.112 124.43 533.302 124.96 533.682 125.38C534.082 125.78 534.572 126.1 535.152 126.34C535.732 126.56 536.512 126.81 537.492 127.09C538.672 127.41 539.612 127.72 540.312 128.02C541.012 128.32 541.612 128.76 542.112 129.34C542.612 129.92 542.872 130.69 542.892 131.65C542.892 132.53 542.652 133.32 542.172 134.02C541.692 134.7 541.022 135.24 540.162 135.64C539.302 136.04 538.312 136.24 537.192 136.24ZM547.895 116.53C547.475 116.53 547.115 116.38 546.815 116.08C546.515 115.78 546.365 115.41 546.365 114.97C546.365 114.53 546.515 114.17 546.815 113.89C547.115 113.59 547.475 113.44 547.895 113.44C548.315 113.44 548.675 113.59 548.975 113.89C549.275 114.17 549.425 114.53 549.425 114.97C549.425 115.41 549.275 115.78 548.975 116.08C548.675 116.38 548.315 116.53 547.895 116.53ZM548.945 119.62V136H546.845V119.62H548.945ZM560.871 136.24C559.331 136.24 557.941 135.9 556.701 135.22C555.481 134.52 554.511 133.54 553.791 132.28C553.091 131 552.741 129.51 552.741 127.81C552.741 126.11 553.101 124.63 553.821 123.37C554.541 122.09 555.521 121.11 556.761 120.43C558.001 119.73 559.391 119.38 560.931 119.38C562.471 119.38 563.861 119.73 565.101 120.43C566.361 121.11 567.341 122.09 568.041 123.37C568.761 124.63 569.121 126.11 569.121 127.81C569.121 129.49 568.761 130.97 568.041 132.25C567.321 133.53 566.331 134.52 565.071 135.22C563.811 135.9 562.411 136.24 560.871 136.24ZM560.871 134.41C561.951 134.41 562.951 134.17 563.871 133.69C564.791 133.19 565.531 132.45 566.091 131.47C566.671 130.47 566.961 129.25 566.961 127.81C566.961 126.37 566.681 125.16 566.121 124.18C565.561 123.18 564.821 122.44 563.901 121.96C562.981 121.46 561.981 121.21 560.901 121.21C559.821 121.21 558.821 121.46 557.901 121.96C556.981 122.44 556.241 123.18 555.681 124.18C555.141 125.16 554.871 126.37 554.871 127.81C554.871 129.25 555.141 130.47 555.681 131.47C556.241 132.45 556.971 133.19 557.871 133.69C558.791 134.17 559.791 134.41 560.871 134.41ZM580.629 119.32C582.589 119.32 584.189 119.93 585.429 121.15C586.669 122.35 587.289 124.1 587.289 126.4V136H585.219V126.64C585.219 124.86 584.769 123.5 583.869 122.56C582.989 121.62 581.779 121.15 580.239 121.15C578.659 121.15 577.399 121.65 576.459 122.65C575.519 123.65 575.049 125.12 575.049 127.06V136H572.949V119.62H575.049V122.41C575.569 121.41 576.319 120.65 577.299 120.13C578.279 119.59 579.389 119.32 580.629 119.32ZM605.806 136.24C603.926 136.24 602.386 135.81 601.186 134.95C600.006 134.07 599.346 132.88 599.206 131.38H601.366C601.466 132.3 601.896 133.05 602.656 133.63C603.436 134.19 604.476 134.47 605.776 134.47C606.916 134.47 607.806 134.2 608.446 133.66C609.106 133.12 609.436 132.45 609.436 131.65C609.436 131.09 609.256 130.63 608.896 130.27C608.536 129.91 608.076 129.63 607.516 129.43C606.976 129.21 606.236 128.98 605.296 128.74C604.076 128.42 603.086 128.1 602.326 127.78C601.566 127.46 600.916 126.99 600.376 126.37C599.856 125.73 599.596 124.88 599.596 123.82C599.596 123.02 599.836 122.28 600.316 121.6C600.796 120.92 601.476 120.38 602.356 119.98C603.236 119.58 604.236 119.38 605.356 119.38C607.116 119.38 608.536 119.83 609.616 120.73C610.696 121.61 611.276 122.83 611.356 124.39H609.256C609.196 123.43 608.816 122.66 608.116 122.08C607.436 121.48 606.496 121.18 605.296 121.18C604.236 121.18 603.376 121.43 602.716 121.93C602.056 122.43 601.726 123.05 601.726 123.79C601.726 124.43 601.916 124.96 602.296 125.38C602.696 125.78 603.186 126.1 603.766 126.34C604.346 126.56 605.126 126.81 606.106 127.09C607.286 127.41 608.226 127.72 608.926 128.02C609.626 128.32 610.226 128.76 610.726 129.34C611.226 129.92 611.486 130.69 611.506 131.65C611.506 132.53 611.266 133.32 610.786 134.02C610.306 134.7 609.636 135.24 608.776 135.64C607.916 136.04 606.926 136.24 605.806 136.24ZM614.499 127.81C614.499 126.11 614.839 124.63 615.519 123.37C616.199 122.09 617.139 121.11 618.339 120.43C619.539 119.73 620.909 119.38 622.449 119.38C624.469 119.38 626.129 119.88 627.429 120.88C628.749 121.88 629.599 123.24 629.979 124.96H627.729C627.449 123.78 626.839 122.86 625.899 122.2C624.979 121.52 623.829 121.18 622.449 121.18C621.349 121.18 620.359 121.43 619.479 121.93C618.599 122.43 617.899 123.18 617.379 124.18C616.879 125.16 616.629 126.37 616.629 127.81C616.629 129.25 616.879 130.47 617.379 131.47C617.899 132.47 618.599 133.22 619.479 133.72C620.359 134.22 621.349 134.47 622.449 134.47C623.829 134.47 624.979 134.14 625.899 133.48C626.839 132.8 627.449 131.86 627.729 130.66H629.979C629.599 132.34 628.749 133.69 627.429 134.71C626.109 135.73 624.449 136.24 622.449 136.24C620.909 136.24 619.539 135.9 618.339 135.22C617.139 134.52 616.199 133.54 615.519 132.28C614.839 131 614.499 129.51 614.499 127.81ZM648.677 126.97C648.677 127.69 648.657 128.24 648.617 128.62H635.027C635.087 129.86 635.387 130.92 635.927 131.8C636.467 132.68 637.177 133.35 638.057 133.81C638.937 134.25 639.897 134.47 640.937 134.47C642.297 134.47 643.437 134.14 644.357 133.48C645.297 132.82 645.917 131.93 646.217 130.81H648.437C648.037 132.41 647.177 133.72 645.857 134.74C644.557 135.74 642.917 136.24 640.937 136.24C639.397 136.24 638.017 135.9 636.797 135.22C635.577 134.52 634.617 133.54 633.917 132.28C633.237 131 632.897 129.51 632.897 127.81C632.897 126.11 633.237 124.62 633.917 123.34C634.597 122.06 635.547 121.08 636.767 120.4C637.987 119.72 639.377 119.38 640.937 119.38C642.497 119.38 643.857 119.72 645.017 120.4C646.197 121.08 647.097 122 647.717 123.16C648.357 124.3 648.677 125.57 648.677 126.97ZM646.547 126.91C646.567 125.69 646.317 124.65 645.797 123.79C645.297 122.93 644.607 122.28 643.727 121.84C642.847 121.4 641.887 121.18 640.847 121.18C639.287 121.18 637.957 121.68 636.857 122.68C635.757 123.68 635.147 125.09 635.027 126.91H646.547ZM660.199 119.32C662.159 119.32 663.759 119.93 664.999 121.15C666.239 122.35 666.859 124.1 666.859 126.4V136H664.789V126.64C664.789 124.86 664.339 123.5 663.439 122.56C662.559 121.62 661.349 121.15 659.809 121.15C658.229 121.15 656.969 121.65 656.029 122.65C655.089 123.65 654.619 125.12 654.619 127.06V136H652.519V119.62H654.619V122.41C655.139 121.41 655.889 120.65 656.869 120.13C657.849 119.59 658.959 119.32 660.199 119.32ZM670.544 127.78C670.544 126.1 670.874 124.63 671.534 123.37C672.214 122.09 673.144 121.11 674.324 120.43C675.524 119.73 676.874 119.38 678.374 119.38C679.934 119.38 681.274 119.74 682.394 120.46C683.534 121.18 684.354 122.1 684.854 123.22V119.62H686.954V136H684.854V132.37C684.334 133.49 683.504 134.42 682.364 135.16C681.244 135.88 679.904 136.24 678.344 136.24C676.864 136.24 675.524 135.89 674.324 135.19C673.144 134.49 672.214 133.5 671.534 132.22C670.874 130.94 670.544 129.46 670.544 127.78ZM684.854 127.81C684.854 126.49 684.584 125.33 684.044 124.33C683.504 123.33 682.764 122.56 681.824 122.02C680.904 121.48 679.884 121.21 678.764 121.21C677.604 121.21 676.564 121.47 675.644 121.99C674.724 122.51 673.994 123.27 673.454 124.27C672.934 125.25 672.674 126.42 672.674 127.78C672.674 129.12 672.934 130.3 673.454 131.32C673.994 132.32 674.724 133.09 675.644 133.63C676.564 134.15 677.604 134.41 678.764 134.41C679.884 134.41 680.904 134.14 681.824 133.6C682.764 133.06 683.504 132.29 684.044 131.29C684.584 130.29 684.854 129.13 684.854 127.81ZM693.848 122.53C694.308 121.51 695.008 120.72 695.948 120.16C696.908 119.6 698.078 119.32 699.458 119.32V121.51H698.888C697.368 121.51 696.148 121.92 695.228 122.74C694.308 123.56 693.848 124.93 693.848 126.85V136H691.748V119.62H693.848V122.53ZM703.667 116.53C703.247 116.53 702.887 116.38 702.587 116.08C702.287 115.78 702.137 115.41 702.137 114.97C702.137 114.53 702.287 114.17 702.587 113.89C702.887 113.59 703.247 113.44 703.667 113.44C704.087 113.44 704.447 113.59 704.747 113.89C705.047 114.17 705.197 114.53 705.197 114.97C705.197 115.41 705.047 115.78 704.747 116.08C704.447 116.38 704.087 116.53 703.667 116.53ZM704.717 119.62V136H702.617V119.62H704.717ZM716.642 136.24C715.102 136.24 713.712 135.9 712.472 135.22C711.252 134.52 710.282 133.54 709.562 132.28C708.862 131 708.512 129.51 708.512 127.81C708.512 126.11 708.872 124.63 709.592 123.37C710.312 122.09 711.292 121.11 712.532 120.43C713.772 119.73 715.162 119.38 716.702 119.38C718.242 119.38 719.632 119.73 720.872 120.43C722.132 121.11 723.112 122.09 723.812 123.37C724.532 124.63 724.892 126.11 724.892 127.81C724.892 129.49 724.532 130.97 723.812 132.25C723.092 133.53 722.102 134.52 720.842 135.22C719.582 135.9 718.182 136.24 716.642 136.24ZM716.642 134.41C717.722 134.41 718.722 134.17 719.642 133.69C720.562 133.19 721.302 132.45 721.862 131.47C722.442 130.47 722.732 129.25 722.732 127.81C722.732 126.37 722.452 125.16 721.892 124.18C721.332 123.18 720.592 122.44 719.672 121.96C718.752 121.46 717.752 121.21 716.672 121.21C715.592 121.21 714.592 121.46 713.672 121.96C712.752 122.44 712.012 123.18 711.452 124.18C710.912 125.16 710.642 126.37 710.642 127.81C710.642 129.25 710.912 130.47 711.452 131.47C712.012 132.45 712.742 133.19 713.642 133.69C714.562 134.17 715.562 134.41 716.642 134.41ZM734.36 136.24C732.48 136.24 730.94 135.81 729.74 134.95C728.56 134.07 727.9 132.88 727.76 131.38H729.92C730.02 132.3 730.45 133.05 731.21 133.63C731.99 134.19 733.03 134.47 734.33 134.47C735.47 134.47 736.36 134.2 737 133.66C737.66 133.12 737.99 132.45 737.99 131.65C737.99 131.09 737.81 130.63 737.45 130.27C737.09 129.91 736.63 129.63 736.07 129.43C735.53 129.21 734.79 128.98 733.85 128.74C732.63 128.42 731.64 128.1 730.88 127.78C730.12 127.46 729.47 126.99 728.93 126.37C728.41 125.73 728.15 124.88 728.15 123.82C728.15 123.02 728.39 122.28 728.87 121.6C729.35 120.92 730.03 120.38 730.91 119.98C731.79 119.58 732.79 119.38 733.91 119.38C735.67 119.38 737.09 119.83 738.17 120.73C739.25 121.61 739.83 122.83 739.91 124.39H737.81C737.75 123.43 737.37 122.66 736.67 122.08C735.99 121.48 735.05 121.18 733.85 121.18C732.79 121.18 731.93 121.43 731.27 121.93C730.61 122.43 730.28 123.05 730.28 123.79C730.28 124.43 730.47 124.96 730.85 125.38C731.25 125.78 731.74 126.1 732.32 126.34C732.9 126.56 733.68 126.81 734.66 127.09C735.84 127.41 736.78 127.72 737.48 128.02C738.18 128.32 738.78 128.76 739.28 129.34C739.78 129.92 740.04 130.69 740.06 131.65C740.06 132.53 739.82 133.32 739.34 134.02C738.86 134.7 738.19 135.24 737.33 135.64C736.47 136.04 735.48 136.24 734.36 136.24ZM744.373 136.15C743.933 136.15 743.563 136 743.263 135.7C742.983 135.4 742.843 135.03 742.843 134.59C742.843 134.15 742.983 133.79 743.263 133.51C743.563 133.21 743.933 133.06 744.373 133.06C744.793 133.06 745.143 133.21 745.423 133.51C745.723 133.79 745.873 134.15 745.873 134.59C745.873 135.03 745.723 135.4 745.423 135.7C745.143 136 744.793 136.15 744.373 136.15Z" fill="black"/>
</svg>
