<svg width="1217" height="157" viewBox="0 0 1217 157" fill="none" xmlns="http://www.w3.org/2000/svg">
<rect width="1217" height="157" rx="20" fill="white"/>
<path d="M46.39 24.0056C48.59 24.0056 50.52 24.4356 52.18 25.2956C53.86 26.1556 55.15 27.3856 56.05 28.9856C56.97 30.5656 57.43 32.4056 57.43 34.5056C57.43 36.6056 56.97 38.4456 56.05 40.0256C55.15 41.5856 53.86 42.7956 52.18 43.6556C50.52 44.5156 48.59 44.9456 46.39 44.9456H39.07V24.0056H46.39ZM46.24 41.3756C48.44 41.3756 50.14 40.7756 51.34 39.5756C52.54 38.3756 53.14 36.6856 53.14 34.5056C53.14 32.3256 52.54 30.6256 51.34 29.4056C50.14 28.1656 48.44 27.5456 46.24 27.5456H43.27V41.3756H46.24ZM64.7739 30.9056C65.3139 30.0256 66.0139 29.3356 66.8739 28.8356C67.7539 28.3356 68.7539 28.0856 69.8739 28.0856V32.4956H68.7639C67.4439 32.4956 66.4439 32.8056 65.7639 33.4256C65.1039 34.0456 64.7739 35.1256 64.7739 36.6656V44.9456H60.5739V28.3256H64.7739V30.9056ZM80.0828 45.2156C78.4828 45.2156 77.0428 44.8656 75.7628 44.1656C74.4828 43.4456 73.4728 42.4356 72.7328 41.1356C72.0128 39.8356 71.6528 38.3356 71.6528 36.6356C71.6528 34.9356 72.0228 33.4356 72.7628 32.1356C73.5228 30.8356 74.5528 29.8356 75.8528 29.1356C77.1528 28.4156 78.6028 28.0556 80.2028 28.0556C81.8028 28.0556 83.2528 28.4156 84.5528 29.1356C85.8528 29.8356 86.8728 30.8356 87.6128 32.1356C88.3728 33.4356 88.7528 34.9356 88.7528 36.6356C88.7528 38.3356 88.3628 39.8356 87.5828 41.1356C86.8228 42.4356 85.7828 43.4456 84.4628 44.1656C83.1628 44.8656 81.7028 45.2156 80.0828 45.2156ZM80.0828 41.5556C80.8428 41.5556 81.5528 41.3756 82.2128 41.0156C82.8928 40.6356 83.4328 40.0756 83.8328 39.3356C84.2328 38.5956 84.4328 37.6956 84.4328 36.6356C84.4328 35.0556 84.0128 33.8456 83.1728 33.0056C82.3528 32.1456 81.3428 31.7156 80.1428 31.7156C78.9428 31.7156 77.9328 32.1456 77.1128 33.0056C76.3128 33.8456 75.9128 35.0556 75.9128 36.6356C75.9128 38.2156 76.3028 39.4356 77.0828 40.2956C77.8828 41.1356 78.8828 41.5556 80.0828 41.5556ZM101.044 28.0856C103.024 28.0856 104.624 28.7156 105.844 29.9756C107.064 31.2156 107.674 32.9556 107.674 35.1956V44.9456H103.474V35.7656C103.474 34.4456 103.144 33.4356 102.484 32.7356C101.824 32.0156 100.924 31.6556 99.7837 31.6556C98.6237 31.6556 97.7037 32.0156 97.0237 32.7356C96.3637 33.4356 96.0337 34.4456 96.0337 35.7656V44.9456H91.8337V28.3256H96.0337V30.3956C96.5937 29.6756 97.3037 29.1156 98.1637 28.7156C99.0437 28.2956 100.004 28.0856 101.044 28.0856ZM127.118 36.2756C127.118 36.8756 127.078 37.4156 126.998 37.8956H114.848C114.948 39.0956 115.368 40.0356 116.108 40.7156C116.848 41.3956 117.758 41.7356 118.838 41.7356C120.398 41.7356 121.508 41.0656 122.168 39.7256H126.698C126.218 41.3256 125.298 42.6456 123.938 43.6856C122.578 44.7056 120.908 45.2156 118.928 45.2156C117.328 45.2156 115.888 44.8656 114.608 44.1656C113.348 43.4456 112.358 42.4356 111.638 41.1356C110.938 39.8356 110.588 38.3356 110.588 36.6356C110.588 34.9156 110.938 33.4056 111.638 32.1056C112.338 30.8056 113.318 29.8056 114.578 29.1056C115.838 28.4056 117.288 28.0556 118.928 28.0556C120.508 28.0556 121.918 28.3956 123.158 29.0756C124.418 29.7556 125.388 30.7256 126.068 31.9856C126.768 33.2256 127.118 34.6556 127.118 36.2756ZM122.768 35.0756C122.748 33.9956 122.358 33.1356 121.598 32.4956C120.838 31.8356 119.908 31.5056 118.808 31.5056C117.768 31.5056 116.888 31.8256 116.168 32.4656C115.468 33.0856 115.038 33.9556 114.878 35.0756H122.768ZM148.132 44.9456L143.512 36.7856H141.532V44.9456H137.332V24.0056H145.192C146.812 24.0056 148.192 24.2956 149.332 24.8756C150.472 25.4356 151.322 26.2056 151.882 27.1856C152.462 28.1456 152.752 29.2256 152.752 30.4256C152.752 31.8056 152.352 33.0556 151.552 34.1756C150.752 35.2756 149.562 36.0356 147.982 36.4556L152.992 44.9456H148.132ZM141.532 33.6356H145.042C146.182 33.6356 147.032 33.3656 147.592 32.8256C148.152 32.2656 148.432 31.4956 148.432 30.5156C148.432 29.5556 148.152 28.8156 147.592 28.2956C147.032 27.7556 146.182 27.4856 145.042 27.4856H141.532V33.6356ZM172 36.2756C172 36.8756 171.96 37.4156 171.88 37.8956H159.73C159.83 39.0956 160.25 40.0356 160.99 40.7156C161.73 41.3956 162.64 41.7356 163.72 41.7356C165.28 41.7356 166.39 41.0656 167.05 39.7256H171.58C171.1 41.3256 170.18 42.6456 168.82 43.6856C167.46 44.7056 165.79 45.2156 163.81 45.2156C162.21 45.2156 160.77 44.8656 159.49 44.1656C158.23 43.4456 157.24 42.4356 156.52 41.1356C155.82 39.8356 155.47 38.3356 155.47 36.6356C155.47 34.9156 155.82 33.4056 156.52 32.1056C157.22 30.8056 158.2 29.8056 159.46 29.1056C160.72 28.4056 162.17 28.0556 163.81 28.0556C165.39 28.0556 166.8 28.3956 168.04 29.0756C169.3 29.7556 170.27 30.7256 170.95 31.9856C171.65 33.2256 172 34.6556 172 36.2756ZM167.65 35.0756C167.63 33.9956 167.24 33.1356 166.48 32.4956C165.72 31.8356 164.79 31.5056 163.69 31.5056C162.65 31.5056 161.77 31.8256 161.05 32.4656C160.35 33.0856 159.92 33.9556 159.76 35.0756H167.65ZM181.426 45.2156C180.066 45.2156 178.846 44.9756 177.766 44.4956C176.686 43.9956 175.826 43.3256 175.186 42.4856C174.566 41.6456 174.226 40.7156 174.166 39.6956H178.396C178.476 40.3356 178.786 40.8656 179.326 41.2856C179.886 41.7056 180.576 41.9156 181.396 41.9156C182.196 41.9156 182.816 41.7556 183.256 41.4356C183.716 41.1156 183.946 40.7056 183.946 40.2056C183.946 39.6656 183.666 39.2656 183.106 39.0056C182.566 38.7256 181.696 38.4256 180.496 38.1056C179.256 37.8056 178.236 37.4956 177.436 37.1756C176.656 36.8556 175.976 36.3656 175.396 35.7056C174.836 35.0456 174.556 34.1556 174.556 33.0356C174.556 32.1156 174.816 31.2756 175.336 30.5156C175.876 29.7556 176.636 29.1556 177.616 28.7156C178.616 28.2756 179.786 28.0556 181.126 28.0556C183.106 28.0556 184.686 28.5556 185.866 29.5556C187.046 30.5356 187.696 31.8656 187.816 33.5456H183.796C183.736 32.8856 183.456 32.3656 182.956 31.9856C182.476 31.5856 181.826 31.3856 181.006 31.3856C180.246 31.3856 179.656 31.5256 179.236 31.8056C178.836 32.0856 178.636 32.4756 178.636 32.9756C178.636 33.5356 178.916 33.9656 179.476 34.2656C180.036 34.5456 180.906 34.8356 182.086 35.1356C183.286 35.4356 184.276 35.7456 185.056 36.0656C185.836 36.3856 186.506 36.8856 187.066 37.5656C187.646 38.2256 187.946 39.1056 187.966 40.2056C187.966 41.1656 187.696 42.0256 187.156 42.7856C186.636 43.5456 185.876 44.1456 184.876 44.5856C183.896 45.0056 182.746 45.2156 181.426 45.2156ZM190.334 36.6356C190.334 34.9156 190.684 33.4156 191.384 32.1356C192.084 30.8356 193.054 29.8356 194.294 29.1356C195.534 28.4156 196.954 28.0556 198.554 28.0556C200.614 28.0556 202.314 28.5756 203.654 29.6156C205.014 30.6356 205.924 32.0756 206.384 33.9356H201.854C201.614 33.2156 201.204 32.6556 200.624 32.2556C200.064 31.8356 199.364 31.6256 198.524 31.6256C197.324 31.6256 196.374 32.0656 195.674 32.9456C194.974 33.8056 194.624 35.0356 194.624 36.6356C194.624 38.2156 194.974 39.4456 195.674 40.3256C196.374 41.1856 197.324 41.6156 198.524 41.6156C200.224 41.6156 201.334 40.8556 201.854 39.3356H206.384C205.924 41.1356 205.014 42.5656 203.654 43.6256C202.294 44.6856 200.594 45.2156 198.554 45.2156C196.954 45.2156 195.534 44.8656 194.294 44.1656C193.054 43.4456 192.084 42.4456 191.384 41.1656C190.684 39.8656 190.334 38.3556 190.334 36.6356ZM225.151 28.3256V44.9456H220.921V42.8456C220.381 43.5656 219.671 44.1356 218.791 44.5556C217.931 44.9556 216.991 45.1556 215.971 45.1556C214.671 45.1556 213.521 44.8856 212.521 44.3456C211.521 43.7856 210.731 42.9756 210.151 41.9156C209.591 40.8356 209.311 39.5556 209.311 38.0756V28.3256H213.511V37.4756C213.511 38.7956 213.841 39.8156 214.501 40.5356C215.161 41.2356 216.061 41.5856 217.201 41.5856C218.361 41.5856 219.271 41.2356 219.931 40.5356C220.591 39.8156 220.921 38.7956 220.921 37.4756V28.3256H225.151ZM244.745 36.2756C244.745 36.8756 244.705 37.4156 244.625 37.8956H232.475C232.575 39.0956 232.995 40.0356 233.735 40.7156C234.475 41.3956 235.385 41.7356 236.465 41.7356C238.025 41.7356 239.135 41.0656 239.795 39.7256H244.325C243.845 41.3256 242.925 42.6456 241.565 43.6856C240.205 44.7056 238.535 45.2156 236.555 45.2156C234.955 45.2156 233.515 44.8656 232.235 44.1656C230.975 43.4456 229.985 42.4356 229.265 41.1356C228.565 39.8356 228.215 38.3356 228.215 36.6356C228.215 34.9156 228.565 33.4056 229.265 32.1056C229.965 30.8056 230.945 29.8056 232.205 29.1056C233.465 28.4056 234.915 28.0556 236.555 28.0556C238.135 28.0556 239.545 28.3956 240.785 29.0756C242.045 29.7556 243.015 30.7256 243.695 31.9856C244.395 33.2256 244.745 34.6556 244.745 36.2756ZM240.395 35.0756C240.375 33.9956 239.985 33.1356 239.225 32.4956C238.465 31.8356 237.535 31.5056 236.435 31.5056C235.395 31.5056 234.515 31.8256 233.795 32.4656C233.095 33.0856 232.665 33.9556 232.505 35.0756H240.395ZM253.939 34.4456C253.939 32.3856 254.399 30.5456 255.319 28.9256C256.259 27.2856 257.529 26.0156 259.129 25.1156C260.749 24.1956 262.559 23.7356 264.559 23.7356C266.899 23.7356 268.949 24.3356 270.709 25.5356C272.469 26.7356 273.699 28.3956 274.399 30.5156H269.569C269.089 29.5156 268.409 28.7656 267.529 28.2656C266.669 27.7656 265.669 27.5156 264.529 27.5156C263.309 27.5156 262.219 27.8056 261.259 28.3856C260.319 28.9456 259.579 29.7456 259.039 30.7856C258.519 31.8256 258.259 33.0456 258.259 34.4456C258.259 35.8256 258.519 37.0456 259.039 38.1056C259.579 39.1456 260.319 39.9556 261.259 40.5356C262.219 41.0956 263.309 41.3756 264.529 41.3756C265.669 41.3756 266.669 41.1256 267.529 40.6256C268.409 40.1056 269.089 39.3456 269.569 38.3456H274.399C273.699 40.4856 272.469 42.1556 270.709 43.3556C268.969 44.5356 266.919 45.1256 264.559 45.1256C262.559 45.1256 260.749 44.6756 259.129 43.7756C257.529 42.8556 256.259 41.5856 255.319 39.9656C254.399 38.3456 253.939 36.5056 253.939 34.4456ZM287.346 28.0856C288.606 28.0856 289.726 28.3656 290.706 28.9256C291.686 29.4656 292.446 30.2756 292.986 31.3556C293.546 32.4156 293.826 33.6956 293.826 35.1956V44.9456H289.626V35.7656C289.626 34.4456 289.296 33.4356 288.636 32.7356C287.976 32.0156 287.076 31.6556 285.936 31.6556C284.776 31.6556 283.856 32.0156 283.176 32.7356C282.516 33.4356 282.186 34.4456 282.186 35.7656V44.9456H277.986V22.7456H282.186V30.3956C282.726 29.6756 283.446 29.1156 284.346 28.7156C285.246 28.2956 286.246 28.0856 287.346 28.0856ZM296.74 36.5756C296.74 34.8956 297.07 33.4056 297.73 32.1056C298.41 30.8056 299.32 29.8056 300.46 29.1056C301.62 28.4056 302.91 28.0556 304.33 28.0556C305.57 28.0556 306.65 28.3056 307.57 28.8056C308.51 29.3056 309.26 29.9356 309.82 30.6956V28.3256H314.05V44.9456H309.82V42.5156C309.28 43.2956 308.53 43.9456 307.57 44.4656C306.63 44.9656 305.54 45.2156 304.3 45.2156C302.9 45.2156 301.62 44.8556 300.46 44.1356C299.32 43.4156 298.41 42.4056 297.73 41.1056C297.07 39.7856 296.74 38.2756 296.74 36.5756ZM309.82 36.6356C309.82 35.6156 309.62 34.7456 309.22 34.0256C308.82 33.2856 308.28 32.7256 307.6 32.3456C306.92 31.9456 306.19 31.7456 305.41 31.7456C304.63 31.7456 303.91 31.9356 303.25 32.3156C302.59 32.6956 302.05 33.2556 301.63 33.9956C301.23 34.7156 301.03 35.5756 301.03 36.5756C301.03 37.5756 301.23 38.4556 301.63 39.2156C302.05 39.9556 302.59 40.5256 303.25 40.9256C303.93 41.3256 304.65 41.5256 305.41 41.5256C306.19 41.5256 306.92 41.3356 307.6 40.9556C308.28 40.5556 308.82 39.9956 309.22 39.2756C309.62 38.5356 309.82 37.6556 309.82 36.6356ZM322.352 22.7456V44.9456H318.152V22.7456H322.352ZM330.702 22.7456V44.9456H326.502V22.7456H330.702ZM350.301 36.2756C350.301 36.8756 350.261 37.4156 350.181 37.8956H338.031C338.131 39.0956 338.551 40.0356 339.291 40.7156C340.031 41.3956 340.941 41.7356 342.021 41.7356C343.581 41.7356 344.691 41.0656 345.351 39.7256H349.881C349.401 41.3256 348.481 42.6456 347.121 43.6856C345.761 44.7056 344.091 45.2156 342.111 45.2156C340.511 45.2156 339.071 44.8656 337.791 44.1656C336.531 43.4456 335.541 42.4356 334.821 41.1356C334.121 39.8356 333.771 38.3356 333.771 36.6356C333.771 34.9156 334.121 33.4056 334.821 32.1056C335.521 30.8056 336.501 29.8056 337.761 29.1056C339.021 28.4056 340.471 28.0556 342.111 28.0556C343.691 28.0556 345.101 28.3956 346.341 29.0756C347.601 29.7556 348.571 30.7256 349.251 31.9856C349.951 33.2256 350.301 34.6556 350.301 36.2756ZM345.951 35.0756C345.931 33.9956 345.541 33.1356 344.781 32.4956C344.021 31.8356 343.091 31.5056 341.991 31.5056C340.951 31.5056 340.071 31.8256 339.351 32.4656C338.651 33.0856 338.221 33.9556 338.061 35.0756H345.951ZM362.577 28.0856C364.557 28.0856 366.157 28.7156 367.377 29.9756C368.597 31.2156 369.207 32.9556 369.207 35.1956V44.9456H365.007V35.7656C365.007 34.4456 364.677 33.4356 364.017 32.7356C363.357 32.0156 362.457 31.6556 361.317 31.6556C360.157 31.6556 359.237 32.0156 358.557 32.7356C357.897 33.4356 357.567 34.4456 357.567 35.7656V44.9456H353.367V28.3256H357.567V30.3956C358.127 29.6756 358.837 29.1156 359.697 28.7156C360.577 28.2956 361.537 28.0856 362.577 28.0856ZM379.711 28.0556C380.951 28.0556 382.041 28.3056 382.981 28.8056C383.921 29.2856 384.661 29.9156 385.201 30.6956V28.3256H389.431V45.0656C389.431 46.6056 389.121 47.9756 388.501 49.1756C387.881 50.3956 386.951 51.3556 385.711 52.0556C384.471 52.7756 382.971 53.1356 381.211 53.1356C378.851 53.1356 376.911 52.5856 375.391 51.4856C373.891 50.3856 373.041 48.8856 372.841 46.9856H377.011C377.231 47.7456 377.701 48.3456 378.421 48.7856C379.161 49.2456 380.051 49.4756 381.091 49.4756C382.311 49.4756 383.301 49.1056 384.061 48.3656C384.821 47.6456 385.201 46.5456 385.201 45.0656V42.4856C384.661 43.2656 383.911 43.9156 382.951 44.4356C382.011 44.9556 380.931 45.2156 379.711 45.2156C378.311 45.2156 377.031 44.8556 375.871 44.1356C374.711 43.4156 373.791 42.4056 373.111 41.1056C372.451 39.7856 372.121 38.2756 372.121 36.5756C372.121 34.8956 372.451 33.4056 373.111 32.1056C373.791 30.8056 374.701 29.8056 375.841 29.1056C377.001 28.4056 378.291 28.0556 379.711 28.0556ZM385.201 36.6356C385.201 35.6156 385.001 34.7456 384.601 34.0256C384.201 33.2856 383.661 32.7256 382.981 32.3456C382.301 31.9456 381.571 31.7456 380.791 31.7456C380.011 31.7456 379.291 31.9356 378.631 32.3156C377.971 32.6956 377.431 33.2556 377.011 33.9956C376.611 34.7156 376.411 35.5756 376.411 36.5756C376.411 37.5756 376.611 38.4556 377.011 39.2156C377.431 39.9556 377.971 40.5256 378.631 40.9256C379.311 41.3256 380.031 41.5256 380.791 41.5256C381.571 41.5256 382.301 41.3356 382.981 40.9556C383.661 40.5556 384.201 39.9956 384.601 39.2756C385.001 38.5356 385.201 37.6556 385.201 36.6356ZM408.983 36.2756C408.983 36.8756 408.943 37.4156 408.863 37.8956H396.713C396.813 39.0956 397.233 40.0356 397.973 40.7156C398.713 41.3956 399.623 41.7356 400.703 41.7356C402.263 41.7356 403.373 41.0656 404.033 39.7256H408.563C408.083 41.3256 407.163 42.6456 405.803 43.6856C404.443 44.7056 402.773 45.2156 400.793 45.2156C399.193 45.2156 397.753 44.8656 396.473 44.1656C395.213 43.4456 394.223 42.4356 393.503 41.1356C392.803 39.8356 392.453 38.3356 392.453 36.6356C392.453 34.9156 392.803 33.4056 393.503 32.1056C394.203 30.8056 395.183 29.8056 396.443 29.1056C397.703 28.4056 399.153 28.0556 400.793 28.0556C402.373 28.0556 403.783 28.3956 405.023 29.0756C406.283 29.7556 407.253 30.7256 407.933 31.9856C408.633 33.2256 408.983 34.6556 408.983 36.2756ZM404.633 35.0756C404.613 33.9956 404.223 33.1356 403.463 32.4956C402.703 31.8356 401.773 31.5056 400.673 31.5056C399.633 31.5056 398.753 31.8256 398.033 32.4656C397.333 33.0856 396.903 33.9556 396.743 35.0756H404.633ZM426.457 50.8556C424.517 48.9756 423.007 46.5756 421.927 43.6556C420.867 40.7356 420.337 37.6056 420.337 34.2656C420.337 30.8456 420.897 27.6356 422.017 24.6356C423.137 21.6156 424.767 19.1456 426.907 17.2256H431.137V17.6156C428.937 19.7156 427.257 22.2356 426.097 25.1756C424.957 28.1156 424.387 31.1456 424.387 34.2656C424.387 37.3056 424.927 40.2456 426.007 43.0856C427.107 45.9056 428.667 48.3556 430.687 50.4356V50.8556H426.457ZM448.008 24.0056V27.3956H442.428V44.9456H438.228V27.3956H432.648V24.0056H448.008ZM466.522 36.2756C466.522 36.8756 466.482 37.4156 466.402 37.8956H454.252C454.352 39.0956 454.772 40.0356 455.512 40.7156C456.252 41.3956 457.162 41.7356 458.242 41.7356C459.802 41.7356 460.912 41.0656 461.572 39.7256H466.102C465.622 41.3256 464.702 42.6456 463.342 43.6856C461.982 44.7056 460.312 45.2156 458.332 45.2156C456.732 45.2156 455.292 44.8656 454.012 44.1656C452.752 43.4456 451.762 42.4356 451.042 41.1356C450.342 39.8356 449.992 38.3356 449.992 36.6356C449.992 34.9156 450.342 33.4056 451.042 32.1056C451.742 30.8056 452.722 29.8056 453.982 29.1056C455.242 28.4056 456.692 28.0556 458.332 28.0556C459.912 28.0556 461.322 28.3956 462.562 29.0756C463.822 29.7556 464.792 30.7256 465.472 31.9856C466.172 33.2256 466.522 34.6556 466.522 36.2756ZM462.172 35.0756C462.152 33.9956 461.762 33.1356 461.002 32.4956C460.242 31.8356 459.312 31.5056 458.212 31.5056C457.172 31.5056 456.292 31.8256 455.572 32.4656C454.872 33.0856 454.442 33.9556 454.282 35.0756H462.172ZM468.508 36.6356C468.508 34.9156 468.858 33.4156 469.558 32.1356C470.258 30.8356 471.228 29.8356 472.468 29.1356C473.708 28.4156 475.128 28.0556 476.728 28.0556C478.788 28.0556 480.488 28.5756 481.828 29.6156C483.188 30.6356 484.098 32.0756 484.558 33.9356H480.028C479.788 33.2156 479.378 32.6556 478.798 32.2556C478.238 31.8356 477.538 31.6256 476.698 31.6256C475.498 31.6256 474.548 32.0656 473.848 32.9456C473.148 33.8056 472.798 35.0356 472.798 36.6356C472.798 38.2156 473.148 39.4456 473.848 40.3256C474.548 41.1856 475.498 41.6156 476.698 41.6156C478.398 41.6156 479.508 40.8556 480.028 39.3356H484.558C484.098 41.1356 483.188 42.5656 481.828 43.6256C480.468 44.6856 478.768 45.2156 476.728 45.2156C475.128 45.2156 473.708 44.8656 472.468 44.1656C471.228 43.4456 470.258 42.4456 469.558 41.1656C468.858 39.8656 468.508 38.3556 468.508 36.6356ZM496.994 28.0856C498.254 28.0856 499.374 28.3656 500.354 28.9256C501.334 29.4656 502.094 30.2756 502.634 31.3556C503.194 32.4156 503.474 33.6956 503.474 35.1956V44.9456H499.274V35.7656C499.274 34.4456 498.944 33.4356 498.284 32.7356C497.624 32.0156 496.724 31.6556 495.584 31.6556C494.424 31.6556 493.504 32.0156 492.824 32.7356C492.164 33.4356 491.834 34.4456 491.834 35.7656V44.9456H487.634V22.7456H491.834V30.3956C492.374 29.6756 493.094 29.1156 493.994 28.7156C494.894 28.2956 495.894 28.0856 496.994 28.0856ZM516.678 28.0856C518.658 28.0856 520.258 28.7156 521.478 29.9756C522.698 31.2156 523.308 32.9556 523.308 35.1956V44.9456H519.108V35.7656C519.108 34.4456 518.778 33.4356 518.118 32.7356C517.458 32.0156 516.558 31.6556 515.418 31.6556C514.258 31.6556 513.338 32.0156 512.658 32.7356C511.998 33.4356 511.668 34.4456 511.668 35.7656V44.9456H507.468V28.3256H511.668V30.3956C512.228 29.6756 512.938 29.1156 513.798 28.7156C514.678 28.2956 515.638 28.0856 516.678 28.0856ZM534.682 45.2156C533.082 45.2156 531.642 44.8656 530.362 44.1656C529.082 43.4456 528.072 42.4356 527.332 41.1356C526.612 39.8356 526.252 38.3356 526.252 36.6356C526.252 34.9356 526.622 33.4356 527.362 32.1356C528.122 30.8356 529.152 29.8356 530.452 29.1356C531.752 28.4156 533.202 28.0556 534.802 28.0556C536.402 28.0556 537.852 28.4156 539.152 29.1356C540.452 29.8356 541.472 30.8356 542.212 32.1356C542.972 33.4356 543.352 34.9356 543.352 36.6356C543.352 38.3356 542.962 39.8356 542.182 41.1356C541.422 42.4356 540.382 43.4456 539.062 44.1656C537.762 44.8656 536.302 45.2156 534.682 45.2156ZM534.682 41.5556C535.442 41.5556 536.152 41.3756 536.812 41.0156C537.492 40.6356 538.032 40.0756 538.432 39.3356C538.832 38.5956 539.032 37.6956 539.032 36.6356C539.032 35.0556 538.612 33.8456 537.772 33.0056C536.952 32.1456 535.942 31.7156 534.742 31.7156C533.542 31.7156 532.532 32.1456 531.712 33.0056C530.912 33.8456 530.512 35.0556 530.512 36.6356C530.512 38.2156 530.902 39.4356 531.682 40.2956C532.482 41.1356 533.482 41.5556 534.682 41.5556ZM558.973 44.9456L554.443 37.8956L550.333 44.9456H545.593L552.193 34.3856L545.503 24.0056H550.333L554.863 31.0256L558.943 24.0056H563.683L557.113 34.5356L563.803 44.9456H558.973ZM569.13 26.3456C568.39 26.3456 567.77 26.1156 567.27 25.6556C566.79 25.1756 566.55 24.5856 566.55 23.8856C566.55 23.1856 566.79 22.6056 567.27 22.1456C567.77 21.6656 568.39 21.4256 569.13 21.4256C569.87 21.4256 570.48 21.6656 570.96 22.1456C571.46 22.6056 571.71 23.1856 571.71 23.8856C571.71 24.5856 571.46 25.1756 570.96 25.6556C570.48 26.1156 569.87 26.3456 569.13 26.3456ZM571.2 28.3256V44.9456H567V28.3256H571.2ZM574.269 36.5756C574.269 34.8956 574.599 33.4056 575.259 32.1056C575.939 30.8056 576.849 29.8056 577.989 29.1056C579.149 28.4056 580.439 28.0556 581.859 28.0556C583.099 28.0556 584.179 28.3056 585.099 28.8056C586.039 29.3056 586.789 29.9356 587.349 30.6956V28.3256H591.579V44.9456H587.349V42.5156C586.809 43.2956 586.059 43.9456 585.099 44.4656C584.159 44.9656 583.069 45.2156 581.829 45.2156C580.429 45.2156 579.149 44.8556 577.989 44.1356C576.849 43.4156 575.939 42.4056 575.259 41.1056C574.599 39.7856 574.269 38.2756 574.269 36.5756ZM587.349 36.6356C587.349 35.6156 587.149 34.7456 586.749 34.0256C586.349 33.2856 585.809 32.7256 585.129 32.3456C584.449 31.9456 583.719 31.7456 582.939 31.7456C582.159 31.7456 581.439 31.9356 580.779 32.3156C580.119 32.6956 579.579 33.2556 579.159 33.9956C578.759 34.7156 578.559 35.5756 578.559 36.5756C578.559 37.5756 578.759 38.4556 579.159 39.2156C579.579 39.9556 580.119 40.5256 580.779 40.9256C581.459 41.3256 582.179 41.5256 582.939 41.5256C583.719 41.5256 584.449 41.3356 585.129 40.9556C585.809 40.5556 586.349 39.9956 586.749 39.2756C587.149 38.5356 587.349 37.6556 587.349 36.6356ZM604.891 28.0856C606.871 28.0856 608.471 28.7156 609.691 29.9756C610.911 31.2156 611.521 32.9556 611.521 35.1956V44.9456H607.321V35.7656C607.321 34.4456 606.991 33.4356 606.331 32.7356C605.671 32.0156 604.771 31.6556 603.631 31.6556C602.471 31.6556 601.551 32.0156 600.871 32.7356C600.211 33.4356 599.881 34.4456 599.881 35.7656V44.9456H595.681V28.3256H599.881V30.3956C600.441 29.6756 601.151 29.1156 602.011 28.7156C602.891 28.2956 603.851 28.0856 604.891 28.0856ZM614.435 50.8556V50.4356C616.455 48.3556 618.005 45.9056 619.085 43.0856C620.185 40.2456 620.735 37.3056 620.735 34.2656C620.735 31.1456 620.155 28.1156 618.995 25.1756C617.855 22.2356 616.185 19.7156 613.985 17.6156V17.2256H618.215C620.355 19.1456 621.985 21.6156 623.105 24.6356C624.225 27.6356 624.785 30.8456 624.785 34.2656C624.785 37.6056 624.245 40.7356 623.165 43.6556C622.105 46.5756 620.605 48.9756 618.665 50.8556H614.435ZM51.67 68.9756V70.7156H45.85V89.9456H43.75V70.7156H37.9V68.9756H51.67ZM69.8059 80.9156C69.8059 81.6356 69.7859 82.1856 69.7459 82.5656H56.1559C56.2159 83.8056 56.5159 84.8656 57.0559 85.7456C57.5959 86.6256 58.3059 87.2956 59.1859 87.7556C60.0659 88.1956 61.0259 88.4156 62.0659 88.4156C63.4259 88.4156 64.5659 88.0856 65.4859 87.4256C66.4259 86.7656 67.0459 85.8756 67.3459 84.7556H69.5659C69.1659 86.3556 68.3059 87.6656 66.9859 88.6856C65.6859 89.6856 64.0459 90.1856 62.0659 90.1856C60.5259 90.1856 59.1459 89.8456 57.9259 89.1656C56.7059 88.4656 55.7459 87.4856 55.0459 86.2256C54.3659 84.9456 54.0259 83.4556 54.0259 81.7556C54.0259 80.0556 54.3659 78.5656 55.0459 77.2856C55.7259 76.0056 56.6759 75.0256 57.8959 74.3456C59.1159 73.6656 60.5059 73.3256 62.0659 73.3256C63.6259 73.3256 64.9859 73.6656 66.1459 74.3456C67.3259 75.0256 68.2259 75.9456 68.8459 77.1056C69.4859 78.2456 69.8059 79.5156 69.8059 80.9156ZM67.6759 80.8556C67.6959 79.6356 67.4459 78.5956 66.9259 77.7356C66.4259 76.8756 65.7359 76.2256 64.8559 75.7856C63.9759 75.3456 63.0159 75.1256 61.9759 75.1256C60.4159 75.1256 59.0859 75.6256 57.9859 76.6256C56.8859 77.6256 56.2759 79.0356 56.1559 80.8556H67.6759ZM72.688 81.7256C72.688 80.0456 73.018 78.5756 73.678 77.3156C74.358 76.0356 75.288 75.0556 76.468 74.3756C77.668 73.6756 79.018 73.3256 80.518 73.3256C82.078 73.3256 83.418 73.6856 84.538 74.4056C85.678 75.1256 86.498 76.0456 86.998 77.1656V73.5656H89.098V89.9456H86.998V86.3156C86.478 87.4356 85.648 88.3656 84.508 89.1056C83.388 89.8256 82.048 90.1856 80.488 90.1856C79.008 90.1856 77.668 89.8356 76.468 89.1356C75.288 88.4356 74.358 87.4456 73.678 86.1656C73.018 84.8856 72.688 83.4056 72.688 81.7256ZM86.998 81.7556C86.998 80.4356 86.728 79.2756 86.188 78.2756C85.648 77.2756 84.908 76.5056 83.968 75.9656C83.048 75.4256 82.028 75.1556 80.908 75.1556C79.748 75.1556 78.708 75.4156 77.788 75.9356C76.868 76.4556 76.138 77.2156 75.598 78.2156C75.078 79.1956 74.818 80.3656 74.818 81.7256C74.818 83.0656 75.078 84.2456 75.598 85.2656C76.138 86.2656 76.868 87.0356 77.788 87.5756C78.708 88.0956 79.748 88.3556 80.908 88.3556C82.028 88.3556 83.048 88.0856 83.968 87.5456C84.908 87.0056 85.648 86.2356 86.188 85.2356C86.728 84.2356 86.998 83.0756 86.998 81.7556ZM113.392 73.2656C115.312 73.2656 116.872 73.8756 118.072 75.0956C119.292 76.2956 119.902 78.0456 119.902 80.3456V89.9456H117.832V80.5856C117.832 78.8056 117.402 77.4456 116.542 76.5056C115.682 75.5656 114.512 75.0956 113.032 75.0956C111.492 75.0956 110.262 75.6056 109.342 76.6256C108.422 77.6456 107.962 79.1256 107.962 81.0656V89.9456H105.892V80.5856C105.892 78.8056 105.462 77.4456 104.602 76.5056C103.742 75.5656 102.562 75.0956 101.062 75.0956C99.5222 75.0956 98.2922 75.6056 97.3722 76.6256C96.4522 77.6456 95.9922 79.1256 95.9922 81.0656V89.9456H93.8922V73.5656H95.9922V76.3856C96.5122 75.3656 97.2522 74.5956 98.2122 74.0756C99.1722 73.5356 100.242 73.2656 101.422 73.2656C102.842 73.2656 104.082 73.6056 105.142 74.2856C106.222 74.9656 107.002 75.9656 107.482 77.2856C107.922 75.9856 108.672 74.9956 109.732 74.3156C110.812 73.6156 112.032 73.2656 113.392 73.2656ZM130.206 90.1856C128.326 90.1856 126.786 89.7556 125.586 88.8956C124.406 88.0156 123.746 86.8256 123.606 85.3256H125.766C125.866 86.2456 126.296 86.9956 127.056 87.5756C127.836 88.1356 128.876 88.4156 130.176 88.4156C131.316 88.4156 132.206 88.1456 132.846 87.6056C133.506 87.0656 133.836 86.3956 133.836 85.5956C133.836 85.0356 133.656 84.5756 133.296 84.2156C132.936 83.8556 132.476 83.5756 131.916 83.3756C131.376 83.1556 130.636 82.9256 129.696 82.6856C128.476 82.3656 127.486 82.0456 126.726 81.7256C125.966 81.4056 125.316 80.9356 124.776 80.3156C124.256 79.6756 123.996 78.8256 123.996 77.7656C123.996 76.9656 124.236 76.2256 124.716 75.5456C125.196 74.8656 125.876 74.3256 126.756 73.9256C127.636 73.5256 128.636 73.3256 129.756 73.3256C131.516 73.3256 132.936 73.7756 134.016 74.6756C135.096 75.5556 135.676 76.7756 135.756 78.3356H133.656C133.596 77.3756 133.216 76.6056 132.516 76.0256C131.836 75.4256 130.896 75.1256 129.696 75.1256C128.636 75.1256 127.776 75.3756 127.116 75.8756C126.456 76.3756 126.126 76.9956 126.126 77.7356C126.126 78.3756 126.316 78.9056 126.696 79.3256C127.096 79.7256 127.586 80.0456 128.166 80.2856C128.746 80.5056 129.526 80.7556 130.506 81.0356C131.686 81.3556 132.626 81.6656 133.326 81.9656C134.026 82.2656 134.626 82.7056 135.126 83.2856C135.626 83.8656 135.886 84.6356 135.906 85.5956C135.906 86.4756 135.666 87.2656 135.186 87.9656C134.706 88.6456 134.036 89.1856 133.176 89.5856C132.316 89.9856 131.326 90.1856 130.206 90.1856ZM147.131 81.7256C147.131 80.0456 147.471 78.5756 148.151 77.3156C148.831 76.0356 149.761 75.0556 150.941 74.3756C152.141 73.6756 153.491 73.3256 154.991 73.3256C156.431 73.3256 157.731 73.6756 158.891 74.3756C160.051 75.0756 160.901 75.9856 161.441 77.1056V67.7456H163.541V89.9456H161.441V86.2856C160.941 87.4256 160.121 88.3656 158.981 89.1056C157.841 89.8256 156.501 90.1856 154.961 90.1856C153.461 90.1856 152.111 89.8356 150.911 89.1356C149.731 88.4356 148.801 87.4456 148.121 86.1656C147.461 84.8856 147.131 83.4056 147.131 81.7256ZM161.441 81.7556C161.441 80.4356 161.171 79.2756 160.631 78.2756C160.091 77.2756 159.351 76.5056 158.411 75.9656C157.491 75.4256 156.471 75.1556 155.351 75.1556C154.191 75.1556 153.151 75.4156 152.231 75.9356C151.311 76.4556 150.581 77.2156 150.041 78.2156C149.521 79.1956 149.261 80.3656 149.261 81.7256C149.261 83.0656 149.521 84.2456 150.041 85.2656C150.581 86.2656 151.311 87.0356 152.231 87.5756C153.151 88.0956 154.191 88.3556 155.351 88.3556C156.471 88.3556 157.491 88.0856 158.411 87.5456C159.351 87.0056 160.091 86.2356 160.631 85.2356C161.171 84.2356 161.441 83.0756 161.441 81.7556ZM183.156 80.9156C183.156 81.6356 183.136 82.1856 183.096 82.5656H169.506C169.566 83.8056 169.866 84.8656 170.406 85.7456C170.946 86.6256 171.656 87.2956 172.536 87.7556C173.416 88.1956 174.376 88.4156 175.416 88.4156C176.776 88.4156 177.916 88.0856 178.836 87.4256C179.776 86.7656 180.396 85.8756 180.696 84.7556H182.916C182.516 86.3556 181.656 87.6656 180.336 88.6856C179.036 89.6856 177.396 90.1856 175.416 90.1856C173.876 90.1856 172.496 89.8456 171.276 89.1656C170.056 88.4656 169.096 87.4856 168.396 86.2256C167.716 84.9456 167.376 83.4556 167.376 81.7556C167.376 80.0556 167.716 78.5656 168.396 77.2856C169.076 76.0056 170.026 75.0256 171.246 74.3456C172.466 73.6656 173.856 73.3256 175.416 73.3256C176.976 73.3256 178.336 73.6656 179.496 74.3456C180.676 75.0256 181.576 75.9456 182.196 77.1056C182.836 78.2456 183.156 79.5156 183.156 80.9156ZM181.026 80.8556C181.046 79.6356 180.796 78.5956 180.276 77.7356C179.776 76.8756 179.086 76.2256 178.206 75.7856C177.326 75.3456 176.366 75.1256 175.326 75.1256C173.766 75.1256 172.436 75.6256 171.336 76.6256C170.236 77.6256 169.626 79.0356 169.506 80.8556H181.026ZM192.638 90.1856C190.758 90.1856 189.218 89.7556 188.018 88.8956C186.838 88.0156 186.178 86.8256 186.038 85.3256H188.198C188.298 86.2456 188.728 86.9956 189.488 87.5756C190.268 88.1356 191.308 88.4156 192.608 88.4156C193.748 88.4156 194.638 88.1456 195.278 87.6056C195.938 87.0656 196.268 86.3956 196.268 85.5956C196.268 85.0356 196.088 84.5756 195.728 84.2156C195.368 83.8556 194.908 83.5756 194.348 83.3756C193.808 83.1556 193.068 82.9256 192.128 82.6856C190.908 82.3656 189.918 82.0456 189.158 81.7256C188.398 81.4056 187.748 80.9356 187.208 80.3156C186.688 79.6756 186.428 78.8256 186.428 77.7656C186.428 76.9656 186.668 76.2256 187.148 75.5456C187.628 74.8656 188.308 74.3256 189.188 73.9256C190.068 73.5256 191.068 73.3256 192.188 73.3256C193.948 73.3256 195.368 73.7756 196.448 74.6756C197.528 75.5556 198.108 76.7756 198.188 78.3356H196.088C196.028 77.3756 195.648 76.6056 194.948 76.0256C194.268 75.4256 193.328 75.1256 192.128 75.1256C191.068 75.1256 190.208 75.3756 189.548 75.8756C188.888 76.3756 188.558 76.9956 188.558 77.7356C188.558 78.3756 188.748 78.9056 189.128 79.3256C189.528 79.7256 190.018 80.0456 190.598 80.2856C191.178 80.5056 191.958 80.7556 192.938 81.0356C194.118 81.3556 195.058 81.6656 195.758 81.9656C196.458 82.2656 197.058 82.7056 197.558 83.2856C198.058 83.8656 198.318 84.6356 198.338 85.5956C198.338 86.4756 198.098 87.2656 197.618 87.9656C197.138 88.6456 196.468 89.1856 195.608 89.5856C194.748 89.9856 193.758 90.1856 192.638 90.1856ZM203.341 70.4756C202.921 70.4756 202.561 70.3256 202.261 70.0256C201.961 69.7256 201.811 69.3556 201.811 68.9156C201.811 68.4756 201.961 68.1156 202.261 67.8356C202.561 67.5356 202.921 67.3856 203.341 67.3856C203.761 67.3856 204.121 67.5356 204.421 67.8356C204.721 68.1156 204.871 68.4756 204.871 68.9156C204.871 69.3556 204.721 69.7256 204.421 70.0256C204.121 70.3256 203.761 70.4756 203.341 70.4756ZM204.391 73.5656V89.9456H202.291V73.5656H204.391ZM216.016 73.3256C217.556 73.3256 218.896 73.6856 220.036 74.4056C221.176 75.1256 221.996 76.0356 222.496 77.1356V73.5656H224.596V90.3656C224.596 91.8656 224.266 93.1956 223.606 94.3556C222.966 95.5156 222.066 96.4056 220.906 97.0256C219.746 97.6656 218.426 97.9856 216.946 97.9856C214.846 97.9856 213.096 97.4856 211.696 96.4856C210.316 95.4856 209.456 94.1256 209.116 92.4056H211.186C211.546 93.5456 212.226 94.4556 213.226 95.1356C214.246 95.8156 215.486 96.1556 216.946 96.1556C218.006 96.1556 218.956 95.9256 219.796 95.4656C220.636 95.0256 221.296 94.3656 221.776 93.4856C222.256 92.6056 222.496 91.5656 222.496 90.3656V86.3156C221.976 87.4356 221.146 88.3656 220.006 89.1056C218.886 89.8256 217.556 90.1856 216.016 90.1856C214.516 90.1856 213.166 89.8356 211.966 89.1356C210.786 88.4356 209.856 87.4456 209.176 86.1656C208.516 84.8856 208.186 83.4056 208.186 81.7256C208.186 80.0456 208.516 78.5756 209.176 77.3156C209.856 76.0356 210.786 75.0556 211.966 74.3756C213.166 73.6756 214.516 73.3256 216.016 73.3256ZM222.496 81.7556C222.496 80.4356 222.226 79.2756 221.686 78.2756C221.146 77.2756 220.406 76.5056 219.466 75.9656C218.546 75.4256 217.526 75.1556 216.406 75.1556C215.246 75.1556 214.206 75.4156 213.286 75.9356C212.366 76.4556 211.636 77.2156 211.096 78.2156C210.576 79.1956 210.316 80.3656 210.316 81.7256C210.316 83.0656 210.576 84.2456 211.096 85.2656C211.636 86.2656 212.366 87.0356 213.286 87.5756C214.206 88.0956 215.246 88.3556 216.406 88.3556C217.526 88.3556 218.546 88.0856 219.466 87.5456C220.406 87.0056 221.146 86.2356 221.686 85.2356C222.226 84.2356 222.496 83.0756 222.496 81.7556ZM237.07 73.2656C239.03 73.2656 240.63 73.8756 241.87 75.0956C243.11 76.2956 243.73 78.0456 243.73 80.3456V89.9456H241.66V80.5856C241.66 78.8056 241.21 77.4456 240.31 76.5056C239.43 75.5656 238.22 75.0956 236.68 75.0956C235.1 75.0956 233.84 75.5956 232.9 76.5956C231.96 77.5956 231.49 79.0656 231.49 81.0056V89.9456H229.39V73.5656H231.49V76.3556C232.01 75.3556 232.76 74.5956 233.74 74.0756C234.72 73.5356 235.83 73.2656 237.07 73.2656ZM255.647 81.7256C255.647 80.0456 255.987 78.5756 256.667 77.3156C257.347 76.0356 258.277 75.0556 259.457 74.3756C260.657 73.6756 262.007 73.3256 263.507 73.3256C264.947 73.3256 266.247 73.6756 267.407 74.3756C268.567 75.0756 269.417 75.9856 269.957 77.1056V67.7456H272.057V89.9456H269.957V86.2856C269.457 87.4256 268.637 88.3656 267.497 89.1056C266.357 89.8256 265.017 90.1856 263.477 90.1856C261.977 90.1856 260.627 89.8356 259.427 89.1356C258.247 88.4356 257.317 87.4456 256.637 86.1656C255.977 84.8856 255.647 83.4056 255.647 81.7256ZM269.957 81.7556C269.957 80.4356 269.687 79.2756 269.147 78.2756C268.607 77.2756 267.867 76.5056 266.927 75.9656C266.007 75.4256 264.987 75.1556 263.867 75.1556C262.707 75.1556 261.667 75.4156 260.747 75.9356C259.827 76.4556 259.097 77.2156 258.557 78.2156C258.037 79.1956 257.777 80.3656 257.777 81.7256C257.777 83.0656 258.037 84.2456 258.557 85.2656C259.097 86.2656 259.827 87.0356 260.747 87.5756C261.667 88.0956 262.707 88.3556 263.867 88.3556C264.987 88.3556 266.007 88.0856 266.927 87.5456C267.867 87.0056 268.607 86.2356 269.147 85.2356C269.687 84.2356 269.957 83.0756 269.957 81.7556ZM278.951 76.4756C279.411 75.4556 280.111 74.6656 281.051 74.1056C282.011 73.5456 283.181 73.2656 284.561 73.2656V75.4556H283.991C282.471 75.4556 281.251 75.8656 280.331 76.6856C279.411 77.5056 278.951 78.8756 278.951 80.7956V89.9456H276.851V73.5656H278.951V76.4756ZM294.89 90.1856C293.35 90.1856 291.96 89.8456 290.72 89.1656C289.5 88.4656 288.53 87.4856 287.81 86.2256C287.11 84.9456 286.76 83.4556 286.76 81.7556C286.76 80.0556 287.12 78.5756 287.84 77.3156C288.56 76.0356 289.54 75.0556 290.78 74.3756C292.02 73.6756 293.41 73.3256 294.95 73.3256C296.49 73.3256 297.88 73.6756 299.12 74.3756C300.38 75.0556 301.36 76.0356 302.06 77.3156C302.78 78.5756 303.14 80.0556 303.14 81.7556C303.14 83.4356 302.78 84.9156 302.06 86.1956C301.34 87.4756 300.35 88.4656 299.09 89.1656C297.83 89.8456 296.43 90.1856 294.89 90.1856ZM294.89 88.3556C295.97 88.3556 296.97 88.1156 297.89 87.6356C298.81 87.1356 299.55 86.3956 300.11 85.4156C300.69 84.4156 300.98 83.1956 300.98 81.7556C300.98 80.3156 300.7 79.1056 300.14 78.1256C299.58 77.1256 298.84 76.3856 297.92 75.9056C297 75.4056 296 75.1556 294.92 75.1556C293.84 75.1556 292.84 75.4056 291.92 75.9056C291 76.3856 290.26 77.1256 289.7 78.1256C289.16 79.1056 288.89 80.3156 288.89 81.7556C288.89 83.1956 289.16 84.4156 289.7 85.4156C290.26 86.3956 290.99 87.1356 291.89 87.6356C292.81 88.1156 293.81 88.3556 294.89 88.3556ZM314.648 73.2656C316.608 73.2656 318.208 73.8756 319.448 75.0956C320.688 76.2956 321.308 78.0456 321.308 80.3456V89.9456H319.238V80.5856C319.238 78.8056 318.788 77.4456 317.888 76.5056C317.008 75.5656 315.798 75.0956 314.258 75.0956C312.678 75.0956 311.418 75.5956 310.478 76.5956C309.538 77.5956 309.068 79.0656 309.068 81.0056V89.9456H306.968V73.5656H309.068V76.3556C309.588 75.3556 310.338 74.5956 311.318 74.0756C312.298 73.5356 313.408 73.2656 314.648 73.2656ZM340.773 80.9156C340.773 81.6356 340.753 82.1856 340.713 82.5656H327.123C327.183 83.8056 327.483 84.8656 328.023 85.7456C328.563 86.6256 329.273 87.2956 330.153 87.7556C331.033 88.1956 331.993 88.4156 333.033 88.4156C334.393 88.4156 335.533 88.0856 336.453 87.4256C337.393 86.7656 338.013 85.8756 338.313 84.7556H340.533C340.133 86.3556 339.273 87.6656 337.953 88.6856C336.653 89.6856 335.013 90.1856 333.033 90.1856C331.493 90.1856 330.113 89.8456 328.893 89.1656C327.673 88.4656 326.713 87.4856 326.013 86.2256C325.333 84.9456 324.993 83.4556 324.993 81.7556C324.993 80.0556 325.333 78.5656 326.013 77.2856C326.693 76.0056 327.643 75.0256 328.863 74.3456C330.083 73.6656 331.473 73.3256 333.033 73.3256C334.593 73.3256 335.953 73.6656 337.113 74.3456C338.293 75.0256 339.193 75.9456 339.813 77.1056C340.453 78.2456 340.773 79.5156 340.773 80.9156ZM338.643 80.8556C338.663 79.6356 338.413 78.5956 337.893 77.7356C337.393 76.8756 336.703 76.2256 335.823 75.7856C334.943 75.3456 333.983 75.1256 332.943 75.1256C331.383 75.1256 330.053 75.6256 328.953 76.6256C327.853 77.6256 327.243 79.0356 327.123 80.8556H338.643ZM350.255 90.1856C348.375 90.1856 346.835 89.7556 345.635 88.8956C344.455 88.0156 343.795 86.8256 343.655 85.3256H345.815C345.915 86.2456 346.345 86.9956 347.105 87.5756C347.885 88.1356 348.925 88.4156 350.225 88.4156C351.365 88.4156 352.255 88.1456 352.895 87.6056C353.555 87.0656 353.885 86.3956 353.885 85.5956C353.885 85.0356 353.705 84.5756 353.345 84.2156C352.985 83.8556 352.525 83.5756 351.965 83.3756C351.425 83.1556 350.685 82.9256 349.745 82.6856C348.525 82.3656 347.535 82.0456 346.775 81.7256C346.015 81.4056 345.365 80.9356 344.825 80.3156C344.305 79.6756 344.045 78.8256 344.045 77.7656C344.045 76.9656 344.285 76.2256 344.765 75.5456C345.245 74.8656 345.925 74.3256 346.805 73.9256C347.685 73.5256 348.685 73.3256 349.805 73.3256C351.565 73.3256 352.985 73.7756 354.065 74.6756C355.145 75.5556 355.725 76.7756 355.805 78.3356H353.705C353.645 77.3756 353.265 76.6056 352.565 76.0256C351.885 75.4256 350.945 75.1256 349.745 75.1256C348.685 75.1256 347.825 75.3756 347.165 75.8756C346.505 76.3756 346.175 76.9956 346.175 77.7356C346.175 78.3756 346.365 78.9056 346.745 79.3256C347.145 79.7256 347.635 80.0456 348.215 80.2856C348.795 80.5056 349.575 80.7556 350.555 81.0356C351.735 81.3556 352.675 81.6656 353.375 81.9656C354.075 82.2656 354.675 82.7056 355.175 83.2856C355.675 83.8656 355.935 84.6356 355.955 85.5956C355.955 86.4756 355.715 87.2656 355.235 87.9656C354.755 88.6456 354.085 89.1856 353.225 89.5856C352.365 89.9856 351.375 90.1856 350.255 90.1856ZM374.59 75.3356H370.78V89.9456H368.68V75.3356H366.4V73.5656H368.68V72.4256C368.68 70.6456 369.13 69.3356 370.03 68.4956C370.95 67.6556 372.43 67.2356 374.47 67.2356V69.0356C373.11 69.0356 372.15 69.2956 371.59 69.8156C371.05 70.3356 370.78 71.2056 370.78 72.4256V73.5656H374.59V75.3356ZM385.066 90.1856C383.526 90.1856 382.136 89.8456 380.896 89.1656C379.676 88.4656 378.706 87.4856 377.986 86.2256C377.286 84.9456 376.936 83.4556 376.936 81.7556C376.936 80.0556 377.296 78.5756 378.016 77.3156C378.736 76.0356 379.716 75.0556 380.956 74.3756C382.196 73.6756 383.586 73.3256 385.126 73.3256C386.666 73.3256 388.056 73.6756 389.296 74.3756C390.556 75.0556 391.536 76.0356 392.236 77.3156C392.956 78.5756 393.316 80.0556 393.316 81.7556C393.316 83.4356 392.956 84.9156 392.236 86.1956C391.516 87.4756 390.526 88.4656 389.266 89.1656C388.006 89.8456 386.606 90.1856 385.066 90.1856ZM385.066 88.3556C386.146 88.3556 387.146 88.1156 388.066 87.6356C388.986 87.1356 389.726 86.3956 390.286 85.4156C390.866 84.4156 391.156 83.1956 391.156 81.7556C391.156 80.3156 390.876 79.1056 390.316 78.1256C389.756 77.1256 389.016 76.3856 388.096 75.9056C387.176 75.4056 386.176 75.1556 385.096 75.1556C384.016 75.1556 383.016 75.4056 382.096 75.9056C381.176 76.3856 380.436 77.1256 379.876 78.1256C379.336 79.1056 379.066 80.3156 379.066 81.7556C379.066 83.1956 379.336 84.4156 379.876 85.4156C380.436 86.3956 381.166 87.1356 382.066 87.6356C382.986 88.1156 383.986 88.3556 385.066 88.3556ZM399.244 76.4756C399.704 75.4556 400.404 74.6656 401.344 74.1056C402.304 73.5456 403.474 73.2656 404.854 73.2656V75.4556H404.284C402.764 75.4556 401.544 75.8656 400.624 76.6856C399.704 77.5056 399.244 78.8756 399.244 80.7956V89.9456H397.144V73.5656H399.244V76.4756ZM418.346 76.4756C418.806 75.4556 419.506 74.6656 420.446 74.1056C421.406 73.5456 422.576 73.2656 423.956 73.2656V75.4556H423.386C421.866 75.4556 420.646 75.8656 419.726 76.6856C418.806 77.5056 418.346 78.8756 418.346 80.7956V89.9456H416.246V73.5656H418.346V76.4756ZM441.935 80.9156C441.935 81.6356 441.915 82.1856 441.875 82.5656H428.285C428.345 83.8056 428.645 84.8656 429.185 85.7456C429.725 86.6256 430.435 87.2956 431.315 87.7556C432.195 88.1956 433.155 88.4156 434.195 88.4156C435.555 88.4156 436.695 88.0856 437.615 87.4256C438.555 86.7656 439.175 85.8756 439.475 84.7556H441.695C441.295 86.3556 440.435 87.6656 439.115 88.6856C437.815 89.6856 436.175 90.1856 434.195 90.1856C432.655 90.1856 431.275 89.8456 430.055 89.1656C428.835 88.4656 427.875 87.4856 427.175 86.2256C426.495 84.9456 426.155 83.4556 426.155 81.7556C426.155 80.0556 426.495 78.5656 427.175 77.2856C427.855 76.0056 428.805 75.0256 430.025 74.3456C431.245 73.6656 432.635 73.3256 434.195 73.3256C435.755 73.3256 437.115 73.6656 438.275 74.3456C439.455 75.0256 440.355 75.9456 440.975 77.1056C441.615 78.2456 441.935 79.5156 441.935 80.9156ZM439.805 80.8556C439.825 79.6356 439.575 78.5956 439.055 77.7356C438.555 76.8756 437.865 76.2256 436.985 75.7856C436.105 75.3456 435.145 75.1256 434.105 75.1256C432.545 75.1256 431.215 75.6256 430.115 76.6256C429.015 77.6256 428.405 79.0356 428.285 80.8556H439.805ZM451.417 90.1856C449.537 90.1856 447.997 89.7556 446.797 88.8956C445.617 88.0156 444.957 86.8256 444.817 85.3256H446.977C447.077 86.2456 447.507 86.9956 448.267 87.5756C449.047 88.1356 450.087 88.4156 451.387 88.4156C452.527 88.4156 453.417 88.1456 454.057 87.6056C454.717 87.0656 455.047 86.3956 455.047 85.5956C455.047 85.0356 454.867 84.5756 454.507 84.2156C454.147 83.8556 453.687 83.5756 453.127 83.3756C452.587 83.1556 451.847 82.9256 450.907 82.6856C449.687 82.3656 448.697 82.0456 447.937 81.7256C447.177 81.4056 446.527 80.9356 445.987 80.3156C445.467 79.6756 445.207 78.8256 445.207 77.7656C445.207 76.9656 445.447 76.2256 445.927 75.5456C446.407 74.8656 447.087 74.3256 447.967 73.9256C448.847 73.5256 449.847 73.3256 450.967 73.3256C452.727 73.3256 454.147 73.7756 455.227 74.6756C456.307 75.5556 456.887 76.7756 456.967 78.3356H454.867C454.807 77.3756 454.427 76.6056 453.727 76.0256C453.047 75.4256 452.107 75.1256 450.907 75.1256C449.847 75.1256 448.987 75.3756 448.327 75.8756C447.667 76.3756 447.337 76.9956 447.337 77.7356C447.337 78.3756 447.527 78.9056 447.907 79.3256C448.307 79.7256 448.797 80.0456 449.377 80.2856C449.957 80.5056 450.737 80.7556 451.717 81.0356C452.897 81.3556 453.837 81.6656 454.537 81.9656C455.237 82.2656 455.837 82.7056 456.337 83.2856C456.837 83.8656 457.097 84.6356 457.117 85.5956C457.117 86.4756 456.877 87.2656 456.397 87.9656C455.917 88.6456 455.247 89.1856 454.387 89.5856C453.527 89.9856 452.537 90.1856 451.417 90.1856ZM460.11 81.7556C460.11 80.0556 460.45 78.5756 461.13 77.3156C461.81 76.0356 462.75 75.0556 463.95 74.3756C465.15 73.6756 466.52 73.3256 468.06 73.3256C470.08 73.3256 471.74 73.8256 473.04 74.8256C474.36 75.8256 475.21 77.1856 475.59 78.9056H473.34C473.06 77.7256 472.45 76.8056 471.51 76.1456C470.59 75.4656 469.44 75.1256 468.06 75.1256C466.96 75.1256 465.97 75.3756 465.09 75.8756C464.21 76.3756 463.51 77.1256 462.99 78.1256C462.49 79.1056 462.24 80.3156 462.24 81.7556C462.24 83.1956 462.49 84.4156 462.99 85.4156C463.51 86.4156 464.21 87.1656 465.09 87.6656C465.97 88.1656 466.96 88.4156 468.06 88.4156C469.44 88.4156 470.59 88.0856 471.51 87.4256C472.45 86.7456 473.06 85.8056 473.34 84.6056H475.59C475.21 86.2856 474.36 87.6356 473.04 88.6556C471.72 89.6756 470.06 90.1856 468.06 90.1856C466.52 90.1856 465.15 89.8456 463.95 89.1656C462.75 88.4656 461.81 87.4856 461.13 86.2256C460.45 84.9456 460.11 83.4556 460.11 81.7556ZM493.658 73.5656V89.9456H491.558V87.0656C491.078 88.0856 490.338 88.8656 489.338 89.4056C488.338 89.9456 487.218 90.2156 485.978 90.2156C484.018 90.2156 482.418 89.6156 481.178 88.4156C479.938 87.1956 479.318 85.4356 479.318 83.1356V73.5656H481.388V82.8956C481.388 84.6756 481.828 86.0356 482.708 86.9756C483.608 87.9156 484.828 88.3856 486.368 88.3856C487.948 88.3856 489.208 87.8856 490.148 86.8856C491.088 85.8856 491.558 84.4156 491.558 82.4756V73.5656H493.658ZM513.273 80.9156C513.273 81.6356 513.253 82.1856 513.213 82.5656H499.623C499.683 83.8056 499.983 84.8656 500.523 85.7456C501.063 86.6256 501.773 87.2956 502.653 87.7556C503.533 88.1956 504.493 88.4156 505.533 88.4156C506.893 88.4156 508.033 88.0856 508.953 87.4256C509.893 86.7656 510.513 85.8756 510.813 84.7556H513.033C512.633 86.3556 511.773 87.6656 510.453 88.6856C509.153 89.6856 507.513 90.1856 505.533 90.1856C503.993 90.1856 502.613 89.8456 501.393 89.1656C500.173 88.4656 499.213 87.4856 498.513 86.2256C497.833 84.9456 497.493 83.4556 497.493 81.7556C497.493 80.0556 497.833 78.5656 498.513 77.2856C499.193 76.0056 500.143 75.0256 501.363 74.3456C502.583 73.6656 503.973 73.3256 505.533 73.3256C507.093 73.3256 508.453 73.6656 509.613 74.3456C510.793 75.0256 511.693 75.9456 512.313 77.1056C512.953 78.2456 513.273 79.5156 513.273 80.9156ZM511.143 80.8556C511.163 79.6356 510.913 78.5956 510.393 77.7356C509.893 76.8756 509.203 76.2256 508.323 75.7856C507.443 75.3456 506.483 75.1256 505.443 75.1256C503.883 75.1256 502.553 75.6256 501.453 76.6256C500.353 77.6256 499.743 79.0356 499.623 80.8556H511.143ZM530.987 90.1856C529.107 90.1856 527.567 89.7556 526.367 88.8956C525.187 88.0156 524.527 86.8256 524.387 85.3256H526.547C526.647 86.2456 527.077 86.9956 527.837 87.5756C528.617 88.1356 529.657 88.4156 530.957 88.4156C532.097 88.4156 532.987 88.1456 533.627 87.6056C534.287 87.0656 534.617 86.3956 534.617 85.5956C534.617 85.0356 534.437 84.5756 534.077 84.2156C533.717 83.8556 533.257 83.5756 532.697 83.3756C532.157 83.1556 531.417 82.9256 530.477 82.6856C529.257 82.3656 528.267 82.0456 527.507 81.7256C526.747 81.4056 526.097 80.9356 525.557 80.3156C525.037 79.6756 524.777 78.8256 524.777 77.7656C524.777 76.9656 525.017 76.2256 525.497 75.5456C525.977 74.8656 526.657 74.3256 527.537 73.9256C528.417 73.5256 529.417 73.3256 530.537 73.3256C532.297 73.3256 533.717 73.7756 534.797 74.6756C535.877 75.5556 536.457 76.7756 536.537 78.3356H534.437C534.377 77.3756 533.997 76.6056 533.297 76.0256C532.617 75.4256 531.677 75.1256 530.477 75.1256C529.417 75.1256 528.557 75.3756 527.897 75.8756C527.237 76.3756 526.907 76.9956 526.907 77.7356C526.907 78.3756 527.097 78.9056 527.477 79.3256C527.877 79.7256 528.367 80.0456 528.947 80.2856C529.527 80.5056 530.307 80.7556 531.287 81.0356C532.467 81.3556 533.407 81.6656 534.107 81.9656C534.807 82.2656 535.407 82.7056 535.907 83.2856C536.407 83.8656 536.667 84.6356 536.687 85.5956C536.687 86.4756 536.447 87.2656 535.967 87.9656C535.487 88.6456 534.817 89.1856 533.957 89.5856C533.097 89.9856 532.107 90.1856 530.987 90.1856ZM541.69 70.4756C541.27 70.4756 540.91 70.3256 540.61 70.0256C540.31 69.7256 540.16 69.3556 540.16 68.9156C540.16 68.4756 540.31 68.1156 540.61 67.8356C540.91 67.5356 541.27 67.3856 541.69 67.3856C542.11 67.3856 542.47 67.5356 542.77 67.8356C543.07 68.1156 543.22 68.4756 543.22 68.9156C543.22 69.3556 543.07 69.7256 542.77 70.0256C542.47 70.3256 542.11 70.4756 541.69 70.4756ZM542.74 73.5656V89.9456H540.64V73.5656H542.74ZM566.996 73.2656C568.916 73.2656 570.476 73.8756 571.676 75.0956C572.896 76.2956 573.506 78.0456 573.506 80.3456V89.9456H571.436V80.5856C571.436 78.8056 571.006 77.4456 570.146 76.5056C569.286 75.5656 568.116 75.0956 566.636 75.0956C565.096 75.0956 563.866 75.6056 562.946 76.6256C562.026 77.6456 561.566 79.1256 561.566 81.0656V89.9456H559.496V80.5856C559.496 78.8056 559.066 77.4456 558.206 76.5056C557.346 75.5656 556.166 75.0956 554.666 75.0956C553.126 75.0956 551.896 75.6056 550.976 76.6256C550.056 77.6456 549.596 79.1256 549.596 81.0656V89.9456H547.496V73.5656H549.596V76.3856C550.116 75.3656 550.856 74.5956 551.816 74.0756C552.776 73.5356 553.846 73.2656 555.026 73.2656C556.446 73.2656 557.686 73.6056 558.746 74.2856C559.826 74.9656 560.606 75.9656 561.086 77.2856C561.526 75.9856 562.276 74.9956 563.336 74.3156C564.416 73.6156 565.636 73.2656 566.996 73.2656ZM592.36 73.5656V89.9456H590.26V87.0656C589.78 88.0856 589.04 88.8656 588.04 89.4056C587.04 89.9456 585.92 90.2156 584.68 90.2156C582.72 90.2156 581.12 89.6156 579.88 88.4156C578.64 87.1956 578.02 85.4356 578.02 83.1356V73.5656H580.09V82.8956C580.09 84.6756 580.53 86.0356 581.41 86.9756C582.31 87.9156 583.53 88.3856 585.07 88.3856C586.65 88.3856 587.91 87.8856 588.85 86.8856C589.79 85.8856 590.26 84.4156 590.26 82.4756V73.5656H592.36ZM599.254 67.7456V89.9456H597.154V67.7456H599.254ZM603.049 81.7256C603.049 80.0456 603.379 78.5756 604.039 77.3156C604.719 76.0356 605.649 75.0556 606.829 74.3756C608.029 73.6756 609.379 73.3256 610.879 73.3256C612.439 73.3256 613.779 73.6856 614.899 74.4056C616.039 75.1256 616.859 76.0456 617.359 77.1656V73.5656H619.459V89.9456H617.359V86.3156C616.839 87.4356 616.009 88.3656 614.869 89.1056C613.749 89.8256 612.409 90.1856 610.849 90.1856C609.369 90.1856 608.029 89.8356 606.829 89.1356C605.649 88.4356 604.719 87.4456 604.039 86.1656C603.379 84.8856 603.049 83.4056 603.049 81.7256ZM617.359 81.7556C617.359 80.4356 617.089 79.2756 616.549 78.2756C616.009 77.2756 615.269 76.5056 614.329 75.9656C613.409 75.4256 612.389 75.1556 611.269 75.1556C610.109 75.1556 609.069 75.4156 608.149 75.9356C607.229 76.4556 606.499 77.2156 605.959 78.2156C605.439 79.1956 605.179 80.3656 605.179 81.7256C605.179 83.0656 605.439 84.2456 605.959 85.2656C606.499 86.2656 607.229 87.0356 608.149 87.5756C609.069 88.0956 610.109 88.3556 611.269 88.3556C612.389 88.3556 613.409 88.0856 614.329 87.5456C615.269 87.0056 616.009 86.2356 616.549 85.2356C617.089 84.2356 617.359 83.0756 617.359 81.7556ZM626.984 75.3356V85.5056C626.984 86.5056 627.174 87.1956 627.554 87.5756C627.934 87.9556 628.604 88.1456 629.564 88.1456H631.484V89.9456H629.234C627.754 89.9456 626.654 89.6056 625.934 88.9256C625.214 88.2256 624.854 87.0856 624.854 85.5056V75.3356H622.574V73.5656H624.854V69.4556H626.984V73.5656H631.484V75.3356H626.984ZM635.997 70.4756C635.577 70.4756 635.217 70.3256 634.917 70.0256C634.617 69.7256 634.467 69.3556 634.467 68.9156C634.467 68.4756 634.617 68.1156 634.917 67.8356C635.217 67.5356 635.577 67.3856 635.997 67.3856C636.417 67.3856 636.777 67.5356 637.077 67.8356C637.377 68.1156 637.527 68.4756 637.527 68.9156C637.527 69.3556 637.377 69.7256 637.077 70.0256C636.777 70.3256 636.417 70.4756 635.997 70.4756ZM637.047 73.5656V89.9456H634.947V73.5656H637.047ZM648.972 90.1856C647.432 90.1856 646.042 89.8456 644.802 89.1656C643.582 88.4656 642.612 87.4856 641.892 86.2256C641.192 84.9456 640.842 83.4556 640.842 81.7556C640.842 80.0556 641.202 78.5756 641.922 77.3156C642.642 76.0356 643.622 75.0556 644.862 74.3756C646.102 73.6756 647.492 73.3256 649.032 73.3256C650.572 73.3256 651.962 73.6756 653.202 74.3756C654.462 75.0556 655.442 76.0356 656.142 77.3156C656.862 78.5756 657.222 80.0556 657.222 81.7556C657.222 83.4356 656.862 84.9156 656.142 86.1956C655.422 87.4756 654.432 88.4656 653.172 89.1656C651.912 89.8456 650.512 90.1856 648.972 90.1856ZM648.972 88.3556C650.052 88.3556 651.052 88.1156 651.972 87.6356C652.892 87.1356 653.632 86.3956 654.192 85.4156C654.772 84.4156 655.062 83.1956 655.062 81.7556C655.062 80.3156 654.782 79.1056 654.222 78.1256C653.662 77.1256 652.922 76.3856 652.002 75.9056C651.082 75.4056 650.082 75.1556 649.002 75.1556C647.922 75.1556 646.922 75.4056 646.002 75.9056C645.082 76.3856 644.342 77.1256 643.782 78.1256C643.242 79.1056 642.972 80.3156 642.972 81.7556C642.972 83.1956 643.242 84.4156 643.782 85.4156C644.342 86.3956 645.072 87.1356 645.972 87.6356C646.892 88.1156 647.892 88.3556 648.972 88.3556ZM668.73 73.2656C670.69 73.2656 672.29 73.8756 673.53 75.0956C674.77 76.2956 675.39 78.0456 675.39 80.3456V89.9456H673.32V80.5856C673.32 78.8056 672.87 77.4456 671.97 76.5056C671.09 75.5656 669.88 75.0956 668.34 75.0956C666.76 75.0956 665.5 75.5956 664.56 76.5956C663.62 77.5956 663.15 79.0656 663.15 81.0056V89.9456H661.05V73.5656H663.15V76.3556C663.67 75.3556 664.42 74.5956 665.4 74.0756C666.38 73.5356 667.49 73.2656 668.73 73.2656ZM685.675 90.1856C683.795 90.1856 682.255 89.7556 681.055 88.8956C679.875 88.0156 679.215 86.8256 679.075 85.3256H681.235C681.335 86.2456 681.765 86.9956 682.525 87.5756C683.305 88.1356 684.345 88.4156 685.645 88.4156C686.785 88.4156 687.675 88.1456 688.315 87.6056C688.975 87.0656 689.305 86.3956 689.305 85.5956C689.305 85.0356 689.125 84.5756 688.765 84.2156C688.405 83.8556 687.945 83.5756 687.385 83.3756C686.845 83.1556 686.105 82.9256 685.165 82.6856C683.945 82.3656 682.955 82.0456 682.195 81.7256C681.435 81.4056 680.785 80.9356 680.245 80.3156C679.725 79.6756 679.465 78.8256 679.465 77.7656C679.465 76.9656 679.705 76.2256 680.185 75.5456C680.665 74.8656 681.345 74.3256 682.225 73.9256C683.105 73.5256 684.105 73.3256 685.225 73.3256C686.985 73.3256 688.405 73.7756 689.485 74.6756C690.565 75.5556 691.145 76.7756 691.225 78.3356H689.125C689.065 77.3756 688.685 76.6056 687.985 76.0256C687.305 75.4256 686.365 75.1256 685.165 75.1256C684.105 75.1256 683.245 75.3756 682.585 75.8756C681.925 76.3756 681.595 76.9956 681.595 77.7356C681.595 78.3756 681.785 78.9056 682.165 79.3256C682.565 79.7256 683.055 80.0456 683.635 80.2856C684.215 80.5056 684.995 80.7556 685.975 81.0356C687.155 81.3556 688.095 81.6656 688.795 81.9656C689.495 82.2656 690.095 82.7056 690.595 83.2856C691.095 83.8656 691.355 84.6356 691.375 85.5956C691.375 86.4756 691.135 87.2656 690.655 87.9656C690.175 88.6456 689.505 89.1856 688.645 89.5856C687.785 89.9856 686.795 90.1856 685.675 90.1856ZM697.248 86.4656L694.128 94.3256H692.688L694.908 86.4656H697.248ZM714.386 90.1856C712.506 90.1856 710.966 89.7556 709.766 88.8956C708.586 88.0156 707.926 86.8256 707.786 85.3256H709.946C710.046 86.2456 710.476 86.9956 711.236 87.5756C712.016 88.1356 713.056 88.4156 714.356 88.4156C715.496 88.4156 716.386 88.1456 717.026 87.6056C717.686 87.0656 718.016 86.3956 718.016 85.5956C718.016 85.0356 717.836 84.5756 717.476 84.2156C717.116 83.8556 716.656 83.5756 716.096 83.3756C715.556 83.1556 714.816 82.9256 713.876 82.6856C712.656 82.3656 711.666 82.0456 710.906 81.7256C710.146 81.4056 709.496 80.9356 708.956 80.3156C708.436 79.6756 708.176 78.8256 708.176 77.7656C708.176 76.9656 708.416 76.2256 708.896 75.5456C709.376 74.8656 710.056 74.3256 710.936 73.9256C711.816 73.5256 712.816 73.3256 713.936 73.3256C715.696 73.3256 717.116 73.7756 718.196 74.6756C719.276 75.5556 719.856 76.7756 719.936 78.3356H717.836C717.776 77.3756 717.396 76.6056 716.696 76.0256C716.016 75.4256 715.076 75.1256 713.876 75.1256C712.816 75.1256 711.956 75.3756 711.296 75.8756C710.636 76.3756 710.306 76.9956 710.306 77.7356C710.306 78.3756 710.496 78.9056 710.876 79.3256C711.276 79.7256 711.766 80.0456 712.346 80.2856C712.926 80.5056 713.706 80.7556 714.686 81.0356C715.866 81.3556 716.806 81.6656 717.506 81.9656C718.206 82.2656 718.806 82.7056 719.306 83.2856C719.806 83.8656 720.066 84.6356 720.086 85.5956C720.086 86.4756 719.846 87.2656 719.366 87.9656C718.886 88.6456 718.216 89.1856 717.356 89.5856C716.496 89.9856 715.506 90.1856 714.386 90.1856ZM731.209 90.1856C729.669 90.1856 728.279 89.8456 727.039 89.1656C725.819 88.4656 724.849 87.4856 724.129 86.2256C723.429 84.9456 723.079 83.4556 723.079 81.7556C723.079 80.0556 723.439 78.5756 724.159 77.3156C724.879 76.0356 725.859 75.0556 727.099 74.3756C728.339 73.6756 729.729 73.3256 731.269 73.3256C732.809 73.3256 734.199 73.6756 735.439 74.3756C736.699 75.0556 737.679 76.0356 738.379 77.3156C739.099 78.5756 739.459 80.0556 739.459 81.7556C739.459 83.4356 739.099 84.9156 738.379 86.1956C737.659 87.4756 736.669 88.4656 735.409 89.1656C734.149 89.8456 732.749 90.1856 731.209 90.1856ZM731.209 88.3556C732.289 88.3556 733.289 88.1156 734.209 87.6356C735.129 87.1356 735.869 86.3956 736.429 85.4156C737.009 84.4156 737.299 83.1956 737.299 81.7556C737.299 80.3156 737.019 79.1056 736.459 78.1256C735.899 77.1256 735.159 76.3856 734.239 75.9056C733.319 75.4056 732.319 75.1556 731.239 75.1556C730.159 75.1556 729.159 75.4056 728.239 75.9056C727.319 76.3856 726.579 77.1256 726.019 78.1256C725.479 79.1056 725.209 80.3156 725.209 81.7556C725.209 83.1956 725.479 84.4156 726.019 85.4156C726.579 86.3956 727.309 87.1356 728.209 87.6356C729.129 88.1156 730.129 88.3556 731.209 88.3556ZM745.387 67.7456V89.9456H743.287V67.7456H745.387ZM755.962 87.9056L761.482 73.5656H763.702L757.132 89.9456H754.762L748.192 73.5656H750.442L755.962 87.9056ZM767.598 70.4756C767.178 70.4756 766.818 70.3256 766.518 70.0256C766.218 69.7256 766.068 69.3556 766.068 68.9156C766.068 68.4756 766.218 68.1156 766.518 67.8356C766.818 67.5356 767.178 67.3856 767.598 67.3856C768.018 67.3856 768.378 67.5356 768.678 67.8356C768.978 68.1156 769.128 68.4756 769.128 68.9156C769.128 69.3556 768.978 69.7256 768.678 70.0256C768.378 70.3256 768.018 70.4756 767.598 70.4756ZM768.648 73.5656V89.9456H766.548V73.5656H768.648ZM781.084 73.2656C783.044 73.2656 784.644 73.8756 785.884 75.0956C787.124 76.2956 787.744 78.0456 787.744 80.3456V89.9456H785.674V80.5856C785.674 78.8056 785.224 77.4456 784.324 76.5056C783.444 75.5656 782.234 75.0956 780.694 75.0956C779.114 75.0956 777.854 75.5956 776.914 76.5956C775.974 77.5956 775.504 79.0656 775.504 81.0056V89.9456H773.404V73.5656H775.504V76.3556C776.024 75.3556 776.774 74.5956 777.754 74.0756C778.734 73.5356 779.844 73.2656 781.084 73.2656ZM799.258 73.3256C800.798 73.3256 802.138 73.6856 803.278 74.4056C804.418 75.1256 805.238 76.0356 805.738 77.1356V73.5656H807.838V90.3656C807.838 91.8656 807.508 93.1956 806.848 94.3556C806.208 95.5156 805.308 96.4056 804.148 97.0256C802.988 97.6656 801.668 97.9856 800.188 97.9856C798.088 97.9856 796.338 97.4856 794.938 96.4856C793.558 95.4856 792.698 94.1256 792.358 92.4056H794.428C794.788 93.5456 795.468 94.4556 796.468 95.1356C797.488 95.8156 798.728 96.1556 800.188 96.1556C801.248 96.1556 802.198 95.9256 803.038 95.4656C803.878 95.0256 804.538 94.3656 805.018 93.4856C805.498 92.6056 805.738 91.5656 805.738 90.3656V86.3156C805.218 87.4356 804.388 88.3656 803.248 89.1056C802.128 89.8256 800.798 90.1856 799.258 90.1856C797.758 90.1856 796.408 89.8356 795.208 89.1356C794.028 88.4356 793.098 87.4456 792.418 86.1656C791.758 84.8856 791.428 83.4056 791.428 81.7256C791.428 80.0456 791.758 78.5756 792.418 77.3156C793.098 76.0356 794.028 75.0556 795.208 74.3756C796.408 73.6756 797.758 73.3256 799.258 73.3256ZM805.738 81.7556C805.738 80.4356 805.468 79.2756 804.928 78.2756C804.388 77.2756 803.648 76.5056 802.708 75.9656C801.788 75.4256 800.768 75.1556 799.648 75.1556C798.488 75.1556 797.448 75.4156 796.528 75.9356C795.608 76.4556 794.878 77.2156 794.338 78.2156C793.818 79.1956 793.558 80.3656 793.558 81.7256C793.558 83.0656 793.818 84.2456 794.338 85.2656C794.878 86.2656 795.608 87.0356 796.528 87.5756C797.448 88.0956 798.488 88.3556 799.648 88.3556C800.768 88.3556 801.788 88.0856 802.708 87.5456C803.648 87.0056 804.388 86.2356 804.928 85.2356C805.468 84.2356 805.738 83.0756 805.738 81.7556ZM822.965 76.4756C823.425 75.4556 824.125 74.6656 825.065 74.1056C826.025 73.5456 827.195 73.2656 828.575 73.2656V75.4556H828.005C826.485 75.4556 825.265 75.8656 824.345 76.6856C823.425 77.5056 822.965 78.8756 822.965 80.7956V89.9456H820.865V73.5656H822.965V76.4756ZM846.554 80.9156C846.554 81.6356 846.534 82.1856 846.494 82.5656H832.904C832.964 83.8056 833.264 84.8656 833.804 85.7456C834.344 86.6256 835.054 87.2956 835.934 87.7556C836.814 88.1956 837.774 88.4156 838.814 88.4156C840.174 88.4156 841.314 88.0856 842.234 87.4256C843.174 86.7656 843.794 85.8756 844.094 84.7556H846.314C845.914 86.3556 845.054 87.6656 843.734 88.6856C842.434 89.6856 840.794 90.1856 838.814 90.1856C837.274 90.1856 835.894 89.8456 834.674 89.1656C833.454 88.4656 832.494 87.4856 831.794 86.2256C831.114 84.9456 830.774 83.4556 830.774 81.7556C830.774 80.0556 831.114 78.5656 831.794 77.2856C832.474 76.0056 833.424 75.0256 834.644 74.3456C835.864 73.6656 837.254 73.3256 838.814 73.3256C840.374 73.3256 841.734 73.6656 842.894 74.3456C844.074 75.0256 844.974 75.9456 845.594 77.1056C846.234 78.2456 846.554 79.5156 846.554 80.9156ZM844.424 80.8556C844.444 79.6356 844.194 78.5956 843.674 77.7356C843.174 76.8756 842.484 76.2256 841.604 75.7856C840.724 75.3456 839.764 75.1256 838.724 75.1256C837.164 75.1256 835.834 75.6256 834.734 76.6256C833.634 77.6256 833.024 79.0356 832.904 80.8556H844.424ZM849.436 81.7256C849.436 80.0456 849.766 78.5756 850.426 77.3156C851.106 76.0356 852.036 75.0556 853.216 74.3756C854.416 73.6756 855.766 73.3256 857.266 73.3256C858.826 73.3256 860.166 73.6856 861.286 74.4056C862.426 75.1256 863.246 76.0456 863.746 77.1656V73.5656H865.846V89.9456H863.746V86.3156C863.226 87.4356 862.396 88.3656 861.256 89.1056C860.136 89.8256 858.796 90.1856 857.236 90.1856C855.756 90.1856 854.416 89.8356 853.216 89.1356C852.036 88.4356 851.106 87.4456 850.426 86.1656C849.766 84.8856 849.436 83.4056 849.436 81.7256ZM863.746 81.7556C863.746 80.4356 863.476 79.2756 862.936 78.2756C862.396 77.2756 861.656 76.5056 860.716 75.9656C859.796 75.4256 858.776 75.1556 857.656 75.1556C856.496 75.1556 855.456 75.4156 854.536 75.9356C853.616 76.4556 852.886 77.2156 852.346 78.2156C851.826 79.1956 851.566 80.3656 851.566 81.7256C851.566 83.0656 851.826 84.2456 852.346 85.2656C852.886 86.2656 853.616 87.0356 854.536 87.5756C855.456 88.0956 856.496 88.3556 857.656 88.3556C858.776 88.3556 859.796 88.0856 860.716 87.5456C861.656 87.0056 862.396 86.2356 862.936 85.2356C863.476 84.2356 863.746 83.0756 863.746 81.7556ZM872.74 67.7456V89.9456H870.64V67.7456H872.74ZM887.666 77.9456V79.7156H875.996V77.9456H887.666ZM914.652 73.5656L909.522 89.9456H907.422L902.892 76.2056L898.362 89.9456H896.232L891.102 73.5656H893.232L897.312 87.8156L901.902 73.5656H904.002L908.532 87.8456L912.582 73.5656H914.652ZM924.685 90.1856C923.145 90.1856 921.755 89.8456 920.515 89.1656C919.295 88.4656 918.325 87.4856 917.605 86.2256C916.905 84.9456 916.555 83.4556 916.555 81.7556C916.555 80.0556 916.915 78.5756 917.635 77.3156C918.355 76.0356 919.335 75.0556 920.575 74.3756C921.815 73.6756 923.205 73.3256 924.745 73.3256C926.285 73.3256 927.675 73.6756 928.915 74.3756C930.175 75.0556 931.155 76.0356 931.855 77.3156C932.575 78.5756 932.935 80.0556 932.935 81.7556C932.935 83.4356 932.575 84.9156 931.855 86.1956C931.135 87.4756 930.145 88.4656 928.885 89.1656C927.625 89.8456 926.225 90.1856 924.685 90.1856ZM924.685 88.3556C925.765 88.3556 926.765 88.1156 927.685 87.6356C928.605 87.1356 929.345 86.3956 929.905 85.4156C930.485 84.4156 930.775 83.1956 930.775 81.7556C930.775 80.3156 930.495 79.1056 929.935 78.1256C929.375 77.1256 928.635 76.3856 927.715 75.9056C926.795 75.4056 925.795 75.1556 924.715 75.1556C923.635 75.1556 922.635 75.4056 921.715 75.9056C920.795 76.3856 920.055 77.1256 919.495 78.1256C918.955 79.1056 918.685 80.3156 918.685 81.7556C918.685 83.1956 918.955 84.4156 919.495 85.4156C920.055 86.3956 920.785 87.1356 921.685 87.6356C922.605 88.1156 923.605 88.3556 924.685 88.3556ZM938.863 76.4756C939.323 75.4556 940.023 74.6656 940.963 74.1056C941.923 73.5456 943.093 73.2656 944.473 73.2656V75.4556H943.903C942.383 75.4556 941.163 75.8656 940.243 76.6856C939.323 77.5056 938.863 78.8756 938.863 80.7956V89.9456H936.763V73.5656H938.863V76.4756ZM949.732 67.7456V89.9456H947.632V67.7456H949.732ZM953.528 81.7256C953.528 80.0456 953.868 78.5756 954.548 77.3156C955.228 76.0356 956.158 75.0556 957.338 74.3756C958.538 73.6756 959.888 73.3256 961.388 73.3256C962.828 73.3256 964.128 73.6756 965.288 74.3756C966.448 75.0756 967.298 75.9856 967.838 77.1056V67.7456H969.938V89.9456H967.838V86.2856C967.338 87.4256 966.518 88.3656 965.378 89.1056C964.238 89.8256 962.898 90.1856 961.358 90.1856C959.858 90.1856 958.508 89.8356 957.308 89.1356C956.128 88.4356 955.198 87.4456 954.518 86.1656C953.858 84.8856 953.528 83.4056 953.528 81.7256ZM967.838 81.7556C967.838 80.4356 967.568 79.2756 967.028 78.2756C966.488 77.2756 965.748 76.5056 964.808 75.9656C963.888 75.4256 962.868 75.1556 961.748 75.1556C960.588 75.1556 959.548 75.4156 958.628 75.9356C957.708 76.4556 956.978 77.2156 956.438 78.2156C955.918 79.1956 955.658 80.3656 955.658 81.7256C955.658 83.0656 955.918 84.2456 956.438 85.2656C956.978 86.2656 957.708 87.0356 958.628 87.5756C959.548 88.0956 960.588 88.3556 961.748 88.3556C962.868 88.3556 963.888 88.0856 964.808 87.5456C965.748 87.0056 966.488 86.2356 967.028 85.2356C967.568 84.2356 967.838 83.0756 967.838 81.7556ZM988.604 90.1856C986.724 90.1856 985.184 89.7556 983.984 88.8956C982.804 88.0156 982.144 86.8256 982.004 85.3256H984.164C984.264 86.2456 984.694 86.9956 985.454 87.5756C986.234 88.1356 987.274 88.4156 988.574 88.4156C989.714 88.4156 990.604 88.1456 991.244 87.6056C991.904 87.0656 992.234 86.3956 992.234 85.5956C992.234 85.0356 992.054 84.5756 991.694 84.2156C991.334 83.8556 990.874 83.5756 990.314 83.3756C989.774 83.1556 989.034 82.9256 988.094 82.6856C986.874 82.3656 985.884 82.0456 985.124 81.7256C984.364 81.4056 983.714 80.9356 983.174 80.3156C982.654 79.6756 982.394 78.8256 982.394 77.7656C982.394 76.9656 982.634 76.2256 983.114 75.5456C983.594 74.8656 984.274 74.3256 985.154 73.9256C986.034 73.5256 987.034 73.3256 988.154 73.3256C989.914 73.3256 991.334 73.7756 992.414 74.6756C993.494 75.5556 994.074 76.7756 994.154 78.3356H992.054C991.994 77.3756 991.614 76.6056 990.914 76.0256C990.234 75.4256 989.294 75.1256 988.094 75.1256C987.034 75.1256 986.174 75.3756 985.514 75.8756C984.854 76.3756 984.524 76.9956 984.524 77.7356C984.524 78.3756 984.714 78.9056 985.094 79.3256C985.494 79.7256 985.984 80.0456 986.564 80.2856C987.144 80.5056 987.924 80.7556 988.904 81.0356C990.084 81.3556 991.024 81.6656 991.724 81.9656C992.424 82.2656 993.024 82.7056 993.524 83.2856C994.024 83.8656 994.284 84.6356 994.304 85.5956C994.304 86.4756 994.064 87.2656 993.584 87.9656C993.104 88.6456 992.434 89.1856 991.574 89.5856C990.714 89.9856 989.724 90.1856 988.604 90.1856ZM997.297 81.7556C997.297 80.0556 997.637 78.5756 998.317 77.3156C998.997 76.0356 999.937 75.0556 1001.14 74.3756C1002.34 73.6756 1003.71 73.3256 1005.25 73.3256C1007.27 73.3256 1008.93 73.8256 1010.23 74.8256C1011.55 75.8256 1012.4 77.1856 1012.78 78.9056H1010.53C1010.25 77.7256 1009.64 76.8056 1008.7 76.1456C1007.78 75.4656 1006.63 75.1256 1005.25 75.1256C1004.15 75.1256 1003.16 75.3756 1002.28 75.8756C1001.4 76.3756 1000.7 77.1256 1000.18 78.1256C999.677 79.1056 999.427 80.3156 999.427 81.7556C999.427 83.1956 999.677 84.4156 1000.18 85.4156C1000.7 86.4156 1001.4 87.1656 1002.28 87.6656C1003.16 88.1656 1004.15 88.4156 1005.25 88.4156C1006.63 88.4156 1007.78 88.0856 1008.7 87.4256C1009.64 86.7456 1010.25 85.8056 1010.53 84.6056H1012.78C1012.4 86.2856 1011.55 87.6356 1010.23 88.6556C1008.91 89.6756 1007.25 90.1856 1005.25 90.1856C1003.71 90.1856 1002.34 89.8456 1001.14 89.1656C999.937 88.4656 998.997 87.4856 998.317 86.2256C997.637 84.9456 997.297 83.4556 997.297 81.7556ZM1031.48 80.9156C1031.48 81.6356 1031.46 82.1856 1031.42 82.5656H1017.83C1017.89 83.8056 1018.19 84.8656 1018.73 85.7456C1019.27 86.6256 1019.98 87.2956 1020.86 87.7556C1021.74 88.1956 1022.7 88.4156 1023.74 88.4156C1025.1 88.4156 1026.24 88.0856 1027.16 87.4256C1028.1 86.7656 1028.72 85.8756 1029.02 84.7556H1031.24C1030.84 86.3556 1029.98 87.6656 1028.66 88.6856C1027.36 89.6856 1025.72 90.1856 1023.74 90.1856C1022.2 90.1856 1020.82 89.8456 1019.6 89.1656C1018.38 88.4656 1017.42 87.4856 1016.72 86.2256C1016.04 84.9456 1015.7 83.4556 1015.7 81.7556C1015.7 80.0556 1016.04 78.5656 1016.72 77.2856C1017.4 76.0056 1018.35 75.0256 1019.57 74.3456C1020.79 73.6656 1022.18 73.3256 1023.74 73.3256C1025.3 73.3256 1026.66 73.6656 1027.82 74.3456C1029 75.0256 1029.9 75.9456 1030.52 77.1056C1031.16 78.2456 1031.48 79.5156 1031.48 80.9156ZM1029.35 80.8556C1029.37 79.6356 1029.12 78.5956 1028.6 77.7356C1028.1 76.8756 1027.41 76.2256 1026.53 75.7856C1025.65 75.3456 1024.69 75.1256 1023.65 75.1256C1022.09 75.1256 1020.76 75.6256 1019.66 76.6256C1018.56 77.6256 1017.95 79.0356 1017.83 80.8556H1029.35ZM1043 73.2656C1044.96 73.2656 1046.56 73.8756 1047.8 75.0956C1049.04 76.2956 1049.66 78.0456 1049.66 80.3456V89.9456H1047.59V80.5856C1047.59 78.8056 1047.14 77.4456 1046.24 76.5056C1045.36 75.5656 1044.15 75.0956 1042.61 75.0956C1041.03 75.0956 1039.77 75.5956 1038.83 76.5956C1037.89 77.5956 1037.42 79.0656 1037.42 81.0056V89.9456H1035.32V73.5656H1037.42V76.3556C1037.94 75.3556 1038.69 74.5956 1039.67 74.0756C1040.65 73.5356 1041.76 73.2656 1043 73.2656ZM1053.34 81.7256C1053.34 80.0456 1053.67 78.5756 1054.33 77.3156C1055.01 76.0356 1055.94 75.0556 1057.12 74.3756C1058.32 73.6756 1059.67 73.3256 1061.17 73.3256C1062.73 73.3256 1064.07 73.6856 1065.19 74.4056C1066.33 75.1256 1067.15 76.0456 1067.65 77.1656V73.5656H1069.75V89.9456H1067.65V86.3156C1067.13 87.4356 1066.3 88.3656 1065.16 89.1056C1064.04 89.8256 1062.7 90.1856 1061.14 90.1856C1059.66 90.1856 1058.32 89.8356 1057.12 89.1356C1055.94 88.4356 1055.01 87.4456 1054.33 86.1656C1053.67 84.8856 1053.34 83.4056 1053.34 81.7256ZM1067.65 81.7556C1067.65 80.4356 1067.38 79.2756 1066.84 78.2756C1066.3 77.2756 1065.56 76.5056 1064.62 75.9656C1063.7 75.4256 1062.68 75.1556 1061.56 75.1556C1060.4 75.1556 1059.36 75.4156 1058.44 75.9356C1057.52 76.4556 1056.79 77.2156 1056.25 78.2156C1055.73 79.1956 1055.47 80.3656 1055.47 81.7256C1055.47 83.0656 1055.73 84.2456 1056.25 85.2656C1056.79 86.2656 1057.52 87.0356 1058.44 87.5756C1059.36 88.0956 1060.4 88.3556 1061.56 88.3556C1062.68 88.3556 1063.7 88.0856 1064.62 87.5456C1065.56 87.0056 1066.3 86.2356 1066.84 85.2356C1067.38 84.2356 1067.65 83.0756 1067.65 81.7556ZM1076.65 76.4756C1077.11 75.4556 1077.81 74.6656 1078.75 74.1056C1079.71 73.5456 1080.88 73.2656 1082.26 73.2656V75.4556H1081.69C1080.17 75.4556 1078.95 75.8656 1078.03 76.6856C1077.11 77.5056 1076.65 78.8756 1076.65 80.7956V89.9456H1074.55V73.5656H1076.65V76.4756ZM1086.47 70.4756C1086.05 70.4756 1085.69 70.3256 1085.39 70.0256C1085.09 69.7256 1084.94 69.3556 1084.94 68.9156C1084.94 68.4756 1085.09 68.1156 1085.39 67.8356C1085.69 67.5356 1086.05 67.3856 1086.47 67.3856C1086.89 67.3856 1087.25 67.5356 1087.55 67.8356C1087.85 68.1156 1088 68.4756 1088 68.9156C1088 69.3556 1087.85 69.7256 1087.55 70.0256C1087.25 70.3256 1086.89 70.4756 1086.47 70.4756ZM1087.52 73.5656V89.9456H1085.42V73.5656H1087.52ZM1099.44 90.1856C1097.9 90.1856 1096.51 89.8456 1095.27 89.1656C1094.05 88.4656 1093.08 87.4856 1092.36 86.2256C1091.66 84.9456 1091.31 83.4556 1091.31 81.7556C1091.31 80.0556 1091.67 78.5756 1092.39 77.3156C1093.11 76.0356 1094.09 75.0556 1095.33 74.3756C1096.57 73.6756 1097.96 73.3256 1099.5 73.3256C1101.04 73.3256 1102.43 73.6756 1103.67 74.3756C1104.93 75.0556 1105.91 76.0356 1106.61 77.3156C1107.33 78.5756 1107.69 80.0556 1107.69 81.7556C1107.69 83.4356 1107.33 84.9156 1106.61 86.1956C1105.89 87.4756 1104.9 88.4656 1103.64 89.1656C1102.38 89.8456 1100.98 90.1856 1099.44 90.1856ZM1099.44 88.3556C1100.52 88.3556 1101.52 88.1156 1102.44 87.6356C1103.36 87.1356 1104.1 86.3956 1104.66 85.4156C1105.24 84.4156 1105.53 83.1956 1105.53 81.7556C1105.53 80.3156 1105.25 79.1056 1104.69 78.1256C1104.13 77.1256 1103.39 76.3856 1102.47 75.9056C1101.55 75.4056 1100.55 75.1556 1099.47 75.1556C1098.39 75.1556 1097.39 75.4056 1096.47 75.9056C1095.55 76.3856 1094.81 77.1256 1094.25 78.1256C1093.71 79.1056 1093.44 80.3156 1093.44 81.7556C1093.44 83.1956 1093.71 84.4156 1094.25 85.4156C1094.81 86.3956 1095.54 87.1356 1096.44 87.6356C1097.36 88.1156 1098.36 88.3556 1099.44 88.3556ZM1117.16 90.1856C1115.28 90.1856 1113.74 89.7556 1112.54 88.8956C1111.36 88.0156 1110.7 86.8256 1110.56 85.3256H1112.72C1112.82 86.2456 1113.25 86.9956 1114.01 87.5756C1114.79 88.1356 1115.83 88.4156 1117.13 88.4156C1118.27 88.4156 1119.16 88.1456 1119.8 87.6056C1120.46 87.0656 1120.79 86.3956 1120.79 85.5956C1120.79 85.0356 1120.61 84.5756 1120.25 84.2156C1119.89 83.8556 1119.43 83.5756 1118.87 83.3756C1118.33 83.1556 1117.59 82.9256 1116.65 82.6856C1115.43 82.3656 1114.44 82.0456 1113.68 81.7256C1112.92 81.4056 1112.27 80.9356 1111.73 80.3156C1111.21 79.6756 1110.95 78.8256 1110.95 77.7656C1110.95 76.9656 1111.19 76.2256 1111.67 75.5456C1112.15 74.8656 1112.83 74.3256 1113.71 73.9256C1114.59 73.5256 1115.59 73.3256 1116.71 73.3256C1118.47 73.3256 1119.89 73.7756 1120.97 74.6756C1122.05 75.5556 1122.63 76.7756 1122.71 78.3356H1120.61C1120.55 77.3756 1120.17 76.6056 1119.47 76.0256C1118.79 75.4256 1117.85 75.1256 1116.65 75.1256C1115.59 75.1256 1114.73 75.3756 1114.07 75.8756C1113.41 76.3756 1113.08 76.9956 1113.08 77.7356C1113.08 78.3756 1113.27 78.9056 1113.65 79.3256C1114.05 79.7256 1114.54 80.0456 1115.12 80.2856C1115.7 80.5056 1116.48 80.7556 1117.46 81.0356C1118.64 81.3556 1119.58 81.6656 1120.28 81.9656C1120.98 82.2656 1121.58 82.7056 1122.08 83.2856C1122.58 83.8656 1122.84 84.6356 1122.86 85.5956C1122.86 86.4756 1122.62 87.2656 1122.14 87.9656C1121.66 88.6456 1120.99 89.1856 1120.13 89.5856C1119.27 89.9856 1118.28 90.1856 1117.16 90.1856ZM53.59 118.566V134.946H51.49V132.066C51.01 133.086 50.27 133.866 49.27 134.406C48.27 134.946 47.15 135.216 45.91 135.216C43.95 135.216 42.35 134.616 41.11 133.416C39.87 132.196 39.25 130.436 39.25 128.136V118.566H41.32V127.896C41.32 129.676 41.76 131.036 42.64 131.976C43.54 132.916 44.76 133.386 46.3 133.386C47.88 133.386 49.14 132.886 50.08 131.886C51.02 130.886 51.49 129.416 51.49 127.476V118.566H53.59ZM64.0244 135.186C62.1444 135.186 60.6044 134.756 59.4044 133.896C58.2244 133.016 57.5644 131.826 57.4244 130.326H59.5844C59.6844 131.246 60.1144 131.996 60.8744 132.576C61.6544 133.136 62.6944 133.416 63.9944 133.416C65.1344 133.416 66.0244 133.146 66.6644 132.606C67.3244 132.066 67.6544 131.396 67.6544 130.596C67.6544 130.036 67.4744 129.576 67.1144 129.216C66.7544 128.856 66.2944 128.576 65.7344 128.376C65.1944 128.156 64.4544 127.926 63.5144 127.686C62.2944 127.366 61.3044 127.046 60.5444 126.726C59.7844 126.406 59.1344 125.936 58.5944 125.316C58.0744 124.676 57.8144 123.826 57.8144 122.766C57.8144 121.966 58.0544 121.226 58.5344 120.546C59.0144 119.866 59.6944 119.326 60.5744 118.926C61.4544 118.526 62.4544 118.326 63.5744 118.326C65.3344 118.326 66.7544 118.776 67.8344 119.676C68.9144 120.556 69.4944 121.776 69.5744 123.336H67.4744C67.4144 122.376 67.0344 121.606 66.3344 121.026C65.6544 120.426 64.7144 120.126 63.5144 120.126C62.4544 120.126 61.5944 120.376 60.9344 120.876C60.2744 121.376 59.9444 121.996 59.9444 122.736C59.9444 123.376 60.1344 123.906 60.5144 124.326C60.9144 124.726 61.4044 125.046 61.9844 125.286C62.5644 125.506 63.3444 125.756 64.3244 126.036C65.5044 126.356 66.4444 126.666 67.1444 126.966C67.8444 127.266 68.4444 127.706 68.9444 128.286C69.4444 128.866 69.7044 129.636 69.7244 130.596C69.7244 131.476 69.4844 132.266 69.0044 132.966C68.5244 133.646 67.8544 134.186 66.9944 134.586C66.1344 134.986 65.1444 135.186 64.0244 135.186ZM74.7273 115.476C74.3073 115.476 73.9473 115.326 73.6473 115.026C73.3473 114.726 73.1973 114.356 73.1973 113.916C73.1973 113.476 73.3473 113.116 73.6473 112.836C73.9473 112.536 74.3073 112.386 74.7273 112.386C75.1473 112.386 75.5073 112.536 75.8073 112.836C76.1073 113.116 76.2573 113.476 76.2573 113.916C76.2573 114.356 76.1073 114.726 75.8073 115.026C75.5073 115.326 75.1473 115.476 74.7273 115.476ZM75.7773 118.566V134.946H73.6773V118.566H75.7773ZM88.2128 118.266C90.1728 118.266 91.7728 118.876 93.0128 120.096C94.2528 121.296 94.8728 123.046 94.8728 125.346V134.946H92.8028V125.586C92.8028 123.806 92.3528 122.446 91.4528 121.506C90.5728 120.566 89.3628 120.096 87.8228 120.096C86.2428 120.096 84.9828 120.596 84.0428 121.596C83.1028 122.596 82.6328 124.066 82.6328 126.006V134.946H80.5328V118.566H82.6328V121.356C83.1528 120.356 83.9028 119.596 84.8828 119.076C85.8628 118.536 86.9728 118.266 88.2128 118.266ZM106.387 118.326C107.927 118.326 109.267 118.686 110.407 119.406C111.547 120.126 112.367 121.036 112.867 122.136V118.566H114.967V135.366C114.967 136.866 114.637 138.196 113.977 139.356C113.337 140.516 112.437 141.406 111.277 142.026C110.117 142.666 108.797 142.986 107.317 142.986C105.217 142.986 103.467 142.486 102.067 141.486C100.687 140.486 99.8272 139.126 99.4872 137.406H101.557C101.917 138.546 102.597 139.456 103.597 140.136C104.617 140.816 105.857 141.156 107.317 141.156C108.377 141.156 109.327 140.926 110.167 140.466C111.007 140.026 111.667 139.366 112.147 138.486C112.627 137.606 112.867 136.566 112.867 135.366V131.316C112.347 132.436 111.517 133.366 110.377 134.106C109.257 134.826 107.927 135.186 106.387 135.186C104.887 135.186 103.537 134.836 102.337 134.136C101.157 133.436 100.227 132.446 99.5472 131.166C98.8872 129.886 98.5572 128.406 98.5572 126.726C98.5572 125.046 98.8872 123.576 99.5472 122.316C100.227 121.036 101.157 120.056 102.337 119.376C103.537 118.676 104.887 118.326 106.387 118.326ZM112.867 126.756C112.867 125.436 112.597 124.276 112.057 123.276C111.517 122.276 110.777 121.506 109.837 120.966C108.917 120.426 107.897 120.156 106.777 120.156C105.617 120.156 104.577 120.416 103.657 120.936C102.737 121.456 102.007 122.216 101.467 123.216C100.947 124.196 100.687 125.366 100.687 126.726C100.687 128.066 100.947 129.246 101.467 130.266C102.007 131.266 102.737 132.036 103.657 132.576C104.577 133.096 105.617 133.356 106.777 133.356C107.897 133.356 108.917 133.086 109.837 132.546C110.777 132.006 111.517 131.236 112.057 130.236C112.597 129.236 112.867 128.076 112.867 126.756ZM127.034 126.756C127.034 125.056 127.374 123.576 128.054 122.316C128.734 121.036 129.674 120.056 130.874 119.376C132.074 118.676 133.444 118.326 134.984 118.326C137.004 118.326 138.664 118.826 139.964 119.826C141.284 120.826 142.134 122.186 142.514 123.906H140.264C139.984 122.726 139.374 121.806 138.434 121.146C137.514 120.466 136.364 120.126 134.984 120.126C133.884 120.126 132.894 120.376 132.014 120.876C131.134 121.376 130.434 122.126 129.914 123.126C129.414 124.106 129.164 125.316 129.164 126.756C129.164 128.196 129.414 129.416 129.914 130.416C130.434 131.416 131.134 132.166 132.014 132.666C132.894 133.166 133.884 133.416 134.984 133.416C136.364 133.416 137.514 133.086 138.434 132.426C139.374 131.746 139.984 130.806 140.264 129.606H142.514C142.134 131.286 141.284 132.636 139.964 133.656C138.644 134.676 136.984 135.186 134.984 135.186C133.444 135.186 132.074 134.846 130.874 134.166C129.674 133.466 128.734 132.486 128.054 131.226C127.374 129.946 127.034 128.456 127.034 126.756ZM148.492 121.476C148.952 120.456 149.652 119.666 150.592 119.106C151.552 118.546 152.722 118.266 154.102 118.266V120.456H153.532C152.012 120.456 150.792 120.866 149.872 121.686C148.952 122.506 148.492 123.876 148.492 125.796V134.946H146.392V118.566H148.492V121.476ZM172.081 125.916C172.081 126.636 172.061 127.186 172.021 127.566H158.431C158.491 128.806 158.791 129.866 159.331 130.746C159.871 131.626 160.581 132.296 161.461 132.756C162.341 133.196 163.301 133.416 164.341 133.416C165.701 133.416 166.841 133.086 167.761 132.426C168.701 131.766 169.321 130.876 169.621 129.756H171.841C171.441 131.356 170.581 132.666 169.261 133.686C167.961 134.686 166.321 135.186 164.341 135.186C162.801 135.186 161.421 134.846 160.201 134.166C158.981 133.466 158.021 132.486 157.321 131.226C156.641 129.946 156.301 128.456 156.301 126.756C156.301 125.056 156.641 123.566 157.321 122.286C158.001 121.006 158.951 120.026 160.171 119.346C161.391 118.666 162.781 118.326 164.341 118.326C165.901 118.326 167.261 118.666 168.421 119.346C169.601 120.026 170.501 120.946 171.121 122.106C171.761 123.246 172.081 124.516 172.081 125.916ZM169.951 125.856C169.971 124.636 169.721 123.596 169.201 122.736C168.701 121.876 168.011 121.226 167.131 120.786C166.251 120.346 165.291 120.126 164.251 120.126C162.691 120.126 161.361 120.626 160.261 121.626C159.161 122.626 158.551 124.036 158.431 125.856H169.951ZM174.963 126.726C174.963 125.046 175.293 123.576 175.953 122.316C176.633 121.036 177.563 120.056 178.743 119.376C179.943 118.676 181.293 118.326 182.793 118.326C184.353 118.326 185.693 118.686 186.813 119.406C187.953 120.126 188.773 121.046 189.273 122.166V118.566H191.373V134.946H189.273V131.316C188.753 132.436 187.923 133.366 186.783 134.106C185.663 134.826 184.323 135.186 182.763 135.186C181.283 135.186 179.943 134.836 178.743 134.136C177.563 133.436 176.633 132.446 175.953 131.166C175.293 129.886 174.963 128.406 174.963 126.726ZM189.273 126.756C189.273 125.436 189.003 124.276 188.463 123.276C187.923 122.276 187.183 121.506 186.243 120.966C185.323 120.426 184.303 120.156 183.183 120.156C182.023 120.156 180.983 120.416 180.063 120.936C179.143 121.456 178.413 122.216 177.873 123.216C177.353 124.196 177.093 125.366 177.093 126.726C177.093 128.066 177.353 129.246 177.873 130.266C178.413 131.266 179.143 132.036 180.063 132.576C180.983 133.096 182.023 133.356 183.183 133.356C184.303 133.356 185.323 133.086 186.243 132.546C187.183 132.006 187.923 131.236 188.463 130.236C189.003 129.236 189.273 128.076 189.273 126.756ZM198.898 120.336V130.506C198.898 131.506 199.088 132.196 199.468 132.576C199.848 132.956 200.518 133.146 201.478 133.146H203.398V134.946H201.148C199.668 134.946 198.568 134.606 197.848 133.926C197.128 133.226 196.768 132.086 196.768 130.506V120.336H194.488V118.566H196.768V114.456H198.898V118.566H203.398V120.336H198.898ZM207.911 115.476C207.491 115.476 207.131 115.326 206.831 115.026C206.531 114.726 206.381 114.356 206.381 113.916C206.381 113.476 206.531 113.116 206.831 112.836C207.131 112.536 207.491 112.386 207.911 112.386C208.331 112.386 208.691 112.536 208.991 112.836C209.291 113.116 209.441 113.476 209.441 113.916C209.441 114.356 209.291 114.726 208.991 115.026C208.691 115.326 208.331 115.476 207.911 115.476ZM208.961 118.566V134.946H206.861V118.566H208.961ZM219.536 132.906L225.056 118.566H227.276L220.706 134.946H218.336L211.766 118.566H214.016L219.536 132.906ZM231.173 115.476C230.753 115.476 230.393 115.326 230.093 115.026C229.793 114.726 229.643 114.356 229.643 113.916C229.643 113.476 229.793 113.116 230.093 112.836C230.393 112.536 230.753 112.386 231.173 112.386C231.593 112.386 231.953 112.536 232.253 112.836C232.553 113.116 232.703 113.476 232.703 113.916C232.703 114.356 232.553 114.726 232.253 115.026C231.953 115.326 231.593 115.476 231.173 115.476ZM232.223 118.566V134.946H230.123V118.566H232.223ZM239.708 120.336V130.506C239.708 131.506 239.898 132.196 240.278 132.576C240.658 132.956 241.328 133.146 242.288 133.146H244.208V134.946H241.958C240.478 134.946 239.378 134.606 238.658 133.926C237.938 133.226 237.578 132.086 237.578 130.506V120.336H235.298V118.566H237.578V114.456H239.708V118.566H244.208V120.336H239.708ZM261.171 118.566L251.451 142.656H249.261L252.441 134.856L245.721 118.566H248.031L253.611 132.546L259.011 118.566H261.171ZM271.292 126.726C271.292 125.046 271.622 123.576 272.282 122.316C272.962 121.036 273.892 120.056 275.072 119.376C276.272 118.676 277.622 118.326 279.122 118.326C280.682 118.326 282.022 118.686 283.142 119.406C284.282 120.126 285.102 121.046 285.602 122.166V118.566H287.702V134.946H285.602V131.316C285.082 132.436 284.252 133.366 283.112 134.106C281.992 134.826 280.652 135.186 279.092 135.186C277.612 135.186 276.272 134.836 275.072 134.136C273.892 133.436 272.962 132.446 272.282 131.166C271.622 129.886 271.292 128.406 271.292 126.726ZM285.602 126.756C285.602 125.436 285.332 124.276 284.792 123.276C284.252 122.276 283.512 121.506 282.572 120.966C281.652 120.426 280.632 120.156 279.512 120.156C278.352 120.156 277.312 120.416 276.392 120.936C275.472 121.456 274.742 122.216 274.202 123.216C273.682 124.196 273.422 125.366 273.422 126.726C273.422 128.066 273.682 129.246 274.202 130.266C274.742 131.266 275.472 132.036 276.392 132.576C277.312 133.096 278.352 133.356 279.512 133.356C280.632 133.356 281.652 133.086 282.572 132.546C283.512 132.006 284.252 131.236 284.792 130.236C285.332 129.236 285.602 128.076 285.602 126.756ZM300.176 118.266C302.136 118.266 303.736 118.876 304.976 120.096C306.216 121.296 306.836 123.046 306.836 125.346V134.946H304.766V125.586C304.766 123.806 304.316 122.446 303.416 121.506C302.536 120.566 301.326 120.096 299.786 120.096C298.206 120.096 296.946 120.596 296.006 121.596C295.066 122.596 294.596 124.066 294.596 126.006V134.946H292.496V118.566H294.596V121.356C295.116 120.356 295.866 119.596 296.846 119.076C297.826 118.536 298.936 118.266 300.176 118.266ZM310.52 126.726C310.52 125.046 310.86 123.576 311.54 122.316C312.22 121.036 313.15 120.056 314.33 119.376C315.53 118.676 316.88 118.326 318.38 118.326C319.82 118.326 321.12 118.676 322.28 119.376C323.44 120.076 324.29 120.986 324.83 122.106V112.746H326.93V134.946H324.83V131.286C324.33 132.426 323.51 133.366 322.37 134.106C321.23 134.826 319.89 135.186 318.35 135.186C316.85 135.186 315.5 134.836 314.3 134.136C313.12 133.436 312.19 132.446 311.51 131.166C310.85 129.886 310.52 128.406 310.52 126.726ZM324.83 126.756C324.83 125.436 324.56 124.276 324.02 123.276C323.48 122.276 322.74 121.506 321.8 120.966C320.88 120.426 319.86 120.156 318.74 120.156C317.58 120.156 316.54 120.416 315.62 120.936C314.7 121.456 313.97 122.216 313.43 123.216C312.91 124.196 312.65 125.366 312.65 126.726C312.65 128.066 312.91 129.246 313.43 130.266C313.97 131.266 314.7 132.036 315.62 132.576C316.54 133.096 317.58 133.356 318.74 133.356C319.86 133.356 320.88 133.086 321.8 132.546C322.74 132.006 323.48 131.236 324.02 130.236C324.56 129.236 324.83 128.076 324.83 126.756ZM354.777 125.916C354.777 126.636 354.757 127.186 354.717 127.566H341.127C341.187 128.806 341.487 129.866 342.027 130.746C342.567 131.626 343.277 132.296 344.157 132.756C345.037 133.196 345.997 133.416 347.037 133.416C348.397 133.416 349.537 133.086 350.457 132.426C351.397 131.766 352.017 130.876 352.317 129.756H354.537C354.137 131.356 353.277 132.666 351.957 133.686C350.657 134.686 349.017 135.186 347.037 135.186C345.497 135.186 344.117 134.846 342.897 134.166C341.677 133.466 340.717 132.486 340.017 131.226C339.337 129.946 338.997 128.456 338.997 126.756C338.997 125.056 339.337 123.566 340.017 122.286C340.697 121.006 341.647 120.026 342.867 119.346C344.087 118.666 345.477 118.326 347.037 118.326C348.597 118.326 349.957 118.666 351.117 119.346C352.297 120.026 353.197 120.946 353.817 122.106C354.457 123.246 354.777 124.516 354.777 125.916ZM352.647 125.856C352.667 124.636 352.417 123.596 351.897 122.736C351.397 121.876 350.707 121.226 349.827 120.786C348.947 120.346 347.987 120.126 346.947 120.126C345.387 120.126 344.057 120.626 342.957 121.626C341.857 122.626 341.247 124.036 341.127 125.856H352.647ZM366.299 118.266C368.259 118.266 369.859 118.876 371.099 120.096C372.339 121.296 372.959 123.046 372.959 125.346V134.946H370.889V125.586C370.889 123.806 370.439 122.446 369.539 121.506C368.659 120.566 367.449 120.096 365.909 120.096C364.329 120.096 363.069 120.596 362.129 121.596C361.189 122.596 360.719 124.066 360.719 126.006V134.946H358.619V118.566H360.719V121.356C361.239 120.356 361.989 119.596 362.969 119.076C363.949 118.536 365.059 118.266 366.299 118.266ZM384.473 118.326C386.013 118.326 387.353 118.686 388.493 119.406C389.633 120.126 390.453 121.036 390.953 122.136V118.566H393.053V135.366C393.053 136.866 392.723 138.196 392.063 139.356C391.423 140.516 390.523 141.406 389.363 142.026C388.203 142.666 386.883 142.986 385.403 142.986C383.303 142.986 381.553 142.486 380.153 141.486C378.773 140.486 377.913 139.126 377.573 137.406H379.643C380.003 138.546 380.683 139.456 381.683 140.136C382.703 140.816 383.943 141.156 385.403 141.156C386.463 141.156 387.413 140.926 388.253 140.466C389.093 140.026 389.753 139.366 390.233 138.486C390.713 137.606 390.953 136.566 390.953 135.366V131.316C390.433 132.436 389.603 133.366 388.463 134.106C387.343 134.826 386.013 135.186 384.473 135.186C382.973 135.186 381.623 134.836 380.423 134.136C379.243 133.436 378.313 132.446 377.633 131.166C376.973 129.886 376.643 128.406 376.643 126.726C376.643 125.046 376.973 123.576 377.633 122.316C378.313 121.036 379.243 120.056 380.423 119.376C381.623 118.676 382.973 118.326 384.473 118.326ZM390.953 126.756C390.953 125.436 390.683 124.276 390.143 123.276C389.603 122.276 388.863 121.506 387.923 120.966C387.003 120.426 385.983 120.156 384.863 120.156C383.703 120.156 382.663 120.416 381.743 120.936C380.823 121.456 380.093 122.216 379.553 123.216C379.033 124.196 378.773 125.366 378.773 126.726C378.773 128.066 379.033 129.246 379.553 130.266C380.093 131.266 380.823 132.036 381.743 132.576C382.663 133.096 383.703 133.356 384.863 133.356C385.983 133.356 387.003 133.086 387.923 132.546C388.863 132.006 389.603 131.236 390.143 130.236C390.683 129.236 390.953 128.076 390.953 126.756ZM398.897 115.476C398.477 115.476 398.117 115.326 397.817 115.026C397.517 114.726 397.367 114.356 397.367 113.916C397.367 113.476 397.517 113.116 397.817 112.836C398.117 112.536 398.477 112.386 398.897 112.386C399.317 112.386 399.677 112.536 399.977 112.836C400.277 113.116 400.427 113.476 400.427 113.916C400.427 114.356 400.277 114.726 399.977 115.026C399.677 115.326 399.317 115.476 398.897 115.476ZM399.947 118.566V134.946H397.847V118.566H399.947ZM412.383 118.266C414.343 118.266 415.943 118.876 417.183 120.096C418.423 121.296 419.043 123.046 419.043 125.346V134.946H416.973V125.586C416.973 123.806 416.523 122.446 415.623 121.506C414.743 120.566 413.533 120.096 411.993 120.096C410.413 120.096 409.153 120.596 408.213 121.596C407.273 122.596 406.803 124.066 406.803 126.006V134.946H404.703V118.566H406.803V121.356C407.323 120.356 408.073 119.596 409.053 119.076C410.033 118.536 411.143 118.266 412.383 118.266ZM438.507 125.916C438.507 126.636 438.487 127.186 438.447 127.566H424.857C424.917 128.806 425.217 129.866 425.757 130.746C426.297 131.626 427.007 132.296 427.887 132.756C428.767 133.196 429.727 133.416 430.767 133.416C432.127 133.416 433.267 133.086 434.187 132.426C435.127 131.766 435.747 130.876 436.047 129.756H438.267C437.867 131.356 437.007 132.666 435.687 133.686C434.387 134.686 432.747 135.186 430.767 135.186C429.227 135.186 427.847 134.846 426.627 134.166C425.407 133.466 424.447 132.486 423.747 131.226C423.067 129.946 422.727 128.456 422.727 126.756C422.727 125.056 423.067 123.566 423.747 122.286C424.427 121.006 425.377 120.026 426.597 119.346C427.817 118.666 429.207 118.326 430.767 118.326C432.327 118.326 433.687 118.666 434.847 119.346C436.027 120.026 436.927 120.946 437.547 122.106C438.187 123.246 438.507 124.516 438.507 125.916ZM436.377 125.856C436.397 124.636 436.147 123.596 435.627 122.736C435.127 121.876 434.437 121.226 433.557 120.786C432.677 120.346 431.717 120.126 430.677 120.126C429.117 120.126 427.787 120.626 426.687 121.626C425.587 122.626 424.977 124.036 424.857 125.856H436.377ZM457.169 125.916C457.169 126.636 457.149 127.186 457.109 127.566H443.519C443.579 128.806 443.879 129.866 444.419 130.746C444.959 131.626 445.669 132.296 446.549 132.756C447.429 133.196 448.389 133.416 449.429 133.416C450.789 133.416 451.929 133.086 452.849 132.426C453.789 131.766 454.409 130.876 454.709 129.756H456.929C456.529 131.356 455.669 132.666 454.349 133.686C453.049 134.686 451.409 135.186 449.429 135.186C447.889 135.186 446.509 134.846 445.289 134.166C444.069 133.466 443.109 132.486 442.409 131.226C441.729 129.946 441.389 128.456 441.389 126.756C441.389 125.056 441.729 123.566 442.409 122.286C443.089 121.006 444.039 120.026 445.259 119.346C446.479 118.666 447.869 118.326 449.429 118.326C450.989 118.326 452.349 118.666 453.509 119.346C454.689 120.026 455.589 120.946 456.209 122.106C456.849 123.246 457.169 124.516 457.169 125.916ZM455.039 125.856C455.059 124.636 454.809 123.596 454.289 122.736C453.789 121.876 453.099 121.226 452.219 120.786C451.339 120.346 450.379 120.126 449.339 120.126C447.779 120.126 446.449 120.626 445.349 121.626C444.249 122.626 443.639 124.036 443.519 125.856H455.039ZM463.111 121.476C463.571 120.456 464.271 119.666 465.211 119.106C466.171 118.546 467.341 118.266 468.721 118.266V120.456H468.151C466.631 120.456 465.411 120.866 464.491 121.686C463.571 122.506 463.111 123.876 463.111 125.796V134.946H461.011V118.566H463.111V121.476ZM472.93 115.476C472.51 115.476 472.15 115.326 471.85 115.026C471.55 114.726 471.4 114.356 471.4 113.916C471.4 113.476 471.55 113.116 471.85 112.836C472.15 112.536 472.51 112.386 472.93 112.386C473.35 112.386 473.71 112.536 474.01 112.836C474.31 113.116 474.46 113.476 474.46 113.916C474.46 114.356 474.31 114.726 474.01 115.026C473.71 115.326 473.35 115.476 472.93 115.476ZM473.98 118.566V134.946H471.88V118.566H473.98ZM486.416 118.266C488.376 118.266 489.976 118.876 491.216 120.096C492.456 121.296 493.076 123.046 493.076 125.346V134.946H491.006V125.586C491.006 123.806 490.556 122.446 489.656 121.506C488.776 120.566 487.566 120.096 486.026 120.096C484.446 120.096 483.186 120.596 482.246 121.596C481.306 122.596 480.836 124.066 480.836 126.006V134.946H478.736V118.566H480.836V121.356C481.356 120.356 482.106 119.596 483.086 119.076C484.066 118.536 485.176 118.266 486.416 118.266ZM504.59 118.326C506.13 118.326 507.47 118.686 508.61 119.406C509.75 120.126 510.57 121.036 511.07 122.136V118.566H513.17V135.366C513.17 136.866 512.84 138.196 512.18 139.356C511.54 140.516 510.64 141.406 509.48 142.026C508.32 142.666 507 142.986 505.52 142.986C503.42 142.986 501.67 142.486 500.27 141.486C498.89 140.486 498.03 139.126 497.69 137.406H499.76C500.12 138.546 500.8 139.456 501.8 140.136C502.82 140.816 504.06 141.156 505.52 141.156C506.58 141.156 507.53 140.926 508.37 140.466C509.21 140.026 509.87 139.366 510.35 138.486C510.83 137.606 511.07 136.566 511.07 135.366V131.316C510.55 132.436 509.72 133.366 508.58 134.106C507.46 134.826 506.13 135.186 504.59 135.186C503.09 135.186 501.74 134.836 500.54 134.136C499.36 133.436 498.43 132.446 497.75 131.166C497.09 129.886 496.76 128.406 496.76 126.726C496.76 125.046 497.09 123.576 497.75 122.316C498.43 121.036 499.36 120.056 500.54 119.376C501.74 118.676 503.09 118.326 504.59 118.326ZM511.07 126.756C511.07 125.436 510.8 124.276 510.26 123.276C509.72 122.276 508.98 121.506 508.04 120.966C507.12 120.426 506.1 120.156 504.98 120.156C503.82 120.156 502.78 120.416 501.86 120.936C500.94 121.456 500.21 122.216 499.67 123.216C499.15 124.196 498.89 125.366 498.89 126.726C498.89 128.066 499.15 129.246 499.67 130.266C500.21 131.266 500.94 132.036 501.86 132.576C502.78 133.096 503.82 133.356 504.98 133.356C506.1 133.356 507.12 133.086 508.04 132.546C508.98 132.006 509.72 131.236 510.26 130.236C510.8 129.236 511.07 128.076 511.07 126.756ZM518.324 135.096C517.884 135.096 517.514 134.946 517.214 134.646C516.934 134.346 516.794 133.976 516.794 133.536C516.794 133.096 516.934 132.736 517.214 132.456C517.514 132.156 517.884 132.006 518.324 132.006C518.744 132.006 519.094 132.156 519.374 132.456C519.674 132.736 519.824 133.096 519.824 133.536C519.824 133.976 519.674 134.346 519.374 134.646C519.094 134.946 518.744 135.096 518.324 135.096Z" fill="black"/>
</svg>
