<svg width="29" height="29" viewBox="0 0 29 29" fill="none" xmlns="http://www.w3.org/2000/svg">
<path d="M3.02078 20.5422C2.17667 16.5586 2.17667 12.4424 3.02078 8.45882C3.13169 8.05428 3.34599 7.68558 3.6426 7.38897C3.9392 7.09236 4.30791 6.87807 4.71245 6.76715C11.1933 5.6935 17.8066 5.6935 24.2874 6.76715C24.692 6.87807 25.0607 7.09236 25.3573 7.38897C25.6539 7.68558 25.8682 8.05428 25.9791 8.45882C26.8232 12.4424 26.8232 16.5586 25.9791 20.5422C25.8682 20.9467 25.6539 21.3154 25.3573 21.612C25.0607 21.9086 24.692 22.1229 24.2874 22.2338C17.8066 23.3077 11.1933 23.3077 4.71245 22.2338C4.30791 22.1229 3.9392 21.9086 3.6426 21.612C3.34599 21.3154 3.13169 20.9467 3.02078 20.5422Z" stroke="white" stroke-width="2" stroke-linecap="round" stroke-linejoin="round"/>
<path d="M12.0833 18.1255L18.1249 14.5005L12.0833 10.8755V18.1255Z" stroke="white" stroke-width="2" stroke-linecap="round" stroke-linejoin="round"/>
</svg>
